<!-- <?xml version="1.0" encoding="utf-8"?> -->
<!-- Generator: Adobe Illustrator 27.5.0, SVG Export Plug-In . SVG Version: 6.00 Build 0)  -->
<svg version="1.1" id="Layer_1" xmlns="http://www.w3.org/2000/svg" xmlns:xlink="http://www.w3.org/1999/xlink" x="0px" y="0px"
	 viewBox="0 0 176.54 259.216" style="enable-background:new 0 0 176.54 259.216;" xml:space="preserve">
<g>
	<g>
		<g>
			<g>
				<path style="fill:#5EAEE0;" d="M160.296,69.681c7.711-8.464,6.069-12.262,6.069-12.262l0.338,0.038
					c-2.488-4.581-5.428-6.955-8.198-7.358c-7.249-1.064-78.298-3.933-92.877-4.433c-14.579-0.5-51.888,16.112-51.888,16.112
					C0.435,72.707,14.579,82.14,14.579,82.14s65.601,2.251,112.983,3.875c1.626,0.057,3.183,0.099,4.694,0.142
					C141.289,85.239,152.613,78.112,160.296,69.681z"/>
				<path style="fill:#0076BE;" d="M132.281,86.811l-0.467-0.013c-1.38-0.039-2.799-0.079-4.274-0.13L14.371,82.786l-0.154-0.103
					c-0.266-0.177-6.511-4.411-6.821-10.66c-0.186-3.748,1.809-7.365,5.93-10.75l0.149-0.092
					c1.507-0.671,37.589-16.673,52.176-16.168c13.818,0.474,85.56,3.354,92.949,4.439c3.15,0.459,6.232,3.191,8.678,7.693
					l0.598,1.102l-0.727-0.082c0.084,1.708-0.591,5.612-6.37,11.956c-8.285,9.093-19.721,15.799-28.455,16.686L132.281,86.811z
					 M14.795,81.494l112.79,3.869c1.473,0.051,2.889,0.091,4.266,0.129l0.382,0.011c8.433-0.874,19.51-7.404,27.581-16.262
					c7.219-7.924,5.96-11.54,5.946-11.576l-0.381-1.001l0.122,0.012c-2.118-3.477-4.608-5.569-7.09-5.931
					c-7.342-1.078-79-3.953-92.806-4.427c-13.942-0.498-49.568,15.159-51.519,16.02c-3.738,3.091-5.551,6.328-5.387,9.62
					C8.954,77.06,13.877,80.833,14.795,81.494z"/>
			</g>
		</g>
		<g style="opacity:0.66;">
			<g>
				<path style="fill:#5EAEE0;" d="M166.703,57.457c-2.488-4.581-5.428-6.955-8.198-7.358c-1.314-0.193-4.746-0.448-9.543-0.734
					c13.014,1.247,11.996,2.452,6.741,8.312c-5.788,6.451-24.472,15.371-20.848,15.91c3.624,0.541,15.527-6.533,21.884-12.133
					c6.354-5.602,3.483,3.444-7.793,10.122c-11.273,6.682-17.957,6.453-17.957,6.453s-83.826-2.876-106.906-3.667
					C12.036,73.947,8.901,71.01,8.652,68.293c-2.961,7.908,5.927,13.847,5.927,13.847s65.601,2.251,112.983,3.875
					c1.626,0.057,3.183,0.099,4.694,0.142c9.032-0.917,20.357-8.044,28.039-16.476c7.711-8.464,6.069-12.262,6.069-12.262
					L166.703,57.457z"/>
			</g>
		</g>
	</g>
	<g style="opacity:0.67;">
		<g>
			<path style="fill:#5EAEE0;" d="M138.143,68.505c5.629-2.416,20.448-15.807,22.523-17.697c-0.724-0.366-1.448-0.607-2.161-0.709
				c-7.249-1.064-78.298-3.933-92.877-4.433c-14.579-0.5-51.888,16.112-51.888,16.112c-1.614,1.324-2.813,2.626-3.695,3.892
				l110.257,3.782C120.302,69.451,132.087,71.103,138.143,68.505z"/>
		</g>
	</g>
	<g>
		<g>
			<g>
				<g>
					<path style="fill:#FBAD1D;" d="M161.2,51.007c7.711-8.464,6.069-12.262,6.069-12.262l0.338,0.04
						c-2.49-4.582-5.429-6.954-8.198-7.359c-7.249-1.064-78.298-3.933-92.877-4.433s-51.89,16.112-51.89,16.112
						c-13.306,10.929,0.84,20.363,0.84,20.363s65.603,2.25,112.983,3.875c1.626,0.055,3.182,0.099,4.695,0.141
						C142.193,66.565,153.516,59.439,161.2,51.007z"/>
					<path style="fill:#B56F29;" d="M133.185,68.137l-0.043-0.001c-1.515-0.042-3.071-0.086-4.699-0.141L15.274,64.113L15.12,64.01
						c-0.266-0.177-6.512-4.412-6.822-10.661c-0.187-3.748,1.809-7.365,5.93-10.751l0.149-0.092
						c1.507-0.67,37.582-16.663,52.178-16.168c13.818,0.474,85.56,3.354,92.949,4.439c3.149,0.46,6.231,3.193,8.678,7.693
						l0.602,1.107l-0.729-0.085c0.082,1.709-0.596,5.613-6.371,11.953c-8.287,9.093-19.723,15.799-28.455,16.686L133.185,68.137z
						 M15.699,62.821l112.789,3.869c1.609,0.055,3.149,0.098,4.648,0.139c8.431-0.874,19.508-7.404,27.581-16.262
						c7.219-7.924,5.96-11.541,5.946-11.576l-0.383-1.006l0.12,0.013c-2.118-3.473-4.605-5.563-7.087-5.925
						c-7.342-1.078-78.999-3.953-92.805-4.427c-13.944-0.479-49.57,15.158-51.521,16.02c-3.736,3.089-5.548,6.323-5.387,9.613
						C9.851,58.371,14.78,62.158,15.699,62.821z"/>
				</g>
			</g>
			<g style="opacity:0.66;">
				<g>
					<path style="fill:#F6891F;" d="M167.607,38.784c-2.49-4.582-5.429-6.954-8.198-7.359c-1.314-0.193-4.748-0.448-9.543-0.734
						c13.014,1.247,11.997,2.452,6.742,8.312c-5.789,6.451-24.474,15.371-20.848,15.909c3.623,0.541,15.527-6.532,21.881-12.133
						c6.355-5.603,3.484,3.443-7.791,10.122c-11.274,6.681-17.956,6.452-17.956,6.452s-83.826-2.875-106.908-3.667
						c-12.045-0.413-15.18-3.351-15.43-6.067c-2.961,7.909,5.926,13.847,5.926,13.847s65.603,2.25,112.983,3.875
						c1.626,0.055,3.182,0.099,4.695,0.141c9.032-0.917,20.354-8.044,28.039-16.476c7.711-8.464,6.069-12.262,6.069-12.262
						L167.607,38.784z"/>
				</g>
			</g>
		</g>
		<g style="opacity:0.67;">
			<g>
				<path style="fill:#B56F29;" d="M139.048,49.831c5.629-2.416,20.448-15.807,22.521-17.696c-0.722-0.366-1.446-0.607-2.159-0.71
					c-7.249-1.064-78.298-3.933-92.877-4.433s-51.89,16.112-51.89,16.112c-1.614,1.323-2.812,2.626-3.693,3.892l110.257,3.782
					C121.206,50.778,132.988,52.429,139.048,49.831z"/>
			</g>
		</g>
		<g>
			<g>
				<g>
					<path style="fill:#8D54A2;" d="M161.819,31.908c7.711-8.465,6.068-12.261,6.068-12.261l0.339,0.04
						c-2.488-4.583-5.427-6.954-8.197-7.361c-7.25-1.061-78.298-3.933-92.878-4.433c-14.577-0.5-51.889,16.113-51.889,16.113
						c-13.307,10.931,0.84,20.361,0.84,20.361s65.604,2.25,112.984,3.875c1.625,0.056,3.182,0.102,4.693,0.141
						C142.814,47.466,154.137,40.339,161.819,31.908z"/>
					<path style="fill:#5B186A;" d="M133.805,49.038l-0.041-0.001c-1.514-0.04-3.072-0.085-4.699-0.141l-113.17-3.881l-0.154-0.103
						c-0.266-0.177-6.511-4.41-6.823-10.658c-0.187-3.748,1.809-7.365,5.931-10.751l0.15-0.092
						C16.504,22.738,52.578,6.727,67.174,7.24c13.808,0.473,85.519,3.351,92.95,4.439c3.152,0.463,6.234,3.197,8.677,7.696
						l0.602,1.108l-0.73-0.086c0.082,1.71-0.597,5.613-6.369,11.951c-8.286,9.093-19.722,15.798-28.456,16.686L133.805,49.038z
						 M16.319,43.721l112.79,3.868c1.608,0.055,3.149,0.101,4.646,0.14c8.433-0.874,19.511-7.404,27.582-16.261
						c7.218-7.924,5.959-11.54,5.945-11.575l-0.384-1.008l0.121,0.013c-2.114-3.472-4.601-5.562-7.085-5.926
						c-7.247-1.061-79.511-3.971-92.806-4.426c-0.208-0.007-0.423-0.011-0.641-0.011c-14.363,0-48.958,15.184-50.879,16.032
						c-3.736,3.09-5.549,6.324-5.388,9.614C10.472,39.273,15.4,43.059,16.319,43.721z"/>
				</g>
			</g>
			<g style="opacity:0.49;">
				<path style="fill:#ECDCEC;" d="M146.891,14.03c0,0-71.637-6.707-93.61-0.459C28.93,20.493-10.783,30.266,76.762,29.784
					C164.305,29.307,156.622,13.794,146.891,14.03z"/>
			</g>
			<g>
				<g>
					<path style="fill:#8D54A2;" d="M168.226,19.687c-2.488-4.583-5.427-6.954-8.197-7.361c-1.314-0.191-4.748-0.445-9.545-0.731
						c13.015,1.245,11.996,2.452,6.742,8.309c-5.786,6.453-24.471,15.371-20.847,15.912c3.622,0.538,15.527-6.536,21.883-12.135
						c6.355-5.6,3.483,3.444-7.793,10.125c-11.275,6.678-17.956,6.449-17.956,6.449s-83.827-2.875-106.909-3.667
						c-12.045-0.414-15.179-3.351-15.429-6.065c-2.961,7.909,5.927,13.845,5.927,13.845s65.604,2.25,112.984,3.875
						c1.625,0.056,3.182,0.102,4.693,0.141c9.034-0.917,20.356-8.044,28.039-16.476c7.711-8.465,6.068-12.261,6.068-12.261
						L168.226,19.687z"/>
				</g>
			</g>
		</g>
	</g>
</g>
<g>
	<g>
		<g>
			<g>
				<path style="fill:#CC57A0;" d="M25.041,235.847c-6.866-7.88-5.261-11.349-5.261-11.349l-0.311,0.03
					c2.407-4.177,5.168-6.319,7.725-6.655c6.69-0.884,72.059-2.595,85.47-2.865c13.41-0.27,47.265,15.484,47.265,15.484
					c11.944,10.217-1.3,18.702-1.3,18.702s-60.347,1.214-103.929,2.09c-1.497,0.03-2.929,0.05-4.32,0.069
					C42.104,250.393,31.882,243.695,25.041,235.847z"/>
				<path style="fill:#AB1D89;" d="M50.347,252.007l-0.042-0.005c-8.019-0.931-18.369-7.251-25.756-15.727
					c-5.12-5.876-5.704-9.425-5.584-11.042l-0.694,0.068l0.633-1.1c2.372-4.115,5.286-6.593,8.206-6.977
					c6.797-0.898,72.824-2.614,85.541-2.871l0.359-0.003c13.623,0,45.83,14.913,47.194,15.549l0.149,0.096
					c3.687,3.153,5.436,6.493,5.199,9.927c-0.401,5.805-6.319,9.66-6.571,9.821l-0.155,0.1l-0.185,0.004l-103.929,2.09
					c-1.414,0.028-2.771,0.048-4.091,0.066L50.347,252.007z M20.852,223.737l-0.479,1.035c-0.007,0.019-1.235,3.306,5.16,10.646
					c7.176,8.231,17.168,14.368,24.88,15.282l0.19-0.003c1.317-0.019,2.671-0.038,4.083-0.066l103.736-2.086
					c0.888-0.617,5.508-4.045,5.826-8.719c0.203-2.976-1.37-5.929-4.677-8.779c-1.841-0.85-33.552-15.39-46.563-15.39l-0.333,0.004
					c-12.705,0.256-78.647,1.968-85.396,2.859c-2.252,0.296-4.556,2.14-6.568,5.23L20.852,223.737z"/>
			</g>
		</g>
		<g style="opacity:0.66;">
			<g>
				<path style="fill:#AB1D89;" d="M19.47,224.528c2.407-4.177,5.168-6.319,7.725-6.655c1.214-0.161,4.378-0.351,8.792-0.55
					c-11.993,0.975-11.091,2.096-6.414,7.55c5.152,6.004,22.094,14.446,18.746,14.894c-3.344,0.449-14.101-6.206-19.794-11.436
					c-5.696-5.231-3.29,3.119,6.896,9.404c10.188,6.287,16.337,6.163,16.337,6.163s77.107-1.55,98.341-1.978
					c11.081-0.223,14.036-2.881,14.338-5.375c2.515,7.307-5.808,12.648-5.808,12.648s-60.347,1.214-103.929,2.09
					c-1.497,0.03-2.929,0.05-4.32,0.069c-8.275-0.961-18.498-7.658-25.339-15.507c-6.866-7.88-5.261-11.349-5.261-11.349
					L19.47,224.528z"/>
			</g>
		</g>
	</g>
	<g style="opacity:0.67;">
		<g>
			<path style="fill:#AB1D89;" d="M45.428,235.054c-5.109-2.294-18.381-14.793-20.235-16.558c0.675-0.326,1.347-0.539,2.002-0.623
				c6.69-0.884,72.059-2.595,85.47-2.865c13.41-0.27,47.265,15.484,47.265,15.484c1.45,1.236,2.517,2.449,3.295,3.623l-101.422,2.04
				C61.802,236.155,50.929,237.52,45.428,235.054z"/>
		</g>
	</g>
	<g>
		<g>
			<g>
				<g>
					<path style="fill:#009ADA;" d="M24.672,217.528c-6.865-7.881-5.26-11.348-5.26-11.348l-0.311,0.029
						c2.407-4.177,5.168-6.32,7.725-6.656c6.69-0.884,72.059-2.594,85.469-2.863c13.411-0.27,47.266,15.482,47.266,15.482
						c11.944,10.219-1.3,18.703-1.3,18.703s-60.348,1.214-103.93,2.09c-1.496,0.03-2.928,0.049-4.319,0.069
						C41.735,232.073,31.513,225.376,24.672,217.528z"/>
					<path style="fill:#2A5CAA;" d="M49.978,233.688l-0.042-0.005c-8.018-0.932-18.37-7.252-25.757-15.726
						c-5.122-5.88-5.703-9.429-5.583-11.044l-0.692,0.065l0.631-1.096c2.372-4.116,5.286-6.594,8.206-6.977
						c6.817-0.901,72.828-2.613,85.541-2.869l0.359-0.003c13.625,0,45.83,14.912,47.194,15.547l0.149,0.096
						c3.687,3.154,5.436,6.494,5.198,9.929c-0.4,5.805-6.318,9.659-6.57,9.82l-0.155,0.1l-0.185,0.004l-103.93,2.09
						c-1.214,0.024-2.386,0.041-3.529,0.058L49.978,233.688z M20.482,205.424l-0.478,1.031c-0.007,0.019-1.235,3.304,5.159,10.645
						c7.176,8.231,17.168,14.367,24.881,15.282l0.751-0.012c1.141-0.016,2.31-0.033,3.521-0.058l103.737-2.086
						c0.888-0.617,5.508-4.044,5.826-8.718c0.203-2.977-1.37-5.931-4.677-8.781c-1.841-0.85-33.55-15.387-46.563-15.387
						l-0.334,0.003c-12.7,0.255-78.626,1.963-85.395,2.857c-2.253,0.296-4.558,2.141-6.571,5.235L20.482,205.424z"/>
				</g>
			</g>
			<g style="opacity:0.66;">
				<g>
					<path style="fill:#0087CD;" d="M19.101,206.21c2.407-4.177,5.168-6.32,7.725-6.656c1.214-0.161,4.377-0.349,8.792-0.55
						c-11.993,0.978-11.091,2.098-6.415,7.552c5.153,6.003,22.094,14.445,18.747,14.893c-3.345,0.45-14.101-6.206-19.795-11.436
						c-5.696-5.231-3.289,3.12,6.896,9.404c10.188,6.287,16.338,6.163,16.338,6.163s77.107-1.551,98.34-1.977
						c11.082-0.223,14.037-2.881,14.339-5.375c2.515,7.307-5.808,12.648-5.808,12.648s-60.348,1.214-103.93,2.09
						c-1.496,0.03-2.928,0.049-4.319,0.069c-8.276-0.962-18.499-7.659-25.34-15.507c-6.865-7.881-5.26-11.348-5.26-11.348
						L19.101,206.21z"/>
				</g>
			</g>
		</g>
		<g style="opacity:0.67;">
			<g>
				<path style="fill:#B56F29;" d="M45.06,216.735c-5.109-2.294-18.381-14.793-20.235-16.557c0.675-0.327,1.346-0.539,2.002-0.624
					c6.69-0.884,72.059-2.594,85.469-2.863c13.411-0.27,47.266,15.482,47.266,15.482c1.45,1.237,2.517,2.45,3.294,3.625
					l-101.422,2.04C61.433,217.838,50.56,219.201,45.06,216.735z"/>
			</g>
		</g>
		<g>
			<g>
				<g>
					<path style="fill:#B39E0F;" d="M24.601,199.966c-6.867-7.88-5.261-11.348-5.261-11.348l-0.313,0.033
						c2.406-4.18,5.17-6.321,7.725-6.659c6.69-0.881,72.059-2.594,85.47-2.864c13.41-0.27,47.267,15.485,47.267,15.485
						c11.942,10.217-1.302,18.701-1.302,18.701s-60.347,1.214-103.931,2.09c-1.496,0.03-2.926,0.052-4.318,0.069
						C41.662,214.512,31.44,207.814,24.601,199.966z"/>
					<path style="fill:#7A690A;" d="M49.904,216.127l-0.041-0.005c-8.02-0.932-18.369-7.252-25.754-15.727
						c-5.114-5.868-5.703-9.415-5.585-11.035l-0.7,0.073l0.638-1.108c2.369-4.115,5.283-6.594,8.205-6.98
						c6.827-0.899,72.832-2.613,85.543-2.87l0.358-0.003c13.623,0,45.832,14.915,47.196,15.549l0.149,0.096
						c3.686,3.154,5.435,6.494,5.197,9.927c-0.401,5.805-6.319,9.659-6.571,9.82l-0.155,0.1l-0.185,0.004l-103.931,2.09
						c-1.497,0.03-2.929,0.052-4.323,0.069H49.904z M20.417,187.849l-0.483,1.044c-0.007,0.019-1.236,3.304,5.16,10.644
						c7.174,8.232,17.165,14.369,24.879,15.283c1.378-0.018,2.792-0.039,4.271-0.069l103.738-2.086
						c0.888-0.617,5.508-4.044,5.827-8.717c0.203-2.977-1.37-5.93-4.676-8.78c-1.841-0.85-33.554-15.39-46.564-15.39l-0.333,0.003
						c-12.697,0.255-78.618,1.965-85.397,2.858c-2.251,0.298-4.552,2.139-6.563,5.224L20.417,187.849z"/>
				</g>
			</g>
			<g style="opacity:0.49;">
				<path style="fill:#ECDCEC;" d="M38.782,183.731c0,0,66.01-5.232,86.04,0.797c22.197,6.679,58.438,16.178-22.002,14.594
					C22.382,197.543,29.849,183.387,38.782,183.731z"/>
			</g>
			<g style="opacity:0.72;">
				<g>
					<path style="fill:#B39E0F;" d="M19.028,188.651c2.406-4.18,5.17-6.321,7.725-6.659c1.215-0.158,4.377-0.347,8.791-0.547
						c-11.992,0.975-11.09,2.097-6.413,7.549c5.153,6.006,22.092,14.445,18.747,14.895c-3.345,0.448-14.101-6.208-19.797-11.438
						c-5.692-5.23-3.29,3.12,6.897,9.406c10.19,6.285,16.336,6.161,16.336,6.161s77.111-1.551,98.342-1.978
						c11.08-0.223,14.037-2.882,14.337-5.373c2.516,7.307-5.806,12.646-5.806,12.646s-60.347,1.214-103.931,2.09
						c-1.496,0.03-2.926,0.052-4.318,0.069c-8.276-0.962-18.498-7.659-25.337-15.507c-6.867-7.88-5.261-11.348-5.261-11.348
						L19.028,188.651z"/>
				</g>
			</g>
		</g>
	</g>
</g>
<g>
	<g>
		<path style="fill:#C9D3EC;" d="M40.867,128.781c0,0-8.492,9.798-17.638,20.25c-9.145,10.451-6.532,18.29,5.226,18.29
			c39.781,0,79.525,2.878,119.295,0.918c7.045-0.35,19.894,0.554,18.5-9.482c-1.272-9.145-9.791-27.793-18.908-31.937
			C140.156,123.555,49.358,121.596,40.867,128.781z"/>
		<path style="fill:#99A0D1;" d="M117.449,169.249c0,0-0.001,0-0.002,0c-14.832,0-29.911-0.407-44.493-0.801
			c-14.583-0.394-29.663-0.801-44.499-0.801c-5.385,0-9.104-1.66-10.471-4.674c-1.627-3.586,0.148-8.614,4.999-14.158
			c9.041-10.331,17.552-20.15,17.637-20.249c5.344-4.527,39.527-5.012,53.977-5.012c25.557,0,49.278,1.332,52.879,2.969
			c9.53,4.331,17.9,23.572,19.097,32.189c0.34,2.443-0.132,4.441-1.401,5.94c-2.963,3.499-9.573,3.68-14.884,3.826
			c-0.894,0.024-1.743,0.048-2.521,0.087C138.428,169.026,128.511,169.249,117.449,169.249z M94.598,124.209
			c-29.944,0-49.951,1.803-53.519,4.822c-0.049,0.063-8.562,9.882-17.603,20.215c-4.604,5.262-6.39,10.167-4.896,13.458
			c1.256,2.767,4.763,4.291,9.876,4.291c14.845,0,29.929,0.407,44.517,0.801c14.577,0.394,29.651,0.8,44.475,0.8
			c11.052,0,20.959-0.224,30.287-0.683c0.782-0.039,1.637-0.062,2.535-0.087c5.182-0.142,11.63-0.319,14.403-3.595
			c1.161-1.371,1.571-3.146,1.254-5.429c-1.354-9.731-10.001-27.722-18.72-31.684C143.736,125.541,119.644,124.209,94.598,124.209z"
			/>
	</g>
	<g>
		<path style="fill:#8C961C;" d="M41.302,115.28c0,0-8.492,9.798-17.638,20.25c-9.145,10.451-6.531,18.29,5.227,18.29
			c35.934,0,140.443,5.879,138.482-4.572c-2.432-12.965-12.41-32.661-19.596-35.928C140.592,110.055,49.793,108.095,41.302,115.28z"
			/>
		<path style="fill:#727612;" d="M117.66,155.794c-0.004,0-0.007,0-0.011,0c-17.72,0-37.498-0.52-54.948-0.978
			c-13.681-0.359-25.495-0.669-33.811-0.669c-5.385,0-9.102-1.66-10.471-4.674c-1.627-3.586,0.147-8.614,4.998-14.157
			c9.041-10.332,17.552-20.151,17.637-20.249c5.344-4.527,39.525-5.012,53.975-5.012c25.559,0,49.281,1.332,52.883,2.968
			c7.319,3.328,17.35,23.195,19.782,36.165c0.107,0.572-0.047,1.114-0.458,1.61C164.407,154.207,148.653,155.794,117.66,155.794z
			 M95.029,110.708c-29.942,0-49.948,1.803-53.517,4.822c-0.049,0.063-8.562,9.882-17.603,20.215
			c-4.604,5.262-6.389,10.168-4.896,13.458c1.256,2.767,4.763,4.291,9.876,4.291c8.324,0,20.143,0.311,33.828,0.67
			c17.445,0.458,37.219,0.977,54.931,0.978c0.002,0,0.009,0,0.011,0c30.366,0,46.415-1.557,49.073-4.761
			c0.285-0.344,0.39-0.695,0.318-1.073c-2.837-15.128-13.34-32.931-19.409-35.69C144.172,112.04,120.078,110.708,95.029,110.708z"/>
	</g>
	<g>
		<path style="fill:#8687C2;" d="M42.172,100.476c0,0-8.492,9.798-17.637,20.25c-9.146,10.448-6.533,18.287,5.225,18.287
			c35.935,0,140.443,5.879,138.484-4.572c-2.432-12.965-12.412-32.658-19.598-35.925C141.461,95.25,50.664,93.29,42.172,100.476z"/>
		<path style="fill:#7171B4;" d="M118.53,140.987c-0.004,0-0.007,0-0.011,0c-17.721,0-37.499-0.52-54.948-0.978
			c-13.681-0.359-25.496-0.669-33.812-0.669c-5.385,0-9.103-1.66-10.471-4.674c-1.626-3.585,0.149-8.612,5-14.155
			c9.04-10.332,17.551-20.15,17.636-20.249c5.345-4.527,39.525-5.012,53.975-5.012c25.558,0,49.28,1.332,52.882,2.968
			c7.321,3.328,17.352,23.193,19.784,36.162c0.107,0.572-0.047,1.114-0.459,1.61C165.277,139.399,149.523,140.987,118.53,140.987z
			 M95.899,95.903c-29.942,0-49.948,1.803-53.517,4.822c-0.049,0.063-8.562,9.882-17.602,20.215
			c-4.604,5.261-6.39,10.164-4.897,13.455c1.256,2.767,4.763,4.291,9.876,4.291c8.324,0,20.143,0.311,33.828,0.67
			c17.446,0.458,37.22,0.977,54.932,0.978c0,0,0.008,0,0.01,0c30.366,0,46.416-1.557,49.075-4.761
			c0.285-0.344,0.39-0.695,0.318-1.073c-2.837-15.126-13.341-32.928-19.411-35.688C145.041,97.236,120.947,95.903,95.899,95.903z"/>
	</g>
	<g>
		<path style="fill:#E7ECF7;" d="M157.143,157.959c0,0-65.76,2.613-90.582,1.74c-24.822-0.87-40.5-3.919-41.807-0.87
			c-1.307,3.049-1.307,4.356,57.484,5.226c58.789,0.87,76.643,0.436,78.387-2.177C162.367,159.266,161.498,157.959,157.143,157.959z
			"/>
	</g>
	<g style="opacity:0.59;">
		<path style="fill:#C6BA3A;" d="M157.578,143.588c0,0-65.76,2.613-90.582,1.74c-24.822-0.87-40.499-3.919-41.806-0.87
			c-1.307,3.05-1.307,4.356,57.483,5.226c58.791,0.87,76.645,0.436,78.387-2.176C162.803,144.895,161.934,143.588,157.578,143.588z"
			/>
	</g>
	<g style="opacity:0.35;">
		<path style="fill:#E2C9E1;" d="M46.091,101.787c0,0-10.886,10.454-15.241,18.195c-4.355,7.744,31.79,5.423,79.26,6.195
			c47.467,0.773,58.576-3.653,11.756-11.227c-54.876-8.878-29.178-10.454,6.531-5.032c35.711,5.42,26.129-8.905,5.227-10.068
			C112.719,98.689,54.365,96.367,46.091,101.787z"/>
	</g>
	<g style="opacity:0.61;">
		<g>
			<path style="fill:#8687C2;" d="M168.244,134.441c-2.432-12.965-12.412-32.658-19.598-35.925c-0.176-0.082-0.416-0.161-0.689-0.24
				c1.68,1.016,2.926,1.917,3.523,2.634c4.354,5.226,12.193,22.21,11.758,28.308c-0.438,6.097-14.371,3.92-14.371,3.92
				s-101.903,0.87-117.581,0c-9.411-0.523-11.444-2.93-11.567-4.77c-2.281,6.399,1.396,10.645,10.041,10.645
				C65.694,139.013,170.203,144.892,168.244,134.441z"/>
		</g>
	</g>
</g>
</svg>
