<?xml version="1.0" encoding="utf-8"?>
<!-- Generator: Adobe Illustrator 27.0.0, SVG Export Plug-In . SVG Version: 6.00 Build 0)  -->
<svg version="1.1" id="图层_1" xmlns="http://www.w3.org/2000/svg" xmlns:xlink="http://www.w3.org/1999/xlink" x="0px" y="0px"
	 viewBox="0 0 4476.9 4992.7" style="enable-background:new 0 0 4476.9 4992.7;" xml:space="preserve">
<style type="text/css">
	.st0{fill:#660CA1;}
	.st1{fill:#2B002A;}
	.st2{fill:#0B0B0B;}
	.st3{fill:#F8F8F8;}
	.st4{fill:#0B0B0B;}
</style>
<!-- <g id="Shorts">
	<g id="Color_3">
		<path class="st0" d="M1885.5,3487.2c-24.8-116.3-53.2-231.7-85-346.2c-0.9-3.2-1.8-6.3-2.7-9.5c-10.2-36.7-34.1-119.8-52-184.8
			c-0.3-1-0.6-2.1-0.8-3.1c-0.6-2.1-1.2-4.2-1.7-6.3c-20.7,0.4-41.4,1-62,1.3c12.5,46.2,30,107.4,43.8,155.9
			c6.1,21.5,11.4,40.1,15,52.9c1.9,6.9,3.8,13.8,5.6,20.8c30.1,109.3,57.4,220.7,81.1,331.5c55.7,260,95.3,542.4,120.9,862.2
			L1231.4,4632c-0.1,19.8,0.2,42.1,0.6,64.2l779.3-294.3C1987.9,4094.5,1950.1,3788.9,1885.5,3487.2z"/>
		<path class="st0" d="M582.4,3499.8c25.2-117.8,54.4-236.2,86.8-352.1c3.6-12.8,8.8-31.4,15-52.9c13.8-48.6,31.2-110,43.7-156.2
			c-0.4,0-0.9,0-1.3,0c-20.1-0.3-40.3-0.7-60.6-1.1l0,0c-14.1,51.5-32.8,117.3-45.5,162c-3.6,12.7-6.7,23.7-9.1,32.2
			c-14.2,51-27.8,102.2-40.7,153.6c-11.7,46.5-22.7,93.1-33.3,139.8c-4.7,20.7-9.2,41.5-13.7,62.3c-2,9.4-4,18.9-6,28.3
			c-61,292.5-97.1,588.6-119.7,886.5l778.6,294l0,0c0.6-22,1-44,1-63.8l-1.1-0.4l-715.2-270.1
			C487.1,4042.2,526.8,3759.8,582.4,3499.8z"/>
		<path class="st0" d="M3933.9,3487.2c-24.8-116.3-53.2-231.7-85-346.2c-0.9-3.2-1.8-6.3-2.7-9.5c-10.2-36.7-34.1-119.8-52-184.8
			c-0.3-1-0.6-2.1-0.8-3.1c-0.6-2.1-1.2-4.2-1.7-6.3c-20.7,0.4-41.4,1-62,1.3c12.5,46.2,30,107.4,43.8,155.9
			c6.1,21.5,11.4,40.1,15,52.9c1.9,6.9,3.8,13.8,5.6,20.8c30.1,109.3,57.4,220.7,81.1,331.5c55.7,260,95.3,542.4,120.9,862.2
			L3279.8,4632c-0.1,19.8,0.2,42.1,0.6,64.2l779.3-294.3C4036.3,4094.5,3998.5,3788.9,3933.9,3487.2z"/>
		<path class="st0" d="M2630.8,3499.8c25.2-117.8,54.4-236.2,86.8-352.1c3.6-12.8,8.8-31.4,15-52.9c13.8-48.6,31.2-110,43.7-156.2
			c-0.4,0-0.9,0-1.3,0c-20.1-0.3-40.3-0.7-60.6-1.1l0,0c-14.1,51.5-32.8,117.3-45.5,162c-3.6,12.7-6.7,23.7-9.1,32.2
			c-14.2,51-27.8,102.2-40.7,153.6c-11.7,46.5-22.7,93.1-33.3,139.8c-4.7,20.7-9.2,41.5-13.7,62.3c-2,9.4-4,18.9-6,28.3
			c-61,292.5-97.1,588.6-119.7,886.5l778.6,294l0,0c0.6-22,1-44,1-63.8l-1.1-0.4l-715.2-270.1
			C2535.5,4042.2,2575.2,3759.8,2630.8,3499.8z"/>
	</g>
	<g id="Color_2">
		<path class="st1" d="M517.8,3515.7c2-9.5,3.9-19,6-28.5c4.4-20.7,9-41.4,13.7-62.1c10.5-46.7,21.6-93.3,33.3-139.8
			c12.9-51.4,26.4-102.7,40.7-153.8c2.4-8.5,5.5-19.4,9.1-32c12.7-44.7,31.4-110.5,45.5-162c-57.7-1.2-116.6-2.9-175.9-4.8
			c-3.6-0.1-6.7,2.3-7.5,5.8c-3.7,16-12.6,63.8-7.2,139.4c0,0-202.4,445.1-256.3,1637.7c0,0,566.1,114.1,952.3,112.4
			c0,0,3.5-65.6,5.3-131.8l-778.6-294C420.7,4104.3,456.8,3808.2,517.8,3515.7z"/>
		<path class="st1" d="M1826.7,3499.8c-23.7-110.8-51-222.2-81.1-331.5c-1.9-6.9-3.8-13.7-5.7-20.6c-3.6-12.8-8.8-31.4-15-52.9
			c-13.8-48.6-31.2-109.9-43.7-156.1c-12.4,0.2-24.7,0.4-37,0.6c12.7,47.5,31.7,114.4,46.1,165.2l0.1,0.2
			c6.1,21.5,11.4,40,14.9,52.7c32.1,115.1,61.1,232.9,86.2,349.9c53.8,251.6,92.5,523.3,118.1,830.4h-0.1c0,0,0,0,0,0.1l-4.4,1.7
			l-670.3,253.1l-3.4,1.2c0,3.5,0,7,0,10.6c0,2.9,0,5.7-0.1,8.5c-0.1,6.2,0.1,12.4,0,19.2l716.3-270.1
			C1922,4042.2,1882.4,3759.8,1826.7,3499.8z"/>
		<path class="st1" d="M1933.7,3077.9c5.2-73.1-2.9-120.2-6.8-137.7c-1-4.5-5.1-7.6-9.6-7.4c-58.5,1.9-116.5,3.4-174.1,4.6
			c0.6,2.1,1.1,4.2,1.7,6.3c0.3,1,0.6,2,0.8,3.1c17.9,65,41.8,148,52.1,184.8c0.9,3.2,1.8,6.3,2.6,9.5
			c31.7,114.5,60.2,229.9,85,346.2c64.6,301.7,102.4,607.3,125.7,914.8l-779.3,294.3c1,66.2,3.2,131.8,3.2,131.8
			c386.3,1.7,955-112.4,955-112.4C2136.1,3523,1933.7,3077.9,1933.7,3077.9z"/>
		<path class="st1" d="M505.9,4340.1l-6.4-2.4c24.1-289.6,59.9-547.7,109.1-787.2c3-14.5,6-28.9,9-43.2
			c25.1-117,54.1-234.8,86.2-349.9c3.5-12.7,8.8-31.2,14.9-52.7v-0.2c13.8-48.7,31.7-112,44.4-158.9c0.6-2.1,1.2-4.3,1.7-6.4
			c-12.3-0.2-25.8-0.4-38.2-0.6l0,0c0.4,0,0.9,0,1.3,0c-12.5,46.2-29.9,107.6-43.7,156.2c-6.2,21.5-11.4,40.1-15,52.9
			c-32.4,115.9-61.6,234.3-86.8,352.1c-55.6,260-95.3,542.4-121,862.1l715.2,270.1l0.9,0.3c0-6.8,0-13.4-0.1-19.5
			c-0.1-6.4,0.3-12.5,0.3-18.9l-3.6-1.4L505.9,4340.1z"/>
		<path class="st1" d="M2566.2,3515.7c2-9.5,3.9-19,6-28.5c4.4-20.7,9-41.4,13.7-62.1c10.5-46.7,21.6-93.3,33.3-139.8
			c12.9-51.4,26.4-102.7,40.7-153.8c2.4-8.5,5.5-19.4,9.1-32c12.7-44.7,31.4-110.5,45.5-162c-57.7-1.2-116.6-2.9-175.9-4.8
			c-3.6-0.1-6.7,2.3-7.5,5.8c-3.7,16-12.6,63.8-7.2,139.4c0,0-202.4,445.1-256.3,1637.7c0,0,566.1,114.1,952.3,112.4
			c0,0,3.5-65.6,5.3-131.8l-778.6-294C2469.1,4104.3,2505.2,3808.2,2566.2,3515.7z"/>
		<path class="st1" d="M3875.1,3499.8c-23.7-110.8-51-222.2-81.1-331.5c-1.9-6.9-3.8-13.7-5.7-20.6c-3.6-12.8-8.8-31.4-15-52.9
			c-13.8-48.6-31.2-109.9-43.7-156.1c-12.4,0.2-24.7,0.4-37,0.6c12.7,47.5,31.7,114.4,46.1,165.2l0.1,0.2
			c6.1,21.5,11.4,40,14.9,52.7c32.1,115.1,61.1,232.9,86.2,349.9c53.8,251.6,92.5,523.3,118.1,830.4h-0.1c0,0,0,0,0,0.1l-4.4,1.7
			l-670.3,253.1l-3.4,1.2c0,3.5,0,7,0,10.6c0,2.9,0,5.7-0.1,8.5c-0.1,6.2,0.1,12.4,0,19.2L3996,4362
			C3970.4,4042.2,3930.8,3759.8,3875.1,3499.8z"/>
		<path class="st1" d="M3982.1,3077.9c5.2-73.1-2.9-120.2-6.8-137.7c-1-4.5-5.1-7.6-9.6-7.4c-58.5,1.9-116.5,3.4-174.1,4.6
			c0.6,2.1,1.1,4.2,1.7,6.3c0.3,1,0.6,2,0.8,3.1c17.9,65,41.8,148,52.1,184.8c0.9,3.2,1.8,6.3,2.6,9.5
			c31.7,114.5,60.2,229.9,85,346.2c64.6,301.7,102.4,607.3,125.7,914.8l-779.3,294.3c1,66.2,3.2,131.8,3.2,131.8
			c386.3,1.7,955-112.4,955-112.4C4184.5,3523,3982.1,3077.9,3982.1,3077.9z"/>
		<path class="st1" d="M2554.3,4340.1l-6.4-2.4c24.1-289.6,59.9-547.7,109.1-787.2c3-14.5,6-28.9,9-43.2
			c25.1-117,54.1-234.8,86.2-349.9c3.5-12.7,8.8-31.2,14.9-52.7v-0.2c13.8-48.7,31.7-112,44.4-158.9c0.6-2.1,1.2-4.3,1.7-6.4
			c-12.3-0.2-25.8-0.4-38.2-0.6l0,0c0.4,0,0.9,0,1.3,0c-12.5,46.2-29.9,107.6-43.7,156.2c-6.2,21.5-11.4,40.1-15,52.9
			c-32.4,115.9-61.6,234.3-86.8,352.1c-55.6,260-95.3,542.4-121,862.1L3225,4632l0.9,0.3c0-6.8,0-13.4-0.1-19.5
			c-0.1-6.4,0.3-12.5,0.3-18.9l-3.6-1.4L2554.3,4340.1z"/>
	</g>
	<g id="Color_1">
		<path class="st2" d="M1905.1,4339.5l4.4-1.7h0.1c-25.6-307.1-64.3-578.8-118.1-830.4c-25.1-117-54.1-234.8-86.2-349.9
			c-3.5-12.7-8.8-31.2-14.9-52.7l-0.1-0.2c-14.4-50.8-33.4-117.7-46.1-165.2v-0.1c-149.2,2.2-296.7,2.4-446.1,2.4
			c-145.6,0-288-0.4-433.1-2.5c-0.7,2.4-1.3,4.6-1.9,6.5c-12.7,47-30.6,110.3-44.4,158.9v0.2c-6.1,21.5-11.4,40-14.9,52.7
			c-32.1,115.1-61.1,232.9-86.2,349.9c-3.1,14.3-6.1,28.7-9,43.2c-49.1,239.5-84.9,497.6-109.1,787.2l6.4,2.4l668.2,252.4l3.6,1.4
			c0-17.1,0.3-34.7,0.7-51.9c0.7-34.3,1.8-68.6,3.1-103c1.4-36.2,3-72.4,5.2-108.6c1.8-29.2,3.7-58.4,7-87.5
			c1-8.5,1.9-24.3,3.6-32.8c0.7-3.7,1.7-8,7.5-8c3.4,0,6.5,1.7,7.3,4.4c2.2,7.4,2.5,17.3,3.5,25c3.6,27,4.4,55.5,6.1,82.6
			c2.3,35.5,4,71.1,5.5,106.7c1.4,35.1,2.6,70.3,3.4,105.5c0.5,22.4,0.7,45.1,0.8,67.5l3.4-1.2L1905.1,4339.5z"/>
		<path class="st2" d="M3953.5,4339.5l4.4-1.7h0.1c-25.6-307.1-64.3-578.8-118.1-830.4c-25.1-117-54.1-234.8-86.2-349.9
			c-3.5-12.7-8.8-31.2-14.9-52.7l-0.1-0.2c-14.4-50.8-33.4-117.7-46.1-165.2v-0.1c-149.2,2.2-296.7,2.4-446.1,2.4
			c-145.6,0-288-0.4-433.1-2.5c-0.7,2.4-1.3,4.6-1.9,6.5c-12.7,47-30.6,110.3-44.4,158.9v0.2c-6.1,21.5-11.4,40-14.9,52.7
			c-32.1,115.1-61.1,232.9-86.2,349.9c-3.1,14.3-6.1,28.7-9,43.2c-49.1,239.5-84.9,497.6-109.1,787.2l6.4,2.4l668.2,252.4l3.6,1.4
			c0-17.1,0.3-34.7,0.7-51.9c0.7-34.3,1.8-68.6,3.1-103c1.4-36.2,3-72.4,5.2-108.6c1.8-29.2,3.7-58.4,7-87.5
			c1-8.5,1.9-24.3,3.6-32.8c0.7-3.7,1.7-8,7.5-8c3.4,0,6.5,1.7,7.3,4.4c2.2,7.4,2.5,17.3,3.5,25c3.6,27,4.4,55.5,6.1,82.6
			c2.3,35.5,4,71.1,5.5,106.7c1.4,35.1,2.6,70.3,3.4,105.5c0.5,22.4,0.7,45.1,0.8,67.5l3.4-1.2L3953.5,4339.5z"/>
	</g>
</g> -->
<g id="Jersey">
	<g id="Inside">
		<path class="st3" d="M806.6,188.7L806.6,188.7c0.2,0.7,0.3,1.4,0.5,2.1c0.2,0.8,0.4,1.6,0.7,2.5c2.3,8.3,5.6,16.5,9.1,24.8
			l0.2,0.6c0.1,0.1,1.3,3.2,3.7,8.6c2.5,5.8,5.3,12,8.4,18.7l1.2,2.6l2.4,5c0.7,1.4,1.4,2.9,2.1,4.4c0.5,1.1,1,2.1,1.6,3.3l2.5,5.1
			c1.7,3.5,3.5,7.1,5.4,10.9c2.6,5.2,5.3,10.6,8.1,15.8l0.1,0.3c19.7,38.4,41.1,75.4,65.4,113c38.1,59.1,78.8,111.7,120.8,156.1
			c47.3,50,96.7,89.9,146.7,118.7l12.8,6.4l0,0l3.9,1.9l2.5,1.1l2.5-1.1l16.6-8.3c50-28.8,99.4-68.7,146.7-118.7
			c42.1-44.4,82.7-97,120.8-156.1c24.3-37.6,45.6-74.6,65.4-113l0.2-0.3c2.7-5.3,5.4-10.6,8.1-15.8c0.6-1.2,1.2-2.3,1.7-3.5l1.7-3.4
			l1.6-3.3l1.5-3.2l2.2-4.6l2.7-5.6l1.2-2.6l2.1-4.5l0.3-0.6l0.1-0.2c3-6.5,5.8-12.7,8.3-18.3c2.3-5.3,3.5-8.3,3.7-8.6l0.2-0.5
			c4.4-10.6,8.3-20.2,10.5-30.1l0.1-0.3l0.1-0.6c0.1-0.5,0.2-1.1,0.2-1.6c-3.5,0.4-6.7,0.8-6.7,0.8l-5.4,0.7l-7.8,0.9l-9.4,1.1
			l-11.5,1.3l-8.5,1c-4.3,0.5-8.8,1-13.5,1.5c0,0-6.4,0.7-9.6,1l-10.4,1.1l-10.9,1.1l-11.3,1.2l-11.8,1.2l-6.2,0.6
			c-4,0.4-8.1,0.8-12.2,1.2l-6.1,0.6l-6.2,0.6l-6.5,0.6l-6.5,0.6l-6.6,0.6l-6.6,0.6l-6.7,0.6l-6.9,0.6l-6.9,0.6l-6.9,0.6l-7.2,0.6
			c-4.5,0.4-9.1,0.7-13.6,1c0,0-4.6,0.3-6.8,0.5c0,0-4.9,0.4-7,0.5c0,0-4.9,0.3-7,0.5c0,0-5,0.3-7,0.5c0,0-5,0.3-7.1,0.5
			c0,0-5.1,0.3-7.1,0.4c0,0-5.1,0.3-7.1,0.4c0,0-5.1,0.3-7.2,0.4c0,0-5,0.3-7.1,0.4l-7.6,0.4c-2.2,0.1-4.4,0.2-6.8,0.3
			c-2.3,0.1-4.5,0.2-6.8,0.3h-0.2c-2.2,0.1-4.4,0.2-6.5,0.3l-7.6,0.3c-2.1,0.1-4.1,0.2-6.2,0.2h-0.8c-2,0.1-4,0.1-6.1,0.2h-0.9
			c-2,0.1-6.9,0.2-6.9,0.2c-2,0.1-6.8,0.2-6.8,0.2c-2,0.1-6.8,0.2-6.8,0.2c-2,0-3.9,0.1-5.9,0.1h-0.8c-2,0-3.9,0.1-5.9,0.1h-0.7
			c-2,0-4,0.1-5.9,0.1h-0.6c-2,0-4,0-6,0h-0.3c-2.1,0-4.1,0-6.2,0c-3.6,0-7.2,0-10.8,0c-3.6,0-7.2,0-10.8,0c-2,0-4.1,0-6.2,0h-0.3
			c-2,0-4,0-6,0h-0.6c-2,0-3.9,0-5.9-0.1h-0.7c-2,0-3.9-0.1-5.9-0.1h-0.8c-1.9,0-3.9-0.1-5.9-0.1h-0.9c-1.9,0-3.9-0.1-5.9-0.1h-0.9
			c-2-0.1-3.9-0.1-5.9-0.2l-7.8-0.2c-2-0.1-4-0.1-6.1-0.2h-0.8c-2.1-0.1-4.1-0.2-6.2-0.2c0,0-4.9-0.2-7.1-0.3l-7.2-0.3
			c-2.2-0.1-4.5-0.2-6.8-0.3c0,0-4.5-0.2-6.7-0.3c0,0-4.8-0.3-7-0.4c0,0-4.9-0.3-7-0.4c0,0-4.9-0.3-7-0.4c0,0-5-0.3-7.1-0.4
			c0,0-5.1-0.3-7.1-0.4c0,0-5.1-0.3-7.1-0.5c0,0-5.1-0.3-7.1-0.5c0,0-5-0.3-7.2-0.5c0,0-4.9-0.3-7-0.5l-7.4-0.5
			c-4.6-0.3-9.1-0.7-13.6-1l-6.8-0.5l-6.8-0.5l-6.8-0.6l-6.6-0.6l-6.8-0.6l-6.6-0.6l-6.7-0.6l-6.6-0.6l-6.5-0.6l-6.5-0.6l-6.5-0.6
			c-4.1-0.4-8.2-0.8-12.2-1.2l-11.7-1.2l-5.8-0.6l-11.3-1.2l-11-1.1l-10.4-1.1l-10-1.1c-4.7-0.5-9.2-1-13.4-1.5l-4.3-0.5l-11.6-1.3
			l-10.5-1.2c-4.1-0.5-7.7-0.9-10.8-1.3l-5.4-0.7c0,0-3.3-0.4-6.8-0.8c0.1,0.9,0.2,1.7,0.4,2.4L806.6,188.7z"/>
	</g>
	<g id="Color_3_00000077281850144227669890000006508104426064368794_">
		<path class="st0" d="M3771.9,280.8l146.7,72.3V353c0.9-5.1,1.9-10.2,2.9-15.3c1.2-6.2,2.5-12.4,3.8-18.6c0.2-1,0.4-2,0.6-3
			c0.1-0.6,0.3-1.3,0.4-1.9c0-0.3,0.1-0.7,0.2-1l-130.9-64.6l-186.5-92c-0.2,0.1-0.5,0.1-0.7,0.2c-0.7,0.2-1.4,0.4-2,0.7
			c-0.7,0.2-1.4,0.4-2,0.6c-0.7,0.2-1.4,0.4-2,0.6s-1.4,0.4-2.1,0.6c-0.7,0.2-1.4,0.4-2.1,0.6s-1.4,0.4-2.1,0.6
			c-0.7,0.2-1.4,0.4-2.1,0.6c-0.7,0.2-1.4,0.4-2.1,0.6c-0.7,0.2-1.4,0.4-2.1,0.6c-0.7,0.2-1.4,0.4-2.1,0.6c-0.7,0.2-1.4,0.4-2.1,0.5
			s-1.4,0.4-2.1,0.5s-1.4,0.3-2.1,0.5c-0.7,0.2-1.4,0.3-2.1,0.5c-0.7,0.2-1.4,0.3-2.1,0.5c-0.7,0.2-1.4,0.3-2.1,0.5
			c-0.7,0.2-1.4,0.3-2.1,0.5c-0.7,0.2-1.4,0.3-2.1,0.5s-1.4,0.3-2.1,0.4c-0.7,0.1-1.4,0.3-2.1,0.4c-0.7,0.1-1.4,0.3-2.1,0.4
			c-0.2,0-0.4,0.1-0.6,0.1c-0.1,0-0.2,0-0.2,0c-0.4,0.1-0.8,0.2-1.3,0.2c-0.7,0.1-1.4,0.3-2.1,0.4c-0.7,0.1-1.4,0.3-2.1,0.4
			c-0.1,0-0.3,0.1-0.4,0.1c-0.6,0.1-1.1,0.2-1.7,0.3c-0.6,0.1-1.2,0.2-1.8,0.3c-0.1,0-0.2,0-0.3,0c-0.7,0.1-1.4,0.2-2.1,0.3
			c-0.3,0.1-0.7,0.1-1,0.2c-0.7,0.1-1.5,0.2-2.2,0.4L3771.9,280.8z"/>
		<path class="st0" d="M2641.8,353.5l368.3-181.6l1.8-0.9h-0.1c-20.4-3.1-40.5-7.9-60-14.3l-75.1,37.1l-242.8,119.9
			c0.1,0.2,0.1,0.5,0.2,0.7c0.4,1.6,0.7,3.3,1,4.9c2.4,11.3,4.6,22.6,6.7,33.9C2641.8,353.3,2641.8,353.4,2641.8,353.5L2641.8,353.5
			L2641.8,353.5L2641.8,353.5z"/>
		<path class="st0" d="M4016.6,2408.5V1134.9c-0.1-0.1-0.1-0.1-0.2-0.2c-0.7-0.6-1.3-1.2-1.9-1.8c-0.3-0.2-0.5-0.5-0.8-0.7
			c-0.2-0.2-0.5-0.5-0.5-0.5c-0.5-0.5-1-1-1.6-1.5l-0.7-0.7c-6.9-6.5-13.4-13-19.4-19.4c-3.6-3.8-7.2-7.8-10.9-12.1l-0.1-0.1v1364.9
			l0.1,62.6l-0.1,97.2c11.6-1.3,23.8-3.1,36.2-5L4016.6,2408.5L4016.6,2408.5z"/>
		<path class="st0" d="M2578.7,1099.3c-3.3,3.7-6.5,7.3-9.7,10.7c-6,6.4-12.5,12.9-19.4,19.4l-0.7,0.7c-0.5,0.5-1,1-1.6,1.5
			c0,0-0.4,0.3-0.5,0.5c-0.3,0.2-0.5,0.5-0.8,0.7c-0.8,0.8-1.7,1.6-2.6,2.4c-0.1,0.1-0.1,0.1-0.2,0.2v1273.7v0.1v208.5
			c12.2,1.9,24,3.5,35.5,4.8v-96.9V1099.3z"/>
		<path class="st0" d="M1642.2,248.9c-5.3,12.2-10.9,24.2-16.7,36.1l7.7,3.6l203.1,98c0-0.2,0.1-0.3,0.1-0.5l1.1-4.9
			c0.3-1.2,0.6-2.5,0.8-3.7c0.3-1.4,0.6-2.8,1-4.2l1-4.2l1-4.1c0.3-1.3,0.6-2.7,1-4.1l2.1-8.8c0.2-1,0.5-2,0.7-3.1l0.1-0.2v-0.1
			l0.4-1.5L1648.2,252L1642.2,248.9z"/>
		<path class="st0" d="M503.9,1144.8c-1.1,1.2-2.3,2.5-3.5,3.7c-1.2,1.3-2.5,2.6-3.7,3.9c-1.2,1.2-2.5,2.5-3.8,3.8
			c-1.3,1.2-2.5,2.5-3.8,3.7c-1.1,1-2.2,2.1-3.3,3.1l-0.6,0.5c-1.3,1.2-2.7,2.4-4,3.6s-2.7,2.4-4.1,3.5c-0.3,0.2-0.5,0.5-0.8,0.7
			l0,0l-2.6,2.2l-2.5,2.1c-0.8,0.7-1.6,1.3-2.5,2c-0.1,0.1-0.3,0.2-0.4,0.3v1.3v1258.4v207.6v0.2c12.2,1.9,24.1,3.4,35.6,4.7v-96.5
			L503.9,1144.8L503.9,1144.8z"/>
		<path class="st0" d="M1940.8,2437.7V1178c-0.1-0.1-0.3-0.2-0.4-0.3c-0.8-0.6-1.6-1.3-2.5-2l-2.5-2.1l-2.6-2.2l0,0
			c-0.3-0.2-0.5-0.5-0.8-0.7c-1.4-1.2-2.7-2.3-4.1-3.5c-1.3-1.2-2.7-2.4-4-3.6l-0.6-0.5c-1.1-1-2.2-2.1-3.3-3.1
			c-1.3-1.2-2.6-2.5-3.8-3.7c-1.3-1.3-2.6-2.5-3.8-3.8c-1.3-1.3-2.5-2.6-3.7-3.9c-1.2-1.2-2.3-2.5-3.5-3.7v1408.9l0,0v96.6l0,0
			c11.5-1.3,23.4-2.8,35.6-4.7l0,0l0,0L1940.8,2437.7L1940.8,2437.7z"/>
		<path class="st0" d="M783.6,285c-5.8-11.9-11.5-23.9-16.7-36.1l-5.9,3l-197.4,95.2l0.4,1.5v0.1l0.1,0.2c0.3,1,0.5,2,0.7,3.1
			l2.1,8.8c0.3,1.4,0.6,2.7,1,4.1l1,4.1l1,4.2c0.3,1.4,0.7,2.8,1,4.2c0.3,1.2,0.6,2.5,0.8,3.7l1.1,4.9c0,0.2,0.1,0.3,0.1,0.5
			l203.1-98L783.6,285z"/>
	</g>
	<g id="Color_2_00000140697410839032014740000010422921207265580214_">
		<path class="st1" d="M2458.1,1198.4c0.3-0.2,0.6-0.3,0.9-0.5l0,0C2458.7,1198.1,2458.4,1198.2,2458.1,1198.4z"/>
		<path class="st1" d="M2445.1,1204.6c0.1,0,0.2-0.1,0.3-0.1c0.2-0.1,0.4-0.2,0.6-0.3c-0.1,0.1-0.3,0.1-0.4,0.2
			c-0.1,0-0.2,0.1-0.3,0.1S2445.1,1204.5,2445.1,1204.6c-0.1,0-0.1,0-0.2,0l0,0v0.3c0,0,0,0,0.1,0
			C2445,1204.6,2445.1,1204.6,2445.1,1204.6z"/>
		<path class="st1" d="M2451,1201.9c-0.3,0.1-0.5,0.2-0.8,0.4c0.2-0.1,0.4-0.2,0.6-0.3c0.2-0.1,0.4-0.2,0.6-0.3
			c0.1-0.1,0.3-0.1,0.4-0.2c-0.1,0-0.1,0.1-0.2,0.1C2451.4,1201.7,2451.2,1201.8,2451,1201.9z"/>
		<path class="st1" d="M3918.6,353v0.1l-146.7-72.3l-223-109.9c-3.9,0.6-7.8,1.1-11.7,1.6s-7.9,0.9-11.8,1.2c-1.6,0.2-3.2,0.3-5,0.4
			l395.2,195.6c-0.1,0.4-0.1,0.7-0.2,1.1c0,0.3-0.1,0.5-0.1,0.8c-0.1,0.3-0.1,0.6-0.2,0.9c0,0.1,0,0.1,0,0.2l0.1,0.1
			c0-0.1,0-0.1,0-0.2c0.1-0.3,0.1-0.6,0.2-0.9c0-0.3,0.1-0.5,0.1-0.8c0.1-0.2,0.1-0.4,0.1-0.6s0-0.3,0.1-0.5
			c0.1-0.3,0.1-0.6,0.2-0.9c0.5-3.1,1.1-6.2,1.7-9.3c0.3-1.7,0.6-3.5,0.9-5.2c0.1-0.4,0.1-0.7,0.2-1.1v-0.1c1-5.1,1.9-10.3,2.9-15.4
			l-0.1-0.1C3920.5,342.8,3919.5,347.9,3918.6,353z"/>
		<path class="st1" d="M3702.7,108c-0.1,0.2-0.2,0.3-0.3,0.4c-0.9,0.9-2,1.7-3.1,2.5c-1.1,0.9-2.3,1.7-3.4,2.5
			c-0.4,0.3-0.8,0.6-1.3,0.9c-1.1,0.7-2.2,1.3-3.2,2.1c-0.6,0.4-1.2,0.8-1.8,1.2c-1.6,1.2-3.3,2.3-4.9,3.4
			c-5.3,3.7-10.8,7.2-16.5,10.3c-2.9,1.6-5.9,3.2-9,4.7c-0.6,0.3-1.3,0.6-1.9,0.9c-0.6,0.3-1.3,0.6-1.9,0.9s-1.3,0.6-1.9,0.9
			c-0.6,0.3-1.3,0.6-1.9,0.9c-0.6,0.3-1.3,0.6-1.9,0.9c-0.6,0.3-1.3,0.6-1.9,0.9c-0.6,0.3-1.3,0.6-1.9,0.9c-0.6,0.3-1.3,0.6-1.9,0.9
			c-0.6,0.3-1.3,0.6-1.9,0.9c-0.6,0.3-1.3,0.6-1.9,0.8c-0.6,0.3-1.3,0.6-1.9,0.8c-0.7,0.3-1.3,0.5-2,0.8s-1.3,0.5-2,0.8
			s-1.3,0.5-2,0.8s-1.3,0.5-2,0.8s-1.3,0.5-2,0.8s-1.3,0.5-2,0.8s-1.3,0.5-2,0.8s-1.3,0.5-2,0.7s-1.3,0.5-2,0.7s-1.3,0.5-2,0.7
			s-1.3,0.5-2,0.7s-1.3,0.5-2,0.7s-1.3,0.5-2,0.7s-1.3,0.4-2,0.7c-0.4,0.1-0.8,0.2-1.1,0.4c-0.1,0-0.1,0-0.2,0.1l186.5,92
			l130.9,64.6c-0.1,0.3-0.2,0.7-0.2,1c-0.2,0.6-0.3,1.3-0.4,1.9l0.2,0.1c0.1-0.6,0.3-1.2,0.4-1.8c0.1-0.3,0.2-0.7,0.2-1
			c2-9.3,4-18.5,6.1-27.8c2.6-11.2,5.3-22.4,8.1-33.6l9.9-37.3c0.1-0.3,0.2-0.5,0.4-0.7c0,0,0.1-0.1,0.2-0.1v-0.1
			c0.2-0.1,0.3-0.2,0.5-0.3c-48.2-20.6-196.3-83.5-249-105.9v0.1C3702.8,107.8,3702.7,107.9,3702.7,108z M3703,107.8L3703,107.8
			L3703,107.8L3703,107.8z"/>
		<path class="st1" d="M3011.9,171l-1.8,0.9l-368.3,181.6l0,0c0.1,0.3,0.1,0.6,0.2,0.9c0.3,1.7,0.6,3.5,0.9,5.2l0,0
			c0.6,3.1,1.1,6.2,1.7,9.3c0.1,0.4,0.1,0.7,0.2,1.1l0,0l12.6-6.2l384.3-189.5l-0.1-0.1c-2.4-0.1-4.7-0.3-6.8-0.5
			C3027.1,173.1,3019.5,172.1,3011.9,171z"/>
		<path class="st1" d="M2609.3,214c0.2,0.2,0.4,0.4,0.4,0.7l9.9,37.3c2.8,11.2,5.5,22.4,8.1,33.6c2.1,9.3,4.2,18.6,6.2,27.9
			c0,0.1,0,0.1,0,0.2l242.7-119.9l75-37.1c-0.2-0.1-0.5-0.2-0.7-0.2c-17.1-5.6-33.8-12.5-50-20.5c-3.2-1.6-6.6-3.2-9.7-5
			c-3.2-1.9-6.4-3.9-9.6-5.9c-6.3-4-12.6-8.2-18.7-12.6c-0.5-0.4-1.1-0.8-1.6-1.2c-0.9-0.6-1.7-1.3-2.5-1.9
			c-0.4-0.4-1.1-0.8-1.4-1.4c-52.4,22.2-199.9,84.8-248.8,105.6c0.1,0,0.2,0.1,0.3,0.1C2609,213.8,2609.2,213.9,2609.3,214z"/>
		<path class="st1" d="M4115.4,1204.7c-0.1,0-0.2,0-0.3-0.1c-0.1,0-0.2-0.1-0.3-0.1c-1.8-0.9-3.6-1.7-5.4-2.5
			c-0.2-0.1-0.4-0.2-0.6-0.3c-1.1-0.5-2.3-1.1-3.4-1.6c-0.2-0.1-0.4-0.2-0.6-0.3c-1.1-0.6-2.3-1.2-3.4-1.8c-0.1-0.1-0.3-0.2-0.4-0.2
			c-1.2-0.6-2.3-1.3-3.5-2c-9.5-5.7-18.9-11.7-28-18.1c-2.2-1.5-4.4-3.1-6.5-4.7c-6.5-4.7-12.8-9.6-19.1-14.6
			c-5.2-4.2-10.4-8.6-15.4-13c-0.8-0.7-1.5-1.4-2.3-2c-0.9-0.8-1.7-1.5-2.6-2.3c-2.7-2.4-5-4.4-7-6.2v1273.6l0,0h0.1v209.1
			c10.1-1.5,20.4-3.3,30.9-5.3c15.3-3,30-6.2,44-9.7c3.8-0.9,7.5-1.8,11.2-2.8c8.4-2.2,13.8-10.2,12.7-18.7c-0.4-3-0.8-6.2-1.2-9.4
			c-7.2-59.4-14.5-138.2-20.5-208c-6.2-72.6-11-135.4-12.5-156c-13.5-314.1,23.2-865.2,34.6-1003c-0.1,0-0.1,0-0.2,0
			C4115.6,1204.7,4115.5,1204.7,4115.4,1204.7z"/>
		<path class="st1" d="M2543.2,2409.1V1135.4c-1.8,1.7-3.9,3.5-6.4,5.6c-0.9,0.8-1.8,1.5-2.6,2.3c-0.8,0.7-1.5,1.4-2.3,2
			c-5.1,4.4-10.2,8.8-15.4,13c-6.2,5-12.6,9.9-19.1,14.6c-2.1,1.6-4.3,3.1-6.5,4.7c-9.1,6.4-18.5,12.4-28,18.1
			c-0.3,0.2-0.6,0.3-0.8,0.5c-0.8,0.5-1.7,1-2.6,1.5c-0.2,0.1-0.3,0.2-0.5,0.3c-0.3,0.2-0.6,0.3-0.9,0.5c-2.1,1.1-4.2,2.1-6.3,3.1
			c-0.1,0.1-0.3,0.1-0.4,0.2c-0.2,0.1-0.4,0.2-0.6,0.3c-0.2,0.1-0.4,0.2-0.6,0.3c-1.4,0.6-2.8,1.3-4.2,2c-0.2,0.1-0.4,0.2-0.6,0.3
			c-0.1,0-0.2,0.1-0.3,0.1c0,0-0.1,0-0.1,0.3c-0.1,0-0.1,0-0.1,0c10.9,130.6,47.9,688,34.5,1004.3c-1.6,20.5-6.3,83.1-12.4,155.6
			c-5.9,69.6-13.2,148.2-20.3,207.4c-0.3,3.2-0.7,6.3-1.1,9.4c-1.1,8.4,4.3,16.4,12.5,18.6c3.6,0.9,7.3,1.9,11,2.8
			c13.8,3.5,28.3,6.8,43.5,9.7c10.5,2,20.6,3.7,30.6,5.3v-0.3v-208.5L2543.2,2409.1L2543.2,2409.1z"/>
		<path class="st1" d="M3980.5,2462.8V1097.9l0,0c-1.9-1.9-3.5-4.3-5.3-6.4c-1.9-2.3-3.7-4.7-5.5-7c-6.8-8.9-13.1-18.1-19-27.7
			c-0.3-0.6-0.7-1.1-1-1.6c0,0,0-0.1-0.1-0.1c0,0,0,0,0-0.1c0,0.1,0,0.2,0,0.2v1570.2l0,0c1.7-0.1,3.5-0.3,5.3-0.4
			c0.1,0,0.2,0,0.3,0c8.2-0.7,16.6-1.5,25.2-2.4v-97.3v-62.5H3980.5z"/>
		<path class="st1" d="M2609.2,2625.5V1057.8c-3.7,6.2-7.7,12.1-11.6,17.5c-1.1,1.6-2.3,3.2-3.4,4.7c-2.3,3.1-4.7,6.2-7.1,9.2
			c-0.2,0.3-0.4,0.5-0.6,0.8c-0.1,0.2-0.3,0.3-0.4,0.5l-0.1,0.1c-1.1,1.3-2.1,2.6-3.2,3.9c-1.3,1.5-2.6,3-3.8,4.5
			c-0.1,0.1-0.2,0.2-0.3,0.3v1426.3v96.9v0.1c9.2,1.1,18,1.9,26.7,2.6h0.1C2606.7,2625.3,2608,2625.4,2609.2,2625.5z"/>
		<path class="st1" d="M536.1,247.2c0,0.1,0.1,0.2,0.2,0.5c0.1,0.2,0.2,0.6,0.4,0.9c0.6,1.6,0.7,1.9,0.9,2.3l0.3,1.1
			c0.1,0.4,0.3,0.9,0.4,1.4l1.7,5.8l1,3.4c0.2,0.6,0.3,1.2,0.5,1.8l3.6,12.6c0.2,0.8,0.5,1.6,0.7,2.4s0.4,1.6,0.7,2.4l1.4,5.1
			l1.5,5.4l1.5,5.7l1.6,5.9c0.2,0.8,0.5,1.7,0.7,2.6l0.3,1.1c0.2,0.9,0.5,1.8,0.7,2.6l1.7,6.5l1.7,6.7l2.7,10.6
			c0.3,1.2,0.6,2.4,0.9,3.7l0.2,0.6c0.3,1,0.5,2.1,0.8,3.1l1.4,5.7L761,251.9l5.9-3c-0.4-0.9-0.7-1.7-1.1-2.6c-2-4.7-4-9.5-5.9-14.3
			c-8.8-22-17.7-45.5-20.6-69.1c-0.2-1.2-0.3-2.4-0.1-3.6c-67.8,29.2-168.1,71.2-203.7,86.5c0.1,0.1,0.1,0.2,0.2,0.3
			C535.8,246.3,536,246.7,536.1,247.2z"/>
		<path class="st1" d="M1625.5,285c-2.1,4.2-4.2,8.5-6.3,12.7c-0.3,0.5-0.5,1.1-0.8,1.6l8.1,4.1l115.2,55.5l91,43.9
			c0.2-0.9,0.4-1.8,0.6-2.8l0.1-0.7c0.3-1.5,0.7-3,1-4.5l1-4.5c0.1-0.7,0.3-1.3,0.4-2c0.1-0.6,0.3-1.2,0.4-1.8l-203.1-98L1625.5,285
			z"/>
		<path class="st1" d="M2040.3,1230.3c-0.3,0-0.6-0.1-0.8-0.1l0,0c-1-0.2-1.3-0.3-2.2-0.6c-0.6-0.2-1.1-0.3-2-0.6
			c-0.7-0.2-1.3-0.4-2-0.6c-0.4-0.1-0.8-0.2-1.2-0.4c-2.6-0.8-5.4-1.8-8.8-3.1c-1.8-0.7-3.7-1.4-5.5-2.2c-1.8-0.7-3.6-1.5-5.4-2.2
			c-1.8-0.8-3.6-1.5-5.4-2.3c-1.8-0.8-3.5-1.6-5.2-2.4s-3.5-1.6-5.2-2.5c-1.7-0.8-3.4-1.7-5.1-2.5c-1.7-0.9-3.3-1.7-5-2.6
			s-3.3-1.8-4.9-2.7c-1.6-0.9-3.2-1.8-4.9-2.8c-1.6-0.9-3.2-1.9-4.8-2.9s-3.1-1.9-4.7-2.9c-1.6-1-3.1-2-4.7-3c-1.5-1-3.1-2-4.6-3.1
			c-1.5-1-3-2.1-4.5-3.1c-1.5-1.1-2.9-2.1-4.4-3.2s-2.9-2.2-4.3-3.3c-1.3-1-2.6-2-3.9-3v1259.7v207.8l0,0c10-1.5,20.1-3.3,30.5-5.3
			c15.1-2.9,29.6-6.2,43.5-9.6c3.7-0.9,7.4-1.9,11-2.8c8.2-2.2,13.6-10.1,12.5-18.6c-0.4-3.1-0.8-6.2-1.1-9.4
			c-7.1-58.9-14.3-137.2-20.2-206.5c-6.2-72.2-10.9-134.6-12.4-155c-14-329.2,27.1-908.6,35.8-1008.1l0,0
			C2040.3,1230.3,2040.3,1230.3,2040.3,1230.3z"/>
		<path class="st1" d="M1669.9,162.9c-2.9,23.6-11.9,47.2-20.6,69.1c-2.2,5.6-4.6,11.3-7,16.8l5.9,3l197.4,95.2l1.4-5.7
			c0.3-1,0.5-2.1,0.8-3.1l0.2-0.6c0.3-1.2,0.6-2.5,0.9-3.7l2.7-10.6l1.7-6.7l1.7-6.5c0.2-0.9,0.5-1.8,0.7-2.6l0.3-1.1
			c0.2-0.9,0.5-1.7,0.7-2.6l1.6-5.9l1.5-5.7l1.5-5.4l1.4-5.1c0.2-0.8,0.4-1.6,0.7-2.4c0.2-0.8,0.5-1.6,0.7-2.4l3.6-12.6
			c0.2-0.6,0.3-1.1,0.5-1.8l1-3.4l1.7-5.8c0.1-0.5,0.3-1,0.4-1.4l0.3-1.1c0.1-0.4,0.2-0.7,0.9-2.3c0.1-0.3,0.3-0.6,0.4-0.9
			c0.1-0.3,0.2-0.4,0.2-0.5c0.1-0.5,0.3-0.9,0.5-1.2c0.1-0.1,0.1-0.2,0.2-0.3c-35.6-15.2-136-57.2-203.7-86.5
			C1670.2,160.5,1670,161.7,1669.9,162.9z"/>
		<path class="st1" d="M783.6,285l-7.7,3.6l-203.1,98c0.1,0.6,0.3,1.2,0.4,1.8c0.2,0.7,0.3,1.3,0.4,2l1,4.5c0.3,1.5,0.7,3,1,4.5
			l0.1,0.7c0.2,0.9,0.4,1.8,0.6,2.8l112.2-54.1l94-45.3l8.1-4.1c-0.3-0.5-0.5-1.1-0.8-1.6C787.8,293.5,785.7,289.2,783.6,285z"/>
		<path class="st1" d="M533.8,1106.9c-1,1.5-2,3-3,4.4c-1,1.5-2.1,2.9-3.1,4.4s-2.1,2.9-3.2,4.3c-1.1,1.4-2.1,2.8-3.2,4.3
			c-1.1,1.4-2.2,2.8-3.3,4.2c-1.1,1.4-2.3,2.8-3.4,4.2c-1.1,1.4-2.3,2.7-3.4,4.1c-0.3,0.3-0.5,0.6-0.8,1l-1.2,1.3
			c-0.5,0.6-1,1.1-1.5,1.7c-1.2,1.3-2.4,2.7-3.6,4c-0.1,0.1-0.1,0.1-0.2,0.2v1408.9v96.5l0,0c10.5,1.2,20.6,2.1,30.5,2.8V1106.1
			C534.2,1106.3,534,1106.6,533.8,1106.9z"/>
		<path class="st1" d="M468.3,1179.3v-1.3c-1.3,1-2.5,2-3.8,3c-1.4,1.1-2.9,2.2-4.3,3.3c-1.5,1.1-2.9,2.2-4.4,3.2
			c-1.5,1.1-3,2.1-4.5,3.1s-3,2.1-4.6,3.1c-1.5,1-3.1,2-4.7,3c-1.6,1-3.1,2-4.7,2.9c-1.6,1-3.2,1.9-4.8,2.9
			c-1.6,0.9-3.2,1.9-4.9,2.8c-1.6,0.9-3.3,1.8-4.9,2.7c-1.7,0.9-3.4,1.8-5,2.6c-1.7,0.9-3.4,1.7-5.1,2.5c-1.7,0.8-3.5,1.7-5.2,2.5
			c-1.8,0.8-3.5,1.6-5.2,2.4c-1.8,0.8-3.6,1.6-5.4,2.3c-1.8,0.8-3.6,1.5-5.4,2.2c-1.9,0.7-3.7,1.5-5.5,2.2c-3.4,1.3-6.2,2.3-8.8,3.1
			c-0.4,0.1-0.8,0.3-1.2,0.4c-0.7,0.2-1.3,0.4-2,0.6c-0.9,0.3-1.4,0.5-2,0.6c-0.8,0.3-1.2,0.4-2.2,0.6l0,0c-0.2,0.1-0.5,0.1-0.8,0.1
			h-0.1c0,0,0,0-0.1,0c8.7,99.5,49.8,678.9,35.8,1008.1c-1.5,20.4-6.2,82.8-12.4,155c-5.9,69.3-13.2,147.6-20.2,206.5
			c-0.5,4-1,7.8-1.4,11.6c-0.9,7.1,3.6,13.9,10.6,15.7c4.4,1.2,8.8,2.3,13.2,3.4c13.8,3.4,28.3,6.7,43.5,9.6
			c10.4,2,20.6,3.8,30.5,5.3v-0.3v-207.6L468.3,1179.3L468.3,1179.3z"/>
		<path class="st1" d="M1905.2,2553.7V1144.8c-0.1-0.1-0.1-0.1-0.2-0.2c-1.2-1.3-2.4-2.6-3.6-4c-0.5-0.6-1-1.1-1.5-1.7l-1.2-1.3
			c-0.3-0.3-0.6-0.7-0.8-1c-1.2-1.4-2.3-2.7-3.4-4.1s-2.2-2.7-3.4-4.2c-1.1-1.4-2.2-2.8-3.3-4.2c-1.1-1.4-2.2-2.8-3.2-4.3
			c-1.1-1.4-2.1-2.9-3.2-4.3s-2.1-2.9-3.1-4.4s-2-2.9-3-4.4c-0.2-0.3-0.4-0.6-0.6-0.9v1545.1v2c0,0,0,0,0.1,0
			c9.8-0.7,20-1.7,30.4-2.8L1905.2,2553.7L1905.2,2553.7z"/>
	</g>
	<g id="Color_1_00000173162867985411337530000002751079369317406365_">
		<path class="st2" d="M1874.7,1105.9c-0.8-1.2-1.6-2.3-2.3-3.5c-1-1.5-2-3-2.9-4.5c-0.5-0.7-0.9-1.5-1.4-2.2c0,0-1.2-1.9-1.5-2.4
			c-0.9-1.5-1.9-3.1-2.8-4.6s-1.8-3.1-2.7-4.7c-0.9-1.6-1.8-3.1-2.7-4.7c-0.9-1.6-1.7-3.2-2.6-4.8c-0.9-1.6-1.7-3.2-2.5-4.8
			c-0.8-1.6-1.7-3.2-2.5-4.8c-0.8-1.6-1.6-3.2-2.4-4.9c-0.8-1.6-1.6-3.3-2.3-4.9c-0.2-0.3-0.3-0.7-0.5-1l-0.5-1.1
			c-0.5-1-0.9-2-1.4-2.9c-0.8-1.6-1.5-3.3-2.2-4.9v-0.1c-0.7-1.7-1.5-3.4-2.2-5c-0.7-1.7-1.4-3.4-2.1-5.1s-1.4-3.4-2.1-5.1
			s-1.4-3.4-2-5.1c-0.7-1.7-1.3-3.5-2-5.2s-1.3-3.5-1.9-5.2s-1.3-3.5-1.9-5.3v-0.1c-0.6-1.7-1.2-3.5-1.8-5.2
			c-0.6-1.8-1.2-3.6-1.7-5.3c-0.6-1.8-1.1-3.6-1.7-5.4c-0.6-1.8-1.1-3.6-1.6-5.4c-0.5-1.8-1.1-3.6-1.6-5.4c-0.5-1.8-1-3.6-1.5-5.5
			c-0.5-1.8-1-3.6-1.5-5.5c-0.5-1.8-1-3.7-1.4-5.5c-0.5-1.9-0.9-3.7-1.4-5.6c-0.5-1.9-0.9-3.7-1.3-5.6c-0.4-1.7-0.8-3.3-1.2-5
			l-0.1-0.6c-0.4-1.9-0.8-3.7-1.3-5.6v-0.2c-0.4-1.8-0.8-3.6-1.2-5.4c-0.4-1.8-0.7-3.6-1.1-5.4v-0.2c-0.4-1.9-0.8-3.8-1.1-5.7
			c-0.4-1.9-0.7-3.8-1.1-5.7c-0.3-1.9-0.7-3.8-1-5.7s-0.6-3.7-1-5.6v-0.1c-0.3-1.9-0.6-3.9-0.9-5.8c-0.3-1.9-0.6-3.9-0.9-5.8
			c-0.3-1.9-0.6-3.9-0.9-5.9c-0.3-1.9-0.5-3.9-0.8-5.8c-0.2-1.8-0.5-3.5-0.7-5.3l-0.1-0.6c-0.2-1.3-0.3-2.6-0.5-4l-0.2-1.9
			c-0.2-2-0.5-3.9-0.7-5.9c-0.2-1.9-0.4-3.9-0.6-5.8v-0.1c-0.1-1.3-0.3-2.7-0.4-4l-0.2-2c-0.2-1.9-0.4-3.9-0.6-5.8
			c-0.2-2-0.4-4-0.5-5.9c-0.2-2-0.3-4-0.5-6s-0.3-4-0.4-6s-0.3-4-0.4-6s-0.3-4-0.4-6s-0.2-4-0.3-6c-0.1-2-0.2-4-0.3-6
			c-0.1-2-0.2-4-0.3-6c-0.1-2-0.2-4-0.2-6v-0.4c-0.1-1.9-0.1-3.7-0.2-5.6c-0.1-2-0.1-4-0.2-6s-0.1-4-0.1-6v-0.1c0-2-0.1-4-0.1-6
			s-0.1-4.1-0.1-6c0-2,0-4.1,0-6c0-2,0-4.1,0-6.1v-2c0-1.4,0-2.7,0-4.1l0.1-6.1v-2c0-1.3,0-2.7,0.1-4l0.1-6c0-2,0.1-4.1,0.2-6.1
			c0-1.9,0.1-3.8,0.2-5.7v-0.4c0.1-1.9,0.1-3.9,0.2-5.8v-0.2c0.1-1.7,0.1-3.3,0.2-5v-1c0.1-2,0.2-4,0.3-6v-0.1
			c0.1-2,0.2-3.9,0.3-5.9v-0.3c0.1-1.9,0.2-3.8,0.3-5.7c0.1-2,0.2-4,0.3-6l0.4-6c0.1-1.9,0.2-3.8,0.4-5.6v-0.4c0.1-2,0.3-4,0.4-6
			s0.3-4,0.4-5.9c0.1-2,0.3-4,0.5-6l0.1-0.7c0.1-1.8,0.3-3.6,0.4-5.3c0.2-1.9,0.3-3.7,0.5-5.6v-0.4c0.2-2,0.3-3.9,0.5-5.9l0.5-5.9
			c0.2-1.8,0.3-3.6,0.5-5.4v-0.5c0.2-2,0.4-3.9,0.6-5.9l0.6-5.8c0.2-1.8,0.4-3.6,0.6-5.4l0.1-0.8c0.2-1.8,0.4-3.7,0.6-5.5l0.2-2
			c0.1-1.3,0.3-2.5,0.4-3.8c0.2-1.9,0.4-3.9,0.7-5.8l0.7-5.7c0.2-1.9,0.5-3.8,0.7-5.8l0.7-5.7c0.2-1.9,0.5-3.8,0.7-5.7l0.8-5.6
			c0.2-1.8,0.5-3.6,0.7-5.4l0.8-5.9l0.8-5.6l0.8-5.5c0.3-1.9,0.5-3.7,0.8-5.6l0.8-5.5l0.8-5.5c0.3-1.8,0.6-3.7,0.9-5.4
			c0.3-1.8,0.6-3.6,0.9-5.4s0.6-3.6,0.9-5.4c0.3-1.6,0.5-3.3,0.8-4.9l1-5.8l0.9-5.3c0.3-1.8,0.6-3.5,0.9-5.2s0.6-3.4,0.9-5.1
			l0.3-1.9c0.2-1.2,0.4-2.3,0.6-3.5l1-5.6c0.3-1.5,0.6-3.1,0.8-4.6c0.3-1.7,0.6-3.4,1-5.1l1.2-6.4c0.2-1.2,0.5-2.4,0.7-3.6l1-4.9
			l1.1-5.7c0.3-1.4,0.5-2.7,0.8-4c0.3-1.6,0.6-3.2,1-4.8l1.9-9.5l1-4.7c0.3-1.6,0.7-3.1,1-4.7c0,0,1-4.5,1-4.6
			c0.1-0.3,0.2-0.7,0.2-1l-91-43.9l0,0l-115.2-55.5l-8.1-4.1c-2.6,5.2-5.2,10.4-7.9,15.6c0,0.2,0,0.3-0.1,0.5
			c-0.7,1.4-1.5,2.9-2.2,4.3c-24.2,47.1-47.9,86.5-68.2,118c-40.1,62.1-82.9,117.5-127.5,164.5c-51.7,54.7-106,98.3-161.5,130
			c0,0-35.3,17.6-40.1,20l-0.5,0.3c0,0,0,0-0.1,0l-5.7,2.9l0,0l0,0l-5.7-2.9h-0.1l-0.5-0.3c-4.8-2.4-40.1-20-40.1-20
			c-55.5-31.7-109.7-75.4-161.5-130c-44.5-47-87.4-102.4-127.5-164.5c-20.3-31.5-44-70.9-68.2-118c-0.7-1.5-1.5-2.9-2.2-4.3
			c-0.1-0.1-0.1-0.3-0.1-0.5c-2.6-5.2-5.3-10.4-7.9-15.6l-8.1,4.1l-94,45.3l0,0L576.6,403c0.1,0.3,0.2,0.7,0.2,1c0,0.2,1,4.6,1,4.6
			c0.3,1.6,0.7,3.1,1,4.7l1,4.7l1.9,9.5c0.3,1.6,0.7,3.2,1,4.8c0.3,1.3,0.5,2.7,0.8,4l1.1,5.7l1,4.9c0.2,1.2,0.5,2.4,0.7,3.6
			l1.2,6.4c0.3,1.7,0.6,3.4,1,5.1c0.3,1.5,0.6,3,0.8,4.6l1,5.6c0.2,1.1,0.4,2.3,0.6,3.5l0.3,1.9c0.3,1.7,0.6,3.4,0.9,5.1
			c0.3,1.7,0.6,3.5,0.9,5.2l0.9,5.3l1,5.8c0.3,1.6,0.6,3.3,0.8,4.9c0.3,1.8,0.6,3.6,0.9,5.4c0.3,1.8,0.6,3.6,0.9,5.4
			c0.3,1.8,0.6,3.6,0.9,5.4l0.8,5.5l0.8,5.5c0.3,1.9,0.6,3.7,0.8,5.6l0.8,5.5l0.8,5.6l0.8,5.9c0.2,1.8,0.5,3.6,0.7,5.4l0.8,5.6
			c0.3,1.9,0.5,3.8,0.7,5.7l0.7,5.7c0.2,1.9,0.5,3.8,0.7,5.8l0.7,5.7c0.2,1.9,0.5,3.9,0.7,5.8c0.1,1.2,0.3,2.5,0.4,3.8l0.2,2
			c0.2,1.8,0.4,3.7,0.6,5.5l0.1,0.8c0.2,1.8,0.4,3.6,0.6,5.4l0.6,5.8c0.2,2,0.4,3.9,0.6,5.9v0.5c0.2,1.8,0.4,3.6,0.5,5.4l0.5,5.9
			c0.2,2,0.4,4,0.5,5.9v0.4c0.2,1.9,0.3,3.7,0.5,5.6c0.2,1.7,0.3,3.5,0.4,5.3l0.1,0.7c0.2,2,0.3,4,0.5,6c0.1,2,0.3,4,0.4,5.9
			c0.1,2,0.3,4,0.4,6v0.4c0.1,1.9,0.2,3.8,0.4,5.6l0.4,6c0.1,2,0.2,4,0.3,6c0.1,1.9,0.2,3.8,0.3,5.7v0.3c0.1,2,0.2,3.9,0.3,5.9v0.1
			c0.1,2,0.2,4,0.3,6v1c0.1,1.7,0.1,3.3,0.2,5v0.2c0.1,1.9,0.1,3.9,0.2,5.8v0.4c0.1,1.9,0.1,3.8,0.2,5.7c0.1,2,0.1,4,0.2,6.1l0.1,6
			c0,1.3,0,2.7,0.1,4v2l0.1,6.1c0,1.4,0,2.7,0,4.1v2c0,2,0,4.1,0,6.1s0,4,0,6s0,4-0.1,6c0,2,0,4-0.1,6v0.1c0,2-0.1,4-0.1,6
			s-0.1,4-0.2,6c-0.1,1.9-0.1,3.8-0.2,5.6v0.4c-0.1,2-0.2,4-0.2,6c-0.1,2-0.2,4-0.3,6s-0.2,4-0.3,6s-0.2,4-0.3,6s-0.2,4-0.4,6
			c-0.1,2-0.3,4-0.4,6c-0.1,2-0.3,4-0.4,6c-0.2,2-0.3,4-0.5,6s-0.3,4-0.5,5.9c-0.2,2-0.4,3.9-0.6,5.8l-0.2,2c-0.1,1.3-0.3,2.7-0.4,4
			v0.1c-0.2,1.9-0.4,3.9-0.6,5.8c-0.2,1.9-0.4,3.9-0.7,5.9l-0.2,1.9c-0.2,1.3-0.3,2.6-0.5,4l-0.1,0.6c-0.2,1.8-0.5,3.5-0.7,5.3
			c-0.3,1.9-0.5,3.9-0.8,5.8c-0.3,2-0.6,3.9-0.9,5.9c-0.3,1.9-0.6,3.9-0.9,5.8c-0.3,1.9-0.6,3.9-0.9,5.8v0.1c-0.3,1.9-0.6,3.7-1,5.6
			c-0.3,1.9-0.7,3.8-1,5.7c-0.4,1.9-0.7,3.8-1.1,5.7c-0.4,1.9-0.7,3.8-1.1,5.7v0.2c-0.4,1.8-0.7,3.6-1.1,5.4
			c-0.4,1.8-0.8,3.6-1.2,5.4v0.2c-0.4,1.9-0.8,3.8-1.3,5.6l-0.1,0.6c-0.4,1.7-0.8,3.3-1.2,5c-0.4,1.8-0.9,3.7-1.3,5.6
			c-0.5,1.9-0.9,3.7-1.4,5.6c-0.5,1.8-1,3.7-1.4,5.5c-0.5,1.9-1,3.7-1.5,5.5s-1,3.7-1.5,5.5s-1,3.6-1.6,5.4
			c-0.5,1.8-1.1,3.6-1.6,5.4c-0.6,1.8-1.1,3.6-1.7,5.4c-0.6,1.8-1.1,3.5-1.7,5.3c-0.6,1.7-1.2,3.5-1.8,5.2v0.1
			c-0.6,1.8-1.2,3.5-1.9,5.3s-1.3,3.5-1.9,5.2c-0.6,1.7-1.3,3.5-2,5.2c-0.7,1.7-1.3,3.4-2,5.1s-1.4,3.4-2.1,5.1
			c-0.7,1.7-1.4,3.4-2.1,5.1c-0.7,1.7-1.4,3.4-2.2,5v0.1c-0.7,1.6-1.5,3.3-2.2,4.9c-0.4,1-0.9,1.9-1.4,2.9l-0.5,1.1
			c-0.2,0.3-0.3,0.7-0.5,1c-0.7,1.6-1.5,3.2-2.3,4.9c-0.8,1.7-1.6,3.3-2.4,4.9c-0.8,1.6-1.6,3.2-2.5,4.8c-0.8,1.6-1.7,3.2-2.5,4.8
			c-0.9,1.6-1.7,3.2-2.6,4.8c-0.9,1.6-1.8,3.1-2.7,4.7s-1.8,3.1-2.7,4.7c-0.9,1.5-1.8,3.1-2.8,4.6c-0.2,0.4-1.5,2.4-1.5,2.4
			c-0.5,0.7-0.9,1.5-1.4,2.2c-1,1.5-1.9,3-2.9,4.5c-0.8,1.2-1.6,2.4-2.4,3.6v1547.1l0,0c0,0,638,44.5,1340.3,0v-2L1874.7,1105.9
			C1874.7,1106,1874.7,1106,1874.7,1105.9z"/>
		<path class="st2" d="M3949.7,1055c-0.9-1.4-1.7-2.9-2.6-4.3c-1.3-2.3-2.6-4.6-3.8-6.8c-33.8-61.6-53.8-144.4-59.5-246.1
			c-4.2-74.7,1.1-148.1,6.8-210c1-10.9,2-21.8,2.9-32.7c0.9-9.7,1.7-19.4,2.6-29.1c4-43.8,8.7-90.7,16.3-137.1
			c0.8-5.1,1.7-10.4,2.8-16.1l-0.1-0.1c0-0.1,0-0.1,0-0.2c0.1-0.3,0.1-0.6,0.2-0.9c0-0.3,0.1-0.5,0.1-0.8c0.1-0.4,0.1-0.7,0.2-1.1
			l-395.2-195.6c-0.5,0-0.9,0.1-1.4,0.1c-0.1,0-0.2,0-0.4,0l-1.8,0.1h-0.1c-2,0.1-4,0.2-6.1,0.3c-0.2,0-0.5,0-0.7,0l-2.3,0.1
			c-0.3,0-0.5,0-0.8,0h-0.2c-0.2,0-0.4,0-0.6,0c-0.5,0-1,0-1.5,0.1c-0.1,0-0.3,0-0.4,0h-0.4c-0.1,0-0.2,0-0.3,0l-1.5,0.1
			c-0.2,0-0.3,0-0.5,0h-0.3c-0.5,0-1,0-1.6,0.1c-0.2,0-0.4,0-0.6,0l-2.5,0.1c-0.1,0-0.1,0-0.2,0c-0.9,0-1.7,0.1-2.6,0.1l-5.2,0.2
			c-1.9,0.1-3.8,0.1-5.8,0.2h-0.3c-4.4,0.1-9,0.3-13.8,0.4l-3.9,0.1c-2,0.1-4.1,0.1-6.2,0.2h-0.3c-3.3,0.1-6.7,0.2-10.1,0.3
			c-0.1,0-0.3,0-0.4,0c-2,0.1-4.1,0.1-6.1,0.2l-9.4,0.2c-2.1,0-4.2,0.1-6.4,0.1h-0.2c-0.2,0-0.3,0-0.5,0l-11.1,0.2h-0.2
			c-0.1,0-0.3,0-0.4,0c-3.8,0.1-7.6,0.1-11.5,0.2h-0.3c-0.2,0-0.3,0-0.5,0l-12,0.2c-0.2,0-0.4,0-0.5,0l-12.2,0.2c-0.2,0-0.4,0-0.5,0
			c-4,0.1-8.1,0.1-12.2,0.2h-0.2c-0.2,0-0.4,0-0.6,0l-12.8,0.2c-0.2,0-0.4,0-0.6,0h-5.4l-16.2,0.1c-1.7,0-3.5,0-5.2,0
			c-0.3,0-0.7,0-1,0c-1.8,0-3.7,0-5.5,0c-0.2,0-0.3,0-0.5,0l-35.5,0.1l-35.5-0.1c-0.2,0-0.3,0-0.5,0c-1.8,0-3.7,0-5.5,0
			c-0.2,0-0.5,0-0.8,0c0.2,0.1,0.6,0.1,0.9,0.1c-0.1,0-0.3,0-0.4,0l-5.7-0.1l0,0c-0.4,0.1-0.6,0.1-0.9,0.1l-6.6-0.1
			c-0.2,0-0.4,0-0.6,0l-5.3-0.1h-3h-5.4c-0.2,0-0.4,0-0.6,0l-12.8-0.2c-0.2,0-0.4,0-0.6,0h-0.2c-4.1,0-8.1-0.1-12.2-0.2
			c-0.2,0-0.4,0-0.5,0l-12.2-0.2c-0.2,0-0.4,0-0.5,0l-12-0.2c-0.2,0-0.3,0-0.5,0h-0.3c-3.9-0.1-7.7-0.1-11.5-0.2c-0.1,0-0.3,0-0.4,0
			h-0.2l-11.1-0.2c-0.2,0-0.3,0-0.5,0h-0.2c-2.2,0-4.3-0.1-6.4-0.1l-9.4-0.2c-2.1,0-4.1-0.1-6.1-0.2c-0.1,0-0.3,0-0.4,0
			c-3.4-0.1-6.8-0.2-10.1-0.3h-0.3c-2.1-0.1-4.1-0.1-6.2-0.2l-3.9-0.1c-4.8-0.1-9.4-0.3-13.8-0.4h-0.3c-2-0.1-3.9-0.1-5.8-0.2
			l-5.2-0.2c-0.9,0-1.8-0.1-2.6-0.1c-0.1,0-0.1,0-0.2,0l-2.5-0.1c-0.2,0-0.4,0-0.6,0c-0.5,0-1.1,0-1.6-0.1h-0.3c-0.2,0-0.3,0-0.5,0
			l-1.5-0.1c-0.1,0-0.2,0-0.3,0h-0.4c-0.2,0-0.3,0-0.4,0c-0.5,0-1,0-1.5-0.1c-0.2,0-0.4,0-0.6,0h-0.2c-0.3,0-0.5,0-0.8,0l-2.3-0.1
			c-0.2,0-0.5,0-0.7,0c-0.1,0-0.2,0-0.3,0c-2-0.1-3.9-0.2-5.9-0.3l0,0l-1.6-0.1h-0.1l0,0h-0.1l0.1,0.1l-384.3,189.5l-12.6,6.3
			c0.1,0.3,0.1,0.6,0.2,0.9c0,0.3,0.1,0.5,0.1,0.8c0.1,0.3,0.1,0.6,0.2,0.9c1,5.9,1.9,11.2,2.8,16.3c7.6,46.4,12.3,93.3,16.3,137.1
			c0.9,9.7,1.7,19.4,2.6,29.1c1,10.9,1.9,21.8,2.9,32.7c5.7,62,10.9,135.4,6.8,210c-5.7,101.7-25.7,184.5-59.5,246.1
			c-1.2,2.2-2.5,4.5-3.8,6.8c-1.1,2-2.3,4-3.6,6.1c-0.1,0.2-0.3,0.5-0.4,0.7c-0.1,0.1-0.1,0.2-0.2,0.3v1567.7
			c-1.2-0.1-2.5-0.2-3.7-0.3h-0.1v0.2c687.1,44.5,1344.3,0,1344.3,0V1055.2C3949.7,1055.2,3949.7,1055.1,3949.7,1055z"/>
	</g>
	<g id="Trim_00000053505694297970297380000012528866242237056937_">
		<path class="st4" d="M2858.8,109.3c0.8,0.7,1.7,1.3,2.5,1.9c0.5,0.4,1.1,0.8,1.6,1.2c6.1,4.4,12.3,8.6,18.7,12.6
			c3.2,2,6.4,4,9.6,5.9c3.1,1.8,6.4,3.4,9.7,5c16.2,8,32.9,14.9,50,20.5c0.2,0,0.5,0.1,0.7,0.2l0,0c0,0,0,0,0.1,0
			c19.6,6.4,39.7,11.2,60,14.3h0.1l0,0c7.6,1.1,15.2,2.1,22.9,2.7c2.1,0.2,4.4,0.4,6.8,0.5h0.1l0,0h0.1l1.6,0.1l0,0
			c2,0.1,3.9,0.2,5.9,0.3c0.1,0,0.2,0,0.3,0c0.2,0,0.5,0,0.7,0l2.3,0.1c0.3,0,0.5,0,0.8,0h0.2c0.2,0,0.4,0,0.6,0
			c0.5,0.1,1,0.1,1.5,0.1c0.1,0,0.2,0,0.4,0h0.4c0.1,0,0.2,0,0.3,0l1.5,0.1c0.2,0,0.3,0,0.5,0h0.3c0.5,0.1,1.1,0.1,1.6,0.1
			c0.2,0,0.4,0,0.6,0l2.5,0.1c0.1,0,0.1,0,0.2,0c0.8,0,1.7,0.1,2.6,0.1l5.2,0.2c1.9,0.1,3.8,0.1,5.8,0.2h0.3c4.4,0.1,9,0.3,13.8,0.4
			l3.9,0.1c2.1,0.1,4.1,0.1,6.2,0.2h0.3c3.3,0.1,6.7,0.2,10.1,0.3c0.1,0,0.3,0,0.4,0c2,0.1,4,0.2,6.1,0.2l9.4,0.2
			c2.1,0,4.2,0.1,6.4,0.1h0.2c0.2,0,0.3,0,0.5,0l11.1,0.2h0.2c0.1,0,0.3,0,0.4,0c3.8,0.1,7.6,0.1,11.5,0.2h0.3c0.2,0,0.3,0,0.5,0
			l12,0.2c0.1,0,0.3,0,0.5,0l12.2,0.2c0.1,0,0.3,0,0.5,0c4.1,0.1,8.1,0.2,12.2,0.2h0.2c0.2,0,0.4,0,0.6,0l12.8,0.2
			c0.2,0,0.4,0,0.6,0h5.4h3l5.3,0.1c0.2,0,0.4,0,0.6,0l6.6,0.1c0.3,0,0.5,0,0.9-0.1l0,0l5.7,0.1c0.1,0,0.3,0,0.4,0
			c-0.3,0-0.7,0-0.9-0.1c0.3,0,0.6,0,0.8,0c1.8,0,3.7,0,5.5,0c0.2,0,0.3,0,0.5,0l35.5,0.1l35.5-0.1c0.2,0,0.3,0,0.5,0
			c1.8,0,3.7,0,5.5,0c0.3,0,0.7,0,1,0c1.7,0,3.5,0,5.2,0l16.2-0.1h5.4c0.2,0,0.4,0,0.6,0l12.8-0.2c0.2,0,0.4,0,0.6,0h0.2
			c4.1-0.1,8.2-0.1,12.2-0.2c0.1,0,0.3,0,0.5,0l12.2-0.2c0.1,0,0.3,0,0.5,0l12-0.2c0.2,0,0.3,0,0.5,0h0.3c3.9-0.1,7.7-0.1,11.5-0.2
			c0.1,0,0.3,0,0.4,0h0.2l11.1-0.2c0.2,0,0.3,0,0.5,0h0.2c2.2,0,4.3-0.1,6.4-0.1l9.4-0.2c2-0.1,4.1-0.1,6.1-0.2c0.1,0,0.3,0,0.4,0
			c3.4-0.1,6.8-0.2,10.1-0.3h0.3c2.1-0.1,4.2-0.1,6.2-0.2l3.9-0.1c4.8-0.1,9.4-0.3,13.8-0.4h0.3c2-0.1,3.9-0.1,5.8-0.2l5.2-0.2
			c0.9,0,1.7-0.1,2.6-0.1c0.1,0,0.1,0,0.2,0l2.5-0.1c0.2,0,0.4,0,0.6,0c0.6-0.1,1.1-0.1,1.6-0.1h0.3c0.2,0,0.3,0,0.5,0l1.5-0.1
			c0.1,0,0.2,0,0.3,0h0.4c0.1,0,0.3,0,0.4,0c0.5-0.1,1-0.1,1.5-0.1c0.2,0,0.4,0,0.6,0h0.2c0.3,0,0.5,0,0.8,0l2.3-0.1
			c0.2,0,0.5,0,0.7,0c2.1-0.1,4.1-0.2,6.1-0.3h0.1l1.8-0.1c0.2,0,0.3,0,0.4,0c0.5,0,1-0.1,1.4-0.1c1.8-0.1,3.4-0.2,5-0.4
			c3.9-0.4,7.9-0.8,11.8-1.2c3.9-0.5,7.7-1,11.6-1.6c0.4-0.1,0.8-0.1,1.2-0.2c0.4-0.1,0.7-0.1,1.1-0.2c0.3-0.1,0.7-0.1,1-0.2
			c0.7-0.1,1.4-0.2,2.1-0.3c0.1,0,0.2,0,0.3,0c0.6-0.1,1.2-0.2,1.8-0.3s1.1-0.2,1.7-0.3c0.1,0,0.3-0.1,0.4-0.1
			c0.7-0.1,1.4-0.3,2.1-0.4c0.7-0.1,1.4-0.3,2.1-0.4c0.4-0.1,0.9-0.2,1.3-0.2c0.1,0,0.2,0,0.2,0c0.2,0,0.4-0.1,0.6-0.1
			c0.7-0.1,1.4-0.3,2.1-0.4c0.7-0.1,1.4-0.3,2.1-0.4c0.7-0.1,1.4-0.3,2.1-0.4s1.4-0.3,2.1-0.5c0.7-0.2,1.4-0.3,2.1-0.5
			c0.7-0.2,1.4-0.3,2.1-0.5c0.7-0.2,1.4-0.3,2.1-0.5c0.7-0.2,1.4-0.3,2.1-0.5c0.7-0.2,1.4-0.3,2.1-0.5s1.4-0.4,2.1-0.5
			s1.4-0.4,2.1-0.5c0.7-0.2,1.4-0.4,2.1-0.6c0.7-0.2,1.4-0.4,2.1-0.6c0.7-0.2,1.4-0.4,2.1-0.6c0.7-0.2,1.4-0.4,2.1-0.6
			c0.7-0.2,1.4-0.4,2.1-0.6s1.4-0.4,2.1-0.6c0.7-0.2,1.4-0.4,2.1-0.6s1.4-0.4,2-0.6c0.7-0.2,1.4-0.4,2-0.6c0.7-0.2,1.4-0.4,2-0.7
			c0.2-0.1,0.5-0.1,0.7-0.2c0.1,0,0.1,0,0.2-0.1c0.4-0.1,0.8-0.2,1.1-0.4c0.7-0.2,1.3-0.4,2-0.7c0.7-0.2,1.3-0.5,2-0.7
			s1.3-0.5,2-0.7s1.3-0.5,2-0.7s1.3-0.5,2-0.7s1.3-0.5,2-0.7s1.3-0.5,2-0.7s1.3-0.5,2-0.8s1.3-0.5,2-0.8s1.3-0.5,2-0.8
			s1.3-0.5,2-0.8s1.3-0.5,2-0.8s1.3-0.5,2-0.8s1.3-0.5,2-0.8s1.3-0.6,1.9-0.8c0.6-0.3,1.3-0.6,1.9-0.8c0.6-0.3,1.3-0.6,1.9-0.9
			c0.6-0.3,1.3-0.6,1.9-0.9c0.6-0.3,1.3-0.6,1.9-0.9c0.6-0.3,1.3-0.6,1.9-0.9c0.6-0.3,1.3-0.6,1.9-0.9c0.6-0.3,1.3-0.6,1.9-0.9
			c0.6-0.3,1.3-0.6,1.9-0.9s1.3-0.6,1.9-0.9c0.6-0.3,1.3-0.6,1.9-0.9c3.1-1.5,6.1-3.1,9-4.7c5.7-3.1,11.2-6.6,16.5-10.3
			c1.6-1.1,3.3-2.2,4.9-3.4c0.6-0.4,1.2-0.8,1.8-1.2c1-0.8,2.2-1.4,3.2-2.1c0.4-0.3,0.8-0.6,1.3-0.9c1.2-0.8,2.3-1.6,3.4-2.5
			c1.1-0.8,2.1-1.6,3.1-2.5c0.1-0.1,0.2-0.3,0.3-0.4c0-0.1,0.1-0.2,0.1-0.3v-0.1c0.1-0.4,0.1-0.9-0.2-1.3c-0.3-0.5-0.8-0.9-1.3-1.3
			c-1.9-1.4-4.2-2.3-6.4-3.2c-3.1-1.2-14.2-5.4-17.3-6.4c-0.3-0.1-0.7-0.2-1.1-0.3c-2.7-1-5.4-1.9-8.2-2.7c-6.1-1.9-19.7-6-25.9-7.5
			c-0.9-0.2-1.7-0.4-2.5-0.5c-3.8-0.7-6.5-0.4-9.3,0.3c0,0-18.9,6.9-53.6,15.1c-3.3,0.9-6.5,1.7-9.8,2.5c-1.3,0.4-2.7,0.7-4.1,1
			c-17.3,3.8-34.6,6.9-52.1,9.3c-0.1,0-0.1,0-0.2,0c-6,0.9-12.6,1.8-19.9,2.5c-11.7,1.4-23.4,2.4-35.1,3.3
			c-22.4,1.4-44.8,1.9-67.2,2.2c-1.6,0-3.1,0-4.7,0c-20.8,0.2-41.6,0.2-62.4,0.3c0,0,0,0-0.1,0c-1.7,0-17.7,0.3-41.5,0.4
			c-23.8-0.1-39.8-0.4-41.5-0.4h-0.1c-20.8-0.1-41.6-0.1-62.4-0.3c-1.6,0-3.1,0-4.7,0c-22.4-0.3-44.8-0.8-67.2-2.2
			c-11.7-0.9-23.4-2-35.1-3.3c-7.3-0.7-14-1.6-19.9-2.5c-0.1,0-0.1,0-0.2,0c-17.5-2.4-34.9-5.5-52.1-9.3c-1.3-0.3-2.7-0.7-4.1-1
			c-3.3-0.8-6.6-1.6-9.8-2.5c-34.7-8.1-53.6-15.1-53.6-15.1c-2.8-0.7-5.5-0.9-9.3-0.3c-0.8,0.1-1.6,0.3-2.5,0.5
			c-6.2,1.5-19.8,5.6-25.9,7.5c-2.8,0.8-5.5,1.7-8.2,2.7c-0.3,0.1-0.7,0.2-1.1,0.3c-3.2,0.9-14.2,5.2-17.3,6.4
			c-2.2,0.8-4.5,1.8-6.4,3.2c-0.6,0.4-1.4,1.1-1.5,1.8c0,0.1,0,0.2,0,0.3c0,0.3,0.1,0.6,0.3,0.9
			C2857.8,108.5,2858.4,109,2858.8,109.3z"/>
		<path class="st4" d="M2445,1204.6c0.1-0.1,0.2-0.1,0.3-0.1s0.2-0.1,0.3-0.1c0.1-0.1,0.3-0.1,0.4-0.2c1.4-0.6,2.8-1.3,4.2-2
			c0.3-0.1,0.5-0.2,0.8-0.4c0.2-0.1,0.4-0.2,0.6-0.3c0.1,0,0.1-0.1,0.2-0.1c2.1-1,4.2-2,6.3-3.1c0.3-0.2,0.6-0.3,0.9-0.5l0,0
			c0.2-0.1,0.3-0.2,0.5-0.3c0.9-0.5,1.7-1,2.6-1.5c0.3-0.2,0.5-0.3,0.8-0.5c9.5-5.7,18.9-11.7,28-18.1c2.2-1.6,4.4-3.1,6.5-4.7
			c6.5-4.7,12.9-9.6,19.1-14.6c5.2-4.2,10.3-8.6,15.4-13c0.8-0.6,1.5-1.3,2.3-2c0.8-0.8,1.7-1.5,2.6-2.3c2.5-2.1,4.6-3.9,6.4-5.6
			c0.1-0.1,0.1-0.1,0.2-0.2c0.9-0.8,1.8-1.6,2.6-2.4c0.3-0.2,0.5-0.5,0.8-0.7c0.1-0.2,0.5-0.5,0.5-0.5c0.6-0.5,1.1-1,1.6-1.5
			l0.7-0.7c6.9-6.5,13.4-13,19.4-19.4c3.2-3.4,6.4-7,9.7-10.7c0.1-0.1,0.2-0.2,0.3-0.3c1.2-1.5,2.5-3,3.8-4.5
			c1.1-1.3,2.1-2.6,3.2-3.9l0.1-0.1c0.1-0.2,0.3-0.3,0.4-0.5c0.2-0.3,0.4-0.5,0.6-0.8c2.4-3,4.8-6.1,7.1-9.2
			c1.1-1.5,2.3-3.1,3.4-4.7c3.9-5.4,7.9-11.3,11.6-17.5c0.1-0.1,0.1-0.2,0.2-0.3c0.1-0.2,0.3-0.5,0.4-0.7c1.3-2.1,2.5-4.1,3.6-6.1
			c1.3-2.3,2.6-4.6,3.8-6.8c33.8-61.6,53.8-144.4,59.5-246.1c4.1-74.6-1.1-148-6.8-210c-1-10.9-1.9-21.8-2.9-32.7
			c-0.9-9.7-1.7-19.4-2.6-29.1c-4-43.8-8.7-90.7-16.3-137.1c-0.9-5.1-1.8-10.4-2.8-16.3c-0.1-0.3-0.1-0.6-0.2-0.9
			c0-0.3-0.1-0.5-0.1-0.8c-0.1-0.3-0.1-0.6-0.2-0.9l0,0l0,0c-0.1-0.4-0.1-0.7-0.2-1.1c-0.6-3.1-1.1-6.2-1.7-9.3l0,0
			c-0.3-1.7-0.6-3.5-0.9-5.2c-0.1-0.3-0.1-0.6-0.2-0.9l0,0c0-0.1,0-0.2,0-0.3c-2.1-11.3-4.3-22.6-6.7-33.9c-0.3-1.6-0.6-3.3-1-4.9
			c-0.1-0.2-0.1-0.5-0.2-0.7c0-0.1,0-0.1,0-0.2c-2-9.3-4.1-18.6-6.2-27.9c-2.6-11.2-5.3-22.4-8.1-33.6l-9.9-37.3
			c0-0.3-0.2-0.5-0.4-0.7c-0.1-0.1-0.3-0.2-0.4-0.3c-0.1,0-0.2-0.1-0.3-0.1c-0.1-0.1-0.2-0.1-0.3-0.2c-1.2-0.4-9.9,3.1-14.7,4.6
			c-2.9,0.9-6.3,2-8.6,2.8c-6.6,2.1-12.5,4.4-19.1,6.3c-2,0.6-2.9,0.9-4.9,1.5c-1.4,0.4-4.9,1.2-5.7,2.7c-1.3,2.5,2,12.5,4.2,20.4
			c35.3,128.4,49.4,262.2,56.6,395.1c0.8,15.4,1.5,30.7,2.1,46c2.3,57.3,2.8,114.9-5.1,171.7c-5.8,41.5-17.3,82.1-34,120.4
			c-15,34.3-33,65.8-59.8,91.9c-12,11.7-24.9,22.3-38.2,32.5c-13,9.9-26.3,18.6-40.1,27.3c-2.1,1.4-3.4,3.8-3.1,6.3
			c0.6,8.6,2,28.7,3.3,41c0.6,6.7,1.2,12.8,1.7,16.8c0.2,1.8,0.4,3.6,1.5,3.9c0.1,0,0.3,0,0.5,0l0,0
			C2445,1204.6,2445,1204.6,2445,1204.6z"/>
		<path class="st4" d="M4119.3,1136.7c-13.8-8.6-27.1-17.3-40.1-27.3c-13.2-10.2-26.2-20.8-38.2-32.5
			c-26.8-26.1-44.8-57.6-59.8-91.9c-16.8-38.3-28.2-78.9-34-120.4c-7.9-56.8-7.3-114.4-5.1-171.7c0.6-15.4,1.3-30.7,2.1-46
			c7.2-132.8,21.4-266.6,56.6-395.1c2.1-7.9,5.5-17.9,4.2-20.4c-0.8-1.5-4.2-2.3-5.7-2.7c-2-0.6-2.9-0.9-4.9-1.5
			c-6.6-1.9-12.6-4.2-19.1-6.3c-2.3-0.8-5.7-1.9-8.6-2.8c-4.7-1.5-13.5-5-14.7-4.6c-0.1,0.1-0.3,0.1-0.4,0.2
			c-0.1,0.1-0.2,0.1-0.3,0.2c-0.1,0-0.1,0.1-0.2,0.1c-0.2,0.2-0.3,0.4-0.4,0.7l-9.9,37.3c-2.8,11.2-5.5,22.4-8.1,33.6
			c-2.1,9.3-4.1,18.5-6.1,27.8c0,0.3-0.1,0.7-0.2,1c-0.1,0.6-0.2,1.2-0.4,1.8c-0.2,1-0.4,2.1-0.6,3.1c-1.3,6.2-2.6,12.3-3.8,18.5
			c-1,5.1-2,10.3-2.9,15.4v0.1c-0.1,0.4-0.1,0.7-0.2,1.1c-0.3,1.7-0.6,3.5-0.9,5.2c-0.6,3.1-1.2,6.2-1.7,9.3
			c-0.1,0.3-0.1,0.6-0.2,0.9c0,0.2-0.1,0.3-0.1,0.5s-0.1,0.4-0.1,0.6c0,0.3-0.1,0.5-0.1,0.8c-0.1,0.3-0.1,0.6-0.2,0.9
			c0,0.1,0,0.1,0,0.2c-1.1,5.7-2,11.1-2.8,16.1c-7.6,46.4-12.3,93.3-16.3,137.1c-0.9,9.7-1.7,19.4-2.6,29.1
			c-0.9,10.9-1.9,21.8-2.9,32.7c-5.7,61.9-11,135.3-6.8,210c5.7,101.7,25.7,184.5,59.5,246.1c1.2,2.2,2.5,4.5,3.8,6.8
			c0.9,1.4,1.7,2.9,2.6,4.3c0,0,0,0,0,0.1c0,0,0,0.1,0.1,0.1c0.3,0.5,0.7,1,1,1.6c5.9,9.5,12.2,18.8,19,27.7c1.8,2.4,3.6,4.7,5.5,7
			c1.7,2.1,3.3,4.5,5.3,6.4l0,0l0.1,0.1c3.7,4.3,7.3,8.3,10.9,12.1c6,6.4,12.5,12.9,19.4,19.4l0.7,0.7c0.6,0.5,1.1,1,1.6,1.5
			c0,0,0.3,0.3,0.5,0.5c0.3,0.2,0.5,0.5,0.8,0.7c0.6,0.6,1.2,1.2,1.9,1.8c0.1,0.1,0.1,0.1,0.2,0.2c2,1.8,4.3,3.8,7,6.2
			c0.9,0.8,1.7,1.5,2.6,2.3c0.8,0.6,1.5,1.3,2.3,2c5,4.4,10.2,8.8,15.4,13c6.3,5,12.6,9.9,19.1,14.6c2.1,1.6,4.3,3.2,6.5,4.7
			c9.1,6.4,18.5,12.4,28,18.1c1.2,0.7,2.3,1.4,3.5,2c0.1,0,0.3,0.1,0.4,0.2c1.1,0.6,2.3,1.2,3.4,1.8c0.2,0.1,0.4,0.2,0.6,0.3
			c1.1,0.5,2.3,1.1,3.4,1.6c0.2,0.1,0.4,0.2,0.6,0.3c1.8,0.8,3.6,1.6,5.4,2.5c0.1,0,0.2,0.1,0.3,0.1c0.1,0.1,0.2,0.1,0.3,0.1
			s0.2,0,0.3,0s0.1,0,0.2,0h0.1c1.1-0.2,1.3-2.1,1.5-3.9c0.5-4,1.1-10.1,1.7-16.8c1.3-12.3,2.7-32.4,3.3-41
			C4122.7,1140.5,4121.5,1138,4119.3,1136.7z"/>
		<path class="st4" d="M739.3,162.9c2.9,23.6,11.9,47.2,20.6,69.1c1.9,4.8,3.9,9.5,5.9,14.3c0.4,0.9,0.7,1.7,1.1,2.6
			c5.3,12.2,10.9,24.2,16.7,36.1c2.1,4.2,4.2,8.5,6.3,12.7c0.3,0.5,0.5,1.1,0.8,1.6c2.6,5.2,5.2,10.4,7.9,15.6c0,0.2,0,0.3,0.1,0.5
			c0.7,1.4,1.5,2.9,2.2,4.3c24.2,47.1,47.9,86.5,68.2,118c40.1,62.1,82.9,117.5,127.5,164.5c51.7,54.7,106,98.3,161.5,130
			c0,0,35.3,17.6,40.1,20l0.5,0.3c0,0,0,0,0.1,0l5.7,2.9l0,0l0,0l5.7-2.9h0.1l0.5-0.3c4.8-2.4,40.1-20,40.1-20
			c55.5-31.7,109.7-75.4,161.5-130c44.5-47,87.4-102.4,127.5-164.5c20.3-31.5,44-70.9,68.2-118c0.7-1.5,1.5-2.9,2.2-4.3
			c0.1-0.1,0.1-0.3,0.1-0.5c2.6-5.2,5.3-10.4,7.9-15.6c0.3-0.5,0.5-1.1,0.8-1.6c2.1-4.2,4.2-8.5,6.3-12.7
			c5.8-11.9,11.5-23.9,16.7-36.1c2.4-5.6,4.8-11.2,7-16.8c8.8-22,17.7-45.5,20.6-69.1c0.2-1.2,0.3-2.4,0.1-3.6
			c-0.1-0.7-0.3-1.4-0.6-2.1c-0.1-0.3-0.3-0.6-0.5-0.8c-1.3-1.6-3.2-2.5-4.9-3.5c-1.7-1.1-3.4-2.1-5.1-3.1c-2.1-1.2-4.2-2.4-6.4-3.6
			c-2.3-1.3-4.5-2.5-6.8-3.7c-2.1-1.2-4.2-2.3-6.3-3.4c-1.7-0.9-3.4-1.8-5.1-2.8c-0.2-0.1-0.3-0.2-0.5-0.3
			c-17.2-9.5-34.4-8.5-37.9-8.1c-2.3,0.3-227.6,28.9-380.5,28.9c-3.6,0-7.2,0-10.8,0l0,0l0,0c-3.6,0-7.2,0-10.8,0
			c-152.9,0-378.3-28.6-380.5-28.9c-3.5-0.4-20.8-1.3-37.9,8.1c-0.2,0.1-0.3,0.2-0.5,0.3c-1.7,0.9-3.4,1.8-5.1,2.8
			c-2.1,1.1-4.2,2.3-6.3,3.4c-2.3,1.2-4.5,2.5-6.8,3.7c-2.1,1.2-4.3,2.4-6.4,3.6c-1.7,1-3.5,2-5.1,3.1c-1.7,1.1-3.6,1.9-4.9,3.5
			c-0.2,0.3-0.4,0.6-0.5,0.8c-0.3,0.7-0.5,1.4-0.6,2.1C739,160.5,739.1,161.7,739.3,162.9z M1610.6,189.1L1610.6,189.1L1610.6,189.1
			L1610.6,189.1z M813.5,230.3L813.5,230.3L813.5,230.3L813.5,230.3z M812.8,186.2l5.4,0.7c3.1,0.4,6.7,0.8,10.8,1.3l10.5,1.2
			l11.6,1.3l4.3,0.5c4.2,0.5,8.7,1,13.4,1.5l10,1.1l10.4,1.1l11,1.1l11.3,1.2l5.8,0.6L929,199c4.1,0.4,8.1,0.8,12.2,1.2l6.5,0.6
			l6.5,0.6l6.5,0.6l6.6,0.6l6.7,0.6l6.6,0.6l6.8,0.6l6.6,0.6l6.8,0.6l6.8,0.5l6.8,0.5c4.5,0.4,9.1,0.7,13.6,1l7.4,0.5
			c2.1,0.2,7,0.5,7,0.5c2.2,0.2,7.2,0.5,7.2,0.5c2.1,0.1,7.1,0.5,7.1,0.5c2,0.1,7.1,0.5,7.1,0.5c2.1,0.1,7.1,0.4,7.1,0.4
			c2.1,0.1,7.1,0.4,7.1,0.4c2.1,0.1,7,0.4,7,0.4c2.1,0.1,7,0.4,7,0.4c2.2,0.1,7,0.4,7,0.4c2.2,0.1,6.7,0.3,6.7,0.3
			c2.3,0.1,4.5,0.2,6.8,0.3l7.2,0.3c2.2,0.1,7.1,0.3,7.1,0.3c2.1,0.1,4.1,0.2,6.2,0.2h0.8c2,0.1,4,0.1,6.1,0.2l7.8,0.2
			c2,0.1,3.9,0.1,5.9,0.2h0.9c2,0.1,3.9,0.1,5.9,0.1h0.9c2,0,3.9,0.1,5.9,0.1h0.8c2,0,3.9,0.1,5.9,0.1h0.7c2,0,4,0.1,5.9,0.1h0.6
			c2,0,4,0,6,0h0.3c2.1,0,4.1,0,6.2,0c3.6,0,7.2,0,10.8,0c3.6,0,7.2,0,10.8,0c2,0,4.1,0,6.2,0h0.3c2,0,4,0,6,0h0.6
			c2,0,3.9,0,5.9-0.1h0.7c1.9,0,3.9-0.1,5.9-0.1h0.8c2,0,3.9-0.1,5.9-0.1c0,0,4.8-0.1,6.8-0.2c0,0,4.9-0.1,6.8-0.2
			c0,0,4.9-0.1,6.9-0.2h0.9c2-0.1,4-0.1,6.1-0.2h0.8c2.1-0.1,4.1-0.2,6.2-0.2l7.6-0.3c2.2-0.1,4.4-0.2,6.5-0.3h0.2
			c2.3-0.1,4.5-0.2,6.8-0.3s4.5-0.2,6.8-0.3l7.6-0.4c2.1-0.1,7.1-0.4,7.1-0.4c2.1-0.1,7.2-0.4,7.2-0.4c2-0.1,7.1-0.4,7.1-0.4
			c2.1-0.1,7.1-0.4,7.1-0.4c2-0.1,7.1-0.5,7.1-0.5c2.1-0.1,7-0.5,7-0.5c2.1-0.1,7-0.5,7-0.5c2.1-0.1,7-0.5,7-0.5
			c2.2-0.2,6.8-0.5,6.8-0.5c4.5-0.3,9.1-0.7,13.6-1l7.2-0.6l6.9-0.6l6.9-0.6l6.9-0.6l6.7-0.6l6.6-0.6l6.6-0.6l6.5-0.6l6.5-0.6
			l6.2-0.6l6.1-0.6c4.1-0.4,8.2-0.8,12.2-1.2l6.2-0.6l11.8-1.2l11.3-1.2l10.9-1.1l10.4-1.1c3.3-0.3,9.6-1,9.6-1
			c4.7-0.5,9.2-1,13.5-1.5l8.5-1l11.5-1.3l9.4-1.1l7.8-0.9l5.4-0.7c0,0,3.3-0.4,6.7-0.8c-0.1,0.5-0.2,1-0.2,1.6l-0.1,0.6l-0.1,0.3
			c-2.2,9.9-6,19.5-10.5,30.1l-0.2,0.5c-0.1,0.4-1.4,3.3-3.7,8.6c-2.5,5.7-5.3,11.8-8.3,18.3l-0.1,0.2l-0.3,0.6l-2.1,4.5l-1.2,2.6
			l-2.7,5.6l-2.2,4.6l-1.5,3.2l-1.6,3.3l-1.7,3.4c-0.6,1.2-1.1,2.3-1.7,3.5c-2.6,5.3-5.3,10.6-8.1,15.8l-0.2,0.3
			c-19.7,38.4-41.1,75.4-65.4,113c-38.1,59.1-78.8,111.7-120.8,156.1c-47.3,50-96.7,89.9-146.7,118.7l-16.6,8.3l-2.5,1.1l-2.5-1.1
			l-3.9-1.9l0,0l-12.4-6c-50-28.8-99.4-68.7-146.7-118.7c-42.1-44.4-82.7-97-120.8-156.1c-24.3-37.6-45.7-74.6-65.4-113l-0.1-0.3
			c-2.7-5.3-5.4-10.6-8.1-15.8c-1.9-3.8-3.7-7.4-5.4-10.9l-2.5-5.1c-0.5-1.1-1.1-2.2-1.6-3.3c-0.7-1.5-1.4-3-2.1-4.4l-2.4-5
			l-1.2-2.6c-3.1-6.6-5.9-12.9-8.4-18.7c-2.4-5.4-3.6-8.5-3.7-8.6l-0.2-0.6c-3.5-8.3-6.8-16.5-9.1-24.8c-0.2-0.8-0.5-1.6-0.7-2.5
			c-0.2-0.7-0.4-1.4-0.5-2.1l0,0l-0.2-0.9c-0.1-0.7-0.3-1.5-0.4-2.4C809.6,185.8,812.8,186.2,812.8,186.2z M798.6,189.6L798.6,189.6
			L798.6,189.6L798.6,189.6L798.6,189.6z M798.6,189.3L798.6,189.3L798.6,189.3L798.6,189.3z"/>
		<path class="st4" d="M368.9,1230.3c0.3,0,0.6-0.1,0.8-0.1l0,0c1-0.2,1.3-0.3,2.2-0.6c0.6-0.2,1.1-0.3,2-0.6c0.7-0.2,1.3-0.4,2-0.6
			c0.4-0.1,0.8-0.2,1.2-0.4c2.6-0.8,5.4-1.8,8.8-3.1c1.8-0.7,3.7-1.4,5.5-2.2c1.8-0.7,3.6-1.5,5.4-2.2c1.8-0.8,3.6-1.5,5.4-2.3
			s3.5-1.6,5.2-2.4s3.5-1.6,5.2-2.5c1.7-0.8,3.4-1.7,5.1-2.5c1.7-0.9,3.3-1.7,5-2.6s3.3-1.8,4.9-2.7c1.6-0.9,3.2-1.8,4.9-2.8
			c1.6-0.9,3.2-1.9,4.8-2.9s3.1-1.9,4.7-2.9c1.6-1,3.1-2,4.7-3c1.5-1,3.1-2,4.6-3.1c1.5-1,3-2.1,4.5-3.1c1.5-1.1,2.9-2.1,4.4-3.2
			s2.9-2.2,4.3-3.3c1.3-1,2.6-2,3.8-3l0,0c0.1-0.1,0.3-0.2,0.4-0.3c0.8-0.6,1.6-1.3,2.5-2l2.5-2.1l2.6-2.2l0,0
			c0.3-0.2,0.5-0.5,0.8-0.7c1.4-1.2,2.7-2.3,4.1-3.5c1.3-1.2,2.7-2.4,4-3.6l0.6-0.5c1.1-1,2.2-2.1,3.3-3.1c1.3-1.2,2.6-2.5,3.8-3.7
			c1.3-1.3,2.6-2.5,3.8-3.8c1.3-1.3,2.5-2.6,3.7-3.9c1.2-1.2,2.3-2.5,3.5-3.7c0.1-0.1,0.1-0.1,0.2-0.2c1.2-1.3,2.4-2.6,3.6-4
			c0.5-0.6,1-1.1,1.5-1.7l1.2-1.3c0.3-0.3,0.6-0.7,0.8-1c1.2-1.4,2.3-2.7,3.4-4.1c1.1-1.4,2.2-2.7,3.4-4.2c1.1-1.4,2.2-2.8,3.3-4.2
			c1.1-1.4,2.2-2.8,3.2-4.3c1.1-1.4,2.1-2.9,3.2-4.3s2.1-2.9,3.1-4.4s2-2.9,3-4.4c0.2-0.3,0.4-0.6,0.6-0.8c0.8-1.2,1.6-2.4,2.4-3.6
			c1-1.5,2-3,2.9-4.5c0.5-0.7,0.9-1.5,1.4-2.2c0,0,1.2-1.9,1.5-2.4c0.9-1.5,1.9-3.1,2.8-4.6c0.9-1.5,1.8-3.1,2.7-4.7
			s1.8-3.1,2.7-4.7s1.7-3.2,2.6-4.8c0.9-1.6,1.7-3.2,2.5-4.8c0.8-1.6,1.7-3.2,2.5-4.8c0.8-1.6,1.6-3.2,2.4-4.9
			c0.8-1.6,1.6-3.3,2.3-4.9c0.2-0.3,0.3-0.7,0.5-1l0.5-1.1c0.5-1,0.9-2,1.4-2.9c0.8-1.6,1.5-3.3,2.2-4.9v-0.1c0.7-1.7,1.5-3.4,2.2-5
			c0.7-1.7,1.4-3.4,2.1-5.1c0.7-1.7,1.4-3.4,2.1-5.1c0.7-1.7,1.4-3.4,2-5.1c0.7-1.7,1.3-3.5,2-5.2s1.3-3.5,1.9-5.2s1.3-3.5,1.9-5.3
			v-0.1c0.6-1.7,1.2-3.5,1.8-5.2c0.6-1.8,1.2-3.6,1.7-5.3c0.6-1.8,1.1-3.6,1.7-5.4c0.6-1.8,1.1-3.6,1.6-5.4c0.5-1.8,1.1-3.6,1.6-5.4
			c0.5-1.8,1-3.6,1.5-5.5c0.5-1.8,1-3.6,1.5-5.5c0.5-1.8,1-3.7,1.4-5.5c0.5-1.9,0.9-3.7,1.4-5.6c0.5-1.9,0.9-3.7,1.3-5.6
			c0.4-1.7,0.8-3.3,1.2-5l0.1-0.6c0.4-1.9,0.8-3.7,1.3-5.6v-0.2c0.4-1.8,0.8-3.6,1.2-5.4c0.4-1.8,0.7-3.6,1.1-5.4v-0.2
			c0.4-1.9,0.8-3.8,1.1-5.7c0.4-1.9,0.7-3.8,1.1-5.7c0.3-1.9,0.7-3.8,1-5.7s0.6-3.7,1-5.6v-0.1c0.3-1.9,0.6-3.9,0.9-5.8
			c0.3-1.9,0.6-3.9,0.9-5.8c0.3-1.9,0.6-3.9,0.9-5.9c0.3-1.9,0.5-3.9,0.8-5.8c0.2-1.8,0.5-3.5,0.7-5.3l0.1-0.6
			c0.2-1.3,0.3-2.6,0.5-4l0.2-1.9c0.2-2,0.5-3.9,0.7-5.9c0.2-1.9,0.4-3.9,0.6-5.8v-0.1c0.1-1.3,0.3-2.7,0.4-4l0.2-2
			c0.2-1.9,0.4-3.9,0.6-5.8c0.2-2,0.4-4,0.5-5.9c0.2-2,0.3-4,0.5-6s0.3-4,0.4-6c0.1-2,0.3-4,0.4-6c0.1-2,0.3-4,0.4-6
			c0.1-2,0.2-4,0.3-6s0.2-4,0.3-6s0.2-4,0.3-6s0.2-4,0.2-6v-0.4c0.1-1.9,0.1-3.7,0.2-5.6c0.1-2,0.1-4,0.2-6s0.1-4,0.1-6v-0.1
			c0-2,0.1-4,0.1-6s0.1-4.1,0.1-6c0-2,0-4.1,0-6c0-2,0-4.1,0-6.1v-2c0-1.4,0-2.7,0-4.1l-0.1-6.1v-2c0-1.3,0-2.7-0.1-4l-0.1-6
			c0-2-0.1-4.1-0.2-6.1c0-1.9-0.1-3.8-0.2-5.7v-0.4c-0.1-1.9-0.1-3.9-0.2-5.8v-0.2c-0.1-1.7-0.1-3.3-0.2-5v-1c-0.1-2-0.2-4-0.3-6
			v-0.1c-0.1-2-0.2-3.9-0.3-5.9v-0.3c-0.1-1.9-0.2-3.8-0.3-5.7c-0.1-2-0.2-4-0.3-6l-0.4-6c-0.1-1.9-0.2-3.8-0.4-5.6v-0.4
			c-0.1-2-0.3-4-0.4-6c-0.1-2-0.3-4-0.4-5.9c-0.1-2-0.3-4-0.5-6l-0.1-0.7c-0.1-1.8-0.3-3.6-0.4-5.3c-0.2-1.9-0.3-3.7-0.5-5.6v-0.4
			c-0.2-2-0.3-3.9-0.5-5.9l-0.5-5.9c-0.2-1.8-0.3-3.6-0.5-5.4v-0.5c-0.2-2-0.4-3.9-0.6-5.9l-0.6-5.8c-0.2-1.8-0.4-3.6-0.6-5.4
			l-0.1-0.8c-0.2-1.8-0.4-3.7-0.6-5.5l-0.2-2c-0.1-1.3-0.3-2.5-0.4-3.8c-0.2-1.9-0.4-3.9-0.7-5.8l-0.7-5.7c-0.2-1.9-0.5-3.8-0.7-5.8
			l-0.7-5.7c-0.2-1.9-0.5-3.8-0.7-5.7l-0.8-5.6c-0.2-1.8-0.5-3.6-0.7-5.4l-0.8-5.9l-0.7-6l-0.8-5.5c-0.3-1.9-0.5-3.7-0.8-5.6
			l-0.8-5.5l-0.8-5.5c-0.3-1.8-0.6-3.7-0.9-5.4c-0.3-1.8-0.6-3.6-0.9-5.4c-0.3-1.8-0.6-3.6-0.9-5.4c-0.3-1.6-0.5-3.3-0.8-4.9l-1-5.8
			l-0.9-5.3c-0.3-1.8-0.6-3.5-0.9-5.2c-0.3-1.7-0.6-3.4-0.9-5.1l-0.3-1.9c-0.2-1.2-0.4-2.3-0.6-3.5l-1-5.6c-0.3-1.5-0.6-3.1-0.8-4.6
			c-0.3-1.7-0.6-3.4-1-5.1l-1.2-6.4c-0.2-1.2-0.5-2.4-0.7-3.6l-1-4.9l-1.1-5.7c-0.3-1.4-0.5-2.7-0.8-4c-0.3-1.6-0.6-3.2-1-4.8
			l-1.9-9.5l-1-4.7c-0.3-1.6-0.7-3.1-1-4.7c0,0-1-4.5-1-4.6c-0.1-0.3-0.2-0.7-0.2-1l0,0c-0.2-0.9-0.4-1.8-0.6-2.8l-0.1-0.7
			c-0.3-1.5-0.7-3-1-4.5l-1-4.5c-0.1-0.7-0.3-1.3-0.4-2c-0.1-0.6-0.3-1.2-0.4-1.8c0-0.2-0.1-0.3-0.1-0.5l-1.1-4.9
			c-0.3-1.2-0.6-2.5-0.8-3.7c-0.3-1.4-0.6-2.8-1-4.2l-1-4.2l-1-4.1c-0.3-1.3-0.6-2.7-1-4.1l-2.1-8.8c-0.2-1-0.5-2-0.7-3.1l-0.1-0.2
			v-0.1l-0.4-1.5l-1.4-5.7c-0.3-1-0.5-2.1-0.8-3.1l-0.2-0.6c-0.3-1.2-0.6-2.5-0.9-3.7l-2.7-10.6l-1.7-6.7l-1.7-6.5
			c-0.2-0.9-0.5-1.8-0.7-2.6l-0.3-1.1c-0.2-0.9-0.5-1.7-0.7-2.6L551,298l-1.5-5.7l-1.5-5.4l-1.4-5.1c-0.2-0.8-0.4-1.6-0.7-2.4
			c-0.2-0.8-0.5-1.6-0.7-2.4l-3.6-12.6c-0.2-0.6-0.3-1.1-0.5-1.8l-1-3.4l-1.7-5.8c-0.1-0.5-0.3-1-0.4-1.4l-0.3-1.1
			c-0.1-0.4-0.2-0.7-0.9-2.3c-0.1-0.3-0.3-0.6-0.4-0.9c-0.1-0.3-0.2-0.4-0.2-0.5c-0.2-0.5-0.3-0.9-0.5-1.2c-0.1-0.1-0.1-0.2-0.2-0.3
			c-1.2-1.5-3.4-0.9-6-0.1l-36.2,13.9c-0.6,0.2-1.1,0.4-1.6,0.6l-5.9,2.2c-3.2,1-4.7,2.3-3.7,5.5c8.3,26.9,43.7,145.7,64.8,289.3
			c21.5,146.1,32.4,348.7-37.6,484c0,0.2-0.3,0.5-0.4,0.7c-0.1,0.2-0.2,0.5-0.4,0.7c-0.3,0.5-0.5,1-0.8,1.5c-0.5,0.9-1,1.9-1.5,2.8
			c-1.5,2.7-3,5.4-4.6,8.1c-1.5,2.6-3.1,5.2-4.8,7.8c-1.6,2.5-3.2,5-4.9,7.5c-1.7,2.4-3.4,4.8-5.1,7.2c-1.7,2.3-3.5,4.6-5.3,6.9
			c-1.8,2.2-3.6,4.5-5.5,6.6c-1.8,2.2-3.7,4.3-5.7,6.4c-1.9,2.1-3.9,4.1-5.9,6.1s-4,3.9-6,5.9c-2,1.9-4.1,3.8-6.2,5.6
			c-2.1,1.8-4.2,3.6-6.4,5.4s-4.3,3.5-6.6,5.1c-2.2,1.7-4.5,3.3-6.8,4.9s-4.6,3.2-6.9,4.7c-2.3,1.5-4.7,3-7.1,4.4
			c-2.4,1.5-4.8,2.9-7.3,4.2c-2.5,1.4-5,2.7-7.5,4s-5.1,2.6-7.6,3.8c-2.6,1.2-5.2,2.5-7.8,3.6c-2.6,1.2-5.3,2.3-8,3.4
			c-1.8,0.7-3.5,1.4-5.3,2.1c-0.4,0.2-0.9,0.3-1.3,0.5c-0.9,0.3-1.8,0.6-2.6,0.9c-0.6,0.2-1.2,0.4-1.7,0.8c-1,0.4-2.1,0.8-3.1,1.2
			c-0.9,0.3-1.8,0.6-2.6,0.9c-0.7,0.2-1.4,0.5-1.9,0.9c-0.2,0.2-0.4,0.7-0.4,0.8c0,3.5,0.5,10.1,0.8,13.6c0.4,4.6,0.8,8.4,1.2,12.2
			c0.1,1.1,0.2,2.1,0.3,3.1c0.2,2.2,0.4,4.4,0.6,6.9c0.3,3.9,0.6,7.7,1.1,11.6c0.1,0.5,0.1,1,0.2,1.5c0.2,2.2,0.4,4.4,0.7,6.7
			c0.3,2.4,0.5,5.3,1.1,7.6c0,0.2,0.1,0.6,0.4,0.7c0.2,0,0.7-0.1,0.9-0.1c0,0,0,0,0.1,0C368.8,1230.3,368.9,1230.3,368.9,1230.3z"/>
		<path class="st4" d="M2047.4,1165.8c-0.5-0.5-1.3-0.8-1.9-0.9c-0.9-0.3-1.8-0.6-2.6-0.9c-1.1-0.4-2.1-0.8-3.1-1.2
			c-0.5-0.4-1.1-0.6-1.7-0.8c-0.9-0.3-1.8-0.6-2.6-0.9c-0.4-0.2-0.9-0.3-1.3-0.5c-1.8-0.7-3.6-1.4-5.3-2.1c-2.7-1.1-5.3-2.3-8-3.4
			c-2.6-1.2-5.2-2.4-7.8-3.6s-5.1-2.5-7.6-3.8s-5-2.7-7.5-4c-2.4-1.4-4.9-2.8-7.3-4.2c-2.4-1.4-4.8-2.9-7.1-4.4s-4.6-3.1-6.9-4.7
			c-2.3-1.6-4.5-3.2-6.8-4.9c-2.2-1.7-4.4-3.4-6.6-5.1s-4.3-3.5-6.4-5.4c-2.1-1.8-4.2-3.7-6.2-5.6c-2.1-1.9-4.1-3.9-6-5.9
			c-2-2-3.9-4-5.8-6.1s-3.8-4.2-5.7-6.4c-1.9-2.2-3.7-4.4-5.5-6.6c-1.8-2.3-3.6-4.6-5.3-6.9c-1.8-2.4-3.5-4.8-5.1-7.2
			c-1.7-2.5-3.3-5-4.9-7.5c-1.6-2.6-3.2-5.2-4.8-7.8c-1.6-2.7-3.1-5.4-4.6-8.1c-0.5-0.9-1-1.9-1.5-2.8c-0.3-0.5-0.5-1-0.8-1.5
			c-0.1-0.2-0.2-0.5-0.4-0.7c-0.1-0.2-0.4-0.5-0.4-0.7c-70-135.3-59.1-337.9-37.6-484c21.1-143.6,56.5-262.3,64.8-289.3
			c1-3.2-0.5-4.4-3.7-5.5l-5.9-2.2c-0.5-0.2-1-0.4-1.6-0.6l-36.2-13.9c-2.6-0.8-4.7-1.4-6,0.1c-0.1,0.1-0.1,0.2-0.2,0.3
			c-0.2,0.3-0.4,0.7-0.5,1.2c0,0.1-0.1,0.2-0.2,0.5c-0.1,0.2-0.2,0.6-0.4,0.9c-0.6,1.6-0.7,1.9-0.9,2.3l-0.3,1.1
			c-0.1,0.4-0.3,0.9-0.4,1.4l-1.7,5.8l-1,3.4c-0.2,0.6-0.3,1.2-0.5,1.8l-3.6,12.6c-0.2,0.8-0.5,1.6-0.7,2.4s-0.4,1.6-0.7,2.4
			l-1.4,5.1l-1.5,5.4l-1.5,5.7l-1.6,5.9c-0.2,0.8-0.5,1.7-0.7,2.6l-0.3,1.1c-0.2,0.9-0.5,1.8-0.7,2.6l-1.7,6.5l-1.7,6.7l-2.7,10.6
			c-0.3,1.2-0.6,2.4-0.9,3.7l-0.2,0.6c-0.3,1-0.5,2.1-0.8,3.1l-1.4,5.7l-0.4,1.5v0.1l-0.1,0.2c-0.3,1-0.5,2-0.7,3.1l-2.1,8.8
			c-0.3,1.4-0.6,2.7-1,4.1l-1,4.1l-1,4.2c-0.3,1.4-0.7,2.8-1,4.2c-0.3,1.2-0.6,2.5-0.8,3.7l-1.1,4.9c0,0.2-0.1,0.3-0.1,0.5
			c-0.1,0.6-0.3,1.2-0.4,1.8c-0.2,0.7-0.3,1.3-0.4,2l-1,4.5c-0.3,1.5-0.7,3-1,4.5l-0.1,0.7c-0.2,0.9-0.4,1.8-0.6,2.8l0,0
			c-0.1,0.3-0.2,0.7-0.2,1c0,0.2-1,4.6-1,4.6c-0.3,1.6-0.7,3.1-1,4.7l-1,4.7l-1.9,9.5c-0.3,1.6-0.7,3.2-1,4.8
			c-0.3,1.3-0.5,2.7-0.8,4l-1.1,5.7l-1,4.9c-0.2,1.2-0.5,2.4-0.7,3.6l-1.2,6.4c-0.3,1.7-0.6,3.4-1,5.1c-0.3,1.5-0.6,3-0.8,4.6
			l-1,5.6c-0.2,1.1-0.4,2.3-0.6,3.5l-0.3,1.9c-0.3,1.7-0.6,3.4-0.9,5.1s-0.6,3.5-0.9,5.2l-0.9,5.3l-1,5.8c-0.3,1.6-0.6,3.3-0.8,4.9
			c-0.3,1.8-0.6,3.6-0.9,5.4s-0.6,3.6-0.9,5.4c-0.3,1.8-0.6,3.6-0.9,5.4l-0.8,5.5l-0.8,5.5c-0.3,1.9-0.6,3.7-0.8,5.6l-0.8,5.5
			l-0.8,5.6l-0.8,5.9c-0.2,1.8-0.5,3.6-0.7,5.4l-0.8,5.6c-0.3,1.9-0.5,3.8-0.7,5.7l-0.7,5.7c-0.2,1.9-0.5,3.8-0.7,5.8l-0.7,5.7
			c-0.2,1.9-0.5,3.9-0.7,5.8c-0.1,1.2-0.3,2.5-0.4,3.8l-0.2,2c-0.2,1.8-0.4,3.7-0.6,5.5l-0.1,0.8c-0.2,1.8-0.4,3.6-0.6,5.4l-0.6,5.8
			c-0.2,2-0.4,3.9-0.6,5.9v0.5c-0.2,1.8-0.4,3.6-0.5,5.4l-0.5,5.9c-0.2,2-0.4,4-0.5,5.9v0.4c-0.2,1.9-0.3,3.7-0.5,5.6
			c-0.2,1.7-0.3,3.5-0.4,5.3l-0.1,0.7c-0.2,2-0.3,4-0.5,6c-0.1,2-0.3,4-0.4,5.9c-0.1,2-0.3,4-0.4,6v0.4c-0.1,1.9-0.2,3.8-0.4,5.6
			l-0.4,6c-0.1,2-0.2,4-0.3,6c-0.1,1.9-0.2,3.8-0.3,5.7v0.3c-0.1,2-0.2,3.9-0.3,5.9v0.1c-0.1,2-0.2,4-0.3,6v1
			c-0.1,1.7-0.1,3.3-0.2,5v0.2c-0.1,1.9-0.1,3.9-0.2,5.8v0.4c-0.1,1.9-0.1,3.8-0.2,5.7c-0.1,2-0.1,4-0.2,6.1l-0.1,6
			c0,1.3,0,2.7-0.1,4v2l-0.1,6.1c0,1.4,0,2.7,0,4.1v2c0,2,0,4.1,0,6.1s0,4,0,6s0,4,0.1,6c0,2,0,4,0.1,6v0.1c0,2,0.1,4,0.1,6
			s0.1,4,0.2,6c0.1,1.9,0.1,3.8,0.2,5.6v0.4c0.1,2,0.2,4,0.2,6c0.1,2,0.2,4,0.3,6c0.1,2,0.2,4,0.3,6c0.1,2,0.2,4,0.3,6
			c0.1,2,0.2,4,0.4,6c0.1,2,0.3,4,0.4,6s0.3,4,0.4,6c0.2,2,0.3,4,0.5,6s0.3,4,0.5,5.9c0.2,2,0.4,3.9,0.6,5.8l0.2,2
			c0.1,1.3,0.3,2.7,0.4,4v0.1c0.2,1.9,0.4,3.9,0.6,5.8c0.2,1.9,0.4,3.9,0.7,5.9l0.2,1.9c0.2,1.3,0.3,2.6,0.5,4l0.1,0.6
			c0.2,1.8,0.5,3.5,0.7,5.3c0.3,1.9,0.5,3.9,0.8,5.8c0.3,2,0.6,3.9,0.9,5.9c0.3,1.9,0.6,3.9,0.9,5.8c0.3,1.9,0.6,3.9,0.9,5.8v0.1
			c0.3,1.9,0.6,3.7,1,5.6c0.3,1.9,0.7,3.8,1,5.7c0.4,1.9,0.7,3.8,1.1,5.7s0.7,3.8,1.1,5.7v0.2c0.4,1.8,0.7,3.6,1.1,5.4
			c0.4,1.8,0.8,3.6,1.2,5.4v0.2c0.4,1.9,0.8,3.8,1.3,5.6l0.1,0.6c0.4,1.7,0.8,3.3,1.2,5c0.4,1.8,0.9,3.7,1.3,5.6
			c0.5,1.9,0.9,3.7,1.4,5.6c0.5,1.8,1,3.7,1.4,5.5c0.5,1.9,1,3.7,1.5,5.5s1,3.7,1.5,5.5s1,3.6,1.6,5.4c0.5,1.8,1.1,3.6,1.6,5.4
			c0.6,1.8,1.1,3.6,1.7,5.4c0.6,1.8,1.1,3.5,1.7,5.3c0.6,1.7,1.2,3.5,1.8,5.2v0.1c0.6,1.8,1.2,3.5,1.9,5.3s1.3,3.5,1.9,5.2
			s1.3,3.5,2,5.2s1.3,3.4,2,5.1s1.4,3.4,2.1,5.1s1.4,3.4,2.1,5.1s1.4,3.4,2.2,5v0.1c0.7,1.6,1.5,3.3,2.2,4.9c0.4,1,0.9,1.9,1.4,2.9
			l0.5,1.1c0.2,0.3,0.3,0.7,0.5,1c0.7,1.6,1.5,3.2,2.3,4.9c0.8,1.7,1.6,3.3,2.4,4.9s1.6,3.2,2.5,4.8c0.8,1.6,1.7,3.2,2.5,4.8
			c0.9,1.6,1.7,3.2,2.6,4.8c0.9,1.6,1.8,3.1,2.7,4.7c0.9,1.6,1.8,3.1,2.7,4.7c0.9,1.5,1.8,3.1,2.8,4.6c0.2,0.4,1.5,2.4,1.5,2.4
			c0.5,0.7,0.9,1.5,1.4,2.2c1,1.5,1.9,3,2.9,4.5c0.8,1.2,1.6,2.3,2.3,3.5c0,0,0,0,0,0.1c0.2,0.3,0.4,0.6,0.6,0.9c1,1.5,2,3,3,4.4
			c1,1.5,2.1,2.9,3.1,4.4s2.1,2.9,3.2,4.3s2.1,2.8,3.2,4.3c1.1,1.4,2.2,2.8,3.3,4.2c1.1,1.4,2.3,2.8,3.4,4.2
			c1.1,1.4,2.3,2.7,3.4,4.1c0.3,0.3,0.5,0.6,0.8,1l1.2,1.3c0.5,0.6,1,1.1,1.5,1.7c1.2,1.3,2.4,2.7,3.6,4c0.1,0.1,0.1,0.1,0.2,0.2
			c1.1,1.2,2.3,2.5,3.5,3.7c1.2,1.3,2.5,2.6,3.7,3.9c1.2,1.2,2.5,2.5,3.8,3.8c1.3,1.2,2.5,2.5,3.8,3.7c1.1,1,2.2,2.1,3.3,3.1
			l0.6,0.5c1.3,1.2,2.7,2.4,4,3.6s2.7,2.4,4.1,3.5c0.3,0.2,0.5,0.5,0.8,0.7l0,0l2.6,2.2l2.5,2.1c0.8,0.7,1.6,1.3,2.5,2
			c0.1,0.1,0.3,0.2,0.4,0.3c1.3,1,2.6,2,3.9,3c1.4,1.1,2.9,2.2,4.3,3.3c1.5,1.1,2.9,2.2,4.4,3.2c1.5,1.1,3,2.1,4.5,3.1
			s3,2.1,4.6,3.1c1.5,1,3.1,2,4.7,3c1.6,1,3.1,2,4.7,2.9c1.6,1,3.2,1.9,4.8,2.9c1.6,0.9,3.2,1.9,4.9,2.8c1.6,0.9,3.3,1.8,4.9,2.7
			c1.7,0.9,3.4,1.8,5,2.6c1.7,0.9,3.4,1.7,5.1,2.5c1.7,0.8,3.5,1.7,5.2,2.5c1.8,0.8,3.5,1.6,5.2,2.4c1.8,0.8,3.6,1.6,5.4,2.3
			c1.8,0.8,3.6,1.5,5.4,2.2c1.9,0.7,3.7,1.5,5.5,2.2c3.4,1.3,6.2,2.3,8.8,3.1c0.4,0.1,0.8,0.3,1.2,0.4c0.7,0.2,1.3,0.4,2,0.6
			c0.9,0.3,1.4,0.5,2,0.6c0.8,0.3,1.2,0.4,2.2,0.6l0,0c0.2,0.1,0.5,0.1,0.8,0.1h0.1l0,0c0.3,0.1,0.7,0.2,0.9,0.1
			c0.3-0.1,0.4-0.5,0.4-0.7c0.7-2.4,0.8-5.2,1.1-7.6c0.3-2.2,0.5-4.4,0.7-6.7c0.1-0.5,0.1-1,0.2-1.5c0.5-3.8,0.8-7.7,1.1-11.6
			c0.2-2.5,0.4-4.8,0.6-6.9c0.1-1,0.2-2,0.3-3.1c0.4-3.8,0.8-7.5,1.2-12.2c0.3-3.5,0.8-10.1,0.8-13.6
			C2047.9,1166.5,2047.7,1166,2047.4,1165.8z"/>
	</g>
</g>
</svg>
