<?xml version="1.0" encoding="utf-8"?>
<!-- Generator: Adobe Illustrator 28.0.0, SVG Export Plug-In . SVG Version: 6.00 Build 0)  -->
<svg version="1.1" id="Layer_1" xmlns="http://www.w3.org/2000/svg" xmlns:xlink="http://www.w3.org/1999/xlink" x="0px" y="0px"
	 viewBox="0 0 4476.9 4992.7" style="enable-background:new 0 0 4476.9 4992.7;" xml:space="preserve">
<style type="text/css">
	.st0{fill:none;}
	.st1{fill:#1E223C;}
	.st2{fill:#BB3D25;}
	.st3{fill:#1E222E;}
	.st4{fill:#90AEE2;}
	.st5{fill:#FFFFFF;}
	.st6{fill:#FAFAFA;}
</style>
<g id="Jersey">
	<g id="Trim">
		<path class="st0" d="M1587.6,228.2c0.7-1.6,1.3-3.1,1.8-4.2c1-2.3,1.8-4,1.8-4.3l0.2-0.6c3.6-8.4,7.2-17.2,9.6-26.3
			c-5.7,15.6-12.1,31.6-19.2,48C1583.8,236.6,1585.8,232.3,1587.6,228.2z"/>
		<path class="st0" d="M806.7,188.6l0.2,0.9c0.1,0.7,0.3,1.4,0.5,2.1c0.1,0.5,0.3,1,0.4,1.4c0.1,0.4,0.2,0.7,0.3,1.1
			c2.4,8.6,5.9,17.3,9.1,24.7l0.2,0.6c0.1,0.2,0.2,0.5,0.6,1.4c0.6,1.4,1.6,3.9,3.1,7.2c2.9,6.7,5.6,12.8,8.4,18.7l1.2,2.6l2.4,5
			c0.2,0.4,0.4,0.8,0.6,1.2c-10.4-23.2-19.5-45.8-27.1-67.5C806.6,188.2,806.6,188.4,806.7,188.6z"/>
		<path class="st1" d="M793.3,130.8c1.5,8,3.1,16.2,4.9,24.3l0.1,0.4l0,0c2.1,9.4,4.4,19.8,7.4,31.5l0.1,0.4l0.4,0
			c0.1,0,0.1,0,0.2,0c3.4,0.4,6.6,0.8,6.6,0.8l5.4,0.7c1.8,0.2,3.8,0.5,6,0.7c1.5,0.2,3.1,0.4,4.8,0.6l10.5,1.2l11.6,1.3l4.3,0.5
			c4,0.5,8.3,1,13.4,1.5l10,1.1l10.4,1.1l11,1.1l11.3,1.2l5.8,0.6l11.7,1.2l12.2,1.2l19.5,1.8l6.6,0.6l6.7,0.6l6.6,0.6l6.8,0.6
			l6.6,0.6l6.8,0.6l13.6,1c4.3,0.4,8.6,0.7,12.9,1l8.1,0.5c2.1,0.2,7,0.5,7,0.5c2.2,0.2,7.2,0.5,7.2,0.5c2.1,0.1,7,0.5,7.1,0.5
			c2,0.1,7,0.5,7.1,0.5c2.1,0.1,7.1,0.4,7.1,0.4c2.1,0.1,7.1,0.4,7.1,0.4c2.1,0.1,7,0.4,7,0.4c2.1,0.1,7,0.4,7,0.4
			c2.2,0.1,7,0.4,7,0.4l13.5,0.6l7.2,0.3c2.2,0.1,7.1,0.3,7.1,0.3l0.3,0c2,0.1,3.9,0.2,5.9,0.2l0.8,0c1,0.1,2,0.1,3.1,0.1
			c1,0,2,0,3,0.1l7.8,0.2c1,0.1,2,0.1,3,0.1c1,0,1.9,0,3,0.1l0.9,0c2,0.1,3.9,0.1,5.9,0.1h0.9c1,0,2,0,2.9,0c1,0,2,0.1,3,0.1h0.8
			c1,0,2,0,2.9,0c1,0,2,0,3,0h0.7c1,0,2,0,3,0.1c1,0,1.9,0,2.9,0h47.8c2,0,3.9,0,5.9-0.1h0.7c0.9,0,1.9,0,2.9,0c1,0,2-0.1,3-0.1h0.8
			c1,0,2,0,3-0.1c1,0,1.9,0,2.9,0c0,0,4.8-0.1,6.8-0.2c0,0,4.9-0.1,6.8-0.2c0,0,4.9-0.1,6.9-0.2l0.9,0c1-0.1,2-0.1,3-0.1
			c1,0,2-0.1,3-0.1l0.8,0l0.3,0c2-0.1,3.9-0.2,5.9-0.2l7.6-0.3c2.2-0.1,4.4-0.2,6.5-0.3l0.2,0l13.6-0.6l7.6-0.4
			c2.1-0.1,7.1-0.4,7.1-0.4c2.1-0.1,7.2-0.4,7.2-0.4c2-0.1,7.1-0.4,7.1-0.4c2.1-0.1,7.1-0.4,7.1-0.4c2-0.1,7.1-0.5,7.1-0.5
			c2.1-0.1,7-0.5,7-0.5c2.1-0.1,7-0.5,7-0.5c2.1-0.1,7-0.5,7-0.5c2.2-0.2,6.7-0.5,6.8-0.5c2.3-0.2,4.5-0.3,6.8-0.5
			c2.3-0.2,4.5-0.3,6.8-0.5l7.2-0.6l20.7-1.8l6.7-0.6l13.2-1.2l13-1.2l6.2-0.6l6.1-0.6c4.1-0.4,8.2-0.8,12.2-1.2l6.2-0.6l11.8-1.2
			l11.3-1.2l10.9-1.1l10.4-1.1c3.3-0.3,9.5-1,9.6-1c4.7-0.5,9.2-1,13.5-1.5l8.5-1l11.5-1.3l9.4-1.1l7.8-0.9l5.4-0.7
			c0,0,2.8-0.3,5.9-0.7c0,0,0,0,0,0c0,0.3-0.1,0.6-0.1,0.9l1.1,0.1c0-0.1,0.1-0.4,0.3-1c0.9-3.4,3.5-13.8,6.6-31.7l0.2-0.1l0.1-0.4
			c1.5-8.7,2.7-16.8,3.7-24.8l0.1-0.5l0,0l-0.5-0.1c-0.5-0.1-1-0.2-1.7-0.3h-0.1c-0.2,0-0.5-0.1-0.7-0.1c-0.2,0-0.4,0-0.6-0.1
			l-0.1,0h-0.2c-0.2,0-0.5-0.1-0.7-0.1c-0.2,0-0.4,0-0.7-0.1l-0.1,0l-0.6-0.1c-1.7-0.2-3.4-0.3-5-0.3h-2.3c-1,0-1.9,0-2.7,0.1
			l-2.5,0c-2.2,0.3-228.5,28.9-380.4,28.9h-21.6c-153.2,0-378.3-28.6-380.5-28.9h-1.8c-0.2,0-0.5,0-0.7,0c-0.3,0-0.6-0.1-1-0.1h-1.1
			c-1.1,0-2.3,0-3.7,0.1c-0.2,0-0.5,0-0.7,0.1c-0.2,0-0.4,0-0.6,0l-0.1,0c-1.4,0.1-3,0.3-4.6,0.5h-0.2l-0.1,0
			c-0.2,0-0.5,0.1-0.7,0.1c-0.2,0-0.5,0.1-0.7,0.1h-0.1l-0.6,0.1c-1,0.2-2,0.4-3,0.6l0,0c0,0-0.1,0-0.3,0.1l-0.2,0.1L793.3,130.8z"
			/>
		<path class="st2" d="M793.8,130.2l-0.3,0.1C793.6,130.2,793.7,130.2,793.8,130.2L793.8,130.2z"/>
		<path class="st1" d="M1670.7,160.7c-0.1-0.7-0.3-1.5-0.6-2.2c-0.1-0.4-0.4-0.7-0.6-1c-1.1-1.4-2.7-2.3-4.2-3.1
			c-0.3-0.2-0.6-0.3-0.9-0.5c-1.7-1.1-3.4-2.1-5.2-3.1c-2.1-1.2-4.2-2.4-6.4-3.6c-2.4-1.3-4.6-2.6-6.8-3.7l-2-1.1l0-0.1l-0.3-0.2
			c-0.7-0.4-1.4-0.8-2.1-1.2c-0.7-0.4-1.4-0.7-2.1-1.2c-1.7-0.9-3.4-1.8-5.1-2.8c-0.1,0-0.1-0.1-0.2-0.1c-0.1-0.1-0.2-0.1-0.3-0.2
			c-6-3.3-12.6-5.6-19.6-7l-0.1,0.5c-1,8-2.2,16.1-3.7,24.8l-0.1,0.4l-0.2,0.1c-3.1,17.9-5.8,28.3-6.6,31.7c-0.1,0.6-0.2,0.9-0.3,1
			l-1.1-0.1c0-0.3,0-0.6,0.1-0.9c-0.2,0.6-0.2,0.9-0.3,0.9l-0.1,0.5l-0.1,0.4c-0.3,1.2-0.6,2.5-0.9,3.7c-2.4,9.1-6,17.9-9.6,26.3
			l-0.2,0.6c-0.1,0.3-0.8,1.9-1.8,4.3c-0.5,1.2-1.1,2.6-1.8,4.2c-1.8,4.1-3.7,8.4-5.7,12.6c-0.9,1.9-1.7,3.8-2.6,5.6l-0.4,0.8
			l-2.1,4.5l-1.2,2.6l-2.7,5.6l-2.2,4.6l-1.5,3.2l-1.6,3.3l-1.7,3.4c-0.3,0.6-0.6,1.2-0.9,1.8c-0.3,0.6-0.5,1.1-0.8,1.7
			c-2.8,5.7-5.5,10.9-8.1,15.7l-0.2,0.4c-19.8,38.5-41.1,75.5-65.4,113c-38.1,59.1-78.7,111.6-120.7,156
			c-47.1,49.8-96.4,89.7-146.5,118.6l-16.6,8.3l-2.3,1l-2.3-1l-3.9-1.9l-12.8-6.4c-50.1-28.9-99.4-68.8-146.6-118.6
			c-41.8-44.1-82.4-96.6-120.7-156c-24.2-37.5-45.6-74.4-65.3-112.9l-0.1-0.4c-2.7-5.2-5.4-10.6-8.1-15.9c-1.9-3.8-3.7-7.3-5.4-10.8
			l-2.5-5.1c-0.3-0.6-0.5-1.1-0.8-1.7c-0.3-0.5-0.5-1.1-0.8-1.7c-0.5-1.1-1-2.1-1.5-3.1c-0.2-0.4-0.4-0.8-0.6-1.2l-2.4-5l-1.2-2.6
			c-2.8-5.9-5.5-12-8.4-18.7c-1.5-3.3-2.5-5.7-3.1-7.2c-0.4-0.9-0.5-1.3-0.6-1.4l-0.2-0.6c-3.1-7.4-6.7-16.1-9.1-24.7
			c-0.1-0.4-0.2-0.7-0.3-1.1c-0.1-0.5-0.3-0.9-0.4-1.4c-0.2-0.7-0.4-1.4-0.5-2.1l-0.2-0.9c0-0.2-0.1-0.5-0.1-0.7c0-0.1,0-0.2,0-0.2
			c0-0.1,0-0.2-0.1-0.3c-0.1,0-0.1,0-0.2,0l-0.4,0l-0.1-0.4c-3-11.7-5.3-22-7.4-31.5l0,0l-0.1-0.4c-1.8-8.1-3.4-16.3-4.9-24.3
			l-0.1-0.5l0.2-0.1c-0.3,0.1-0.9,0.2-0.9,0.2c-13.4,2.8-23.7,10.5-35.7,16.7c-1.1,0.6-2.1,1.2-3.2,1.8c-1.1,0.6-2.1,1.2-3.2,1.8
			l-1.1,0.6c-1.4,0.8-2.8,1.6-4,2.5c-0.4,0.3-0.9,0.6-1.4,0.8c-1.3,0.8-2.7,1.5-3.7,2.9c-0.2,0.3-0.4,0.6-0.5,0.9
			c-0.3,0.7-0.5,1.5-0.6,2.3c0,0.1,0,0.2,0,0.4c0,0.1,0,0.2,0,0.3c-0.2,0.4-0.2,0.8-0.2,1.3c0,0.3,0.1,0.6,0.1,0.8
			c0,0.4,0.1,0.7,0.1,0.9c2.9,23.1,11.4,45.9,20.6,69.1c1.5,3.7,3,7.4,4.5,11l1.4,3.3c0.2,0.4,0.4,0.9,0.5,1.3
			c0.2,0.4,0.4,0.9,0.6,1.3c4.9,11.4,10.4,23.2,16.7,36.1c1,2.1,2.1,4.2,3.1,6.3c1.1,2.1,2.1,4.3,3.2,6.4c0.1,0.2,0.3,0.5,0.4,0.7
			c0.1,0.3,0.3,0.6,0.4,0.8c2.5,5.1,5.2,10.3,7.8,15.5c0,0.2,0,0.4,0.2,0.6c0.4,0.7,0.7,1.4,1.1,2.2c0.4,0.7,0.7,1.4,1.1,2.1
			c20.8,40.4,43.1,79,68.2,118c40.4,62.6,83.4,118,127.6,164.6c51.5,54.5,105.9,98.3,161.7,130.1c0,0,35.3,17.6,40.1,20l0.5,0.3
			c0,0,0.2,0.1,0.3,0.1l5.8,3l5.8-3h0.1l0.6-0.4c4.8-2.4,40.1-20,40.1-20c55.3-31.6,109.7-75.4,161.6-130.1
			c44.4-46.9,87.3-102.3,127.6-164.6c25.1-39,47.5-77.6,68.2-118.1c0.4-0.9,0.9-1.8,1.3-2.6c0.3-0.5,0.6-1.1,0.8-1.6
			c0.2-0.2,0.2-0.5,0.2-0.7c1.3-2.6,2.6-5.1,3.9-7.7c1.3-2.6,2.7-5.2,3.9-7.8c0.2-0.3,0.3-0.6,0.4-0.9c0.1-0.3,0.2-0.5,0.4-0.8
			c1.1-2.1,2.1-4.2,3.2-6.4c1-2.1,2.1-4.2,3.1-6.3c5.2-10.6,11.2-23.2,16.7-36.1c2.4-5.5,4.8-11.2,7-16.8
			c8.9-22.1,17.7-45.7,20.6-69.3v-0.2c0-0.1,0-0.1,0-0.2c0-0.2,0.1-0.5,0.1-0.9c0-0.2,0-0.4,0-0.6c0-0.2,0.1-0.5,0.1-0.7
			C1670.8,161.4,1670.8,161.1,1670.7,160.7z"/>
	</g>
	<path id="Inside" class="st3" d="M806,186.4c61.3,178,226.7,418.2,392.2,502l0,0c1.5,0.8,4.8,2.4,6.3,3
		c169.6-81.7,334.7-324.1,398.3-503.4c0.1-0.5,0.2-1.1,0.2-1.6c-132.1,15.4-265.1,29.2-398.5,29.2
		C1071.8,215.6,938.1,201.8,806,186.4z"/>
	<g id="Color_1">
		<path class="st1" d="M3919.1,658.5c8.8-162.9,26.3-284.7,56.6-394.9c0.4-1.3,0.8-2.7,1.2-4.1c2.6-9,4.1-14.7,3-16.9
			c-0.8-1.5-3.4-2.3-5.7-3l-0.5-0.1c-1-0.3-1.7-0.5-2.4-0.7c-0.7-0.2-1.5-0.5-2.5-0.8c-3.5-1-7-2.2-10.3-3.3
			c-2.2-0.7-4.5-1.5-6.8-2.2l0-0.1l-0.7-0.3c-0.3-0.1-0.5-0.2-0.7-0.3c-0.2-0.1-0.4-0.1-0.7-0.2c-2.2-0.8-5.5-1.8-8.6-2.8
			c-1.6-0.5-3.6-1.2-5.6-1.9c-4.8-1.7-7.8-2.7-9.1-2.7c-0.2,0-0.4,0-0.5,0.1l-0.2,0.1l-0.1,0.1c-39.1-16.7-140.2-59.7-207.2-88.1
			l-40.4-17.2c0-0.6-0.1-1.1-0.4-1.5c-0.4-0.6-0.9-1.1-1.5-1.5c-1.9-1.4-4.1-2.3-6.2-3.1l-0.4-0.2c-3-1.1-14.2-5.4-17.3-6.4
			c-0.3-0.1-0.7-0.2-1.1-0.3l-4-1.3l-0.3,0.2c0,0,0,0-0.1,0c-0.6-0.2-1.1-0.4-1.7-0.5c-0.8-0.2-1.5-0.5-2.3-0.8
			c-6.9-2.1-20-6.1-26-7.5l-0.5-0.1c-0.7-0.2-1.4-0.3-2-0.4c-1.5-0.3-2.9-0.4-4.2-0.4c-1.7,0-3.4,0.2-5.5,0.8
			c-0.2,0.1-19.3,7-53.5,15.1c-3.6,1-7,1.8-9.8,2.5c-1.3,0.4-2.7,0.7-4,1c-17.3,3.8-34.8,6.9-52,9.3h-0.2l-0.1,0
			c-7.5,1.1-13.7,1.9-19.9,2.5c-12.4,1.5-24.7,2.5-35.1,3.3c-23.2,1.5-46,1.9-67.1,2.2h-4.7c-13.9,0.1-28,0.2-41.7,0.2
			c-6.9,0-13.8,0-20.8,0.1c-0.4,0-1.7,0-3.7,0c-6.4,0.1-19.8,0.3-37.8,0.4c-18-0.1-31.4-0.3-37.8-0.4c-2,0-3.3,0-3.8,0
			c-6.9,0-13.8-0.1-20.7-0.1c-13.7,0-27.8-0.1-41.7-0.2l-4.7,0c-21.1-0.3-43.9-0.7-67.1-2.2c-11.6-0.9-23.4-2-35.1-3.3
			c-6.3-0.6-12.8-1.4-19.9-2.5l-0.1,0h-0.2c-17.5-2.4-34.9-5.5-52-9.3c-0.5-0.1-1.1-0.3-1.7-0.4c-0.8-0.2-1.6-0.4-2.5-0.6
			c-3.2-0.8-6.5-1.6-9.7-2.5c-34.2-8-53.3-15-53.6-15.1c-1.9-0.5-3.6-0.7-5.3-0.7c-1.3,0-2.7,0.1-4.3,0.4c-0.7,0.1-1.4,0.2-2.1,0.4
			l-0.5,0.1c-6,1.4-19.1,5.4-25.9,7.5c-1.7,0.5-3.3,1-5,1.6l-0.3,0.1l-0.5-0.3l-0.3,0.1c-0.5,0.1-0.9,0.3-1.3,0.5
			c-0.2,0.1-0.5,0.2-0.7,0.3c-0.3,0.1-0.7,0.2-1.1,0.3c-3,0.8-12.4,4.5-16.5,6.1l-0.9,0.3c-1.8,0.7-4.4,1.7-6.6,3.3
			c-0.6,0.4-1.7,1.3-1.9,2.4l0,0.1v0.4c0,0.2,0,0.5,0.1,0.7c-51.6,21.9-196.9,83.5-247.6,105.1c0,0,0,0-0.1,0l-0.1-0.1l-0.2-0.1
			c-0.2-0.1-0.3-0.1-0.5-0.1c-1.3,0-4.3,1-9.1,2.7c-2,0.7-4,1.4-5.6,1.9c-3.1,1-6.4,2-8.6,2.8c-0.4,0.1-0.8,0.3-1.2,0.4l-0.9,0.4
			c-1.5,0.5-3,1-4.5,1.5c-4.2,1.4-8.2,2.8-12.5,4c-1,0.3-1.7,0.5-2.5,0.8c-0.7,0.2-1.4,0.4-2.4,0.7l-0.5,0.1c-2.3,0.6-4.9,1.4-5.7,3
			c-1.2,2.2,0.3,7.9,3,16.9c0.4,1.4,0.8,2.8,1.2,4.1c30.3,110.2,47.7,232,56.6,394.9c0.3,5.2,0.5,10.4,0.8,15.5h1328.3
			C3918.6,668.8,3918.9,663.7,3919.1,658.5z"/>
		<path class="st1" d="M884.4,461.8l-338.9,88.7c0.4,2.7,0.8,5.5,1.2,8.2c0.4,2.9,0.8,5.8,1.3,8.7l346.6-90.7
			C891.2,471.8,887.8,466.8,884.4,461.8z"/>
		<path class="st1" d="M996.6,603.1c-25.8-27.3-51-57.3-75.5-89.8l-367.6,96.2c6.8,58.9,11.1,123.7,9.1,188l500.9-131.1
			C1040.7,647.3,1018.4,626.2,996.6,603.1z"/>
		<path class="st1" d="M800.9,320.6c-0.7-1.5-1.5-2.9-2.2-4.3c-0.1-0.1-0.1-0.3-0.1-0.5c-2.6-5.2-5.3-10.4-7.9-15.6
			c-0.3-0.5-0.5-1.1-0.8-1.6c-2.1-4.2-4.2-8.5-6.3-12.7c-5.8-11.9-11.5-23.9-16.7-36.1c-0.4-0.9-0.7-1.7-1.1-2.6
			c-2-4.7-4-9.5-5.9-14.3c-8.8-22-17.7-45.5-20.6-69.1c-0.1-1.1-0.3-2.3-0.2-3.4c-40.2,17.3-92.4,39.4-134.4,57.1
			c-29.1,12.3-54.2,22.9-68.6,29.1c-0.6-0.7-1.4-1-2.5-1c-1.2,0-2.5,0.4-4,0.9l-21.7,8.3l0,0.2l-14.3,5.4c-0.6,0.2-1.1,0.4-1.6,0.6
			l-5.9,2.2c-2.8,0.9-5.3,2.3-4.1,6.2c5.8,18.8,19.8,66.2,34.6,130.2L803,324.7C802.3,323.4,801.6,322,800.9,320.6z"/>
		<path class="st1" d="M823.5,362.8l-297.9,77.9c1.2,5.5,2.3,11,3.4,16.7l303.1-79.3C829.3,373.1,826.4,368,823.5,362.8z"/>
		<path class="st1" d="M1668.9,157.3c0.2,0.3,0.4,0.6,0.5,0.8c0.3,0.7,0.5,1.4,0.6,2.1c0.1,1.2,0,2.4-0.1,3.6
			c-2.9,23.6-11.9,47.2-20.6,69.1c-2.2,5.6-4.6,11.3-7,16.8c-5.3,12.2-10.9,24.2-16.7,36.1c-2.1,4.2-4.2,8.5-6.3,12.7
			c-0.3,0.5-0.5,1.1-0.8,1.6c-2.6,5.2-5.2,10.4-7.9,15.6c0,0.2,0,0.3-0.1,0.5c-0.7,1.4-1.5,2.9-2.2,4.3
			c-24.2,47.1-47.9,86.5-68.2,118c-40.1,62.1-82.9,117.5-127.5,164.5c-51.7,54.7-106,98.3-161.5,130c0,0-35.3,17.6-40.1,20l-0.5,0.3
			c0,0,0,0-0.1,0l-5.3,2.7l0.1,0.1l5.6-2.8h0.1l0.4-0.2c4.8-2.4,40.1-20,40.1-20c32.5-18.5,64.5-41.2,95.8-67.6l500.4,130.9
			c-2-64.3,2.3-129.2,9.2-188l-367.6-96.2c8.9-11.9,17.7-24.1,26.4-36.6l346.7,90.7c0.4-2.7,0.8-5.3,1.2-8c0.4-3,0.9-6,1.3-8.9
			l-339-88.7c4.9-7.2,9.7-14.5,14.5-22c13.3-20.6,25.8-41.1,37.6-61.8l303.4,79.4c1.1-5.6,2.3-11.2,3.4-16.7l-298.2-78
			c7-12.6,13.8-25.2,20.4-38.1l286.8,75c14.7-63.5,28.6-110.7,34.4-129.5c1.1-3.6-0.7-5.1-4-6.2l-5.9-2.2c-0.5-0.2-1-0.4-1.6-0.6
			l-15.7-5.6l-20.9-8c-1.6-0.5-2.8-0.8-4-0.8c-0.9,0-1.7,0.3-2.3,0.8c-11.8-5-30.6-13-52.3-22.1c-44.5-18.8-105.4-44.5-150.7-64.1
			l-0.2-0.1c-0.1-0.6-0.3-1.1-0.5-1.7c-0.1-0.4-0.4-0.7-0.6-1c-1-1.2-2.2-2-3.5-2.7C1667,155.6,1668.1,156.3,1668.9,157.3z"/>
	</g>
	<g id="Color_2">
		<g>
			<path class="st4" d="M4093.9,1147.6c-12.8-8.1-26.5-17-40-27.3c-15.5-11.9-27.6-22.2-38.1-32.4c-23.5-22.9-41.9-51.2-59.6-91.6
				c-16.7-38.4-28.2-78.8-33.9-120.2c-8.2-58.7-7.3-117.2-5.1-171.5c0.4-10.1,0.8-20.4,1.3-30.7H2590.1c0.5,10.2,0.9,20.4,1.3,30.5
				c2.2,54.4,3.1,112.8-5.1,171.5c-5.8,41.4-17.2,81.8-33.9,120.2c-17.7,40.4-36.1,68.7-59.6,91.6c-10.5,10.2-22.6,20.5-38.1,32.4
				c-13.5,10.3-27.2,19.2-40.1,27.3c-2.5,1.6-3.8,4.4-3.5,7.1c0.3,4.5,1.1,16.2,2.1,27.2l-0.3,0.1l0.1,0.6c0.4,4.6,0.8,9.4,1.2,13.3
				c0.7,7.5,1.2,13.2,1.7,16.8c0.2,2.1,0.5,4.2,2.1,4.6l0.1,0h0.1c10.2,122,48.1,682,34.5,1003.9c-0.3,3.6-0.7,8.5-1.1,14.5
				c-2.2,28.4-6.3,81.3-11.3,141.1c-5,59.3-12.6,143.4-20.3,207.4c-0.3,3.2-0.7,6.3-1.1,9.4c-1.2,8.8,4.5,17.2,13.1,19.5
				c1.5,0.4,3.1,0.8,4.7,1.2c2.1,0.5,4.2,1.1,6.3,1.6c15,3.8,29.3,7,43.5,9.7c9.2,1.7,18.6,3.4,30.6,5.3l1,0.2v-0.3
				c11.6,1.8,23,3.3,33.8,4.6v0.1l0.8,0.1c7.8,0.9,15.9,1.7,25.9,2.5v0.2l0.8,0.1c202.7,13.1,422.7,19.8,654,19.8
				c393.8,0,687.5-19.6,690.4-19.8c1-0.1,2-0.1,3-0.2c0.9-0.1,1.8-0.1,2.7-0.2c8.2-0.7,16.7-1.5,25.2-2.4c11.1-1.2,22.5-2.9,36.2-5
				c9.4-1.4,19.5-3.1,30.9-5.3c16.2-3.2,30.6-6.4,44-9.7c3.4-0.8,7.3-1.7,11.2-2.8c8.7-2.3,14.5-10.7,13.3-19.6
				c-0.4-2.9-0.8-6-1.2-9.1l0-0.3c-6-49.3-12.9-119.3-20.5-208c-6.3-74.3-11.2-137.8-12.5-156c-13.7-319.3,23.8-871.8,34.6-1002.7
				c1-0.8,1.2-2.5,1.4-4.2c0.5-3.7,1-9.4,1.7-16.8c0.4-3.9,0.8-8.4,1.1-12.2l0.3,0.1l0.1-1.1c1-11.3,1.8-23.1,2.1-27.7
				C4097.7,1151.9,4096.3,1149.2,4093.9,1147.6z"/>
		</g>
		<path class="st4" d="M2048.3,1167.1c-0.1-0.1-0.1-0.2-0.2-0.3c-0.6-0.6-1.4-0.9-2.2-1.2c-0.9-0.3-1.8-0.6-2.5-0.9
			c-1.1-0.4-2-0.8-3-1.2c-0.6-0.4-1.2-0.6-1.8-0.8c-0.9-0.3-1.8-0.6-2.5-0.9c-0.2-0.1-0.5-0.2-0.7-0.3c-0.2-0.1-0.4-0.1-0.6-0.2
			c-1.8-0.7-3.6-1.4-5.3-2.1c-1.3-0.5-2.7-1.1-4-1.7c-1.3-0.6-2.7-1.2-4-1.7l-7.8-3.6c-2.6-1.2-5.1-2.5-7.6-3.8
			c-2.4-1.3-5-2.6-7.5-4c-2.5-1.4-4.9-2.8-7.3-4.2c-2.2-1.3-4.6-2.8-7.1-4.4c-2.3-1.5-4.6-3.1-6.9-4.7c-2.6-1.8-5-3.5-6.8-4.9
			l-6.6-5.1l-0.6-0.5c-2-1.6-3.9-3.2-5.8-4.9c-2.1-1.8-4.1-3.6-6.2-5.6c-1.9-1.8-4-3.8-6-5.9c-2-2-3.9-4-5.8-6.1
			c-1.9-2.1-3.8-4.2-5.7-6.4c-1.9-2.2-3.7-4.4-5.5-6.6c-1.8-2.3-3.6-4.6-5.3-6.9c-1.8-2.4-3.5-4.8-5.1-7.2c-1.7-2.5-3.3-5-4.9-7.5
			c-0.5-0.9-1.1-1.7-1.6-2.6c-1-1.7-2.1-3.4-3.2-5.2c-1.6-2.7-3.1-5.4-4.6-8.1c-0.3-0.5-0.5-1-0.8-1.5c-0.2-0.5-0.5-0.9-0.8-1.5
			c-0.1-0.2-0.3-0.5-0.4-0.7c-0.1-0.3-0.3-0.5-0.4-0.8l-0.1-0.1c-0.1-0.2-0.2-0.4-0.4-0.6c0-0.1-0.1-0.2-0.2-0.2
			c0-0.1-0.1-0.1-0.1-0.1c0,0,0,0,0,0v-0.1l-0.1-0.1c-36-69.7-50.6-157.2-53.3-245.6L1347,665.6c-31.3,26.4-63.3,49.1-95.8,67.6
			c0,0-35.3,17.6-40.1,20l-0.4,0.2h-0.1l-5.6,2.8l-0.1-0.1l-0.4,0.2l0,0c0,0,0,0,0,0l-5.7-2.9c0,0-0.1,0-0.1,0l-0.5-0.3
			c-4.8-2.4-40.1-20-40.1-20c-32.1-18.3-63.7-40.6-94.7-66.7L562.5,797.5c-2.8,88.2-17.4,175.4-53.3,244.9l0,0v0.1
			c0,0-0.1,0.2-0.1,0.2c-0.1,0.1-0.2,0.2-0.2,0.3l-0.1,0.2c-0.1,0.1-0.1,0.3-0.2,0.4l0,0l0,0.1c-0.2,0.3-0.3,0.5-0.4,0.8
			c-0.1,0.2-0.2,0.5-0.4,0.7c-0.5,0.9-1,1.9-1.5,2.9c-1.5,2.6-3,5.4-4.6,8.1c-1.5,2.6-3.1,5.2-4.8,7.8c-1.6,2.5-3.2,5-4.9,7.5
			l-5.1,7.2c-1.7,2.3-3.5,4.6-5.3,6.9c-0.4,0.5-0.8,1-1.3,1.6c-1.4,1.7-2.8,3.4-4.2,5c-1.6,2-3.4,4-5.7,6.4
			c-1.9,2.1-3.9,4.1-5.9,6.1c-1,1-2,2-3,2.9c-1,1-2,2-3,2.9c-2,1.9-4.1,3.8-6.2,5.6c-2.1,1.8-4.2,3.6-6.4,5.4
			c-2.3,1.8-4.3,3.5-6.6,5.1c-2.2,1.7-4.5,3.3-6.8,4.9c-1.1,0.8-2.3,1.6-3.4,2.3c-1.2,0.8-2.3,1.6-3.4,2.3c-2.5,1.6-4.9,3.1-7.1,4.4
			c-2.6,1.6-4.9,3-7.3,4.2c-2.5,1.4-5,2.7-7.5,4c-2.5,1.3-5.1,2.6-7.6,3.8c-0.9,0.4-1.7,0.8-2.6,1.2c-1.7,0.8-3.5,1.6-5.2,2.4
			c-2.6,1.2-5.3,2.3-8,3.4c-0.9,0.4-1.8,0.7-2.7,1.1c-0.9,0.3-1.7,0.7-2.7,1.1c-0.2,0.1-0.4,0.2-0.6,0.2c-0.3,0.1-0.5,0.2-0.7,0.3
			c-0.9,0.3-1.8,0.6-2.6,0.9c-0.6,0.2-1.2,0.4-1.8,0.8c-0.5,0.2-1,0.4-1.5,0.6c-0.5,0.2-1,0.4-1.5,0.6c-0.9,0.3-1.8,0.6-2.6,0.9
			c-0.9,0.3-1.6,0.6-2.1,1.1c-0.3,0.3-0.6,0.8-0.6,1.2c0,4.1,0.7,12.1,0.8,13.6c0.4,4.6,0.8,8.5,1.2,12.2l0.2,2l-0.2,0.1l0,0.7
			c0.2,2.2,0.4,4.4,0.6,6.9c0.3,4.3,0.6,7.9,1.1,11.7c0,0.2,0.1,0.5,0.1,0.7c0,0.3,0.1,0.5,0.1,0.7c0.2,2.2,0.4,4.4,0.7,6.7
			c0.1,0.6,0.1,1.2,0.2,1.9c0.2,2,0.4,4,0.9,5.8c0,0.5,0.3,1,0.8,1.2l0.1,0h0.1c0.1,0,0.3,0,0.5-0.1c0.1,0,0.3,0,0.3,0
			c0.1,0.1,0.2,0.1,0.3,0.1c8.3,95.3,49.7,679.6,35.8,1007.6c-0.9,12.3-5.8,77.6-12.4,155c-5,58.7-12.6,142.3-20.2,206.5l-0.3,2.4
			c-0.4,3.2-0.8,6.2-1.1,9.2c-0.9,7.4,3.8,14.5,11,16.3c4.4,1.2,8.9,2.3,13.2,3.4c13.7,3.5,28.4,6.7,43.5,9.6
			c11.2,2.2,21.2,3.9,30.5,5.3l0.7,0.1v-0.1c12.7,2,24.1,3.5,35,4.6c9.9,1.1,19.9,2.1,30.5,2.8c2.8,0.2,288.2,19.8,680.7,19.8
			c230.6,0,452.5-6.7,659.6-19.8l0.1,0c10.7-0.8,21.9-1.9,30.4-2.8c13.5-1.5,24.8-3,35.6-4.7c9.1-1.4,18.8-3.1,30.5-5.3
			c13.3-2.6,27.6-5.7,43.5-9.6c2.1-0.5,4.3-1.1,6.4-1.6c1.6-0.4,3.1-0.8,4.7-1.2c8.5-2.3,14-10.5,12.9-19.2c-0.4-3-0.8-6.2-1.1-9.4
			c-5.9-49.1-12.7-118.5-20.2-206.5c-6.6-77.4-11.5-142.7-12.4-155c-14.5-327.4,26.4-905.5,35.2-1007.4c0,0,0,0,0.1,0
			c0.5-0.2,0.8-0.7,0.8-1.1c0.5-1.8,0.7-3.7,0.9-5.6c0.1-0.7,0.1-1.4,0.2-2c0.3-2.2,0.5-4.4,0.7-6.7c0.1-0.3,0.1-0.5,0.1-0.8
			c0-0.2,0-0.5,0.1-0.7c0.5-3.8,0.8-7.8,1.1-11.6c0.2-2.4,0.4-4.7,0.6-6.8c0.1,0,0.1,0,0.2,0.1l0.7,0.2l0.1-0.7
			c0.1-0.8,0.2-1.7,0.3-2.7l0.1-1.3c0.4-3.4,0.7-6.9,1.1-11.2c0.1-1.6,0.8-9.6,0.8-13.6v-0.9L2048.3,1167.1z"/>
		<path class="st4" d="M869.1,438.6c-11.4-17.7-23.9-37.9-36.9-60.5L529,457.4c5.9,29.1,11.5,60.4,16.5,93.1l338.9-88.7
			C879.2,454.2,874.1,446.4,869.1,438.6z"/>
		<path class="st4" d="M1540,438.9c-4.8,7.4-9.6,14.7-14.5,22l339,88.7c5-32.6,10.6-63.9,16.5-93l-303.4-79.4
			C1565.8,397.8,1553.3,418.3,1540,438.9z"/>
	</g>
	<g id="Color_3">
		<path class="st5" d="M894.6,476.7L548,567.4c1.9,13.6,3.8,27.7,5.4,42.1l367.6-96.2C912.1,501.4,903.3,489.2,894.6,476.7z"/>
		<path class="st6" d="M803,324.7l-286.4,74.9c3,13,6,26.7,9,41l297.9-77.9C816.7,350.8,809.9,338.1,803,324.7z"/>
		<path class="st5" d="M1488.9,512.4l367.6,96.2c1.7-14.4,3.5-28.5,5.5-42.1l-346.7-90.7C1506.6,488.3,1497.8,500.5,1488.9,512.4z"
			/>
		<path class="st6" d="M1586.3,361.8l298.2,78c3-14.3,6.1-28,9.1-41l-286.8-75C1600.1,336.6,1593.3,349.2,1586.3,361.8z"/>
	</g>
</g>
<!-- <g id="Shorts">
	<g id="Color_2_00000142896865003394416870000009836728504985620671_">
		<path class="st4" d="M2187.1,4633.9l-191.6-84.1c10.8-1.8,21.1-3.6,31-5.4c30-5.3,55.5-9.9,75.7-13.7c31-5.8,48.9-9.4,49.9-9.6
			l1.2-0.2c9.1-1.8,18.1-3.5,27.1-5.2C2114.4,3472.9,1934.8,3078,1934.8,3078c5.2-73.1-2.9-120.2-6.9-137.7c-1-4.5-5-7.6-9.6-7.4
			c-58.5,1.9-116.4,3.5-174,4.6c-20.7,0.4-41.3,0.8-61.9,1.1c-12.4,0.2-24.8,0.4-37.1,0.6c-149.2,2.2-296.7,2.4-446.1,2.4
			c-145.6,0-288-0.4-433.1-2.5c-12.4-0.2-24.7-0.4-37.1-0.6c-20.6-0.3-41.2-0.7-61.9-1.1c-57.9-1.2-116.4-2.7-175.9-4.6
			c-3.6-0.1-6.7,2.3-7.5,5.8c-3.7,16-12.6,63.8-7.2,139.4c0,0-179.6,394.9-245.5,1437.7c9,1.7,18,3.5,27.2,5.3l1.2,0.2
			c1,0.2,19,3.8,49.9,9.6c20.1,3.7,45.7,8.4,75.7,13.7c9.9,1.7,20.2,3.5,31,5.4l-191.8,84.2c-1.4,26.8-2.7,54.1-4,81.7
			c0,0,14.3,2.9,39.9,7.7l331.6-145.6c10.7,1.6,21.5,3.2,32.5,4.7c26.5,3.8,53.8,7.5,81.6,11.2c151.8,19.8,318.2,35.9,458.2,35.9
			c2.6,0,5.1,0,7.7,0l7.2,0c0-5.9,0-11.5-0.1-16.9c-0.1-6.4-0.1-12.8-0.1-19.2c0-17.2,0.4-34.3,0.7-51.4
			c0.7-34.3,1.8-68.6,3.1-102.9c1.4-36.2,3-72.4,5.2-108.6c1.8-29.2,3.7-58.4,7-87.5c1-8.6,1.9-24.3,3.6-32.8c0.7-3.7,1.7-8,7.5-8
			c3.4,0,6.5,1.7,7.3,4.4c2.2,7.4,2.5,17.3,3.5,25c3.6,27,4.4,55.5,6.1,82.6c2.3,35.5,4,71.1,5.5,106.7c1.4,35.1,2.6,70.3,3.4,105.5
			c0.5,22.4,1,44.8,1.1,67.2c0,3.5,0,7,0,10.6c0,2.9,0,5.7-0.1,8.6c-0.1,5.4-0.1,11-0.2,16.9l7.4,0c2.6,0,5.1,0,7.7,0
			c140,0,306.5-16.1,458.2-35.9c27.8-3.6,55-7.4,81.6-11.2c11-1.6,21.8-3.1,32.5-4.7l331.5,145.5c25.5-4.8,39.8-7.7,39.8-7.7
			C2189.8,4688,2188.5,4660.7,2187.1,4633.9z"/>
		<path class="st4" d="M2273,4633.9l191.6-84.1c-10.8-1.8-21.1-3.6-31-5.4c-30-5.3-55.5-9.9-75.7-13.7c-31-5.8-48.9-9.4-49.9-9.6
			l-1.2-0.2c-9.1-1.8-18.1-3.5-27.1-5.2c65.9-1042.8,245.5-1437.7,245.5-1437.7c-5.2-73.1,2.9-120.2,6.9-137.7c1-4.5,5-7.6,9.6-7.4
			c58.5,1.9,116.4,3.5,174,4.6c20.7,0.4,41.3,0.8,61.9,1.1c12.4,0.2,24.8,0.4,37.1,0.6c149.2,2.2,296.7,2.4,446.1,2.4
			c145.6,0,288-0.4,433.1-2.5c12.4-0.2,24.7-0.4,37.1-0.6c20.6-0.3,41.2-0.7,61.9-1.1c57.9-1.2,116.4-2.7,175.9-4.6
			c3.6-0.1,6.7,2.3,7.5,5.8c3.7,16,12.6,63.8,7.2,139.4c0,0,179.6,394.9,245.5,1437.7c-9,1.7-18,3.5-27.2,5.3l-1.2,0.2
			c-1,0.2-19,3.8-49.9,9.6c-20.1,3.7-45.7,8.4-75.7,13.7c-9.9,1.7-20.2,3.5-31,5.4l191.8,84.2c1.4,26.8,2.7,54.1,4,81.7
			c0,0-14.3,2.9-39.9,7.7l-331.6-145.6c-10.7,1.6-21.5,3.2-32.5,4.7c-26.5,3.8-53.8,7.5-81.6,11.2
			c-151.8,19.8-318.2,35.9-458.2,35.9c-2.6,0-5.1,0-7.7,0l-7.2,0c0-5.9,0-11.5,0.1-16.9c0.1-6.4,0.1-12.8,0.1-19.2
			c0-17.2-0.4-34.3-0.7-51.4c-0.7-34.3-1.8-68.6-3.1-102.9c-1.4-36.2-3-72.4-5.2-108.6c-1.8-29.2-3.7-58.4-7-87.5
			c-1-8.6-1.9-24.3-3.6-32.8c-0.7-3.7-1.7-8-7.5-8c-3.4,0-6.5,1.7-7.3,4.4c-2.2,7.4-2.5,17.3-3.5,25c-3.6,27-4.4,55.5-6.1,82.6
			c-2.3,35.5-4,71.1-5.5,106.7c-1.4,35.1-2.6,70.3-3.4,105.5c-0.5,22.4-1,44.8-1.1,67.2c0,3.5,0,7,0,10.6c0,2.9,0,5.7,0.1,8.6
			c0.1,5.4,0.1,11,0.2,16.9l-7.4,0c-2.6,0-5.1,0-7.7,0c-140,0-306.5-16.1-458.2-35.9c-27.8-3.6-55-7.4-81.6-11.2
			c-11-1.6-21.8-3.1-32.5-4.7l-331.5,145.5c-25.5-4.8-39.8-7.7-39.8-7.7C2270.3,4688,2271.6,4660.7,2273,4633.9z"/>
	</g>
	<g id="Color_1_00000114050637488530742600000014280806825576686782_">
		<path class="st1" d="M384.9,4544.4l-159.8,70.1c-0.3,6.5-0.7,12.9-1,19.4l191.8-84.2C405.1,4547.9,394.8,4546.1,384.9,4544.4z"/>
		<path class="st1" d="M1163.9,4629.6c-140,0-306.5-16.1-458.2-35.9l-339.2,148.9c193.8,33.6,541.9,86.6,806,85.4
			c0,0,3.5-65.7,5.3-132.1c0.6-22,1-44,1-63.7c0-0.9,0-1.7,0-2.6l-7.2,0C1169,4629.6,1166.5,4629.6,1163.9,4629.6z"/>
		<path class="st1" d="M259.3,4521.1l-1.2-0.2c-9.2-1.8-18.2-3.5-27.2-5.3c-1.1,16.8-2.1,33.7-3.1,50.8l81.4-35.7
			C278.3,4524.9,260.3,4521.3,259.3,4521.1z"/>
		<path class="st1" d="M591.6,4577.8L260,4723.4c8.8,1.7,19,3.6,30.4,5.7l333.7-146.5C613.1,4581,602.3,4579.4,591.6,4577.8z"/>
		<path class="st1" d="M1995.5,4549.7l191.6,84.1c-0.3-6.5-0.7-13-1-19.4l-159.6-70.1C2016.6,4546.1,2006.2,4547.9,1995.5,4549.7z"
			/>
		<path class="st1" d="M1787.3,4582.5l333.6,146.4c11.4-2.1,21.6-4,30.4-5.6l-331.5-145.5C1809.1,4579.4,1798.2,4581,1787.3,4582.5z
			"/>
		<path class="st1" d="M2152,4521.1c-1,0.2-19,3.8-49.9,9.6l81.2,35.7c-1-17.1-2-34-3.1-50.7c-8.9,1.7-17.9,3.5-27.1,5.2
			L2152,4521.1z"/>
		<path class="st1" d="M1247.5,4629.6c-2.6,0-5.1,0-7.7,0l-7.4,0c0,0.9,0,1.8,0,2.7c-0.1,19.8,0.1,41.9,0.5,64
			c1,66.2,3.2,131.8,3.2,131.8c264.3,1.2,614.2-51.9,808.6-85.5l-339-148.8C1553.9,4613.5,1387.4,4629.6,1247.5,4629.6z"/>
		<path class="st1" d="M4075.2,4544.4l159.8,70.1c0.3,6.5,0.7,12.9,1,19.4l-191.8-84.2C4055,4547.9,4065.3,4546.1,4075.2,4544.4z"/>
		<path class="st1" d="M3296.2,4629.6c140,0,306.5-16.1,458.2-35.9l339.2,148.9c-193.8,33.6-541.9,86.6-806,85.4
			c0,0-3.5-65.7-5.3-132.1c-0.6-22-1-44-1-63.7c0-0.9,0-1.7,0-2.6l7.2,0C3291.1,4629.6,3293.6,4629.6,3296.2,4629.6z"/>
		<path class="st1" d="M4200.8,4521.1l1.2-0.2c9.2-1.8,18.2-3.5,27.2-5.3c1.1,16.8,2.1,33.7,3.1,50.8l-81.4-35.7
			C4181.8,4524.9,4199.8,4521.3,4200.8,4521.1z"/>
		<path class="st1" d="M3868.5,4577.8l331.6,145.6c-8.8,1.7-19,3.6-30.4,5.7L3836,4582.5C3847,4581,3857.8,4579.4,3868.5,4577.8z"/>
		<path class="st1" d="M2464.7,4549.7l-191.6,84.1c0.3-6.5,0.7-13,1-19.4l159.6-70.1C2443.5,4546.1,2453.9,4547.9,2464.7,4549.7z"/>
		<path class="st1" d="M2672.8,4582.5L2339.2,4729c-11.4-2.1-21.6-4-30.4-5.6l331.5-145.5C2651,4579.4,2661.9,4581,2672.8,4582.5z"
			/>
		<path class="st1" d="M2308.1,4521.1c1,0.2,19,3.8,49.9,9.6l-81.2,35.7c1-17.1,2-34,3.1-50.7c8.9,1.7,17.9,3.5,27.1,5.2
			L2308.1,4521.1z"/>
		<path class="st1" d="M3212.6,4629.6c2.6,0,5.1,0,7.7,0l7.4,0c0,0.9,0,1.8,0,2.7c0.1,19.8-0.1,41.9-0.5,64
			c-1,66.2-3.2,131.8-3.2,131.8c-264.3,1.2-614.2-51.9-808.6-85.5l339-148.8C2906.2,4613.5,3072.7,4629.6,3212.6,4629.6z"/>
	</g>
	<g id="Color_3_00000150822498131090025920000001669039961693649080_">
		<g>
			<path class="st5" d="M624.1,4582.5L290.4,4729c21.3,3.9,47,8.5,76.1,13.6l339.2-148.9C677.9,4590.1,650.6,4586.3,624.1,4582.5z"
				/>
			<path class="st6" d="M309.2,4530.7l-81.4,35.7c-0.9,15.9-1.8,31.9-2.7,48.1l159.8-70.1C354.9,4539.1,329.4,4534.4,309.2,4530.7z"
				/>
			<path class="st5" d="M1705.7,4593.7l339,148.8c29.1-5,54.8-9.6,76.2-13.6l-333.6-146.4
				C1760.7,4586.3,1733.5,4590.1,1705.7,4593.7z"/>
			<path class="st6" d="M2026.5,4544.4l159.6,70.1c-0.9-16.2-1.8-32.2-2.7-48.1l-81.2-35.7C2082,4534.4,2056.4,4539.1,2026.5,4544.4
				z"/>
		</g>
		<g>
			<path class="st5" d="M3836,4582.5l333.7,146.5c-21.3,3.9-47,8.5-76.1,13.6l-339.2-148.9C3782.2,4590.1,3809.5,4586.3,3836,4582.5
				z"/>
			<path class="st6" d="M4150.9,4530.7l81.4,35.7c0.9,15.9,1.8,31.9,2.7,48.1l-159.8-70.1
				C4105.2,4539.1,4130.8,4534.4,4150.9,4530.7z"/>
			<path class="st5" d="M2754.4,4593.7l-339,148.8c-29.1-5-54.8-9.6-76.2-13.6l333.6-146.4
				C2699.4,4586.3,2726.6,4590.1,2754.4,4593.7z"/>
			<path class="st6" d="M2433.6,4544.4l-159.6,70.1c0.9-16.2,1.8-32.2,2.7-48.1l81.2-35.7
				C2378.1,4534.4,2403.7,4539.1,2433.6,4544.4z"/>
		</g>
	</g>
</g> -->
</svg>
