<?xml version="1.0" encoding="utf-8"?>
<!-- Generator: Adobe Illustrator 28.0.0, SVG Export Plug-In . SVG Version: 6.00 Build 0)  -->
<svg version="1.1" id="Layer_1" xmlns="http://www.w3.org/2000/svg" xmlns:xlink="http://www.w3.org/1999/xlink" x="0px" y="0px"
	 viewBox="0 0 4476.9 4992.7" style="enable-background:new 0 0 4476.9 4992.7;" xml:space="preserve">
<style type="text/css">
	.st0{fill:#E4E0EF;}
	.st1{fill:#EABCDC;}
	.st2{fill:#BB3D25;}
</style>
<!-- <g id="Jersey_00000002373416215645804630000012514993365454131900_">
	<path id="Inside_00000155132521179187836170000000396826686732168329_" class="st0" d="M1596.6,187.6l-5.4,0.7l-7.8,0.9l-9.4,1.1
		l-11.5,1.3l-8.5,1c-4.3,0.5-8.8,1-13.5,1.5c0,0-6.4,0.7-9.6,1l-10.4,1.1l-10.9,1.1l-11.3,1.2l-11.8,1.2l-6.2,0.6
		c-4,0.4-8.1,0.8-12.2,1.2l-6.1,0.6l-6.2,0.6l-6.5,0.6l-6.5,0.6l-6.6,0.6l-6.6,0.6l-6.7,0.6l-6.9,0.6l-6.9,0.6l-6.9,0.6l-7.2,0.6
		c-4.5,0.4-9.1,0.7-13.6,1c0,0-4.6,0.3-6.8,0.5c0,0-4.9,0.4-7,0.5c0,0-4.9,0.3-7,0.5c0,0-5,0.3-7,0.5c0,0-5,0.3-7.1,0.5
		c0,0-5.1,0.3-7.1,0.4c0,0-5.1,0.3-7.1,0.4c0,0-5.1,0.3-7.2,0.4c0,0-5,0.3-7.1,0.4l-7.6,0.4c-2.2,0.1-4.4,0.2-6.8,0.3
		c-2.3,0.1-4.5,0.2-6.8,0.3h-0.2c-2.2,0.1-4.4,0.2-6.5,0.3l-7.6,0.3c-2.1,0.1-4.1,0.2-6.2,0.2h-0.8c-2,0.1-4,0.1-6.1,0.2h-0.9
		c-2,0.1-6.9,0.2-6.9,0.2c-2,0.1-6.8,0.2-6.8,0.2c-2,0.1-6.8,0.2-6.8,0.2c-2,0-3.9,0.1-5.9,0.1h-0.8c-2,0-3.9,0.1-5.9,0.1h-0.7
		c-2,0-4,0.1-5.9,0.1h-0.6c-2,0-4,0-6,0h-0.3c-2.1,0-4.1,0-6.2,0c-3.6,0-7.2,0-10.8,0c-3.6,0-7.2,0-10.8,0c-2,0-4.1,0-6.2,0h-0.3
		c-2,0-4,0-6,0h-0.6c-2,0-3.9,0-5.9-0.1h-0.7c-2,0-3.9-0.1-5.9-0.1h-0.8c-1.9,0-3.9-0.1-5.9-0.1h-0.9c-1.9,0-3.9-0.1-5.9-0.1h-0.9
		c-2-0.1-3.9-0.1-5.9-0.2l-7.8-0.2c-2-0.1-4-0.1-6.1-0.2h-0.8c-2.1-0.1-4.1-0.2-6.2-0.2c0,0-4.9-0.2-7.1-0.3l-7.2-0.3
		c-2.2-0.1-4.5-0.2-6.8-0.3c0,0-4.5-0.2-6.7-0.3c0,0-4.8-0.3-7-0.4c0,0-4.9-0.3-7-0.4c0,0-4.9-0.3-7-0.4c0,0-5-0.3-7.1-0.4
		c0,0-5.1-0.3-7.1-0.4c0,0-5.1-0.3-7.1-0.5c0,0-5.1-0.3-7.1-0.5c0,0-5-0.3-7.2-0.5c0,0-4.9-0.3-7-0.5l-7.4-0.5
		c-4.6-0.3-9.1-0.7-13.6-1l-6.8-0.5l-6.8-0.5l-6.8-0.6l-6.6-0.6l-6.9-1l-6.6-0.6l-6.7-0.6l-6.6-0.6l-6.5-0.6l-6.5-0.6l-6.5-0.6
		c-4.1-0.4-8.2-0.8-12.2-1.2l-11.7-1.2l-5.8-0.6l-11.3-1.2l-11-1.1l-10.4-1.1l-10-1.1c-4.7-0.5-9.2-1-13.4-1.5l-4.3-0.5l-11.6-1.3
		l-10.5-1.2c-4.1-0.5-7.7-0.9-10.8-1.3l-5.4-0.7c0,0-3.3-0.4-6.8-0.8c0.1,0.9,0.2,1.7,0.4,2.4l0.2,0.9l0,0c0.2,0.7,0.3,1.4,0.5,2.1
		c0.2,0.8,0.4,1.6,0.7,2.5c2.3,8.3,5.6,16.5,9.1,24.8l0.2,0.6c0.1,0.1,1.3,3.2,3.7,8.6c2.5,5.8,5.3,12,8.4,18.7l1.2,2.6l2.4,5
		c0.7,1.4,1.4,2.9,2.1,4.4c0.5,1.1,1,2.1,1.6,3.3l2.5,5.1c1.7,3.5,3.5,7.1,5.4,10.9c2.6,5.2,5.3,10.6,8.1,15.8l0.1,0.3
		c19.7,38.4,41.1,75.4,65.4,113c38.1,59.1,78.8,111.7,120.8,156.1c47.3,50,96.7,89.9,146.7,118.7l12.8,6.4l0,0l3.9,1.9l2.5,1.1
		l2.5-1.1l16.6-8.3c50-28.8,99.4-68.7,146.7-118.7c42.1-44.4,82.7-97,120.8-156.1c24.3-37.6,45.6-74.6,65.4-113l0.2-0.3
		c2.7-5.3,5.4-10.6,8.1-15.8c0.6-1.2,1.2-2.3,1.7-3.5l1.7-3.4l1.6-3.3l1.5-3.2l2.2-4.6l2.7-5.6l1.2-2.6l2.1-4.5l0.3-0.6l0.1-0.2
		c3-6.5,5.8-12.7,8.3-18.3c2.3-5.3,3.5-8.3,3.7-8.6l0.2-0.5c4.4-10.6,8.3-20.2,10.5-30.1l0.1-0.3l0.1-0.6c0.1-0.5,0.2-1.1,0.2-1.6
		C1599.8,187.2,1596.6,187.6,1596.6,187.6z"/>
	<g id="Trim_Color_3">
		<path class="st1" d="M2474,1145.8L2474,1145.8c16.6-12.8,29.7-23.9,41.1-35c26.3-25.6,47.5-57.9,66.6-101.8
			c17.9-41.1,30.1-84.3,36.3-128.6c8.5-61.4,7.5-124.1,5.4-177.2c-0.6-15.2-1.3-30.8-2.1-46.5c-9-165.3-26.7-289.2-57.7-401.7v-0.1
			c-1.4-5.2-3.6-13.3-5.9-22.1c-6,2-11.6,4.1-17.7,5.8c-2,0.6-2.9,0.9-4.9,1.5c-1.4,0.4-4.9,1.2-5.7,2.7c-1.3,2.5,2,12.5,4.2,20.4
			c35.3,128.4,49.4,262.2,56.6,395.1c0.8,15.4,1.5,30.7,2.1,46c2.3,57.3,2.8,114.9-5.1,171.7c-5.8,41.5-17.3,82.1-34,120.4
			c-15,34.3-33,65.8-59.8,91.9c-12,11.7-24.9,22.3-38.2,32.5c-13,9.9-26.3,18.6-40.1,27.3c-2.1,1.4-3.4,3.8-3.1,6.3
			c0.4,5.9,1.2,17.2,2.1,27.7c13-5,14.9-5.8,18-7.8C2445.3,1166.1,2459.6,1156.8,2474,1145.8z"/>
		<path class="st1" d="M4093.4,1148.3c-13.8-8.7-27.1-17.4-40.1-27.3c-13.3-10.2-26.2-20.8-38.2-32.5
			c-26.8-26.1-44.8-57.6-59.8-91.9c-16.7-38.3-28.2-78.9-34-120.4c-7.9-56.8-7.4-114.4-5.1-171.7c0.6-15.3,1.3-30.6,2.1-46
			c7.2-132.9,21.3-266.7,56.6-395.1c2.2-7.9,5.5-17.9,4.2-20.4c-0.8-1.5-4.3-2.3-5.7-2.7c-2-0.6-2.9-0.9-4.9-1.5
			c-6.1-1.8-11.7-3.9-17.7-5.8c-2.3,8.8-4.5,16.9-5.9,22.1v0.1c-30.9,112.5-48.7,236.4-57.7,401.7c-0.8,15.6-1.5,31.2-2.1,46.5
			c-2.1,53.2-3.2,115.8,5.4,177.2c6.2,44.3,18.4,87.5,36.3,128.6c19.2,43.8,40.3,76.2,66.6,101.8c11.4,11.1,24.4,22.2,41,34.9
			l0.1,0.1c14.4,11,28.7,20.3,42.1,28.7c3,2,4.9,2.8,18,7.8c0.9-10.5,1.7-21.8,2.1-27.7C4096.8,1152.1,4095.5,1149.7,4093.4,1148.3z
			"/>
		<path class="st1" d="M2949.9,139c3.5,1,6.9,1.8,10.2,2.6l0.7,0.2c0.4,0.1,0.9,0.2,1.3,0.3c0.8,0.2,1.6,0.4,2.3,0.6l0.3,0.1
			c17.8,3.9,36.1,7.2,54.4,9.7l1.9,0.3l0,0c6.7,1,12.9,1.8,19.1,2.4c11.9,1.3,23.9,2.5,35.8,3.4h0.4c23.9,1.5,48.1,2,68.6,2.3h4.9
			c13.9,0.1,28,0.2,41.6,0.2c6.9,0,13.8,0,20.8,0.1h0.2c0.4,0,1.6,0,3.3,0c6.5,0.1,19.9,0.3,38.1,0.4h0.1h0.1
			c18.2-0.1,31.7-0.3,38.1-0.4c1.7,0,2.8,0,3.4,0h0.1c6.9,0,13.8-0.1,20.8-0.1c13.6,0,27.7-0.1,41.6-0.2h4.6h0.4
			c20.5-0.3,44.6-0.8,68.6-2.3h0.4c10.6-0.8,23.2-1.9,36-3.4c6-0.6,11.9-1.3,19-2.3l2-0.3c18-2.5,36.2-5.7,54.3-9.7
			c1.5-0.3,3.4-0.7,5.4-1.3c2.6-0.6,5.9-1.5,9.4-2.4c31-7.3,50-13.7,55-15.5c3.7-1.1,6.9-2.9,28.4-14.8c1.7-0.9,3.5-2,5.5-3.1
			c-1.5-0.5-3.1-1-4.6-1.5c-6.1-1.9-19.7-6-25.9-7.5c-0.9-0.2-1.7-0.4-2.5-0.5c-3.8-0.7-6.5-0.4-9.3,0.3c0,0-18.9,6.9-53.6,15.1
			c-3.3,0.9-6.5,1.7-9.8,2.5c-1.3,0.4-2.7,0.7-4.1,1c-17.3,3.8-34.6,6.9-52.1,9.3c-0.1,0-0.1,0-0.2,0c-6,0.9-12.6,1.8-19.9,2.5
			c-11.7,1.4-23.4,2.4-35.1,3.3c-22.4,1.4-44.8,1.9-67.2,2.2c-1.6,0-3.1,0-4.7,0c-20.8,0.2-41.6,0.2-62.4,0.3c0,0,0,0-0.1,0
			c-1.7,0-17.7,0.3-41.5,0.4c-23.8-0.1-39.8-0.4-41.5-0.4h-0.1c-20.8-0.1-41.6-0.1-62.4-0.3c-1.6,0-3.1,0-4.7,0
			c-22.4-0.3-44.8-0.8-67.2-2.2c-11.7-0.9-23.4-2-35.1-3.3c-7.3-0.7-14-1.6-19.9-2.5c-0.1,0-0.1,0-0.2,0
			c-17.5-2.4-34.9-5.5-52.1-9.3c-1.3-0.3-2.7-0.7-4.1-1c-3.3-0.8-6.6-1.6-9.8-2.5c-34.7-8.1-53.6-15.1-53.6-15.1
			c-2.8-0.7-5.5-0.9-9.3-0.3c-0.8,0.1-1.6,0.3-2.5,0.5c-6.2,1.5-19.8,5.6-25.9,7.5c-2.1,0.6-4.1,1.3-6.2,2
			c27.9,14.3,32.3,16.4,35.4,17.4C2899.9,125.2,2919,131.7,2949.9,139z"/>
		<path class="st1" d="M785.9,221.5l0.6,1.5c1.6,4.1,3.5,8.6,5.6,13.6c0,0,0.9,2.1,1,2.4c4.6,10.5,9.7,21.7,16.2,35
			c2,4.2,4.1,8.3,6.2,12.5l0.8,1.6c2.8,5.7,5.4,10.7,7.7,15.3l2.8,5.5v0.3c20,38.9,41.7,76.4,66.3,114.5
			c39.1,60.7,80.9,114.6,124.2,160.4c49.5,52.3,101.4,94.2,154.2,124.5c3.9,2,22.8,11.4,33.1,16.5c10.3-5.2,29.2-14.6,33.1-16.5
			c52.8-30.3,104.7-72.2,154.2-124.5c43.3-45.8,85.1-99.7,124.2-160.4c24.6-38.1,46.3-75.6,66.3-114.5v-0.3l2.8-5.5
			c2.4-4.6,4.9-9.6,7.7-15.3l0.8-1.6c2.1-4.2,4.1-8.3,6.1-12.5c6.5-13.3,11.6-24.4,16.2-35c2.4-5.5,4.6-10.9,6.7-16
			c8.5-21.3,16.3-42.1,18.8-62c0.2-1.7,0.9-8.8,1.9-18.3c-1.4-0.8-2.8-1.5-4.2-2.3c-1.7-0.9-3.4-1.8-5.1-2.8
			c-0.2-0.1-0.3-0.2-0.5-0.3c-7.1-3.9-14.1-6-20.3-7.1c-1.2,9.4-2.5,17.7-3.7,24.8c-3.8,22-6.9,33.1-7,33.4l-0.1,0.6l-0.1,0.3
			c-2.2,9.9-6,19.5-10.5,30.1l-0.2,0.5c-0.1,0.4-1.4,3.3-3.7,8.6c-2.5,5.7-5.3,11.8-8.3,18.3l-0.1,0.2l-0.3,0.6l-2.1,4.5l-1.2,2.6
			l-2.7,5.6l-2.2,4.6l-1.5,3.2l-1.6,3.3l-1.7,3.4c-0.6,1.2-1.1,2.3-1.7,3.5c-2.6,5.3-5.3,10.6-8.1,15.8l-0.2,0.3
			c-19.7,38.4-41.1,75.4-65.4,113c-38.1,59.1-78.8,111.7-120.8,156.1c-47.3,50-96.7,89.9-146.7,118.7l-16.6,8.3l-2.5,1.1l-2.5-1.1
			l-3.9-1.9l0,0l-12.8-6.4c-50-28.8-99.4-68.7-146.7-118.7c-42.1-44.4-82.7-97-120.8-156.1c-24.3-37.6-45.7-74.6-65.4-113l-0.1-0.3
			c-2.7-5.3-5.4-10.6-8.1-15.8c-1.9-3.8-3.7-7.4-5.4-10.9l-2.5-5.1c-0.5-1.1-1.1-2.2-1.6-3.3c-0.7-1.5-1.4-3-2.1-4.4l-2.4-5
			l-1.2-2.6c-3.1-6.6-5.9-12.9-8.4-18.7c-2.4-5.4-3.6-8.5-3.7-8.6l-0.2-0.6c-3.5-8.3-6.8-16.5-9.1-24.8c-0.2-0.8-0.5-1.6-0.7-2.5
			c-0.2-0.7-0.4-1.4-0.5-2.1l0,0l-0.2-0.9c-0.1-0.7-0.3-1.5-0.4-2.4c-3-11.8-5.4-22.4-7.5-31.9c-2-9.2-3.6-17.3-4.9-24.3
			c-5.7,1.2-12,3.3-18.3,6.8c-0.2,0.1-0.3,0.2-0.5,0.3c-1.7,0.9-3.4,1.8-5.1,2.8c-1.4,0.7-2.8,1.5-4.1,2.2c1,10.3,1.7,17.7,1.8,18.9
			C769.6,180.6,777.9,201.4,785.9,221.5z M1610.8,190.5L1610.8,190.5L1610.8,190.5L1610.8,190.5L1610.8,190.5L1610.8,190.5z
			 M813.7,231.7L813.7,231.7L813.7,231.7L813.7,231.7z M798.9,191L798.9,191L798.9,191L798.9,191L798.9,191L798.9,191L798.9,191z
			 M798.8,190.7L798.8,190.7L798.8,190.7L798.8,190.7L798.8,190.7L798.8,190.7z"/>
		<path class="st1" d="M1598.6,129c0.8,0,1.7-0.1,2.7-0.1C1600.3,128.9,1599.3,129,1598.6,129z"/>
		<path class="st1" d="M793.9,130.5c1.2-0.3,2.4-0.5,3.5-0.7C796.3,130.1,795.1,130.3,793.9,130.5z"/>
		<path class="st1" d="M1603.7,129c1.6,0.1,3.4,0.2,5.4,0.4C1607.1,129.2,1605.3,129.1,1603.7,129z"/>
		<path class="st1" d="M810,129c0.6,0,1.2,0,1.7,0.1C811.2,129,810.6,129,810,129z"/>
		<path class="st1" d="M810,157.3c6.2,0.8,230.8,29.1,384,29.1c3.6,0,7.2,0,10.8,0c3.6,0,7.2,0,10.8,0c153.1,0,377.5-28.3,384-29.1
			c1.7-0.2,2.2-0.3,10.5-2.3c1.2-7.1,2.5-15.4,3.7-24.8l0,0c-0.5-0.1-1-0.2-1.6-0.3c-0.1,0-0.1,0-0.2,0c-0.5-0.1-0.9-0.1-1.4-0.2
			c-0.1,0-0.1,0-0.2,0c-0.5-0.1-0.9-0.1-1.4-0.2h-0.1c-2-0.2-3.8-0.4-5.4-0.4h-0.1c-0.3,0-0.7,0-1,0c-0.1,0-0.1,0-0.2,0
			c-0.3,0-0.7,0-1,0h-0.1c-1,0-1.9,0-2.7,0.1c-0.1,0-0.1,0-0.2,0c-0.2,0-0.4,0-0.5,0s-0.1,0-0.2,0c-0.2,0-0.3,0-0.4,0s-0.1,0-0.2,0
			s-0.3,0-0.4,0h-0.1c-0.2,0-0.3,0-0.4,0c-2.3,0.3-227.6,28.9-380.5,28.9c-3.6,0-7.2,0-10.8,0l0,0l0,0c-3.6,0-7.2,0-10.8,0
			c-152.9,0-378.3-28.6-380.5-28.9c-0.1,0-0.3,0-0.4,0h-0.1c-0.1,0-0.3,0-0.4,0c0,0-0.1,0-0.2,0c-0.2,0-0.4,0-0.6,0h-0.1
			c-0.5,0-1.1-0.1-1.7-0.1h-0.1c-0.3,0-0.6,0-0.9,0h-0.1c-1.1,0-2.3,0-3.6,0.1c0,0,0,0-0.1,0c-0.4,0-0.9,0.1-1.3,0.1c0,0,0,0-0.1,0
			c-1.4,0.1-3,0.3-4.6,0.5H799c-0.5,0.1-1,0.1-1.5,0.2h-0.1c-1.1,0.2-2.3,0.4-3.5,0.7l0,0c1.3,7.1,2.9,15.2,4.9,24.3
			C807.4,156.9,808.2,157.1,810,157.3z"/>
		<path class="st1" d="M2047.7,1167.2c-0.5-0.5-1.3-0.8-1.9-1c-0.9-0.3-1.8-0.6-2.6-0.9c-1.1-0.4-2.1-0.8-3.1-1.2
			c-0.5-0.4-1.1-0.6-1.7-0.8c-0.9-0.3-1.8-0.6-2.6-0.9c-0.4-0.2-0.9-0.3-1.3-0.5c-1.8-0.7-3.6-1.4-5.3-2.1c-2.7-1.1-5.3-2.3-8-3.4
			c-2.6-1.2-5.2-2.4-7.8-3.6c-2.6-1.2-5.1-2.5-7.6-3.8s-5-2.6-7.5-4s-4.9-2.8-7.3-4.2c-2.4-1.4-4.8-2.9-7.1-4.4
			c-2.3-1.5-4.6-3.1-6.9-4.7s-4.5-3.2-6.8-4.9c-2.2-1.7-4.4-3.4-6.6-5.1c-2.2-1.8-4.3-3.5-6.4-5.4c-2.1-1.8-4.2-3.7-6.2-5.6
			s-4.1-3.9-6-5.9c-2-2-3.9-4-5.8-6.1s-3.8-4.2-5.7-6.4c-1.9-2.2-3.7-4.4-5.5-6.6c-1.8-2.3-3.6-4.6-5.3-6.9
			c-1.8-2.4-3.5-4.8-5.1-7.2c-1.7-2.5-3.3-5-4.9-7.5c-1.6-2.6-3.2-5.1-4.8-7.8c-1.6-2.7-3.1-5.4-4.6-8.1c-0.5-1-1-1.9-1.5-2.9
			c-0.3-0.5-0.5-1-0.8-1.5c-0.1-0.2-0.2-0.5-0.4-0.7c-0.1-0.2-0.4-0.5-0.4-0.7c-70-135.3-59.1-337.9-37.6-484
			c21.1-143.6,56.5-262.3,64.8-289.3c1-3.2-0.5-4.4-3.7-5.5l-5.9-2.2c-0.5-0.2-1-0.4-1.6-0.6l-15-5.7
			c-12.9,44-47.6,168.8-66.7,299.2c-13.4,91.2-18.7,175.8-15.8,251.3c3.9,100.7,22.7,184.4,55.7,248.8c0.4,0.9,0.9,1.8,1.4,2.6
			l0.3,0.6c0.2,0.4,0.4,0.8,0.7,1.2l0.1,0.1c0.5,1,1,1.9,1.6,2.9c1.6,2.9,3.2,5.8,5,8.8c1.7,2.8,3.4,5.7,5.3,8.6s3.7,5.6,5.5,8.3
			c1.9,2.8,3.8,5.4,5.7,8c1.9,2.5,3.8,5,5.9,7.7c2,2.5,4.1,5,6.2,7.5c2,2.3,4.2,4.8,6.4,7.1c2.2,2.4,4.4,4.7,6.6,6.9
			c2.2,2.2,4.5,4.4,6.8,6.6s4.6,4.2,7,6.3c2.2,1.9,4.5,3.9,7.1,6c2.5,2,5,4,7.4,5.8s5,3.7,7.5,5.4c2.5,1.8,5.1,3.5,7.6,5.2
			c2.5,1.6,5.1,3.3,7.9,4.9c2.7,1.6,5.4,3.2,8.1,4.7c2.6,1.4,5.2,2.9,8.2,4.4c2.9,1.5,5.7,2.9,8.5,4.2c2.8,1.4,5.7,2.7,8.5,4
			c3.1,1.4,5.9,2.6,8.7,3.7c1.9,0.8,3.8,1.6,5.8,2.3l0.3,0.1l0.6,0.2c0.4,0.1,0.7,0.3,1.1,0.4l0,0l0.2,0.1l4.7,1.8
			c0.8,0.3,1.7,0.6,2.5,0.9c0.6,0.2,2.4,0.9,4.7,1.8c3.2,1.2,5.7,2.2,7.7,2.9c0.1-0.9,0.2-1.9,0.3-2.9c0.4-3.8,0.8-7.5,1.2-12.2
			c0.3-3.5,0.8-10.1,0.8-13.6C2048.1,1167.8,2047.9,1167.4,2047.7,1167.2z"/>
		<path class="st1" d="M376.3,1191.9c0.8-0.3,1.7-0.6,2.5-0.9l4.7-1.8l0.2-0.1l0,0c0.4-0.1,0.7-0.3,1.1-0.4l0.6-0.2l0.3-0.1
			c1.9-0.8,3.8-1.5,5.8-2.3c2.8-1.2,5.6-2.4,8.7-3.7c2.8-1.3,5.7-2.6,8.5-4c2.7-1.3,5.6-2.7,8.5-4.2s5.6-3,8.2-4.4
			c2.8-1.5,5.5-3.1,8.1-4.7c2.8-1.7,5.4-3.3,7.9-4.9c2.5-1.7,5.1-3.4,7.6-5.2c2.6-1.8,5.1-3.6,7.5-5.4s5-3.8,7.4-5.8
			c2.6-2.1,4.9-4,7.1-6c2.4-2,4.7-4.1,7-6.3c2.3-2.2,4.6-4.4,6.8-6.6c2.2-2.2,4.4-4.5,6.6-6.9s4.3-4.8,6.4-7.1
			c2.1-2.5,4.2-5,6.2-7.5c2.1-2.6,4-5.2,5.9-7.7c1.9-2.6,3.8-5.3,5.7-8c1.8-2.6,3.6-5.3,5.5-8.3c1.8-2.9,3.6-5.8,5.3-8.6
			c1.8-3,3.5-6,5-8.8c0.5-1,1-1.9,1.6-2.9l0.1-0.1c0.2-0.4,0.4-0.8,0.7-1.2l0.3-0.6c0.5-0.9,1-1.8,1.4-2.6
			c33-64.4,51.8-148.1,55.7-248.8c2.9-75.5-2.4-160.1-15.8-251.3c-19.2-130.4-53.9-255.2-66.7-299.2l-15,5.7
			c-0.6,0.2-1.1,0.4-1.6,0.6l-5.9,2.2c-3.2,1-4.7,2.3-3.7,5.5c8.3,26.9,43.7,145.7,64.8,289.3c21.5,146.1,32.4,348.7-37.6,484
			c0,0.2-0.3,0.5-0.4,0.7s-0.2,0.5-0.4,0.7c-0.3,0.5-0.5,1-0.8,1.5c-0.5,0.9-1,1.9-1.5,2.9c-1.5,2.7-3,5.4-4.6,8.1
			c-1.5,2.6-3.1,5.2-4.8,7.8c-1.6,2.5-3.2,5-4.9,7.5c-1.7,2.4-3.4,4.8-5.1,7.2c-1.7,2.3-3.5,4.6-5.3,6.9c-1.8,2.2-3.6,4.5-5.5,6.6
			c-1.8,2.2-3.7,4.3-5.7,6.4c-1.9,2.1-3.9,4.1-5.9,6.1s-4,3.9-6,5.9c-2,1.9-4.1,3.8-6.2,5.6c-2.1,1.8-4.2,3.6-6.4,5.4
			c-2.2,1.8-4.3,3.5-6.6,5.1c-2.2,1.7-4.5,3.3-6.8,4.9s-4.6,3.1-6.9,4.7c-2.3,1.5-4.7,3-7.1,4.4c-2.4,1.5-4.8,2.9-7.3,4.2
			c-2.5,1.4-5,2.7-7.5,4s-5.1,2.6-7.6,3.8c-2.6,1.2-5.2,2.5-7.8,3.6c-2.6,1.2-5.3,2.3-8,3.4c-1.8,0.7-3.5,1.4-5.3,2.1
			c-0.4,0.2-0.9,0.3-1.3,0.5c-0.9,0.3-1.8,0.6-2.6,0.9c-0.6,0.2-1.2,0.4-1.7,0.8c-1,0.4-2.1,0.8-3.1,1.2c-0.9,0.3-1.8,0.6-2.6,0.9
			c-0.7,0.2-1.4,0.5-1.9,1c-0.2,0.2-0.4,0.6-0.4,0.8c0,3.5,0.5,10.1,0.8,13.6c0.4,4.6,0.8,8.4,1.2,12.2c0.1,1,0.2,1.9,0.3,2.9
			c2-0.7,4.5-1.7,7.7-2.9C373.8,1192.9,375.7,1192.2,376.3,1191.9z"/>
	</g>
	<g id="Trim_Color_2_00000183251036007278623080000000283172862225008572_">
		<path class="st2" d="M2832.9,121c0.8,0.7,1.7,1.3,2.5,1.9c0.5,0.4,1.1,0.8,1.6,1.2c6.1,4.4,12.3,8.6,18.7,12.6
			c3.2,2,6.4,4,9.6,5.9c3.1,1.8,6.4,3.4,9.7,5c16.2,8,32.9,14.9,50,20.5c0.2,0,0.5,0.1,0.7,0.2l0,0c0,0,0,0,0.1,0
			c19.6,6.4,39.7,11.2,60,14.3h0.1l0,0c7.6,1.1,15.2,2.1,22.9,2.7c2.1,0.2,4.4,0.4,6.8,0.5h0.1l0,0h0.1l1.6,0.1l0,0
			c2,0.1,3.9,0.2,5.9,0.3c0.1,0,0.2,0,0.3,0c0.2,0,0.5,0,0.7,0l2.3,0.1c0.3,0,0.5,0,0.8,0h0.2c0.2,0,0.4,0,0.6,0
			c0.5,0.1,1,0.1,1.5,0.1c0.1,0,0.2,0,0.4,0h0.4c0.1,0,0.2,0,0.3,0l1.5,0.1c0.2,0,0.3,0,0.5,0h0.3c0.5,0.1,1.1,0.1,1.6,0.1
			c0.2,0,0.4,0,0.6,0l2.5,0.1c0.1,0,0.1,0,0.2,0c0.8,0,1.7,0.1,2.6,0.1l5.2,0.2c1.9,0.1,3.8,0.1,5.8,0.2h0.3c4.4,0.1,9,0.3,13.8,0.4
			l3.9,0.1c2.1,0.1,4.1,0.1,6.2,0.2h0.3c3.3,0.1,6.7,0.2,10.1,0.3c0.1,0,0.3,0,0.4,0c2,0.1,4,0.2,6.1,0.2l9.4,0.2
			c2.1,0,4.2,0.1,6.4,0.1h0.2c0.2,0,0.3,0,0.5,0l11.1,0.2h0.2c0.1,0,0.3,0,0.4,0c3.8,0.1,7.6,0.1,11.5,0.2h0.3c0.2,0,0.3,0,0.5,0
			l12,0.2c0.1,0,0.3,0,0.5,0l12.2,0.2c0.1,0,0.3,0,0.5,0c4.1,0.1,8.1,0.2,12.2,0.2h0.2c0.2,0,0.4,0,0.6,0l12.8,0.2
			c0.2,0,0.4,0,0.6,0h5.4h3l5.3,0.1c0.2,0,0.4,0,0.6,0l6.6,0.1c0.3,0,0.5,0,0.9-0.1l0,0l5.7,0.1c0.1,0,0.3,0,0.4,0
			c-0.3,0-0.7,0-0.9-0.1l0,0c0.3,0,0.6,0,0.8,0c1.8,0,3.7,0,5.5,0c0.2,0,0.3,0,0.5,0l35.5,0.1l35.5-0.1c0.2,0,0.3,0,0.5,0
			c1.8,0,3.7,0,5.5,0c0.3,0,0.7,0,1,0c1.7,0,3.5,0,5.2,0l16.2-0.1h5.4c0.2,0,0.4,0,0.6,0l12.8-0.2c0.2,0,0.4,0,0.6,0h0.2
			c4.1-0.1,8.2-0.1,12.2-0.2c0.1,0,0.3,0,0.5,0l12.2-0.2c0.1,0,0.3,0,0.5,0l12-0.2c0.2,0,0.3,0,0.5,0h0.3c3.9-0.1,7.7-0.1,11.5-0.2
			c0.1,0,0.3,0,0.4,0h0.2l11.1-0.2c0.2,0,0.3,0,0.5,0h0.2c2.2,0,4.3-0.1,6.4-0.1l9.4-0.2c2-0.1,4.1-0.1,6.1-0.2c0.1,0,0.3,0,0.4,0
			c3.4-0.1,6.8-0.2,10.1-0.3h0.3c2.1-0.1,4.2-0.1,6.2-0.2l3.9-0.1c4.8-0.1,9.4-0.3,13.8-0.4h0.3c2-0.1,3.9-0.1,5.8-0.2l5.2-0.2
			c0.9,0,1.7-0.1,2.6-0.1c0.1,0,0.1,0,0.2,0l2.5-0.1c0.2,0,0.4,0,0.6,0c0.6-0.1,1.1-0.1,1.6-0.1h0.3c0.2,0,0.3,0,0.5,0l1.5-0.1
			c0.1,0,0.2,0,0.3,0h0.4c0.1,0,0.3,0,0.4,0c0.5-0.1,1-0.1,1.5-0.1c0.2,0,0.4,0,0.6,0h0.2c0.3,0,0.5,0,0.8,0l2.3-0.1
			c0.2,0,0.5,0,0.7,0c2.1-0.1,4.1-0.2,6.1-0.3h0.1l1.8-0.1c0.2,0,0.3,0,0.4,0c0.5,0,1-0.1,1.4-0.1c1.8-0.1,3.4-0.2,5-0.4
			c3.9-0.4,7.9-0.8,11.8-1.2c3.9-0.5,7.7-1,11.6-1.6c0.4-0.1,0.8-0.1,1.2-0.2c0.4-0.1,0.7-0.1,1.1-0.2c0.3-0.1,0.7-0.1,1-0.2
			c0.7-0.1,1.4-0.2,2.1-0.3c0.1,0,0.2,0,0.3,0c0.6-0.1,1.2-0.2,1.8-0.3s1.1-0.2,1.7-0.3c0.1,0,0.3-0.1,0.4-0.1
			c0.7-0.1,1.4-0.3,2.1-0.4c0.7-0.1,1.4-0.3,2.1-0.4c0.4-0.1,0.9-0.2,1.3-0.2c0.1,0,0.2,0,0.2,0c0.2,0,0.4-0.1,0.6-0.1
			c0.7-0.1,1.4-0.3,2.1-0.4c0.7-0.1,1.4-0.3,2.1-0.4c0.7-0.1,1.4-0.3,2.1-0.4s1.4-0.3,2.1-0.5c0.7-0.2,1.4-0.3,2.1-0.5
			c0.7-0.2,1.4-0.3,2.1-0.5c0.7-0.2,1.4-0.3,2.1-0.5c0.7-0.2,1.4-0.3,2.1-0.5c0.7-0.2,1.4-0.3,2.1-0.5s1.4-0.4,2.1-0.5
			s1.4-0.4,2.1-0.5c0.7-0.2,1.4-0.4,2.1-0.6c0.7-0.2,1.4-0.4,2.1-0.6c0.7-0.2,1.4-0.4,2.1-0.6c0.7-0.2,1.4-0.4,2.1-0.6
			c0.7-0.2,1.4-0.4,2.1-0.6s1.4-0.4,2.1-0.6c0.7-0.2,1.4-0.4,2.1-0.6s1.4-0.4,2-0.6c0.7-0.2,1.4-0.4,2-0.6c0.7-0.2,1.4-0.4,2-0.7
			c0.2-0.1,0.5-0.1,0.7-0.2c0.1,0,0.1,0,0.2-0.1c0.4-0.1,0.8-0.2,1.1-0.4c0.7-0.2,1.3-0.4,2-0.7c0.7-0.2,1.3-0.5,2-0.7
			s1.3-0.5,2-0.7s1.3-0.5,2-0.7s1.3-0.5,2-0.7s1.3-0.5,2-0.7s1.3-0.5,2-0.7s1.3-0.5,2-0.8s1.3-0.5,2-0.8s1.3-0.5,2-0.8
			s1.3-0.5,2-0.8s1.3-0.5,2-0.8s1.3-0.5,2-0.8s1.3-0.5,2-0.8s1.3-0.6,1.9-0.8c0.6-0.3,1.3-0.6,1.9-0.8c0.6-0.3,1.3-0.6,1.9-0.9
			c0.6-0.3,1.3-0.6,1.9-0.9c0.6-0.3,1.3-0.6,1.9-0.9c0.6-0.3,1.3-0.6,1.9-0.9c0.6-0.3,1.3-0.6,1.9-0.9c0.6-0.3,1.3-0.6,1.9-0.9
			c0.6-0.3,1.3-0.6,1.9-0.9s1.3-0.6,1.9-0.9c0.6-0.3,1.3-0.6,1.9-0.9c3.1-1.5,6.1-3.1,9-4.7c5.7-3.1,11.2-6.6,16.5-10.3
			c1.6-1.1,3.3-2.2,4.9-3.4c0.6-0.4,1.2-0.8,1.8-1.2c1-0.8,2.2-1.4,3.2-2.1c0.4-0.3,0.8-0.6,1.3-0.9c1.2-0.8,2.3-1.6,3.4-2.5
			c1.1-0.8,2.1-1.6,3.1-2.5c0.1-0.1,0.2-0.3,0.3-0.4c0-0.1,0.1-0.2,0.1-0.3v-0.1c0.1-0.4,0.1-0.9-0.2-1.3c-0.3-0.5-0.8-0.9-1.3-1.3
			c-1.9-1.4-4.2-2.3-6.4-3.2c-3.1-1.2-14.2-5.4-17.3-6.4c-0.3-0.1-0.7-0.2-1.1-0.3c-1.2-0.4-2.4-0.8-3.6-1.2c-2,1.1-3.9,2.2-5.5,3.1
			c-21.4,12-24.7,13.8-28.4,14.8c-5,1.8-24.1,8.2-55,15.5c-3.5,0.9-6.8,1.8-9.4,2.4c-2.1,0.6-3.9,1-5.4,1.3c-18,4-36.3,7.2-54.3,9.7
			l-2,0.3c-7,1-12.9,1.8-19,2.3c-12.8,1.5-25.3,2.6-36,3.4h-0.4c-23.9,1.5-48.1,2-68.6,2.3h-0.4h-4.6c-13.9,0.1-28,0.2-41.6,0.2
			c-6.9,0-13.8,0-20.8,0.1h-0.1c-0.5,0-1.6,0-3.4,0c-6.5,0.1-19.9,0.3-38.1,0.4h-0.1h-0.1c-18.2-0.1-31.7-0.3-38.1-0.4
			c-1.7,0-2.8,0-3.3,0h-0.2c-6.9,0-13.8-0.1-20.8-0.1c-13.6,0-27.7-0.1-41.6-0.2h-4.9c-20.5-0.3-44.6-0.8-68.6-2.3h-0.4
			c-11.9-0.9-24-2-35.8-3.4c-6.2-0.6-12.4-1.4-19.1-2.4l0,0l-1.9-0.3c-18.3-2.5-36.6-5.8-54.4-9.7l-0.3-0.1
			c-0.8-0.2-1.5-0.4-2.3-0.6c-0.4-0.1-0.9-0.2-1.3-0.3l-0.7-0.2c-3.3-0.8-6.7-1.6-10.2-2.6c-30.9-7.2-50-13.7-55.1-15.5
			c-3.1-0.9-7.4-3.1-35.4-17.4c-0.7,0.2-1.4,0.5-2,0.7c-0.3,0.1-0.7,0.2-1.1,0.3c-3.2,0.9-14.2,5.2-17.3,6.4
			c-2.2,0.8-4.5,1.8-6.4,3.2c-0.6,0.4-1.4,1.1-1.5,1.8c0,0.1,0,0.2,0,0.3c0,0.3,0.1,0.6,0.3,0.9
			C2831.8,120.2,2832.4,120.6,2832.9,121z"/>
		<path class="st2" d="M2419,1216.3c0.1-0.1,0.2-0.1,0.3-0.1s0.2-0.1,0.3-0.1c0.1-0.1,0.3-0.1,0.4-0.2c1.4-0.6,2.8-1.3,4.2-2
			c0.3-0.1,0.5-0.2,0.8-0.4c0.2-0.1,0.4-0.2,0.6-0.3c0.1,0,0.1-0.1,0.2-0.1c2.1-1,4.2-2,6.3-3.1c0.3-0.2,0.6-0.3,0.9-0.5l0,0
			c0.2-0.1,0.3-0.2,0.5-0.3c0.9-0.5,1.7-1,2.6-1.5c0.3-0.2,0.5-0.3,0.8-0.5c9.5-5.7,18.9-11.7,28-18.1c2.2-1.6,4.4-3.1,6.5-4.7
			c6.5-4.7,12.9-9.6,19.1-14.6c5.2-4.2,10.3-8.6,15.4-13c0.8-0.6,1.5-1.3,2.3-2c0.8-0.8,1.7-1.5,2.6-2.3c2.5-2.1,4.6-3.9,6.4-5.6
			c0.1-0.1,0.1-0.1,0.2-0.2c0.9-0.8,1.8-1.6,2.6-2.4c0.3-0.2,0.5-0.5,0.8-0.7c0.1-0.2,0.5-0.5,0.5-0.5c0.6-0.5,1.1-1,1.6-1.5
			l0.7-0.7c6.9-6.5,13.4-13,19.4-19.4c3.2-3.4,6.4-7,9.7-10.7c0.1-0.1,0.2-0.2,0.3-0.3c1.2-1.5,2.5-3,3.8-4.5
			c1.1-1.3,2.1-2.6,3.2-3.9l0.1-0.1c0.1-0.2,0.3-0.3,0.4-0.5c0.2-0.3,0.4-0.5,0.6-0.8c2.4-3,4.8-6.1,7.1-9.2
			c1.1-1.5,2.3-3.1,3.4-4.7c3.9-5.4,7.9-11.3,11.6-17.5c0.1-0.1,0.1-0.2,0.2-0.3c0.1-0.2,0.3-0.5,0.4-0.7c1.3-2.1,2.5-4.1,3.6-6.1
			c1.3-2.3,2.6-4.6,3.8-6.8c33.8-61.6,53.8-144.4,59.5-246.1c4.1-74.6-1.1-148-6.8-210c-1-10.9-1.9-21.8-2.9-32.7
			c-0.9-9.7-1.7-19.4-2.6-29.1c-4-43.8-8.7-90.7-16.3-137.1c-0.9-5.1-1.8-10.4-2.8-16.3c-0.1-0.3-0.1-0.6-0.2-0.9
			c0-0.3-0.1-0.5-0.1-0.8c-0.1-0.3-0.1-0.6-0.2-0.9l0,0l0,0c-0.1-0.4-0.1-0.7-0.2-1.1c-0.6-3.1-1.1-6.2-1.7-9.3l0,0
			c-0.3-1.7-0.6-3.5-0.9-5.2c-0.1-0.3-0.1-0.6-0.2-0.9l0,0c0-0.1,0-0.2,0-0.3c-2.1-11.3-4.3-22.6-6.7-33.9c-0.3-1.6-0.6-3.3-1-4.9
			c-0.1-0.2-0.1-0.5-0.2-0.7c0-0.1,0-0.1,0-0.2c-2-9.3-4.1-18.6-6.2-27.9c-2.6-11.2-5.3-22.4-8.1-33.6l-9.9-37.3
			c0-0.3-0.2-0.5-0.4-0.7c-0.1-0.1-0.3-0.2-0.4-0.3c-0.1,0-0.2-0.1-0.3-0.1c-0.1-0.1-0.2-0.1-0.3-0.2c-1.2-0.4-9.9,3.1-14.7,4.6
			c-2.9,0.9-6.3,2-8.6,2.8c-0.5,0.1-0.9,0.3-1.4,0.5c2.3,8.8,4.5,16.9,5.9,22.1v0.1c30.9,112.5,48.7,236.4,57.7,401.7
			c0.8,15.6,1.5,31.2,2.1,46.5c2.1,53.2,3.2,115.8-5.4,177.2c-6.2,44.3-18.4,87.5-36.3,128.6c-19.2,43.8-40.3,76.2-66.6,101.8
			c-11.4,11.1-24.4,22.2-41,34.9l-0.1,0.1c-14.4,11-28.7,20.3-42.1,28.7c-3,2-4.9,2.8-18,7.8c0.4,4.8,0.8,9.5,1.2,13.3
			c0.6,6.7,1.2,12.8,1.7,16.8c0.2,1.8,0.4,3.6,1.5,3.9c0.1,0,0.3,0,0.5,0l0,0C2419,1216.3,2419,1216.3,2419,1216.3z"/>
		<path class="st2" d="M4034.4,1145.8L4034.4,1145.8c-16.6-12.8-29.7-23.9-41.1-35c-26.3-25.6-47.5-57.9-66.6-101.8
			c-17.9-41.1-30.1-84.3-36.3-128.6c-8.5-61.4-7.5-124.1-5.4-177.2c0.6-15.2,1.3-30.8,2.1-46.5c9-165.3,26.7-289.2,57.7-401.7v-0.1
			c1.4-5.2,3.6-13.3,5.9-22.1c-0.5-0.2-0.9-0.3-1.4-0.5c-2.3-0.8-5.7-1.9-8.6-2.8c-4.8-1.5-13.5-5-14.7-4.6
			c-0.1,0.1-0.2,0.1-0.3,0.2c-0.1,0-0.2,0.1-0.3,0.1c0,0-0.1,0.1-0.2,0.1c-0.1,0.1-0.2,0.1-0.2,0.2c-0.2,0.2-0.4,0.4-0.4,0.7
			l-9.9,37.3c-2.8,11.2-5.5,22.4-8.1,33.6c-2.1,9.3-4.2,18.6-6.2,27.9c0,0.1,0,0.1,0,0.2c-0.1,0.2-0.1,0.5-0.2,0.7
			c-0.4,1.6-0.7,3.3-1,4.9c-2.4,11.3-4.6,22.6-6.7,33.9c0,0.1,0,0.2,0,0.3l0,0c-0.1,0.3-0.1,0.6-0.2,0.9c-0.3,1.7-0.6,3.5-0.9,5.2
			l0,0c-0.6,3.1-1.1,6.2-1.7,9.3c-0.1,0.4-0.1,0.7-0.2,1.1l0,0l0,0c-0.1,0.3-0.1,0.6-0.2,0.9c0,0.3-0.1,0.5-0.1,0.8
			c-0.1,0.3-0.1,0.6-0.2,0.9c-1,5.9-1.9,11.2-2.8,16.3c-7.6,46.4-12.3,93.3-16.3,137.1c-0.9,9.7-1.7,19.4-2.6,29.1
			c-1,10.9-1.9,21.8-2.9,32.7c-5.7,62-10.9,135.4-6.8,210c5.7,101.7,25.7,184.5,59.5,246.1c1.2,2.2,2.5,4.5,3.8,6.8
			c1.1,2,2.3,4,3.6,6.1c0.1,0.2,0.3,0.5,0.4,0.7c0.1,0.1,0.1,0.2,0.2,0.3c3.7,6.2,7.7,12.1,11.6,17.5c1.1,1.6,2.3,3.2,3.4,4.7
			c2.3,3.1,4.7,6.2,7.1,9.2c0.2,0.3,0.4,0.5,0.6,0.8c0.1,0.2,0.3,0.3,0.4,0.5l0.1,0.1c1.1,1.3,2.1,2.5,3.1,3.8c0,0,0,0.1,0.1,0.1
			c0.9,1,1.8,2,2.6,3.1c0.4,0.5,0.8,1,1.2,1.4c0.1,0.1,0.2,0.2,0.3,0.3c3.3,3.7,6.5,7.3,9.7,10.7c6,6.4,12.5,12.9,19.4,19.4l0.7,0.7
			c0.5,0.5,1,1,1.6,1.5c0,0,0,0,0.1,0.1s0.2,0.2,0.3,0.3c0,0,0,0.1,0.1,0.1c0.3,0.2,0.5,0.5,0.8,0.7c0.2,0.2,0.4,0.3,0.5,0.5
			c0.7,0.6,1.4,1.3,2.1,1.9c0.1,0.1,0.1,0.1,0.2,0.2c0.2,0.2,0.4,0.3,0.5,0.5c1.1,1,2.3,2,3.6,3.2c0.7,0.6,1.5,1.3,2.3,2
			c0.9,0.8,1.8,1.5,2.6,2.3c0.8,0.7,1.5,1.4,2.3,2c5.1,4.4,10.2,8.8,15.4,13c6.2,5,12.6,9.9,19.1,14.6c2.1,1.6,4.3,3.1,6.5,4.7
			c9.1,6.4,18.5,12.4,28,18.1c0.3,0.2,0.6,0.3,0.8,0.5c0.8,0.5,1.7,1,2.6,1.5c0.2,0.1,0.3,0.2,0.5,0.3l0,0c0.3,0.2,0.6,0.3,0.9,0.5
			c2.1,1.1,4.2,2.1,6.3,3.1c0.1,0,0.1,0.1,0.2,0.1c0.2,0.1,0.4,0.2,0.6,0.3c0.3,0.1,0.5,0.2,0.8,0.4c1.4,0.6,2.8,1.3,4.2,2
			c0.1,0.1,0.3,0.1,0.4,0.2c0.1,0,0.2,0.1,0.3,0.1s0.2,0,0.3,0.1c0,0,0,0,0.1,0l0,0c0.2,0,0.4,0,0.5,0c1.1-0.3,1.3-2.1,1.5-3.9
			c0.5-4,1.1-10.1,1.7-16.8c0.4-3.9,0.8-8.5,1.2-13.3c-13-5-14.9-5.8-18-7.8C4063.1,1166.1,4048.8,1156.8,4034.4,1145.8z"/>
		<path class="st2" d="M739.3,162.7c0.1,0.9,0.1,1.5,0.2,1.6c2.9,23.6,11.9,47.2,20.6,69.1c1.9,4.8,3.9,9.5,5.9,14.3
			c0.4,0.9,0.7,1.7,1.1,2.6c5.3,12.2,10.9,24.2,16.7,36.1c2.1,4.2,4.2,8.5,6.3,12.7c0.3,0.5,0.5,1.1,0.8,1.6
			c2.6,5.2,5.2,10.4,7.9,15.6c0,0.2,0,0.3,0.1,0.5c0.7,1.4,1.5,2.9,2.2,4.3c24.2,47.1,47.9,86.5,68.2,118
			c40.1,62.1,82.9,117.5,127.5,164.5c51.7,54.7,106,98.3,161.5,130c0,0,35.3,17.6,40.1,20l0.5,0.3c0,0,0,0,0.1,0l5.7,2.9l0,0l0,0
			l5.7-2.9h0.1l0.5-0.3c4.8-2.4,40.1-20,40.1-20c55.5-31.7,109.7-75.4,161.5-130c44.5-47,87.4-102.4,127.5-164.5
			c20.3-31.5,44-70.9,68.2-118c0.7-1.5,1.5-2.9,2.2-4.3c0.1-0.1,0.1-0.3,0.1-0.5c2.6-5.2,5.3-10.4,7.9-15.6c0.3-0.5,0.5-1.1,0.8-1.6
			c2.1-4.2,4.2-8.5,6.3-12.7c5.8-11.9,11.5-23.9,16.7-36.1c2.4-5.6,4.8-11.2,7-16.8c8.8-22,17.7-45.5,20.6-69.1c0-0.1,0-0.2,0-0.2
			c0-0.2,0.1-0.6,0.1-1.1c0-0.4,0.1-0.9,0.1-1.3c0-0.3,0-0.6-0.1-0.9c-0.1-0.7-0.3-1.4-0.6-2.1c-0.1-0.3-0.3-0.6-0.5-0.8
			c-1.3-1.6-3.2-2.5-4.9-3.5c-1.7-1.1-3.4-2.1-5.1-3.1c-2.1-1.2-4.2-2.4-6.4-3.6c-2.3-1.3-4.5-2.5-6.8-3.7c-0.7-0.4-1.4-0.8-2.1-1.2
			c-1,9.5-1.7,16.6-1.9,18.3c-2.5,19.9-10.3,40.7-18.8,62c-2,5.1-4.3,10.5-6.7,16c-4.6,10.5-9.7,21.7-16.2,35
			c-2,4.2-4.1,8.3-6.1,12.5l-0.8,1.6c-2.8,5.6-5.3,10.6-7.7,15.3l-2.8,5.5v0.3c-20,38.9-41.7,76.4-66.3,114.5
			c-39.1,60.7-80.9,114.6-124.2,160.4c-49.5,52.3-101.4,94.2-154.2,124.5c-3.9,2-22.8,11.4-33.1,16.5c-10.4-5.2-29.2-14.6-33.1-16.5
			c-52.8-30.3-104.7-72.2-154.2-124.5c-43.3-45.8-85.1-99.7-124.2-160.4c-24.6-38.1-46.3-75.6-66.3-114.5v-0.3l-2.8-5.5
			c-2.4-4.6-4.9-9.6-7.7-15.3l-0.8-1.6c-2.1-4.2-4.1-8.3-6.2-12.5c-6.5-13.3-11.6-24.4-16.2-35c-0.2-0.4-1-2.4-1-2.4
			c-2.2-5-4-9.5-5.6-13.6l-0.6-1.5c-8-20.1-16.3-40.8-18.2-60c-0.1-1.1-0.8-8.6-1.8-18.9c-0.7,0.4-1.5,0.8-2.2,1.2
			c-2.3,1.2-4.5,2.5-6.8,3.7c-2.1,1.2-4.3,2.4-6.4,3.6c-1.7,1-3.5,2-5.1,3.1c-1.7,1.1-3.6,1.9-4.9,3.5c-0.2,0.3-0.4,0.6-0.5,0.8
			c-0.3,0.7-0.5,1.4-0.6,2.1c0,0.3-0.1,0.6-0.1,0.9C739.3,161.9,739.3,162.3,739.3,162.7z"/>
		<path class="st2" d="M1215.6,186.4c-3.6,0-7.2,0-10.8,0c-3.6,0-7.2,0-10.8,0c-153.2,0-377.8-28.3-384-29.1
			c-1.8-0.2-2.6-0.4-11.2-2.4c2.1,9.5,4.5,20.1,7.5,31.9c3.5,0.4,6.8,0.8,6.8,0.8l5.4,0.7c3.1,0.4,6.7,0.8,10.8,1.3l10.5,1.2
			l11.6,1.3l4.3,0.5c4.2,0.5,8.7,1,13.4,1.5l10,1.1l10.4,1.1l11,1.1l11.3,1.2l5.8,0.6l11.7,1.2c4.1,0.4,8.1,0.8,12.2,1.2l6.5,0.6
			l6.5,0.6l6.5,0.6l6.6,0.6l6.7,0.6l6.6,0.6l6.8,0.6l6.6,0.6l6.8,0.6l6.8,0.5l6.8,0.5c4.5,0.4,9.1,0.7,13.6,1l7.4,0.5
			c2.1,0.2,7,0.5,7,0.5c2.2,0.2,7.2,0.5,7.2,0.5c2.1,0.1,7.1,0.5,7.1,0.5c2,0.1,7.1,0.5,7.1,0.5c2.1,0.1,7.1,0.4,7.1,0.4
			c2.1,0.1,7.1,0.4,7.1,0.4c2.1,0.1,7,0.4,7,0.4c2.1,0.1,7,0.4,7,0.4c2.2,0.1,7,0.4,7,0.4c2.2,0.1,6.7,0.3,6.7,0.3
			c2.3,0.1,4.5,0.2,6.8,0.3l7.2,0.3c2.2,0.1,7.1,0.3,7.1,0.3c2.1,0.1,4.1,0.2,6.2,0.2h0.8c2,0.1,4,0.1,6.1,0.2l7.8,0.2
			c2,0.1,3.9,0.1,5.9,0.2h0.9c2,0.1,3.9,0.1,5.9,0.1h0.9c2,0,3.9,0.1,5.9,0.1h0.8c2,0,3.9,0.1,5.9,0.1h0.7c2,0,4,0.1,5.9,0.1h0.6
			c2,0,4,0,6,0h0.3c2.1,0,4.1,0,6.2,0c3.6,0,7.2,0,10.8,0c3.6,0,7.2,0,10.8,0c2,0,4.1,0,6.2,0h0.3c2,0,4,0,6,0h0.6
			c2,0,3.9,0,5.9-0.1h0.7c1.9,0,3.9-0.1,5.9-0.1h0.8c2,0,3.9-0.1,5.9-0.1c0,0,4.8-0.1,6.8-0.2c0,0,4.9-0.1,6.8-0.2
			c0,0,4.9-0.1,6.9-0.2h0.9c2-0.1,4-0.1,6.1-0.2h0.8c2.1-0.1,4.1-0.2,6.2-0.2l7.6-0.3c2.2-0.1,4.4-0.2,6.5-0.3h0.2
			c2.3-0.1,4.5-0.2,6.8-0.3s4.5-0.2,6.8-0.3l7.6-0.4c2.1-0.1,7.1-0.4,7.1-0.4c2.1-0.1,7.2-0.4,7.2-0.4c2-0.1,7.1-0.4,7.1-0.4
			c2.1-0.1,7.1-0.4,7.1-0.4c2-0.1,7.1-0.5,7.1-0.5c2.1-0.1,7-0.5,7-0.5c2.1-0.1,7-0.5,7-0.5c2.1-0.1,7-0.5,7-0.5
			c2.2-0.2,6.8-0.5,6.8-0.5c4.5-0.3,9.1-0.7,13.6-1l7.2-0.6l6.9-0.6l6.9-0.6l6.9-0.6l6.7-0.6l6.6-0.6l6.6-0.6l6.5-0.6l6.5-0.6
			l6.2-0.6l6.1-0.6c4.1-0.4,8.2-0.8,12.2-1.2l6.2-0.6l11.8-1.2l11.3-1.2l10.9-1.1l10.4-1.1c3.3-0.3,9.6-1,9.6-1
			c4.7-0.5,9.2-1,13.5-1.5l8.5-1l11.5-1.3l9.4-1.1l7.8-0.9l5.4-0.7c0,0,3.3-0.4,6.7-0.8c-0.1,0.5-0.2,1-0.2,1.6
			c0-0.3,3.2-11.4,7-33.4c-8.2,2-8.8,2.1-10.5,2.3C1593.1,158.1,1368.7,186.4,1215.6,186.4z"/>
		<path class="st2" d="M2033.3,1191.9c-0.8-0.3-1.7-0.6-2.5-0.9l-4.7-1.8l-0.2-0.1l0,0c-0.4-0.1-0.7-0.3-1.1-0.4l-0.6-0.2l-0.3-0.1
			c-1.9-0.8-3.8-1.5-5.8-2.3c-2.8-1.2-5.6-2.4-8.7-3.7c-2.8-1.3-5.7-2.6-8.5-4c-2.7-1.3-5.6-2.7-8.5-4.2s-5.6-3-8.2-4.4
			c-2.8-1.5-5.5-3.1-8.1-4.7c-2.8-1.7-5.4-3.3-7.9-4.9c-2.5-1.7-5.1-3.4-7.6-5.2c-2.6-1.8-5.1-3.6-7.5-5.4s-5-3.8-7.4-5.8
			c-2.6-2.1-4.9-4-7.1-6c-2.4-2-4.7-4.1-7-6.3c-2.3-2.2-4.6-4.4-6.8-6.6c-2.2-2.2-4.4-4.5-6.6-6.9s-4.3-4.8-6.4-7.1
			c-2.1-2.5-4.2-5-6.2-7.5c-2.1-2.6-4-5.2-5.9-7.7c-1.9-2.6-3.8-5.3-5.7-8c-1.8-2.6-3.6-5.3-5.5-8.3c-1.8-2.9-3.6-5.8-5.3-8.6
			c-1.8-3-3.5-6-5-8.8c-0.5-1-1-1.9-1.6-2.9l-0.1-0.1c-0.2-0.4-0.4-0.8-0.7-1.2l-0.3-0.6c-0.5-0.9-1-1.8-1.4-2.6
			c-33-64.4-51.8-148.1-55.7-248.8c-2.9-75.5,2.4-160.1,15.8-251.3c19.2-130.4,53.9-255.2,66.7-299.2l-21.2-8.1
			c-2.6-0.8-4.7-1.4-6,0.1l0,0c-0.1,0.1-0.1,0.2-0.2,0.3c-0.2,0.3-0.4,0.7-0.5,1.2c0,0.1-0.1,0.2-0.2,0.5c-0.1,0.2-0.2,0.6-0.4,0.9
			c-0.6,1.6-0.7,1.9-0.9,2.3l-0.3,1.1c-0.1,0.4-0.3,0.9-0.4,1.4l-1.7,5.8l-1,3.4c-0.2,0.6-0.3,1.2-0.5,1.8l-3.6,12.6
			c-0.2,0.8-0.5,1.6-0.7,2.4s-0.4,1.6-0.7,2.4l-1.4,5.1l-1.5,5.4l-1.5,5.7l-1.6,5.9c-0.2,0.8-0.5,1.7-0.7,2.6l-0.3,1.1
			c-0.2,0.9-0.5,1.8-0.7,2.6l-1.7,6.5l-1.7,6.7l-2.7,10.6c-0.3,1.2-0.6,2.4-0.9,3.7l-0.2,0.6c-0.3,1-0.5,2.1-0.8,3.1l-1.4,5.7
			l-0.4,1.5v0.1l-0.1,0.2c-0.3,1-0.5,2-0.7,3.1l-2.1,8.8c-0.3,1.4-0.6,2.7-1,4.1l-1,4.1l-1,4.2c-0.3,1.4-0.7,2.8-1,4.2
			c-0.3,1.2-0.6,2.5-0.8,3.7l-1.1,4.9c0,0.2-0.1,0.3-0.1,0.5c-0.1,0.6-0.3,1.2-0.4,1.8c-0.2,0.7-0.3,1.3-0.4,2l-1,4.5
			c-0.3,1.5-0.7,3-1,4.5l-0.1,0.7c-0.1,0.2-0.1,0.5-0.2,0.7c-0.2,0.7-0.3,1.4-0.5,2.1l0,0l0,0c-0.1,0.3-0.2,0.7-0.2,1
			c0,0.2-1,4.6-1,4.6c-0.3,1.6-0.7,3.1-1,4.7l-1,4.7l-1.9,9.5c-0.3,1.6-0.7,3.2-1,4.8c-0.3,1.3-0.5,2.7-0.8,4l-1.1,5.7l-1,4.9
			c-0.2,1.2-0.5,2.4-0.7,3.6l-1.2,6.4c-0.3,1.7-0.6,3.4-1,5.1c-0.3,1.5-0.6,3-0.8,4.6l-1,5.6c-0.2,1.1-0.4,2.3-0.6,3.5l-0.3,1.9
			c-0.3,1.7-0.6,3.4-0.9,5.1s-0.6,3.5-0.9,5.2l-0.9,5.3l-1,5.8c-0.3,1.6-0.6,3.3-0.8,4.9c-0.3,1.8-0.6,3.6-0.9,5.4s-0.6,3.6-0.9,5.4
			c-0.3,1.8-0.6,3.6-0.9,5.4l-0.8,5.5l-0.8,5.5c-0.3,1.9-0.6,3.7-0.8,5.6l-0.8,5.5l-0.8,5.6l-0.8,5.9c-0.2,1.8-0.5,3.6-0.7,5.4
			l-0.8,5.6c-0.3,1.9-0.5,3.8-0.7,5.7l-0.7,5.7c-0.2,1.9-0.5,3.8-0.7,5.8l-0.7,5.7c-0.2,1.9-0.5,3.9-0.7,5.8
			c-0.1,1.2-0.3,2.5-0.4,3.8l-0.2,2c-0.2,1.8-0.4,3.7-0.6,5.5l-0.1,0.8c-0.2,1.8-0.4,3.6-0.6,5.4l-0.6,5.8c-0.2,2-0.4,3.9-0.6,5.9
			v0.5c-0.2,1.8-0.4,3.6-0.5,5.4l-0.5,5.9c-0.2,2-0.4,4-0.5,5.9v0.4c-0.2,1.9-0.3,3.7-0.5,5.6c-0.2,1.7-0.3,3.5-0.4,5.3l-0.1,0.7
			c-0.2,2-0.3,4-0.5,6c-0.1,2-0.3,4-0.4,5.9c-0.1,2-0.3,4-0.4,6v0.4c-0.1,1.9-0.2,3.8-0.4,5.6l-0.4,6c-0.1,2-0.2,4-0.3,6
			c-0.1,1.9-0.2,3.8-0.3,5.7v0.3c-0.1,2-0.2,3.9-0.3,5.9v0.1c-0.1,2-0.2,4-0.3,6v1c-0.1,1.7-0.1,3.3-0.2,5v0.2
			c-0.1,1.9-0.1,3.9-0.2,5.8v0.4c-0.1,1.9-0.1,3.8-0.2,5.7c-0.1,2-0.1,4-0.2,6.1l-0.1,6c0,1.3,0,2.7-0.1,4v2l-0.1,6.1
			c0,1.4,0,2.7,0,4.1v2c0,2,0,4.1,0,6.1s0,4,0,6s0,4,0.1,6c0,2,0,4,0.1,6v0.1c0,2,0.1,4,0.1,6s0.1,4,0.2,6c0.1,1.9,0.1,3.8,0.2,5.6
			v0.4c0.1,2,0.2,4,0.2,6c0.1,2,0.2,4,0.3,6c0.1,2,0.2,4,0.3,6c0.1,2,0.2,4,0.3,6c0.1,2,0.2,4,0.4,6c0.1,2,0.3,4,0.4,6s0.3,4,0.4,6
			c0.2,2,0.3,4,0.5,6s0.3,4,0.5,5.9c0.2,2,0.4,3.9,0.6,5.8l0.2,2c0.1,1.3,0.3,2.7,0.4,4v0.1c0.2,1.9,0.4,3.9,0.6,5.8
			c0.2,1.9,0.4,3.9,0.7,5.9l0.2,1.9c0.2,1.3,0.3,2.6,0.5,4l0.1,0.6c0.2,1.8,0.5,3.5,0.7,5.3c0.3,1.9,0.5,3.9,0.8,5.8
			c0.3,2,0.6,3.9,0.9,5.9c0.3,1.9,0.6,3.9,0.9,5.8c0.3,1.9,0.6,3.9,0.9,5.8v0.1c0.3,1.9,0.6,3.7,1,5.6c0.3,1.9,0.7,3.8,1,5.7
			c0.4,1.9,0.7,3.8,1.1,5.7s0.7,3.8,1.1,5.7v0.2c0.4,1.8,0.7,3.6,1.1,5.4c0.4,1.8,0.8,3.6,1.2,5.4v0.2c0.4,1.9,0.8,3.8,1.3,5.6
			l0.1,0.6c0.4,1.7,0.8,3.3,1.2,5c0.4,1.8,0.9,3.7,1.3,5.6c0.5,1.9,0.9,3.7,1.4,5.6c0.5,1.8,1,3.7,1.4,5.5c0.5,1.9,1,3.7,1.5,5.5
			s1,3.7,1.5,5.5s1,3.6,1.6,5.4c0.5,1.8,1.1,3.6,1.6,5.4c0.6,1.8,1.1,3.6,1.7,5.4c0.6,1.8,1.1,3.5,1.7,5.3c0.6,1.7,1.2,3.5,1.8,5.2
			v0.1c0.6,1.8,1.2,3.5,1.9,5.3s1.3,3.5,1.9,5.2s1.3,3.5,2,5.2c0.7,1.7,1.3,3.4,2,5.1s1.4,3.4,2.1,5.1s1.4,3.4,2.1,5.1
			s1.4,3.4,2.2,5v0.1c0.7,1.6,1.5,3.3,2.2,4.9c0.4,1,0.9,1.9,1.4,2.9l0.5,1.1c0.2,0.3,0.3,0.7,0.5,1c0.7,1.6,1.5,3.2,2.3,4.9
			c0.8,1.7,1.6,3.3,2.4,4.9s1.6,3.2,2.5,4.8c0.8,1.6,1.7,3.2,2.5,4.8c0.9,1.6,1.7,3.2,2.6,4.8c0.9,1.6,1.8,3.1,2.7,4.7
			c0.9,1.6,1.8,3.1,2.7,4.7c0.9,1.5,1.8,3.1,2.8,4.6c0.2,0.4,1.5,2.4,1.5,2.4c0.5,0.7,0.9,1.5,1.4,2.2c1,1.5,1.9,3,2.9,4.5
			c0.3,0.5,0.6,0.9,0.9,1.4c0.5,0.7,0.9,1.4,1.4,2.1c0,0,0,0,0,0.1l0,0c0,0,0,0,0,0.1c0.2,0.3,0.4,0.6,0.6,0.8c1,1.5,2,3,3,4.4
			c1,1.5,2.1,2.9,3.1,4.4s2.1,2.9,3.2,4.3s2.1,2.8,3.2,4.3c1.1,1.4,2.2,2.8,3.3,4.2c1.1,1.4,2.3,2.8,3.4,4.2
			c1.1,1.4,2.3,2.7,3.4,4.1c0.3,0.3,0.5,0.6,0.8,1l1.2,1.3c0.5,0.6,1,1.1,1.5,1.7c1.2,1.3,2.4,2.7,3.6,4c0.1,0.1,0.1,0.1,0.2,0.2
			c1.1,1.2,2.3,2.5,3.5,3.7c1.2,1.3,2.5,2.6,3.7,3.9c1.2,1.2,2.5,2.5,3.8,3.8c1.3,1.2,2.5,2.5,3.8,3.7c1.1,1,2.2,2.1,3.3,3.1
			l0.6,0.5c1.3,1.2,2.7,2.4,4,3.6s2.7,2.4,4.1,3.5c0.3,0.2,0.5,0.5,0.8,0.7l0,0l2.6,2.2l2.5,2.1c0.8,0.7,1.6,1.3,2.5,2
			c0.1,0.1,0.3,0.2,0.4,0.3l0,0c1.3,1,2.5,2,3.8,3c1.4,1.1,2.9,2.2,4.3,3.3c1.5,1.1,2.9,2.2,4.4,3.2c1.5,1.1,3,2.1,4.5,3.1
			s3,2.1,4.6,3.1c1.5,1,3.1,2,4.7,3s3.1,2,4.7,2.9c1.6,1,3.2,1.9,4.8,2.9c1.6,0.9,3.2,1.9,4.9,2.8c1.6,0.9,3.3,1.8,4.9,2.7
			c1.7,0.9,3.4,1.8,5,2.6c1.7,0.9,3.4,1.7,5.1,2.5s3.5,1.7,5.2,2.5c1.8,0.8,3.5,1.6,5.2,2.4c1.8,0.8,3.6,1.6,5.4,2.3
			c1.8,0.8,3.6,1.5,5.4,2.2c1.9,0.7,3.7,1.5,5.5,2.2c3.4,1.3,6.2,2.3,8.8,3.1c0.4,0.1,0.8,0.3,1.2,0.4c0.7,0.2,1.3,0.4,2,0.6
			c0.4,0.1,0.7,0.2,1,0.3c0.4,0.1,0.7,0.2,1,0.3c0.2,0.1,0.4,0.1,0.6,0.2c0.5,0.2,0.9,0.3,1.6,0.4l0,0c0.2,0,0.5,0.1,0.8,0.1h0.1
			l0,0l0,0l0,0l0,0c0.3,0.1,0.7,0.2,0.9,0.1c0.3-0.1,0.4-0.5,0.4-0.7c0.7-2.4,0.8-5.2,1.1-7.6c0.3-2.2,0.5-4.4,0.7-6.7
			c0.1-0.5,0.1-1,0.2-1.5c0.5-3.8,0.8-7.7,1.1-11.6c0.2-2.5,0.4-4.8,0.6-6.9c0-0.1,0-0.2,0-0.2c-2-0.7-4.5-1.7-7.7-2.9
			C2035.8,1192.9,2033.9,1192.2,2033.3,1191.9z"/>
		<path class="st2" d="M369.1,1231.7c0.3,0,0.6-0.1,0.8-0.1l0,0c0.7-0.2,1.1-0.3,1.6-0.4c0.2-0.1,0.3-0.1,0.6-0.2
			c0.3-0.1,0.6-0.2,0.9-0.3c0.3-0.1,0.7-0.2,1.1-0.4c0.7-0.2,1.3-0.4,2-0.6c0.4-0.1,0.8-0.2,1.2-0.4c2.6-0.8,5.4-1.8,8.8-3.1
			c1.8-0.7,3.7-1.4,5.5-2.2c1.8-0.7,3.6-1.5,5.4-2.2c1.8-0.8,3.6-1.5,5.4-2.3s3.5-1.6,5.2-2.4s3.5-1.6,5.2-2.5
			c1.7-0.8,3.4-1.7,5.1-2.5c1.7-0.9,3.3-1.7,5-2.6s3.3-1.8,4.9-2.7c1.6-0.9,3.2-1.8,4.9-2.8c1.6-0.9,3.2-1.9,4.8-2.9
			c1.6-1,3.1-1.9,4.7-2.9s3.1-2,4.7-3c1.5-1,3.1-2,4.6-3.1c1.5-1,3-2.1,4.5-3.1c1.5-1.1,2.9-2.1,4.4-3.2s2.9-2.2,4.3-3.3
			c0.6-0.5,1.3-1,1.9-1.5s1.3-1,1.9-1.5l0,0c0.1-0.1,0.1-0.1,0.2-0.2s0.1-0.1,0.2-0.2c0.8-0.6,1.6-1.3,2.5-2l2.5-2.1l2.6-2.2l0,0
			c0.3-0.2,0.5-0.5,0.8-0.7c1.4-1.2,2.7-2.3,4.1-3.5c1.3-1.2,2.7-2.4,4-3.6l0.6-0.5c1.1-1,2.2-2.1,3.3-3.1c1.3-1.2,2.6-2.5,3.8-3.7
			c1.3-1.3,2.6-2.5,3.8-3.8c1.3-1.3,2.5-2.6,3.7-3.9c0.6-0.6,1.2-1.2,1.7-1.9s1.2-1.2,1.7-1.9l0.1-0.1l0.1-0.1
			c1.2-1.3,2.4-2.6,3.6-4c0.5-0.6,1-1.1,1.5-1.7l1.2-1.3c0.3-0.3,0.6-0.7,0.8-1c1.2-1.4,2.3-2.7,3.4-4.1c1.1-1.4,2.2-2.7,3.4-4.2
			c1.1-1.4,2.2-2.8,3.3-4.2c1.1-1.4,2.2-2.8,3.2-4.3c1.1-1.4,2.1-2.9,3.2-4.3s2.1-2.9,3.1-4.4s2-2.9,3-4.4c0.1-0.1,0.2-0.3,0.3-0.4
			s0.2-0.3,0.3-0.4c0.4-0.6,0.8-1.2,1.2-1.8c0.4-0.6,0.8-1.2,1.2-1.8c1-1.5,2-3,2.9-4.5c0.5-0.7,0.9-1.5,1.4-2.2
			c0,0,1.2-1.9,1.5-2.4c0.9-1.5,1.9-3.1,2.8-4.6c0.9-1.5,1.8-3.1,2.7-4.7s1.8-3.1,2.7-4.7s1.7-3.2,2.6-4.8c0.9-1.6,1.7-3.2,2.5-4.8
			c0.8-1.6,1.7-3.2,2.5-4.8c0.8-1.6,1.6-3.2,2.4-4.9c0.8-1.6,1.6-3.3,2.3-4.9c0.2-0.3,0.3-0.7,0.5-1l0.5-1.1c0.5-1,0.9-2,1.4-2.9
			c0.8-1.6,1.5-3.3,2.2-4.9v-0.1c0.7-1.7,1.5-3.4,2.2-5c0.7-1.7,1.4-3.4,2.1-5.1c0.7-1.7,1.4-3.4,2.1-5.1c0.7-1.7,1.4-3.4,2-5.1
			c0.7-1.7,1.3-3.5,2-5.2s1.3-3.5,1.9-5.2s1.3-3.5,1.9-5.3v-0.1c0.6-1.7,1.2-3.5,1.8-5.2c0.6-1.8,1.2-3.6,1.7-5.3
			c0.6-1.8,1.1-3.6,1.7-5.4c0.6-1.8,1.1-3.6,1.6-5.4c0.5-1.8,1.1-3.6,1.6-5.4c0.5-1.8,1-3.6,1.5-5.5c0.5-1.8,1-3.6,1.5-5.5
			c0.5-1.8,1-3.7,1.4-5.5c0.5-1.9,0.9-3.7,1.4-5.6c0.5-1.9,0.9-3.7,1.3-5.6c0.4-1.7,0.8-3.3,1.2-5l0.1-0.6c0.4-1.9,0.8-3.7,1.3-5.6
			v-0.2c0.4-1.8,0.8-3.6,1.2-5.4c0.4-1.8,0.7-3.6,1.1-5.4v-0.2c0.4-1.9,0.8-3.8,1.1-5.7c0.4-1.9,0.7-3.8,1.1-5.7
			c0.3-1.9,0.7-3.8,1-5.7s0.6-3.7,1-5.6v-0.1c0.3-1.9,0.6-3.9,0.9-5.8c0.3-1.9,0.6-3.9,0.9-5.8c0.3-1.9,0.6-3.9,0.9-5.9
			c0.3-1.9,0.5-3.9,0.8-5.8c0.2-1.8,0.5-3.5,0.7-5.3l0.1-0.6c0.2-1.3,0.3-2.6,0.5-4l0.2-1.9c0.2-2,0.5-3.9,0.7-5.9
			c0.2-1.9,0.4-3.9,0.6-5.8v-0.1c0.1-1.3,0.3-2.7,0.4-4l0.2-2c0.2-1.9,0.4-3.9,0.6-5.8c0.2-2,0.4-4,0.5-5.9c0.2-2,0.3-4,0.5-6
			s0.3-4,0.4-6c0.1-2,0.3-4,0.4-6c0.1-2,0.3-4,0.4-6c0.1-2,0.2-4,0.3-6s0.2-4,0.3-6s0.2-4,0.3-6s0.2-4,0.2-6v-0.4
			c0.1-1.9,0.1-3.7,0.2-5.6c0.1-2,0.1-4,0.2-6s0.1-4,0.1-6V780c0-2,0.1-4,0.1-6s0.1-4.1,0.1-6c0-2,0-4.1,0-6c0-2,0-4.1,0-6.1v-2
			c0-1.4,0-2.7,0-4.1l-0.1-6.1v-2c0-1.3,0-2.7-0.1-4l-0.1-6c0-2-0.1-4.1-0.2-6.1c0-1.9-0.1-3.8-0.2-5.7v-0.4
			c-0.1-1.9-0.1-3.9-0.2-5.8v-0.2c-0.1-1.7-0.1-3.3-0.2-5v-1c-0.1-2-0.2-4-0.3-6v-0.1c-0.1-2-0.2-3.9-0.3-5.9v-0.3
			c-0.1-1.9-0.2-3.8-0.3-5.7c-0.1-2-0.2-4-0.3-6l-0.4-6c-0.1-1.9-0.2-3.8-0.4-5.6v-0.4c-0.1-2-0.3-4-0.4-6c-0.1-2-0.3-4-0.4-5.9
			c-0.1-2-0.3-4-0.5-6l-0.1-0.7c-0.1-1.8-0.3-3.6-0.4-5.3c-0.2-1.9-0.3-3.7-0.5-5.6v-0.4c-0.2-2-0.3-3.9-0.5-5.9l-0.5-5.9
			c-0.2-1.8-0.3-3.6-0.5-5.4v-0.5c-0.2-2-0.4-3.9-0.6-5.9l-0.6-5.8c-0.2-1.8-0.4-3.6-0.6-5.4l-0.1-0.8c-0.2-1.8-0.4-3.7-0.6-5.5
			l-0.2-2c-0.1-1.3-0.3-2.5-0.4-3.8c-0.2-1.9-0.4-3.9-0.7-5.8L607,583c-0.2-1.9-0.5-3.8-0.7-5.8l-0.7-5.7c-0.2-1.9-0.5-3.8-0.7-5.7
			l-0.8-5.6c-0.2-1.8-0.5-3.6-0.7-5.4l-0.8-5.9l-0.8-5.6l-0.8-5.5c-0.3-1.9-0.5-3.7-0.8-5.6l-0.8-5.5l-0.8-5.5
			c-0.3-1.8-0.6-3.7-0.9-5.4c-0.3-1.8-0.6-3.6-0.9-5.4c-0.3-1.8-0.6-3.6-0.9-5.4c-0.3-1.6-0.5-3.3-0.8-4.9l-1-5.8l-0.9-5.3
			c-0.3-1.8-0.6-3.5-0.9-5.2c-0.3-1.7-0.6-3.4-0.9-5.1L591,477c-0.2-1.2-0.4-2.3-0.6-3.5l-1-5.6c-0.3-1.5-0.6-3.1-0.8-4.6
			c-0.3-1.7-0.6-3.4-1-5.1l-1.2-6.4c-0.2-1.2-0.5-2.4-0.7-3.6l-1-4.9l-1.1-5.7c-0.3-1.4-0.5-2.7-0.8-4c-0.3-1.6-0.6-3.2-1-4.8
			l-1.9-9.5l-1-4.7c-0.3-1.6-0.7-3.1-1-4.7c0,0-1-4.5-1-4.6c-0.1-0.3-0.2-0.7-0.2-1l0,0c-0.2-0.9-0.4-1.8-0.6-2.8l-0.1-0.7
			c-0.3-1.5-0.7-3-1-4.5l-1-4.5c-0.1-0.7-0.3-1.3-0.4-2c-0.1-0.6-0.3-1.2-0.4-1.8c0-0.2-0.1-0.3-0.1-0.5l-1.1-4.9
			c-0.3-1.2-0.6-2.5-0.8-3.7c-0.3-1.4-0.6-2.8-1-4.2l-1-4.2l-1-4.1c-0.3-1.3-0.6-2.7-1-4.1l-2.1-8.8c-0.2-1-0.5-2-0.7-3.1l-0.1-0.2
			v-0.1l-0.4-1.5l-1.4-5.7c-0.3-1-0.5-2.1-0.8-3.1l-0.2-0.6c-0.3-1.2-0.6-2.5-0.9-3.7l-2.7-10.6l-1.7-6.7l-1.7-6.5
			c-0.2-0.9-0.5-1.8-0.7-2.6l-0.3-1.1c-0.2-0.9-0.5-1.7-0.7-2.6l-1.6-5.9l-1.5-5.7l-1.5-5.4l-1.4-5.1c-0.2-0.8-0.4-1.6-0.7-2.4
			c-0.2-0.8-0.5-1.6-0.7-2.4l-3.6-12.6c-0.2-0.6-0.3-1.1-0.5-1.8l-1-3.4l-1.7-5.8c-0.1-0.5-0.3-1-0.4-1.4l-0.3-1.1
			c-0.1-0.4-0.2-0.7-0.9-2.3c-0.1-0.3-0.3-0.6-0.4-0.9c-0.1-0.3-0.2-0.4-0.2-0.5c-0.2-0.5-0.3-0.9-0.5-1.2c-0.1-0.1-0.1-0.2-0.2-0.3
			l0,0c-1.2-1.5-3.4-0.9-6-0.1l-21.2,8.1c12.9,44,47.6,168.8,66.7,299.2c13.4,91.2,18.7,175.8,15.8,251.3
			c-3.9,100.7-22.7,184.4-55.7,248.8c-0.4,0.9-0.9,1.8-1.4,2.6l-0.3,0.6c-0.2,0.4-0.4,0.8-0.7,1.2l-0.1,0.1c-0.5,1-1,1.9-1.6,2.9
			c-1.6,2.9-3.2,5.8-5,8.8c-1.7,2.8-3.4,5.7-5.3,8.6c-1.9,2.9-3.7,5.6-5.5,8.3c-1.9,2.8-3.8,5.4-5.7,8c-1.9,2.5-3.8,5-5.9,7.7
			c-2,2.5-4.1,5-6.2,7.5c-2,2.3-4.2,4.8-6.4,7.1c-2.2,2.4-4.4,4.7-6.6,6.9c-2.2,2.2-4.5,4.4-6.8,6.6s-4.6,4.2-7,6.3
			c-2.2,1.9-4.5,3.9-7.1,6c-2.5,2-5,4-7.4,5.8s-5,3.7-7.5,5.4c-2.5,1.8-5.1,3.5-7.6,5.2c-2.5,1.6-5.1,3.3-7.9,4.9
			c-2.7,1.6-5.4,3.2-8.1,4.7c-2.6,1.4-5.2,2.9-8.2,4.4c-2.9,1.5-5.7,2.9-8.5,4.2c-2.8,1.4-5.7,2.7-8.5,4c-3.1,1.4-5.9,2.6-8.7,3.7
			c-1.9,0.8-3.8,1.6-5.8,2.3l-0.3,0.1l-0.6,0.2c-0.4,0.1-0.7,0.3-1.1,0.4l0,0l-0.2,0.1l-4.7,1.8c-0.8,0.3-1.7,0.6-2.5,0.9
			c-0.6,0.2-2.4,0.9-4.7,1.8c-3.2,1.2-5.7,2.2-7.7,2.9c0,0.1,0,0.2,0,0.2c0.2,2.2,0.4,4.4,0.6,6.9c0.3,3.9,0.6,7.7,1.1,11.6
			c0.1,0.5,0.1,1,0.2,1.5c0.2,2.2,0.4,4.4,0.7,6.7c0.3,2.4,0.5,5.3,1.1,7.6c0,0.2,0.1,0.6,0.4,0.7c0.2,0,0.7-0.1,0.9-0.1
			c0,0,0,0,0.1,0C369,1231.7,369.1,1231.7,369.1,1231.7z"/>
	</g>
	<g id="Color_1_00000026865007635053321360000015726106073855848580_">
		<path class="st0" d="M3990.6,1146.6c-0.1-0.1-0.1-0.1-0.2-0.2c-0.5-0.5-1-0.9-1.5-1.4c-0.2-0.2-0.4-0.3-0.5-0.5
			c-0.3-0.2-0.5-0.5-0.8-0.7c0,0,0-0.1-0.1-0.1c-0.2-0.2-0.3-0.3-0.3-0.3l0,0c-0.1,0-0.1-0.1-0.1-0.1c-0.6-0.5-1.1-1-1.6-1.5
			l-0.7-0.7c-6.9-6.5-13.4-13-19.4-19.4c-3.2-3.4-6.4-7-9.7-10.7c-0.1-0.1-0.2-0.2-0.3-0.3c-0.4-0.5-0.8-1-1.2-1.4
			c-0.9-1-1.8-2.1-2.7-3.1c-1.1-1.3-2.1-2.5-3.1-3.8l-0.1-0.1c-0.1-0.2-0.3-0.3-0.4-0.5c-0.2-0.3-0.4-0.5-0.6-0.8
			c-2.4-3-4.8-6.1-7.1-9.2c-1.1-1.5-2.3-3.1-3.4-4.7c-3.9-5.4-7.9-11.3-11.6-17.5c-0.1-0.1-0.1-0.2-0.2-0.3
			c-0.1-0.2-0.3-0.5-0.4-0.7c-1.3-2.1-2.5-4.1-3.6-6.1c-1.3-2.3-2.6-4.6-3.8-6.8c-33.8-61.6-53.8-144.4-59.5-246.1
			c-4.1-74.6,1.1-148,6.8-210c1-10.9,1.9-21.8,2.9-32.7c0.9-9.7,1.7-19.4,2.6-29.1c4-43.8,8.7-90.7,16.3-137.1
			c0.9-5.1,1.8-10.4,2.8-16.3c0.1-0.3,0.1-0.6,0.2-0.9c0-0.3,0.1-0.5,0.1-0.8c0.1-0.3,0.1-0.6,0.2-0.9l0,0l0,0
			c0.1-0.4,0.1-0.7,0.2-1.1c0.6-3.1,1.1-6.2,1.7-9.3l0,0c0.3-1.7,0.6-3.5,0.9-5.2c0.1-0.3,0.1-0.6,0.2-0.9l0,0c0-0.1,0-0.2,0-0.3
			c2.1-11.3,4.3-22.6,6.7-33.9c0.3-1.6,0.6-3.3,1-4.9c0.1-0.2,0.1-0.5,0.2-0.7c0-0.1,0-0.1,0-0.2c2-9.3,4.1-18.6,6.2-27.9
			c2.6-11.2,5.3-22.4,8.1-33.6l9.9-37.3c0-0.3,0.2-0.5,0.4-0.7c0.1-0.1,0.1-0.1,0.2-0.2l0,0c0.2-0.1,0.3-0.2,0.5-0.3
			c-48.2-20.6-196.3-83.5-249-105.9v0.1c0,0.1-0.1,0.2-0.1,0.3c-0.1,0.2-0.2,0.3-0.3,0.4c-0.9,0.9-2,1.7-3.1,2.5
			c-1.1,0.9-2.3,1.7-3.4,2.5c-0.4,0.3-0.8,0.6-1.3,0.9c-1.1,0.7-2.2,1.3-3.2,2.1c-0.6,0.4-1.2,0.8-1.8,1.2c-1.6,1.2-3.3,2.3-4.9,3.4
			c-5.3,3.7-10.8,7.2-16.5,10.3c-2.9,1.6-5.9,3.2-9,4.7c-0.6,0.3-1.3,0.6-1.9,0.9c-0.6,0.3-1.3,0.6-1.9,0.9s-1.3,0.6-1.9,0.9
			c-0.6,0.3-1.3,0.6-1.9,0.9c-0.6,0.3-1.3,0.6-1.9,0.9c-0.6,0.3-1.3,0.6-1.9,0.9c-0.6,0.3-1.3,0.6-1.9,0.9c-0.6,0.3-1.3,0.6-1.9,0.9
			c-0.6,0.3-1.3,0.6-1.9,0.9c-0.6,0.3-1.3,0.6-1.9,0.8c-0.6,0.3-1.3,0.6-1.9,0.8c-0.7,0.3-1.3,0.5-2,0.8s-1.3,0.5-2,0.8
			s-1.3,0.5-2,0.8s-1.3,0.5-2,0.8s-1.3,0.5-2,0.8s-1.3,0.5-2,0.8s-1.3,0.5-2,0.8s-1.3,0.5-2,0.7s-1.3,0.5-2,0.7s-1.3,0.5-2,0.7
			s-1.3,0.5-2,0.7s-1.3,0.5-2,0.7s-1.3,0.5-2,0.7s-1.3,0.4-2,0.7c-0.4,0.1-0.8,0.2-1.1,0.4c-0.1,0-0.1,0-0.2,0.1
			c-0.2,0.1-0.5,0.1-0.7,0.2c-0.7,0.2-1.4,0.4-2,0.7c-0.7,0.2-1.4,0.4-2,0.6c-0.7,0.2-1.4,0.4-2,0.6s-1.4,0.4-2.1,0.6
			c-0.7,0.2-1.4,0.4-2.1,0.6s-1.4,0.4-2.1,0.6c-0.7,0.2-1.4,0.4-2.1,0.6c-0.7,0.2-1.4,0.4-2.1,0.6c-0.7,0.2-1.4,0.4-2.1,0.6
			c-0.7,0.2-1.4,0.4-2.1,0.6c-0.7,0.2-1.4,0.4-2.1,0.5s-1.4,0.4-2.1,0.5s-1.4,0.3-2.1,0.5c-0.7,0.2-1.4,0.3-2.1,0.5
			c-0.7,0.2-1.4,0.3-2.1,0.5c-0.7,0.2-1.4,0.3-2.1,0.5c-0.7,0.2-1.4,0.3-2.1,0.5c-0.7,0.2-1.4,0.3-2.1,0.5s-1.4,0.3-2.1,0.4
			c-0.7,0.1-1.4,0.3-2.1,0.4c-0.7,0.1-1.4,0.3-2.1,0.4c-0.2,0-0.4,0.1-0.6,0.1c-0.1,0-0.2,0-0.2,0c-0.4,0.1-0.8,0.2-1.3,0.2
			c-0.7,0.1-1.4,0.3-2.1,0.4c-0.7,0.1-1.4,0.3-2.1,0.4c-0.1,0-0.3,0.1-0.4,0.1c-0.6,0.1-1.1,0.2-1.7,0.3c-0.6,0.1-1.2,0.2-1.8,0.3
			c-0.1,0-0.2,0-0.3,0c-0.7,0.1-1.4,0.2-2.1,0.3c-0.3,0.1-0.7,0.1-1,0.2c-0.4,0.1-0.7,0.1-1.1,0.2c-0.4,0.1-0.8,0.1-1.2,0.2
			c-3.9,0.6-7.7,1.1-11.6,1.6c-3.9,0.5-7.9,0.9-11.8,1.2c-1.6,0.2-3.2,0.3-5,0.4c-0.5,0-0.9,0.1-1.4,0.1c-0.1,0-0.2,0-0.4,0
			l-1.8,0.1h-0.1c-2,0.1-4,0.2-6.1,0.3c-0.2,0-0.5,0-0.7,0l-2.3,0.1c-0.3,0-0.5,0-0.8,0h-0.2c-0.2,0-0.4,0-0.6,0c-0.5,0-1,0-1.5,0.1
			c-0.1,0-0.3,0-0.4,0h-0.4c-0.1,0-0.2,0-0.3,0l-1.5,0.1c-0.2,0-0.3,0-0.5,0h-0.3c-0.5,0-1,0-1.6,0.1c-0.2,0-0.4,0-0.6,0l-2.5,0.1
			c-0.1,0-0.1,0-0.2,0c-0.9,0-1.7,0.1-2.6,0.1l-5.2,0.2c-1.9,0.1-3.8,0.1-5.8,0.2h-0.3c-4.4,0.1-9,0.3-13.8,0.4l-3.9,0.1
			c-2,0.1-4.1,0.1-6.2,0.2h-0.3c-3.3,0.1-6.7,0.2-10.1,0.3c-0.1,0-0.3,0-0.4,0c-2,0.1-4.1,0.1-6.1,0.2l-9.4,0.2
			c-2.1,0-4.2,0.1-6.4,0.1h-0.2c-0.2,0-0.3,0-0.5,0l-11.1,0.2h-0.2c-0.1,0-0.3,0-0.4,0c-3.8,0.1-7.6,0.1-11.5,0.2h-0.3
			c-0.2,0-0.3,0-0.5,0l-12,0.2c-0.2,0-0.4,0-0.5,0l-12.2,0.2c-0.2,0-0.4,0-0.5,0c-4,0.1-8.1,0.1-12.2,0.2h-0.2c-0.2,0-0.4,0-0.6,0
			L3324,190c-0.2,0-0.4,0-0.6,0h-5.4l-16.2,0.1c-1.7,0-3.5,0-5.2,0c-0.3,0-0.7,0-1,0c-1.8,0-3.7,0-5.5,0c-0.2,0-0.3,0-0.5,0
			l-35.5,0.1l-35.5-0.1c-0.2,0-0.3,0-0.5,0c-1.8,0-3.7,0-5.5,0c-0.2,0-0.5,0-0.8,0l0,0c0.2,0.1,0.6,0.1,0.9,0.1c-0.1,0-0.3,0-0.4,0
			l-5.7-0.1l0,0c-0.4,0.1-0.6,0.1-0.9,0.1l-6.6-0.1c-0.2,0-0.4,0-0.6,0l-5.3-0.1h-3h-5.4c-0.2,0-0.4,0-0.6,0l-12.8-0.2
			c-0.2,0-0.4,0-0.6,0h-0.2c-4.1,0-8.1-0.1-12.2-0.2c-0.2,0-0.4,0-0.5,0l-12.2-0.2c-0.2,0-0.4,0-0.5,0l-12-0.2c-0.2,0-0.3,0-0.5,0
			h-0.3c-3.9-0.1-7.7-0.1-11.5-0.2c-0.1,0-0.3,0-0.4,0h-0.2l-11.1-0.2c-0.2,0-0.3,0-0.5,0h-0.2c-2.2,0-4.3-0.1-6.4-0.1l-9.4-0.2
			c-2.1,0-4.1-0.1-6.1-0.2c-0.1,0-0.3,0-0.4,0c-3.4-0.1-6.8-0.2-10.1-0.3h-0.3c-2.1-0.1-4.1-0.1-6.2-0.2l-3.9-0.1
			c-4.8-0.1-9.4-0.3-13.8-0.4h-0.3c-2-0.1-3.9-0.1-5.8-0.2l-5.2-0.2c-0.9,0-1.8-0.1-2.6-0.1c-0.1,0-0.1,0-0.2,0l-2.5-0.1
			c-0.2,0-0.4,0-0.6,0c-0.5,0-1.1,0-1.6-0.1h-0.3c-0.2,0-0.3,0-0.5,0l-1.5-0.1c-0.1,0-0.2,0-0.3,0h-0.4c-0.2,0-0.3,0-0.4,0
			c-0.5,0-1,0-1.5-0.1c-0.2,0-0.4,0-0.6,0h-0.2c-0.3,0-0.5,0-0.8,0l-2.3-0.1c-0.2,0-0.5,0-0.7,0c-0.1,0-0.2,0-0.3,0
			c-2-0.1-3.9-0.2-5.9-0.3l0,0l-1.6-0.1h-0.1l0,0h-0.1c-2.4-0.1-4.7-0.3-6.8-0.5c-7.7-0.6-15.3-1.6-22.9-2.7l0,0h-0.1
			c-20.4-3.1-40.5-7.9-60-14.3c0,0,0,0-0.1,0l0,0c-0.2-0.1-0.5-0.2-0.7-0.2c-17.1-5.6-33.8-12.5-50-20.5c-3.2-1.6-6.6-3.2-9.7-5
			c-3.2-1.9-6.4-3.9-9.6-5.9c-6.3-4-12.6-8.2-18.7-12.6c-0.5-0.4-1.1-0.8-1.6-1.2c-0.9-0.6-1.7-1.3-2.5-1.9
			c-0.4-0.4-1.1-0.8-1.4-1.4c-52.4,22.2-199.9,84.8-248.8,105.6c0.1,0,0.2,0.1,0.3,0.1c0.1,0.1,0.3,0.2,0.4,0.3
			c0.2,0.2,0.4,0.4,0.4,0.7l9.9,37.3c2.8,11.2,5.5,22.4,8.1,33.6c2.1,9.3,4.2,18.6,6.2,27.9c0,0.1,0,0.1,0,0.2
			c0.1,0.2,0.1,0.5,0.2,0.7c0.4,1.6,0.7,3.3,1,4.9c2.4,11.3,4.6,22.6,6.7,33.9c0,0.1,0,0.2,0,0.3l0,0c0.1,0.3,0.1,0.6,0.2,0.9
			c0.3,1.7,0.6,3.5,0.9,5.2l0,0c0.6,3.1,1.1,6.2,1.7,9.3c0.1,0.4,0.1,0.7,0.2,1.1l0,0l0,0c0.1,0.3,0.1,0.6,0.2,0.9
			c0,0.3,0.1,0.5,0.1,0.8c0.1,0.3,0.1,0.6,0.2,0.9c1,5.9,1.9,11.2,2.8,16.3c7.6,46.4,12.3,93.3,16.3,137.1
			c0.9,9.7,1.7,19.4,2.6,29.1c1,10.9,1.9,21.8,2.9,32.7c5.7,62,10.9,135.4,6.8,210c-5.7,101.7-25.7,184.5-59.5,246.1
			c-1.2,2.2-2.5,4.5-3.8,6.8c-1.1,2-2.3,4-3.6,6.1c-0.1,0.2-0.3,0.5-0.4,0.7c-0.1,0.1-0.1,0.2-0.2,0.3c-3.7,6.2-7.7,12.1-11.6,17.5
			c-1.1,1.6-2.3,3.2-3.4,4.7c-2.3,3.1-4.7,6.2-7.1,9.2c-0.2,0.3-0.4,0.5-0.6,0.8c-0.1,0.2-0.3,0.3-0.4,0.5l-0.1,0.1
			c-1.1,1.3-2.1,2.6-3.2,3.9c-1.3,1.5-2.6,3-3.8,4.5c-0.1,0.1-0.2,0.2-0.3,0.3c-3.3,3.7-6.5,7.3-9.7,10.7
			c-6,6.4-12.5,12.9-19.4,19.4l-0.7,0.7c-0.5,0.5-1,1-1.6,1.5c0,0-0.4,0.3-0.5,0.5c-0.3,0.2-0.5,0.5-0.8,0.7
			c-0.8,0.8-1.7,1.6-2.6,2.4c-0.1,0.1-0.1,0.1-0.2,0.2c-1.8,1.7-3.9,3.5-6.4,5.6c-0.9,0.8-1.8,1.5-2.6,2.3c-0.8,0.7-1.5,1.4-2.3,2
			c-5.1,4.4-10.2,8.8-15.4,13c-6.2,5-12.6,9.9-19.1,14.6c-2.1,1.6-4.3,3.1-6.5,4.7c-9.1,6.4-18.5,12.4-28,18.1
			c-0.3,0.2-0.6,0.3-0.8,0.5c-0.8,0.5-1.7,1-2.6,1.5c-0.2,0.1-0.3,0.2-0.5,0.3l0,0c-0.3,0.2-0.6,0.3-0.9,0.5
			c-2.1,1.1-4.2,2.1-6.3,3.1c-0.1,0-0.1,0.1-0.2,0.1c-0.2,0.1-0.4,0.2-0.6,0.3c-0.3,0.1-0.5,0.2-0.8,0.4c-1.4,0.6-2.8,1.3-4.2,2
			c-0.1,0.1-0.3,0.1-0.4,0.2c-0.1,0-0.2,0.1-0.3,0.1s-0.2,0-0.3,0.1c0,0,0,0-0.1,0l0,0v0.3c10.9,130.6,47.9,688,34.5,1004.3
			c-1.6,20.5-6.3,83.1-12.4,155.6c-5.9,69.6-13.2,148.2-20.3,207.4c-0.3,3.2-0.7,6.3-1.1,9.4c-1.1,8.4,4.3,16.4,12.5,18.6
			c3.6,0.9,7.3,1.9,11,2.8c13.8,3.5,28.3,6.8,43.5,9.7c10.5,2,20.6,3.7,30.6,5.3v-0.3c12.2,1.9,24,3.5,35.5,4.8v0.1
			c9.2,1.1,18,1.9,26.7,2.6v0.2c687.1,44.5,1344.3,0,1344.3,0l0,0c1.9-0.1,3.8-0.3,5.6-0.4h-0.3c0.1,0,0.2,0,0.3,0
			c8.2-0.7,16.6-1.5,25.2-2.4c11.6-1.3,23.8-3.1,36.2-5c10.1-1.5,20.4-3.3,30.9-5.3c15.3-3,30-6.2,44-9.7c3.8-0.9,7.5-1.8,11.2-2.8
			c8.4-2.2,13.8-10.2,12.7-18.7c-0.4-3-0.8-6.2-1.2-9.4c-7.2-59.4-14.5-138.2-20.5-208c-6.2-72.6-11-135.4-12.5-156
			c-13.5-314.1,23.2-865.2,34.6-1003c-0.1,0-0.1,0-0.2,0c-0.1,0-0.2,0-0.3,0s-0.2,0-0.3-0.1c-0.1,0-0.2-0.1-0.3-0.1
			c-1.8-0.9-3.6-1.7-5.4-2.5c-0.2-0.1-0.4-0.2-0.6-0.3c-1.1-0.5-2.3-1.1-3.4-1.6c-0.2-0.1-0.4-0.2-0.6-0.3c-1.1-0.6-2.3-1.2-3.4-1.8
			c-0.1-0.1-0.3-0.2-0.4-0.2c-1.2-0.6-2.3-1.3-3.5-2c-9.5-5.7-18.9-11.7-28-18.1c-2.2-1.5-4.4-3.1-6.5-4.7
			c-6.5-4.7-12.8-9.6-19.1-14.6c-5.2-4.2-10.4-8.6-15.4-13c-0.8-0.7-1.5-1.4-2.3-2c-0.9-0.8-1.7-1.5-2.6-2.3
			c-0.8-0.7-1.6-1.4-2.3-2.1c-1.3-1.1-2.5-2.1-3.6-3.2C3991.4,1147.2,3991,1146.9,3990.6,1146.6z"/>
		<path id="Color_1_00000029018689075265625300000016624159161389542533_" class="st0" d="M2040.6,1231.7L2040.6,1231.7
			C2040.5,1231.7,2040.5,1231.7,2040.6,1231.7c-0.4,0-0.7-0.1-0.9-0.1l0,0c-0.7-0.2-1.1-0.3-1.6-0.4c-0.2-0.1-0.3-0.1-0.6-0.2
			c-0.3-0.1-0.7-0.2-1-0.3c-0.3-0.1-0.6-0.2-1-0.3c-0.7-0.2-1.3-0.4-2-0.6c-0.4-0.1-0.8-0.2-1.2-0.4c-2.6-0.8-5.4-1.8-8.8-3.1
			c-1.8-0.7-3.7-1.4-5.5-2.2c-1.8-0.7-3.6-1.5-5.4-2.2c-1.8-0.8-3.6-1.5-5.4-2.3s-3.5-1.6-5.2-2.4s-3.5-1.6-5.2-2.5
			c-1.7-0.8-3.4-1.7-5.1-2.5c-1.7-0.9-3.3-1.7-5-2.6s-3.3-1.8-4.9-2.7c-1.6-0.9-3.2-1.8-4.9-2.8c-1.6-0.9-3.2-1.9-4.8-2.9
			c-1.6-1-3.1-1.9-4.7-2.9s-3.1-2-4.7-3c-1.5-1-3.1-2-4.6-3.1c-1.5-1-3-2.1-4.5-3.1c-1.5-1.1-2.9-2.1-4.4-3.2s-2.9-2.2-4.3-3.3
			c-1.3-1-2.6-2-3.9-3c-0.1-0.1-0.3-0.2-0.4-0.3c-0.8-0.6-1.6-1.3-2.5-2l-2.5-2.1l-2.6-2.2l0,0c-0.3-0.2-0.5-0.5-0.8-0.7
			c-1.4-1.2-2.7-2.3-4.1-3.5c-1.3-1.2-2.7-2.4-4-3.6l-0.6-0.5c-1.1-1-2.2-2.1-3.3-3.1c-1.3-1.2-2.6-2.5-3.8-3.7
			c-1.3-1.3-2.6-2.5-3.8-3.8c-1.3-1.3-2.5-2.6-3.7-3.9c-1.2-1.2-2.3-2.5-3.5-3.7c-0.1-0.1-0.1-0.1-0.2-0.2c-1.2-1.3-2.4-2.6-3.6-4
			c-0.5-0.6-1-1.1-1.5-1.7l-1.2-1.3c-0.3-0.3-0.6-0.7-0.8-1c-1.2-1.4-2.3-2.7-3.4-4.1s-2.2-2.7-3.4-4.2c-1.1-1.4-2.2-2.8-3.3-4.2
			c-1.1-1.4-2.2-2.8-3.2-4.3c-1.1-1.4-2.1-2.9-3.2-4.3s-2.1-2.9-3.1-4.4s-2-2.9-3-4.4c-0.2-0.3-0.4-0.6-0.6-0.9l0,0c0,0,0,0,0-0.1
			c-0.5-0.7-0.9-1.4-1.4-2.1c-0.3-0.5-0.6-0.9-0.9-1.4c-1-1.5-2-3-2.9-4.5c-0.5-0.7-0.9-1.5-1.4-2.2c0,0-1.2-1.9-1.5-2.4
			c-0.9-1.5-1.9-3.1-2.8-4.6s-1.8-3.1-2.7-4.7c-0.9-1.6-1.8-3.1-2.7-4.7c-0.9-1.6-1.7-3.2-2.6-4.8c-0.9-1.6-1.7-3.2-2.5-4.8
			c-0.8-1.6-1.7-3.2-2.5-4.8c-0.8-1.6-1.6-3.2-2.4-4.9c-0.8-1.6-1.6-3.3-2.3-4.9c-0.2-0.3-0.3-0.7-0.5-1l-0.5-1.1
			c-0.5-1-0.9-2-1.4-2.9c-0.8-1.6-1.5-3.3-2.2-4.9v-0.1c-0.7-1.7-1.5-3.4-2.2-5c-0.7-1.7-1.4-3.4-2.1-5.1s-1.4-3.4-2.1-5.1
			s-1.4-3.4-2-5.1c-0.7-1.7-1.3-3.5-2-5.2s-1.3-3.5-1.9-5.2s-1.3-3.5-1.9-5.3v-0.1c-0.6-1.7-1.2-3.5-1.8-5.2
			c-0.6-1.8-1.2-3.6-1.7-5.3c-0.6-1.8-1.1-3.6-1.7-5.4c-0.6-1.8-1.1-3.6-1.6-5.4c-0.5-1.8-1.1-3.6-1.6-5.4c-0.5-1.8-1-3.6-1.5-5.5
			c-0.5-1.8-1-3.6-1.5-5.5c-0.5-1.8-1-3.7-1.4-5.5c-0.5-1.9-0.9-3.7-1.4-5.6c-0.5-1.9-0.9-3.7-1.3-5.6c-0.4-1.7-0.8-3.3-1.2-5
			l-0.1-0.6c-0.4-1.9-0.8-3.7-1.3-5.6v-0.2c-0.4-1.8-0.8-3.6-1.2-5.4c-0.4-1.8-0.7-3.6-1.1-5.4v-0.2c-0.4-1.9-0.8-3.8-1.1-5.7
			c-0.4-1.9-0.7-3.8-1.1-5.7c-0.3-1.9-0.7-3.8-1-5.7s-0.6-3.7-1-5.6v-0.1c-0.3-1.9-0.6-3.9-0.9-5.8c-0.3-1.9-0.6-3.9-0.9-5.8
			c-0.3-1.9-0.6-3.9-0.9-5.9c-0.3-1.9-0.5-3.9-0.8-5.8c-0.2-1.8-0.5-3.5-0.7-5.3l-0.1-0.6c-0.2-1.3-0.3-2.6-0.5-4l-0.2-1.9
			c-0.2-2-0.5-3.9-0.7-5.9c-0.2-1.9-0.4-3.9-0.6-5.8V864c-0.1-1.3-0.3-2.7-0.4-4l-0.2-2c-0.2-1.9-0.4-3.9-0.6-5.8
			c-0.2-2-0.4-4-0.5-5.9c-0.2-2-0.3-4-0.5-6s-0.3-4-0.4-6s-0.3-4-0.4-6s-0.3-4-0.4-6s-0.2-4-0.3-6c-0.1-2-0.2-4-0.3-6
			c-0.1-2-0.2-4-0.3-6c-0.1-2-0.2-4-0.2-6v-0.4c-0.1-1.9-0.1-3.7-0.2-5.6c-0.1-2-0.1-4-0.2-6s-0.1-4-0.1-6v-0.1c0-2-0.1-4-0.1-6
			s-0.1-4.1-0.1-6c0-2,0-4.1,0-6c0-2,0-4.1,0-6.1v-2c0-1.4,0-2.7,0-4.1l0.1-6.1v-2c0-1.3,0-2.7,0.1-4l0.1-6c0-2,0.1-4.1,0.2-6.1
			c0-1.9,0.1-3.8,0.2-5.7v-0.4c0.1-1.9,0.1-3.9,0.2-5.8v-0.2c0.1-1.7,0.1-3.3,0.2-5v-1c0.1-2,0.2-4,0.3-6v-0.1
			c0.1-2,0.2-3.9,0.3-5.9v-0.3c0.1-1.9,0.2-3.8,0.3-5.7c0.1-2,0.2-4,0.3-6l0.4-6c0.1-1.9,0.2-3.8,0.4-5.6v-0.4c0.1-2,0.3-4,0.4-6
			s0.3-4,0.4-5.9c0.1-2,0.3-4,0.5-6l0.1-0.7c0.1-1.8,0.3-3.6,0.4-5.3c0.2-1.9,0.3-3.7,0.5-5.6v-0.4c0.2-2,0.3-3.9,0.5-5.9l0.5-5.9
			c0.2-1.8,0.3-3.6,0.5-5.4v-0.5c0.2-2,0.4-3.9,0.6-5.9l0.6-5.8c0.2-1.8,0.4-3.6,0.6-5.4l0.1-0.8c0.2-1.8,0.4-3.7,0.6-5.5l0.2-2
			c0.1-1.3,0.3-2.5,0.4-3.8c0.2-1.9,0.4-3.9,0.7-5.8l0.7-5.7c0.2-1.9,0.5-3.8,0.7-5.8l0.7-5.7c0.2-1.9,0.5-3.8,0.7-5.7l0.8-5.6
			c0.2-1.8,0.5-3.6,0.7-5.4l0.8-5.9l0.8-5.6l0.8-5.5c0.3-1.9,0.5-3.7,0.8-5.6l0.8-5.5l0.8-5.5c0.3-1.8,0.6-3.7,0.9-5.4
			c0.3-1.8,0.6-3.6,0.9-5.4c0.3-1.8,0.6-3.6,0.9-5.4c0.3-1.6,0.5-3.3,0.8-4.9l1-5.8l0.9-5.3c0.3-1.8,0.6-3.5,0.9-5.2
			s0.6-3.4,0.9-5.1l0.3-1.9c0.2-1.2,0.4-2.3,0.6-3.5l1-5.6c0.3-1.5,0.6-3.1,0.8-4.6c0.3-1.7,0.6-3.4,1-5.1l1.2-6.4
			c0.2-1.2,0.5-2.4,0.7-3.6l1-4.9l1.1-5.7c0.3-1.4,0.5-2.7,0.8-4c0.3-1.6,0.6-3.2,1-4.8l1.9-9.5l1-4.7c0.3-1.6,0.7-3.1,1-4.7
			c0,0,1-4.5,1-4.6c0.1-0.3,0.2-0.7,0.2-1l0,0l0,0c0.1-0.7,0.3-1.4,0.5-2.1c0.1-0.2,0.1-0.5,0.2-0.7l0.1-0.7c0.3-1.5,0.7-3,1-4.5
			l1-4.5c0.1-0.7,0.3-1.3,0.4-2c0.1-0.6,0.3-1.2,0.4-1.8c0-0.2,0.1-0.3,0.1-0.5l1.1-4.9c0.3-1.2,0.6-2.5,0.8-3.7
			c0.3-1.4,0.6-2.8,1-4.2l1-4.2l1-4.1c0.3-1.3,0.6-2.7,1-4.1l2.1-8.8c0.2-1,0.5-2,0.7-3.1l0.1-0.2v-0.1l0.4-1.5l1.4-5.7
			c0.3-1,0.5-2.1,0.8-3.1l0.2-0.6c0.3-1.2,0.6-2.5,0.9-3.7l2.7-10.6l1.7-6.7l1.7-6.5c0.2-0.9,0.5-1.8,0.7-2.6l0.3-1.1
			c0.2-0.9,0.5-1.7,0.7-2.6l1.6-5.9l1.5-5.7l1.5-5.4l1.4-5.1c0.2-0.8,0.4-1.6,0.7-2.4c0.2-0.8,0.5-1.6,0.7-2.4l3.6-12.6
			c0.2-0.6,0.3-1.1,0.5-1.8l1-3.4l1.7-5.8c0.1-0.5,0.3-1,0.4-1.4l0.3-1.1c0.1-0.4,0.2-0.7,0.9-2.3c0.1-0.3,0.3-0.6,0.4-0.9
			c0.1-0.3,0.2-0.4,0.2-0.5c0.1-0.5,0.3-0.9,0.5-1.2c0.1-0.1,0.1-0.2,0.2-0.3l0,0l0,0c-35.6-15.2-136-57.2-203.7-86.5
			c0,0.3,0.1,0.6,0.1,0.9c0,0.8-0.1,1.7-0.2,2.5c0,0.1,0,0.2,0,0.2c-2.9,23.6-11.9,47.2-20.6,69.1c-2.2,5.6-4.6,11.3-7,16.8
			c-5.3,12.2-10.9,24.2-16.7,36.1c-2.1,4.2-4.2,8.5-6.3,12.7c-0.3,0.5-0.5,1.1-0.8,1.6c-2.6,5.2-5.2,10.4-7.9,15.6
			c0,0.2,0,0.3-0.1,0.5c-0.7,1.4-1.5,2.9-2.2,4.3c-24.2,47.1-47.9,86.5-68.2,118c-40.1,62.1-82.9,117.5-127.5,164.5
			c-51.7,54.7-106,98.3-161.5,130c0,0-35.3,17.6-40.1,20l-0.5,0.3c0,0,0,0-0.1,0l-5.7,2.9l0,0l0,0l-5.7-2.9h-0.1l-0.5-0.3
			c-4.8-2.4-40.1-20-40.1-20c-55.5-31.7-109.7-75.4-161.5-130c-44.5-47-87.4-102.4-127.5-164.5c-20.3-31.5-44-70.9-68.2-118
			c-0.7-1.5-1.5-2.9-2.2-4.3c-0.1-0.1-0.1-0.3-0.1-0.5c-2.6-5.2-5.3-10.4-7.9-15.6c-0.3-0.5-0.5-1.1-0.8-1.6
			c-2.1-4.2-4.2-8.5-6.3-12.7c-5.8-11.9-11.5-23.9-16.7-36.1c-0.4-0.9-0.7-1.7-1.1-2.6c-2-4.7-4-9.5-5.9-14.3
			c-8.8-22-17.7-45.5-20.6-69.1c-0.1-0.5-0.1-1.1-0.2-1.6c0-0.4,0-0.7,0-1.1c0-0.3,0-0.6,0.1-0.9C672,190,571.7,232,536.1,247.3
			c0.1,0.1,0.1,0.2,0.2,0.3c0.2,0.3,0.4,0.7,0.5,1.2c0,0.1,0.1,0.2,0.2,0.5c0.1,0.2,0.2,0.6,0.4,0.9c0.6,1.6,0.7,1.9,0.9,2.3
			l0.3,1.1c0.1,0.4,0.3,0.9,0.4,1.4l1.7,5.8l1,3.4c0.2,0.6,0.3,1.2,0.5,1.8l3.6,12.6c0.2,0.8,0.5,1.6,0.7,2.4s0.4,1.6,0.7,2.4
			l1.4,5.1l1.5,5.4l1.5,5.7l1.6,5.9c0.2,0.8,0.5,1.7,0.7,2.6l0.3,1.1c0.2,0.9,0.5,1.8,0.7,2.6l1.7,6.5l1.7,6.7l2.7,10.6
			c0.3,1.2,0.6,2.4,0.9,3.7l0.2,0.6c0.3,1,0.5,2.1,0.8,3.1l1.4,5.7l0.4,1.5v0.1l0.1,0.2c0.3,1,0.5,2,0.7,3.1l2.1,8.8
			c0.3,1.4,0.6,2.7,1,4.1l1,4.1l1,4.2c0.3,1.4,0.7,2.8,1,4.2c0.3,1.2,0.6,2.5,0.8,3.7l1.1,4.9c0,0.2,0.1,0.3,0.1,0.5
			c0.1,0.6,0.3,1.2,0.4,1.8c0.2,0.7,0.3,1.3,0.4,2l1,4.5c0.3,1.5,0.7,3,1,4.5l0.1,0.7c0.2,0.9,0.4,1.8,0.6,2.8l0,0
			c0.1,0.3,0.2,0.7,0.2,1c0,0.2,1,4.6,1,4.6c0.3,1.6,0.7,3.1,1,4.7l1,4.7l1.9,9.5c0.3,1.6,0.7,3.2,1,4.8c0.3,1.3,0.5,2.7,0.8,4
			l1.1,5.7l1,4.9c0.2,1.2,0.5,2.4,0.7,3.6l1.2,6.4c0.3,1.7,0.6,3.4,1,5.1c0.3,1.5,0.6,3,0.8,4.6l1,5.6c0.2,1.1,0.4,2.3,0.6,3.5
			l0.3,1.9c0.3,1.7,0.6,3.4,0.9,5.1c0.3,1.7,0.6,3.5,0.9,5.2l0.9,5.3l1,5.8c0.3,1.6,0.6,3.3,0.8,4.9c0.3,1.8,0.6,3.6,0.9,5.4
			c0.3,1.8,0.6,3.6,0.9,5.4c0.3,1.8,0.6,3.6,0.9,5.4l0.8,5.5l0.8,5.5c0.3,1.9,0.6,3.7,0.8,5.6l0.8,5.5l0.8,5.6l0.8,5.9
			c0.2,1.8,0.5,3.6,0.7,5.4l0.8,5.6c0.3,1.9,0.5,3.8,0.7,5.7l0.7,5.7c0.2,1.9,0.5,3.8,0.7,5.8l0.7,5.7c0.2,1.9,0.5,3.9,0.7,5.8
			c0.1,1.2,0.3,2.5,0.4,3.8l0.2,2c0.2,1.8,0.4,3.7,0.6,5.5l0.1,0.8c0.2,1.8,0.4,3.6,0.6,5.4l0.6,5.8c0.2,2,0.4,3.9,0.6,5.9v0.5
			c0.2,1.8,0.4,3.6,0.5,5.4l0.5,5.9c0.2,2,0.4,4,0.5,5.9v0.4c0.2,1.9,0.3,3.7,0.5,5.6c0.2,1.7,0.3,3.5,0.4,5.3l0.1,0.7
			c0.2,2,0.3,4,0.5,6c0.1,2,0.3,4,0.4,5.9c0.1,2,0.3,4,0.4,6v0.4c0.1,1.9,0.2,3.8,0.4,5.6l0.4,6c0.1,2,0.2,4,0.3,6
			c0.1,1.9,0.2,3.8,0.3,5.7v0.3c0.1,2,0.2,3.9,0.3,5.9v0.1c0.1,2,0.2,4,0.3,6v1c0.1,1.7,0.1,3.3,0.2,5v0.2c0.1,1.9,0.1,3.9,0.2,5.8
			v0.4c0.1,1.9,0.1,3.8,0.2,5.7c0.1,2,0.1,4,0.2,6.1l0.1,6c0,1.3,0,2.7,0.1,4v2l0.1,6.1c0,1.4,0,2.7,0,4.1v2c0,2,0,4.1,0,6.1
			s0,4,0,6s0,4-0.1,6c0,2,0,4-0.1,6v0.1c0,2-0.1,4-0.1,6s-0.1,4-0.2,6c-0.1,1.9-0.1,3.8-0.2,5.6v0.4c-0.1,2-0.2,4-0.2,6
			c-0.1,2-0.2,4-0.3,6s-0.2,4-0.3,6s-0.2,4-0.3,6s-0.2,4-0.4,6c-0.1,2-0.3,4-0.4,6c-0.1,2-0.3,4-0.4,6c-0.2,2-0.3,4-0.5,6
			s-0.3,4-0.5,5.9c-0.2,2-0.4,3.9-0.6,5.8l-0.2,2c-0.1,1.3-0.3,2.7-0.4,4v0.1c-0.2,1.9-0.4,3.9-0.6,5.8c-0.2,1.9-0.4,3.9-0.7,5.9
			l-0.2,1.9c-0.2,1.3-0.3,2.6-0.5,4l-0.1,0.6c-0.2,1.8-0.5,3.5-0.7,5.3c-0.3,1.9-0.5,3.9-0.8,5.8c-0.3,2-0.6,3.9-0.9,5.9
			c-0.3,1.9-0.6,3.9-0.9,5.8c-0.3,1.9-0.6,3.9-0.9,5.8v0.1c-0.3,1.9-0.6,3.7-1,5.6c-0.3,1.9-0.7,3.8-1,5.7c-0.4,1.9-0.7,3.8-1.1,5.7
			c-0.4,1.9-0.7,3.8-1.1,5.7v0.2c-0.4,1.8-0.7,3.6-1.1,5.4c-0.4,1.8-0.8,3.6-1.2,5.4v0.2c-0.4,1.9-0.8,3.8-1.3,5.6l-0.1,0.6
			c-0.4,1.7-0.8,3.3-1.2,5c-0.4,1.8-0.9,3.7-1.3,5.6c-0.5,1.9-0.9,3.7-1.4,5.6c-0.5,1.8-1,3.7-1.4,5.5c-0.5,1.9-1,3.7-1.5,5.5
			s-1,3.7-1.5,5.5s-1,3.6-1.6,5.4c-0.5,1.8-1.1,3.6-1.6,5.4c-0.6,1.8-1.1,3.6-1.7,5.4c-0.6,1.8-1.1,3.5-1.7,5.3
			c-0.6,1.7-1.2,3.5-1.8,5.2v0.1c-0.6,1.8-1.2,3.5-1.9,5.3s-1.3,3.5-1.9,5.2c-0.6,1.7-1.3,3.5-2,5.2c-0.7,1.7-1.3,3.4-2,5.1
			s-1.4,3.4-2.1,5.1c-0.7,1.7-1.4,3.4-2.1,5.1c-0.7,1.7-1.4,3.4-2.2,5v0.1c-0.7,1.6-1.5,3.3-2.2,4.9c-0.4,1-0.9,1.9-1.4,2.9
			l-0.5,1.1c-0.2,0.3-0.3,0.7-0.5,1c-0.7,1.6-1.5,3.2-2.3,4.9c-0.8,1.7-1.6,3.3-2.4,4.9c-0.8,1.6-1.6,3.2-2.5,4.8
			c-0.8,1.6-1.7,3.2-2.5,4.8c-0.9,1.6-1.7,3.2-2.6,4.8c-0.9,1.6-1.8,3.1-2.7,4.7s-1.8,3.1-2.7,4.7c-0.9,1.5-1.8,3.1-2.8,4.6
			c-0.2,0.4-1.5,2.4-1.5,2.4c-0.5,0.7-0.9,1.5-1.4,2.2c-1,1.5-1.9,3-2.9,4.5c-0.4,0.6-0.8,1.2-1.2,1.8c-0.4,0.6-0.8,1.2-1.2,1.8
			c-0.1,0.1-0.2,0.3-0.3,0.4s-0.2,0.3-0.3,0.4c-1,1.5-2,3-3,4.4c-1,1.5-2.1,2.9-3.1,4.4s-2.1,2.9-3.2,4.3c-1.1,1.4-2.1,2.8-3.2,4.3
			c-1.1,1.4-2.2,2.8-3.3,4.2c-1.1,1.4-2.3,2.8-3.4,4.2c-1.1,1.4-2.3,2.7-3.4,4.1c-0.3,0.3-0.5,0.6-0.8,1l-1.2,1.3
			c-0.5,0.6-1,1.1-1.5,1.7c-1.2,1.3-2.4,2.7-3.6,4l-0.1,0.1l-0.1,0.1c-0.6,0.6-1.2,1.2-1.7,1.9s-1.2,1.2-1.7,1.9
			c-1.2,1.3-2.5,2.6-3.7,3.9c-1.2,1.2-2.5,2.5-3.8,3.8c-1.3,1.2-2.5,2.5-3.8,3.7c-1.1,1-2.2,2.1-3.3,3.1l-0.6,0.5
			c-1.3,1.2-2.7,2.4-4,3.6s-2.7,2.4-4.1,3.5c-0.3,0.2-0.5,0.5-0.8,0.7l0,0l-2.6,2.2l-2.5,2.1c-0.8,0.7-1.6,1.3-2.5,2
			c-0.1,0.1-0.1,0.1-0.2,0.2s-0.1,0.1-0.2,0.2l0,0c-0.6,0.5-1.3,1-1.9,1.5s-1.3,1-1.9,1.5c-1.4,1.1-2.9,2.2-4.3,3.3
			c-1.5,1.1-2.9,2.2-4.4,3.2c-1.5,1.1-3,2.1-4.5,3.1s-3,2.1-4.6,3.1c-1.5,1-3.1,2-4.7,3s-3.1,2-4.7,2.9c-1.6,1-3.2,1.9-4.8,2.9
			c-1.6,0.9-3.2,1.9-4.9,2.8c-1.6,0.9-3.3,1.8-4.9,2.7c-1.7,0.9-3.4,1.8-5,2.6c-1.7,0.9-3.4,1.7-5.1,2.5s-3.5,1.7-5.2,2.5
			c-1.8,0.8-3.5,1.6-5.2,2.4c-1.8,0.8-3.6,1.6-5.4,2.3c-1.8,0.8-3.6,1.5-5.4,2.2c-1.9,0.7-3.7,1.5-5.5,2.2c-3.4,1.3-6.2,2.3-8.8,3.1
			c-0.4,0.1-0.8,0.3-1.2,0.4c-0.7,0.2-1.3,0.4-2,0.6c-0.4,0.1-0.8,0.3-1.1,0.4c-0.3,0.1-0.6,0.2-0.9,0.3c-0.2,0.1-0.4,0.1-0.6,0.2
			c-0.5,0.2-0.9,0.3-1.6,0.4l0,0c-0.2,0-0.5,0.1-0.8,0.1h-0.1c0,0,0,0-0.1,0c8.7,99.5,49.8,678.9,35.8,1008.1
			c-1.5,20.4-6.2,82.8-12.4,155c-5.9,69.3-13.2,147.6-20.2,206.5c-0.5,4-1,7.8-1.4,11.6c-0.9,7.1,3.6,13.9,10.6,15.7
			c4.4,1.2,8.8,2.3,13.2,3.4c13.8,3.5,28.3,6.7,43.5,9.6c10.4,2,20.6,3.8,30.5,5.3v-0.3v0.2c12.2,1.9,24.1,3.5,35.6,4.7l0,0
			c10.5,1.2,20.6,2.1,30.5,2.8l0,0c0,0,638,44.5,1340.3,0v-2v2c0,0,0,0,0.1,0c9.8-0.7,20-1.7,30.4-2.8l0,0
			c11.5-1.3,23.4-2.8,35.6-4.7l0,0c10-1.5,20.1-3.3,30.5-5.3c15.1-2.9,29.6-6.2,43.5-9.6c3.7-0.9,7.4-1.9,11-2.8
			c8.2-2.2,13.6-10.1,12.5-18.6c-0.4-3.1-0.8-6.2-1.1-9.4c-7.1-58.9-14.3-137.2-20.2-206.5c-6.2-72.2-10.9-134.6-12.4-155
			C1990.8,1910.6,2032,1331.2,2040.6,1231.7L2040.6,1231.7L2040.6,1231.7z"/>
	</g>
</g> -->
<g id="Shorts_00000120541126081286217430000013983874477917552256_">
	<g id="Color_1_00000145043890888937509120000011999787632044632509_">
		<path class="st0" d="M3287.9,4771.6c2.6,0,5.3,0,8,0c194.7,0,435.7-29.9,603.7-54.9c186.1-27.8,327.3-56.1,328.8-56.4l0.4-0.1
			l2.2-0.4l0.4-0.1c1.9-0.3,3.8-0.6,5.7-0.8c-57.7-1149-253.5-1579.7-253.5-1579.7l0,0c-8.5,0.5-14,0.8-14.7,0.9
			c-59.3,1.9-118.2,3.6-175.9,4.8l0,0c-20.3,0.4-40.5,0.8-60.6,1.1l0,0c-12.4,0.2-26.1,0.3-38.4,0.5c-145.1,2.1-287.5,2.5-433.1,2.5
			c-149.4,0-296.9-0.2-446.1-2.4v0.1c-12.3-0.2-24.6-0.4-37-0.6c-20.6-0.3-41.3-0.9-62-1.3c-57.6-1.2-115.6-2.7-174.1-4.6
			c-0.7,0-6.8-0.4-16.4-1l0,0c0,0-195.8,430.6-253.6,1579.7c1.9,0.3,3.8,0.5,5.7,0.8l0.4,0.1l2.2,0.4l0.4,0.1
			c1.4,0.3,142.6,28.6,328.8,56.4c167.9,25,409,54.9,603.7,54.9c2.7,0,5.3,0,8,0c0.5,0,1.4,0,2.7,0c0.6,0,1.3,0,2.1,0
			c0.6-21.9,1.1-47.8,1.5-73.9c0.4-22.1,0.7-44.4,0.6-64.2c-0.1-6.8,0.1-13,0-19.2c-0.1-2.8-0.1-5.6-0.1-8.5c0-3.6,0-7.1,0-10.6
			c0.1-22.4,0.3-45.1,0.8-67.5c0.8-35.2,2-70.4,3.4-105.5c1.5-35.6,3.2-71.2,5.5-106.7c1.7-27.1,2.5-55.6,6.1-82.6
			c1-7.7,1.3-17.6,3.5-25c0.8-2.7,3.9-4.4,7.3-4.4c5.8,0,6.8,4.3,7.5,8c1.7,8.5,2.6,24.3,3.6,32.8c3.3,29.1,5.2,58.3,7,87.5
			c2.2,36.2,3.8,72.4,5.2,108.6c1.3,34.4,2.4,68.7,3.1,103c0.4,17.2,0.7,34.8,0.7,51.9c0,6.4,0.4,12.5,0.3,18.9
			c-0.1,6.1-0.1,12.7-0.1,19.5l0.9-0.3l-1.1,0.4c0,19.8,0.4,41.8,1,63.8l0,0c0.7,26.1,1.7,52,2.6,74c0.2,0,0.3,0,0.5,0
			C3286.5,4771.5,3287.4,4771.6,3287.9,4771.6z"/>
		<path class="st0" d="M2526.8,2972c0.2-1.9,0.5-3.7,0.7-5.5C2527.3,2968.3,2527,2970.1,2526.8,2972z"/>
		<path class="st0" d="M3985.1,3033.7c0,3.5,0,7.1-0.1,10.8C3985,3040.8,3985.1,3037.2,3985.1,3033.7z"/>
		<path class="st0" d="M1932.4,2966.5c0.2,1.8,0.5,3.6,0.7,5.5C1932.9,2970.1,1932.7,2968.3,1932.4,2966.5z"/>
		<path class="st0" d="M1239.5,4771.6c2.6,0,5.3,0,8,0c194.7,0,435.7-29.9,603.7-54.9c186.1-27.8,327.3-56.1,328.8-56.4l0.4-0.1
			l2.2-0.4l0.4-0.1c1.9-0.3,3.8-0.6,5.7-0.8c-57.8-1149.1-253.6-1579.7-253.6-1579.7l0,0c-9.6,0.6-15.7,1-16.4,1
			c-58.5,1.9-116.5,3.4-174.1,4.6c-20.7,0.4-41.4,1-62,1.3c-12.4,0.2-24.7,0.4-37,0.6v-0.1c-149.2,2.2-296.7,2.4-446.1,2.4
			c-145.6,0-288-0.4-433.1-2.5c-12.3-0.2-26-0.3-38.4-0.5l0,0c-20.1-0.3-40.3-0.7-60.6-1.1l0,0c-57.7-1.2-116.6-2.9-175.9-4.8
			c-0.7,0-6.2-0.4-14.7-0.9c-0.3-4.7-0.6-9.3-0.8-13.8c0.2,4.5,0.5,9.1,0.8,13.8c0,0-195.8,430.6-253.5,1579.7
			c1.9,0.3,3.8,0.5,5.7,0.8l0.4,0.1l2.2,0.4l0.4,0.1c1.4,0.3,142.6,28.6,328.8,56.4c167.9,25,409,54.9,603.7,54.9c2.7,0,5.3,0,8,0
			c0.5,0,1.4,0,2.7,0c0.1,0,0.3,0,0.5,0c0.9-21.9,1.9-47.9,2.6-74l0,0c0.6-22,1-44,1-63.8l-1.1-0.4l0.9,0.3c0-6.8,0-13.4-0.1-19.5
			c-0.1-6.4,0.3-12.5,0.3-18.9c0-17.1,0.3-34.7,0.7-51.9c0.7-34.3,1.8-68.6,3.1-103c1.4-36.2,3-72.4,5.2-108.6
			c1.8-29.2,3.7-58.4,7-87.5c1-8.5,1.9-24.3,3.6-32.8c0.7-3.7,1.7-8,7.5-8c3.4,0,6.5,1.7,7.3,4.4c2.2,7.4,2.5,17.3,3.5,25
			c3.6,27,4.4,55.5,6.1,82.6c2.3,35.5,4,71.1,5.5,106.7c1.4,35.1,2.6,70.3,3.4,105.5c0.5,22.4,0.7,45.1,0.8,67.5c0,3.5,0,7,0,10.6
			c0,2.9,0,5.7-0.1,8.5c-0.1,6.2,0.1,12.4,0,19.2c-0.1,19.8,0.2,42.1,0.6,64.2c0.4,26,1,52,1.5,73.9c0.8,0,1.5,0,2.1,0
			C1238.1,4771.5,1239,4771.6,1239.5,4771.6z"/>
		<path class="st0" d="M475,3044.5c-0.1-3.7-0.1-7.3-0.1-10.8C474.9,3037.2,474.9,3040.8,475,3044.5z"/>
	</g>
	<g id="Color_2_00000072254388535784224360000017501864272444701619_">
		<g>
			<path class="st2" d="M3295.8,4800.5c196.1,0,438.3-29.9,607.9-55.2c187-27.9,328.8-56.3,330.2-56.6l1.5-0.3
				c1-0.1,1.9-0.3,2.9-0.4c-0.5-9.7-0.9-19.4-1.4-29c-1.9,0.3-3.8,0.5-5.7,0.8l-0.4,0.1l-2.2,0.4l-0.4,0.1
				c-1.4,0.3-142.6,28.6-328.8,56.4c-167.9,25-409,54.9-603.7,54.9c-2.7,0-5.3,0-8,0c-0.5,0-1.4,0-2.7,0c-0.1,0-0.3,0-0.5,0
				c0.5,10.8,0.9,20.6,1.3,28.9c0.8,0,1.4,0,1.7,0C3290.4,4800.5,3293.1,4800.5,3295.8,4800.5z"/>
			<path class="st2" d="M3220.5,4771.6c-2.6,0-5.3,0-8,0c-194.7,0-435.7-29.9-603.7-54.9c-186.1-27.8-327.3-56.1-328.8-56.4
				l-0.4-0.1l-2.2-0.4l-0.4-0.1c-1.9-0.3-3.8-0.6-5.7-0.8c-0.5,9.6-1,19.3-1.4,29c1,0.1,1.9,0.3,2.9,0.4l1.5,0.3
				c1.4,0.3,143.2,28.8,330.2,56.6c169.7,25.3,411.8,55.2,607.9,55.2c2.7,0,5.5,0,8.2,0c0.5,0,1.8,0,3.9,0
				c0.2-8.3,0.5-18.1,0.8-28.9c-0.8,0-1.5,0-2.1,0C3221.9,4771.5,3221,4771.6,3220.5,4771.6z"/>
			<path class="st2" d="M1172.1,4771.6c-2.6,0-5.3,0-8,0c-194.7,0-435.7-29.9-603.7-54.9c-186.1-27.8-327.3-56.1-328.8-56.4
				l-0.4-0.1l-2.2-0.4l-0.4-0.1c-1.9-0.3-3.8-0.6-5.7-0.8c-0.5,9.6-1,19.3-1.4,29c1,0.1,1.9,0.3,2.9,0.4l1.5,0.3
				c1.4,0.3,143.2,28.8,330.2,56.6c169.7,25.3,411.8,55.2,607.9,55.2c2.7,0,5.5,0,8.2,0c0.3,0,0.9,0,1.7,0
				c0.4-8.3,0.8-18.1,1.3-28.9c-0.2,0-0.3,0-0.5,0C1173.5,4771.5,1172.6,4771.6,1172.1,4771.6z"/>
			<path class="st2" d="M1239.2,4800.5c2.7,0,5.4,0,8.2,0c196.1,0,438.3-29.9,607.9-55.2c187-27.9,328.8-56.3,330.2-56.6l1.5-0.3
				c1-0.1,1.9-0.3,2.9-0.4c-0.5-9.7-0.9-19.4-1.4-29c-1.9,0.3-3.8,0.5-5.7,0.8l-0.4,0.1l-2.2,0.4l-0.4,0.1
				c-1.4,0.3-142.6,28.6-328.8,56.4c-167.9,25-409,54.9-603.7,54.9c-2.7,0-5.3,0-8,0c-0.5,0-1.4,0-2.7,0c-0.6,0-1.3,0-2.1,0
				c0.3,10.8,0.5,20.6,0.8,28.9C1237.4,4800.5,1238.7,4800.5,1239.2,4800.5z"/>
		</g>
		<g id="Color_2_00000137831376067979490650000001291586616864401288_">
			<path class="st2" d="M2715.6,3084.8c20.7,0.4,41.4,1,62,1.3c12.4,0.2,24.7,0.4,37,0.6v-0.1c149.2,2.2,296.7,2.4,446.1,2.4
				c145.6,0,288-0.4,433.1-2.5c12.3-0.2,26-0.3,38.4-0.5l0,0c20.1-0.3,40.3-0.7,60.6-1.1l0,0c57.7-1.2,116.6-2.9,175.9-4.8
				c0.7,0,6.2-0.4,14.7-0.9l0,0c0.3-4.7,0.6-9.3,0.8-13.8c0-0.4,0-0.8,0.1-1.2c0.2-3.1,0.3-6.1,0.4-9.1c0.1-2.3,0.2-4.6,0.2-6.9
				c0-1.3,0.1-2.5,0.1-3.7c0.1-3.7,0.1-7.3,0.1-10.8c0-10.7-0.3-20.6-0.7-29.6c-0.1-1.9-0.2-3.7-0.3-5.5c-0.4-6.4-0.9-12.3-1.4-17.7
				c-0.3-2.9-0.6-5.6-0.9-8.3c-1.6-13-3.4-22.9-4.8-29.4c-0.3-1.2-0.5-2.4-0.8-3.4c-0.8-3.5-3.9-5.9-7.5-5.8
				c-59.3,1.9-118.2,3.6-175.9,4.8l0,0c-20.3,0.4-40.5,0.8-60.6,1.1l0,0c-7.8,0.1-16,0.2-24.1,0.3c-3.2,0-6.5,0.1-9.6,0.1
				c-1.6,0-3.1,0-4.7,0.1c-145.1,2.1-287.5,2.5-433.1,2.5c-149.4,0-296.9-0.2-446.1-2.4v0.1c-12.3-0.2-24.6-0.4-37-0.6
				c-20.6-0.3-41.3-0.9-62-1.3c-57.6-1.2-115.6-2.7-174.1-4.6c-4.5-0.2-8.6,2.9-9.6,7.4c-0.2,0.9-0.4,2-0.7,3.1
				c-0.5,2.6-1.1,5.6-1.7,9c0,0.3-0.1,0.5-0.1,0.8c-0.1,0.5-0.2,1-0.3,1.5c-0.1,0.4-0.1,0.8-0.2,1.2c-0.1,0.5-0.2,1.1-0.3,1.6
				c-0.1,0.4-0.1,0.8-0.2,1.3c-0.1,0.8-0.3,1.7-0.4,2.6c0,0.2-0.1,0.3-0.1,0.5c-0.1,1-0.3,2-0.4,3c0,0.1,0,0.2,0,0.3
				c-0.2,1.8-0.5,3.6-0.7,5.5c-0.1,0.5-0.1,1-0.2,1.5c-0.1,1-0.2,2.1-0.3,3.1c0,0.2,0,0.4-0.1,0.6c-0.1,0.8-0.2,1.7-0.3,2.5
				c0,0.5-0.1,0.9-0.1,1.4c-0.4,3.6-0.7,7.5-1,11.5c0,0.4-0.1,0.8-0.1,1.2c-0.1,1.4-0.2,2.8-0.3,4.2c0,0.1,0,0.3,0,0.4
				c-0.1,1.2-0.1,2.5-0.2,3.8c0,0.3,0,0.6-0.1,0.9c-0.1,1.2-0.1,2.5-0.2,3.8c0,0.4,0,0.7-0.1,1.1c-0.1,1.6-0.1,3.2-0.2,4.8
				c0,0.1,0,0.2,0,0.3c0,1.4-0.1,2.9-0.1,4.3c0,0.3,0,0.6,0,0.9c0,1.4-0.1,2.9-0.1,4.3c0,0.4,0,0.7,0,1.1c0,1.7,0,3.5-0.1,5.2
				c0,0.1,0,0.2,0,0.3c0,1.6,0,3.3,0,5c0,0.2,0,0.5,0,0.7c0,1.8,0,3.6,0,5.4c0,0.1,0,0.3,0,0.4c0,3.7,0.1,7.5,0.3,11.4
				c0,0.3,0,0.5,0,0.8c0.1,2.1,0.1,4.1,0.2,6.2v0.1c0.2,4.1,0.4,8.2,0.6,12.4c0,0.2,0,0.4,0,0.6c0.1,2.1,0.3,4.1,0.4,6.3
				c0,0.2,0,0.3,0,0.5c9.6,0.6,15.7,1,16.4,1C2600,3082.1,2658,3083.6,2715.6,3084.8z"/>
			<path class="st2" d="M491.3,3080.1c59.3,1.9,118.2,3.6,175.9,4.8l0,0c20.3,0.4,40.5,0.8,60.6,1.1l0,0c12.4,0.2,26.1,0.3,38.4,0.5
				c145.1,2.1,287.5,2.5,433.1,2.5c149.4,0,296.9-0.2,446.1-2.4v0.1c12.3-0.2,24.6-0.4,37-0.6c20.6-0.3,41.3-0.9,62-1.3
				c57.6-1.2,115.6-2.7,174.1-4.6c0.7,0,6.8-0.4,16.4-1c0-0.2,0-0.3,0-0.5c0.1-2.1,0.3-4.2,0.4-6.3c0-0.2,0-0.4,0-0.6
				c0.3-4.2,0.5-8.4,0.6-12.4v-0.1c0.1-2.1,0.2-4.2,0.2-6.2c0-0.3,0-0.5,0-0.8c0.1-3.9,0.2-7.7,0.3-11.4c0-0.1,0-0.3,0-0.4
				c0-1.8,0-3.6,0-5.4c0-0.2,0-0.5,0-0.7c0-1.7,0-3.4,0-5c0-0.1,0-0.2,0-0.3c0-1.8,0-3.5-0.1-5.2c0-0.4,0-0.7,0-1.1
				c0-1.5-0.1-2.9-0.1-4.3c0-0.3,0-0.6,0-0.9c0-1.5-0.1-2.9-0.1-4.3c0-0.1,0-0.2,0-0.3c-0.1-1.6-0.1-3.2-0.2-4.8
				c0-0.4,0-0.7-0.1-1.1c-0.1-1.3-0.1-2.6-0.2-3.8c0-0.3,0-0.6-0.1-0.9c-0.1-1.3-0.1-2.6-0.2-3.8c0-0.1,0-0.3,0-0.4
				c-0.1-1.4-0.2-2.8-0.3-4.2c-0.1-0.8-0.1-1.5-0.2-2.2s-0.1-1.5-0.2-2.2c0-0.5-0.1-1-0.1-1.5c-0.2-2.4-0.4-4.7-0.6-6.9
				c0-0.5-0.1-0.9-0.1-1.4c-0.1-0.8-0.2-1.7-0.3-2.5c0-0.2,0-0.4-0.1-0.6c-0.1-1-0.2-2.1-0.3-3.1c-0.1-0.5-0.1-1-0.2-1.5
				c-0.2-1.9-0.5-3.7-0.7-5.5c0-0.1,0-0.2,0-0.3c-0.1-1-0.3-2-0.4-3c0-0.2-0.1-0.3-0.1-0.5c-0.1-0.9-0.3-1.7-0.4-2.6
				c-0.1-0.4-0.1-0.9-0.2-1.3c-0.1-0.5-0.2-1.1-0.3-1.6c-0.1-0.4-0.1-0.8-0.2-1.2c-0.1-0.5-0.2-1-0.3-1.5c0-0.3-0.1-0.5-0.1-0.8
				c-0.6-3.5-1.2-6.5-1.7-9c-0.2-1.1-0.5-2.2-0.7-3.1c-1-4.5-5.1-7.6-9.6-7.4c-58.5,1.9-116.5,3.4-174.1,4.6
				c-20.7,0.4-41.4,1-62,1.3c-12.4,0.2-24.7,0.4-37,0.6v-0.1c-149.2,2.2-296.7,2.4-446.1,2.4c-145.6,0-288-0.4-433.1-2.5
				c-1.5,0-3.1,0-4.7-0.1c-3.2,0-6.4-0.1-9.6-0.1c-8.1-0.1-16.4-0.2-24.1-0.3l0,0c-20.1-0.3-40.3-0.7-60.6-1.1l0,0
				c-57.7-1.2-116.6-2.9-175.9-4.8c-3.6-0.1-6.7,2.3-7.5,5.8c-0.2,1-0.5,2.1-0.7,3.4c-1.4,6.5-3.2,16.3-4.8,29.4
				c-0.3,2.6-0.6,5.4-0.9,8.3c-0.5,5.5-1,11.4-1.4,17.7c-0.1,1.8-0.2,3.6-0.3,5.5c-0.5,9-0.7,18.9-0.7,29.6c0,3.5,0,7.1,0.1,10.8
				c0,1.2,0.1,2.5,0.1,3.7c0.1,2.3,0.1,4.5,0.2,6.9c0.1,3,0.2,6,0.4,9.1c0,0.4,0,0.8,0.1,1.2c0.2,4.5,0.5,9.1,0.8,13.8
				C485,3079.8,490.6,3080.1,491.3,3080.1z"/>
		</g>
	</g>
	<g id="Color_3_00000178168965753630587730000012218454261845078926_">
		<path class="st1" d="M4238.3,4688c-1,0.1-1.9,0.3-2.9,0.4l-1.5,0.3c-1.4,0.3-143.2,28.8-330.2,56.6
			c-169.7,25.3-411.8,55.2-607.9,55.2c-2.7,0-5.5,0-8.2,0c-0.3,0-0.9,0-1.7,0c0.8,17.8,1.4,28.9,1.4,28.9
			c386.2,1.7,952.3-112.4,952.3-112.4C4239.2,4707.3,4238.8,4697.6,4238.3,4688z"/>
		<path class="st1" d="M3220.7,4800.5c-2.7,0-5.4,0-8.2,0c-196.1,0-438.3-29.9-607.9-55.2c-187-27.9-328.8-56.3-330.2-56.6l-1.5-0.3
			c-1-0.1-1.9-0.3-2.9-0.4c-0.5,9.7-0.9,19.4-1.4,29.1c0,0,568.7,114.1,955,112.4c0,0,0.4-11.2,0.9-29
			C3222.5,4800.5,3221.2,4800.5,3220.7,4800.5z"/>
		<path class="st1" d="M1164.1,4800.5c-196.1,0-438.3-29.9-607.9-55.2c-187-27.9-328.8-56.3-330.2-56.6l-1.5-0.3
			c-1-0.1-1.9-0.3-2.9-0.4c-0.5,9.6-0.9,19.3-1.3,29c0,0,566.1,114.1,952.3,112.4c0,0,0.6-11.2,1.4-28.9c-0.8,0-1.4,0-1.7,0
			C1169.6,4800.5,1166.8,4800.5,1164.1,4800.5z"/>
		<path class="st1" d="M2189.9,4688c-1,0.1-1.9,0.3-2.9,0.4l-1.5,0.3c-1.4,0.3-143.2,28.8-330.2,56.6
			c-169.7,25.3-411.8,55.2-607.9,55.2c-2.7,0-5.5,0-8.2,0c-0.5,0-1.8,0-3.9,0c0.5,17.8,0.9,29,0.9,29c386.3,1.7,955-112.4,955-112.4
			C2190.8,4707.3,2190.4,4697.6,2189.9,4688z"/>
	</g>
</g>
</svg>
