<?xml version="1.0" encoding="utf-8"?>
<!-- Generator: Adobe Illustrator 27.0.0, SVG Export Plug-In . SVG Version: 6.00 Build 0)  -->
<svg version="1.1" id="Layer_1" xmlns="http://www.w3.org/2000/svg" xmlns:xlink="http://www.w3.org/1999/xlink" x="0px" y="0px"
	 viewBox="0 0 4476.9 2784" style="enable-background:new 0 0 4476.9 2784;" xml:space="preserve">
<style type="text/css">
	.st0{fill:#66C0D1;}
	.st1{fill:#2D2B2A;}
	.st2{fill:#FCFCFC;}
</style>
<g id="Shorts">
	<g id="Color_3">
		<path class="st0" d="M1845.2,998.7c-24.8-116.3-53.2-231.7-85-346.2c-0.9-3.2-1.8-6.3-2.7-9.5c-10.2-36.7-34.1-119.8-52-184.8
			c-0.3-1-0.6-2.1-0.8-3.1c-0.6-2.1-1.2-4.2-1.7-6.3c-20.7,0.4-41.4,1-62,1.3c12.5,46.2,30,107.4,43.8,155.9
			c6.1,21.5,11.4,40.1,15,52.9c1.9,6.9,3.8,13.8,5.6,20.8c30.1,109.3,57.4,220.7,81.1,331.5c55.7,260,95.3,542.4,120.9,862.2
			l-716.3,270.1c-0.1,19.8,0.2,42.1,0.6,64.2l779.3-294.3C1947.6,1606,1909.8,1300.4,1845.2,998.7z"/>
		<path class="st0" d="M542.1,1011.3c25.2-117.8,54.4-236.2,86.8-352.1c3.6-12.8,8.8-31.4,15-52.9c13.8-48.6,31.2-110,43.7-156.2
			c-0.4,0-0.9,0-1.3,0c-20.1-0.3-40.3-0.7-60.6-1.1l0,0c-14.1,51.5-32.8,117.3-45.5,162c-3.6,12.7-6.7,23.7-9.1,32.2
			c-14.2,51-27.8,102.2-40.7,153.6c-11.7,46.5-22.7,93.1-33.3,139.8c-4.7,20.7-9.2,41.5-13.7,62.3c-2,9.4-4,18.9-6,28.3
			c-61,292.5-97.1,588.6-119.7,886.5l778.6,294l0,0c0.6-22,1-44,1-63.8l-1.1-0.4L421,1873.4C446.8,1553.7,486.5,1271.3,542.1,1011.3
			z"/>
		<path class="st0" d="M3893.6,998.7c-24.8-116.3-53.2-231.7-85-346.2c-0.9-3.2-1.8-6.3-2.7-9.5c-10.2-36.7-34.1-119.8-52-184.8
			c-0.3-1-0.6-2.1-0.8-3.1c-0.6-2.1-1.2-4.2-1.7-6.3c-20.7,0.4-41.4,1-62,1.3c12.5,46.2,30,107.4,43.8,155.9
			c6.1,21.5,11.4,40.1,15,52.9c1.9,6.9,3.8,13.8,5.6,20.8c30.1,109.3,57.4,220.7,81.1,331.5c55.7,260,95.3,542.4,120.9,862.2
			l-716.3,270.1c-0.1,19.8,0.2,42.1,0.6,64.2l779.3-294.3C3996,1606,3958.2,1300.4,3893.6,998.7z"/>
		<path class="st0" d="M2590.5,1011.3c25.2-117.8,54.4-236.2,86.8-352.1c3.6-12.8,8.8-31.4,15-52.9c13.8-48.6,31.2-110,43.7-156.2
			c-0.4,0-0.9,0-1.3,0c-20.1-0.3-40.3-0.7-60.6-1.1l0,0c-14.1,51.5-32.8,117.3-45.5,162c-3.6,12.7-6.7,23.7-9.1,32.2
			c-14.2,51-27.8,102.2-40.7,153.6c-11.7,46.5-22.7,93.1-33.3,139.8c-4.7,20.7-9.2,41.5-13.7,62.3c-2,9.4-4,18.9-6,28.3
			c-61,292.5-97.1,588.6-119.7,886.5l778.6,294l0,0c0.6-22,1-44,1-63.8l-1.1-0.4l-715.2-270.1
			C2495.2,1553.7,2534.9,1271.3,2590.5,1011.3z"/>
	</g>
	<g id="Color_2">
		<path class="st1" d="M477.5,1027.2c2-9.5,3.9-19,6-28.5c4.4-20.7,9-41.4,13.7-62.1c10.5-46.7,21.6-93.3,33.3-139.8
			c12.9-51.4,26.4-102.7,40.7-153.8c2.4-8.5,5.5-19.4,9.1-32c12.7-44.7,31.4-110.5,45.5-162c-57.7-1.2-116.6-2.9-175.9-4.8
			c-3.6-0.1-6.7,2.3-7.5,5.8c-3.7,16-12.6,63.8-7.2,139.4c0,0-202.4,445.1-256.3,1637.7c0,0,566.1,114.1,952.3,112.4
			c0,0,3.5-65.6,5.3-131.8l-778.6-294C380.4,1615.8,416.5,1319.7,477.5,1027.2z"/>
		<path class="st1" d="M1786.4,1011.3c-23.7-110.8-51-222.2-81.1-331.5c-1.9-6.9-3.8-13.7-5.7-20.6c-3.6-12.8-8.8-31.4-15-52.9
			c-13.8-48.6-31.2-109.9-43.7-156.1c-12.4,0.2-24.7,0.4-37,0.6c12.7,47.5,31.7,114.4,46.1,165.2l0.1,0.2
			c6.1,21.5,11.4,40,14.9,52.7c32.1,115.1,61.1,232.9,86.2,349.9c53.8,251.6,92.5,523.3,118.1,830.4h-0.1c0,0,0,0,0,0.1l-4.4,1.7
			l-670.3,253.1l-3.4,1.2c0,3.5,0,7,0,10.6c0,2.9,0,5.7-0.1,8.5c-0.1,6.2,0.1,12.4,0,19.2l716.3-270.1
			C1881.7,1553.7,1842.1,1271.3,1786.4,1011.3z"/>
		<path class="st1" d="M1893.4,589.4c5.2-73.1-2.9-120.2-6.8-137.7c-1-4.5-5.1-7.6-9.6-7.4c-58.5,1.9-116.5,3.4-174.1,4.6
			c0.6,2.1,1.1,4.2,1.7,6.3c0.3,1,0.6,2,0.8,3.1c17.9,65,41.8,148,52.1,184.8c0.9,3.2,1.8,6.3,2.6,9.5
			c31.7,114.5,60.2,229.9,85,346.2c64.6,301.7,102.4,607.3,125.7,914.8l-779.3,294.3c1,66.2,3.2,131.8,3.2,131.8
			c386.3,1.7,955-112.4,955-112.4C2095.8,1034.5,1893.4,589.4,1893.4,589.4z"/>
		<path class="st1" d="M465.6,1851.6l-6.4-2.4c24.1-289.6,59.9-547.7,109.1-787.2c3-14.5,6-28.9,9-43.2
			c25.1-117,54.1-234.8,86.2-349.9c3.5-12.7,8.8-31.2,14.9-52.7V616c13.8-48.7,31.7-112,44.4-158.9c0.6-2.1,1.2-4.3,1.7-6.4
			c-12.3-0.2-25.8-0.4-38.2-0.6l0,0c0.4,0,0.9,0,1.3,0c-12.5,46.2-29.9,107.6-43.7,156.2c-6.2,21.5-11.4,40.1-15,52.9
			c-32.4,115.9-61.6,234.3-86.8,352.1c-55.6,260-95.3,542.4-121,862.1l715.2,270.1l0.9,0.3c0-6.8,0-13.4-0.1-19.5
			c-0.1-6.4,0.3-12.5,0.3-18.9l-3.6-1.4L465.6,1851.6z"/>
		<path class="st1" d="M2525.9,1027.2c2-9.5,3.9-19,6-28.5c4.4-20.7,9-41.4,13.7-62.1c10.5-46.7,21.6-93.3,33.3-139.8
			c12.9-51.4,26.4-102.7,40.7-153.8c2.4-8.5,5.5-19.4,9.1-32c12.7-44.7,31.4-110.5,45.5-162c-57.7-1.2-116.6-2.9-175.9-4.8
			c-3.6-0.1-6.7,2.3-7.5,5.8c-3.7,16-12.6,63.8-7.2,139.4c0,0-202.4,445.1-256.3,1637.7c0,0,566.1,114.1,952.3,112.4
			c0,0,3.5-65.6,5.3-131.8l-778.6-294C2428.8,1615.8,2464.9,1319.7,2525.9,1027.2z"/>
		<path class="st1" d="M3834.8,1011.3c-23.7-110.8-51-222.2-81.1-331.5c-1.9-6.9-3.8-13.7-5.7-20.6c-3.6-12.8-8.8-31.4-15-52.9
			c-13.8-48.6-31.2-109.9-43.7-156.1c-12.4,0.2-24.7,0.4-37,0.6c12.7,47.5,31.7,114.4,46.1,165.2l0.1,0.2
			c6.1,21.5,11.4,40,14.9,52.7c32.1,115.1,61.1,232.9,86.2,349.9c53.8,251.6,92.5,523.3,118.1,830.4h-0.1c0,0,0,0,0,0.1l-4.4,1.7
			l-670.3,253.1l-3.4,1.2c0,3.5,0,7,0,10.6c0,2.9,0,5.7-0.1,8.5c-0.1,6.2,0.1,12.4,0,19.2l716.3-270.1
			C3930.1,1553.7,3890.5,1271.3,3834.8,1011.3z"/>
		<path class="st1" d="M3941.8,589.4c5.2-73.1-2.9-120.2-6.8-137.7c-1-4.5-5.1-7.6-9.6-7.4c-58.5,1.9-116.5,3.4-174.1,4.6
			c0.6,2.1,1.1,4.2,1.7,6.3c0.3,1,0.6,2,0.8,3.1c17.9,65,41.8,148,52.1,184.8c0.9,3.2,1.8,6.3,2.6,9.5
			c31.7,114.5,60.2,229.9,85,346.2c64.6,301.7,102.4,607.3,125.7,914.8l-779.3,294.3c1,66.2,3.2,131.8,3.2,131.8
			c386.3,1.7,955-112.4,955-112.4C4144.2,1034.5,3941.8,589.4,3941.8,589.4z"/>
		<path class="st1" d="M2514,1851.6l-6.4-2.4c24.1-289.6,59.9-547.7,109.1-787.2c3-14.5,6-28.9,9-43.2
			c25.1-117,54.1-234.8,86.2-349.9c3.5-12.7,8.8-31.2,14.9-52.7V616c13.8-48.7,31.7-112,44.4-158.9c0.6-2.1,1.2-4.3,1.7-6.4
			c-12.3-0.2-25.8-0.4-38.2-0.6l0,0c0.4,0,0.9,0,1.3,0c-12.5,46.2-29.9,107.6-43.7,156.2c-6.2,21.5-11.4,40.1-15,52.9
			c-32.4,115.9-61.6,234.3-86.8,352.1c-55.6,260-95.3,542.4-121,862.1l715.2,270.1l0.9,0.3c0-6.8,0-13.4-0.1-19.5
			c-0.1-6.4,0.3-12.5,0.3-18.9l-3.6-1.4L2514,1851.6z"/>
	</g>
	<g id="Color_1">
		<path class="st2" d="M1864.8,1851l4.4-1.7h0.1c-25.6-307.1-64.3-578.8-118.1-830.4c-25.1-117-54.1-234.8-86.2-349.9
			c-3.5-12.7-8.8-31.2-14.9-52.7l-0.1-0.2c-14.4-50.8-33.4-117.7-46.1-165.2v-0.1c-149.2,2.2-296.7,2.4-446.1,2.4
			c-145.6,0-288-0.4-433.1-2.5c-0.7,2.4-1.3,4.6-1.9,6.5c-12.7,47-30.6,110.3-44.4,158.9v0.2c-6.1,21.5-11.4,40-14.9,52.7
			c-32.1,115.1-61.1,232.9-86.2,349.9c-3.1,14.3-6.1,28.7-9,43.2c-49.1,239.5-84.9,497.6-109.1,787.2l6.4,2.4l668.2,252.4l3.6,1.4
			c0-17.1,0.3-34.7,0.7-51.9c0.7-34.3,1.8-68.6,3.1-103c1.4-36.2,3-72.4,5.2-108.6c1.8-29.2,3.7-58.4,7-87.5
			c1-8.5,1.9-24.3,3.6-32.8c0.7-3.7,1.7-8,7.5-8c3.4,0,6.5,1.7,7.3,4.4c2.2,7.4,2.5,17.3,3.5,25c3.6,27,4.4,55.5,6.1,82.6
			c2.3,35.5,4,71.1,5.5,106.7c1.4,35.1,2.6,70.3,3.4,105.5c0.5,22.4,0.7,45.1,0.8,67.5l3.4-1.2L1864.8,1851z"/>
		<path class="st2" d="M3913.2,1851l4.4-1.7h0.1c-25.6-307.1-64.3-578.8-118.1-830.4c-25.1-117-54.1-234.8-86.2-349.9
			c-3.5-12.7-8.8-31.2-14.9-52.7l-0.1-0.2c-14.4-50.8-33.4-117.7-46.1-165.2v-0.1c-149.2,2.2-296.7,2.4-446.1,2.4
			c-145.6,0-288-0.4-433.1-2.5c-0.7,2.4-1.3,4.6-1.9,6.5c-12.7,47-30.6,110.3-44.4,158.9v0.2c-6.1,21.5-11.4,40-14.9,52.7
			c-32.1,115.1-61.1,232.9-86.2,349.9c-3.1,14.3-6.1,28.7-9,43.2c-49.1,239.5-84.9,497.6-109.1,787.2l6.4,2.4l668.2,252.4l3.6,1.4
			c0-17.1,0.3-34.7,0.7-51.9c0.7-34.3,1.8-68.6,3.1-103c1.4-36.2,3-72.4,5.2-108.6c1.8-29.2,3.7-58.4,7-87.5
			c1-8.5,1.9-24.3,3.6-32.8c0.7-3.7,1.7-8,7.5-8c3.4,0,6.5,1.7,7.3,4.4c2.2,7.4,2.5,17.3,3.5,25c3.6,27,4.4,55.5,6.1,82.6
			c2.3,35.5,4,71.1,5.5,106.7c1.4,35.1,2.6,70.3,3.4,105.5c0.5,22.4,0.7,45.1,0.8,67.5l3.4-1.2L3913.2,1851z"/>
	</g>
</g>
</svg>
