<?xml version="1.0" encoding="utf-8"?>
<!-- Generator: Adobe Illustrator 28.0.0, SVG Export Plug-In . SVG Version: 6.00 Build 0)  -->
<svg version="1.1" id="Layer_1" xmlns="http://www.w3.org/2000/svg" xmlns:xlink="http://www.w3.org/1999/xlink" x="0px" y="0px"
	 viewBox="0 0 4476.9 4992.7" style="enable-background:new 0 0 4476.9 4992.7;" xml:space="preserve">
<style type="text/css">
	.st0{fill:#F4F4F4;}
	.st1{fill:#1E223C;}
	.st2{fill:#90AEE2;}
	.st3{fill:#F0F0F0;stroke:#000000;stroke-miterlimit:10;}
</style>
<g id="Shorts">
	<g id="Color_3_00000150822498131090025920000001669039961693649080_">
		<g>
			<path class="st0" d="M624.1,4582.5L290.4,4729c21.3,3.9,47,8.5,76.1,13.6l339.2-148.9C677.9,4590.1,650.6,4586.3,624.1,4582.5z"
				/>
			<path class="st0" d="M309.2,4530.7l-81.4,35.7c-0.9,15.9-1.8,31.9-2.7,48.1l159.8-70.1C354.9,4539.1,329.4,4534.4,309.2,4530.7z"
				/>
			<path class="st0" d="M1705.7,4593.7l339,148.8c29.1-5,54.8-9.6,76.2-13.6l-333.6-146.4
				C1760.7,4586.3,1733.5,4590.1,1705.7,4593.7z"/>
			<path class="st0" d="M2026.5,4544.4l159.6,70.1c-0.9-16.2-1.8-32.2-2.7-48.1l-81.2-35.7C2082,4534.4,2056.4,4539.1,2026.5,4544.4
				z"/>
		</g>
		<g>
			<path class="st0" d="M3836,4582.5l333.7,146.5c-21.3,3.9-47,8.5-76.1,13.6l-339.2-148.9C3782.2,4590.1,3809.5,4586.3,3836,4582.5
				z"/>
			<path class="st0" d="M4150.9,4530.7l81.4,35.7c0.9,15.9,1.8,31.9,2.7,48.1l-159.8-70.1
				C4105.2,4539.1,4130.8,4534.4,4150.9,4530.7z"/>
			<path class="st0" d="M2754.4,4593.7l-339,148.8c-29.1-5-54.8-9.6-76.2-13.6l333.6-146.4
				C2699.4,4586.3,2726.6,4590.1,2754.4,4593.7z"/>
			<path class="st0" d="M2433.6,4544.4l-159.6,70.1c0.9-16.2,1.8-32.2,2.7-48.1l81.2-35.7
				C2378.1,4534.4,2403.7,4539.1,2433.6,4544.4z"/>
		</g>
	</g>
	<g id="Color_2_00000183234179659376108260000001934256543722589332_">
		<path class="st1" d="M384.9,4544.4l-159.8,70.1c-0.3,6.5-0.7,12.9-1,19.4l191.8-84.2C405.1,4547.9,394.8,4546.1,384.9,4544.4z"/>
		<path class="st1" d="M1163.9,4629.6c-140,0-306.5-16.1-458.2-35.9l-339.2,148.9c193.8,33.6,541.9,86.6,806,85.4
			c0,0,3.5-65.7,5.3-132.1c0.6-22,1-44,1-63.7c0-0.9,0-1.7,0-2.6h-7.2C1169,4629.6,1166.5,4629.6,1163.9,4629.6z"/>
		<path class="st1" d="M259.3,4521.1l-1.2-0.2c-9.2-1.8-18.2-3.5-27.2-5.3c-1.1,16.8-2.1,33.7-3.1,50.8l81.4-35.7
			C278.3,4524.9,260.3,4521.3,259.3,4521.1z"/>
		<path class="st1" d="M591.6,4577.8L260,4723.4c8.8,1.7,19,3.6,30.4,5.7l333.7-146.5C613.1,4581,602.3,4579.4,591.6,4577.8z"/>
		<path class="st1" d="M1995.5,4549.7l191.6,84.1c-0.3-6.5-0.7-13-1-19.4l-159.6-70.1C2016.6,4546.1,2006.2,4547.9,1995.5,4549.7z"
			/>
		<path class="st1" d="M1787.3,4582.5l333.6,146.4c11.4-2.1,21.6-4,30.4-5.6l-331.5-145.5C1809.1,4579.4,1798.2,4581,1787.3,4582.5z
			"/>
		<path class="st1" d="M2152,4521.1c-1,0.2-19,3.8-49.9,9.6l81.2,35.7c-1-17.1-2-34-3.1-50.7c-8.9,1.7-17.9,3.5-27.1,5.2
			L2152,4521.1z"/>
		<path class="st1" d="M1247.5,4629.6c-2.6,0-5.1,0-7.7,0h-7.4c0,0.9,0,1.8,0,2.7c-0.1,19.8,0.1,41.9,0.5,64
			c1,66.2,3.2,131.8,3.2,131.8c264.3,1.2,614.2-51.9,808.6-85.5l-339-148.8C1553.9,4613.5,1387.4,4629.6,1247.5,4629.6z"/>
		<path class="st1" d="M4075.2,4544.4l159.8,70.1c0.3,6.5,0.7,12.9,1,19.4l-191.8-84.2C4055,4547.9,4065.3,4546.1,4075.2,4544.4z"/>
		<path class="st1" d="M3296.2,4629.6c140,0,306.5-16.1,458.2-35.9l339.2,148.9c-193.8,33.6-541.9,86.6-806,85.4
			c0,0-3.5-65.7-5.3-132.1c-0.6-22-1-44-1-63.7c0-0.9,0-1.7,0-2.6h7.2C3291.1,4629.6,3293.6,4629.6,3296.2,4629.6z"/>
		<path class="st1" d="M4200.8,4521.1l1.2-0.2c9.2-1.8,18.2-3.5,27.2-5.3c1.1,16.8,2.1,33.7,3.1,50.8l-81.4-35.7
			C4181.8,4524.9,4199.8,4521.3,4200.8,4521.1z"/>
		<path class="st1" d="M3868.5,4577.8l331.6,145.6c-8.8,1.7-19,3.6-30.4,5.7L3836,4582.5C3847,4581,3857.8,4579.4,3868.5,4577.8z"/>
		<path class="st1" d="M2464.7,4549.7l-191.6,84.1c0.3-6.5,0.7-13,1-19.4l159.6-70.1C2443.5,4546.1,2453.9,4547.9,2464.7,4549.7z"/>
		<path class="st1" d="M2672.8,4582.5L2339.2,4729c-11.4-2.1-21.6-4-30.4-5.6l331.5-145.5C2651,4579.4,2661.9,4581,2672.8,4582.5z"
			/>
		<path class="st1" d="M2308.1,4521.1c1,0.2,19,3.8,49.9,9.6l-81.2,35.7c1-17.1,2-34,3.1-50.7c8.9,1.7,17.9,3.5,27.1,5.2
			L2308.1,4521.1z"/>
		<path class="st1" d="M3212.6,4629.6c2.6,0,5.1,0,7.7,0h7.4c0,0.9,0,1.8,0,2.7c0.1,19.8-0.1,41.9-0.5,64
			c-1,66.2-3.2,131.8-3.2,131.8c-264.3,1.2-614.2-51.9-808.6-85.5l339-148.8C2906.2,4613.5,3072.7,4629.6,3212.6,4629.6z"/>
	</g>
	<g id="Color_1_00000002350443186325080370000009125608690968890297_">
		<path class="st2" d="M2187.1,4633.9l-191.6-84.1c10.8-1.8,21.1-3.6,31-5.4c30-5.3,55.5-9.9,75.7-13.7c31-5.8,48.9-9.4,49.9-9.6
			l1.2-0.2c9.1-1.8,18.1-3.5,27.1-5.2c-66-1042.8-245.6-1437.7-245.6-1437.7c5.2-73.1-2.9-120.2-6.9-137.7c-1-4.5-5-7.6-9.6-7.4
			c-58.5,1.9-116.4,3.5-174,4.6c-20.7,0.4-41.3,0.8-61.9,1.1c-12.4,0.2-24.8,0.4-37.1,0.6c-149.2,2.2-296.7,2.4-446.1,2.4
			c-145.6,0-288-0.4-433.1-2.5c-12.4-0.2-24.7-0.4-37.1-0.6c-20.6-0.3-41.2-0.7-61.9-1.1c-57.9-1.2-116.4-2.7-175.9-4.6
			c-3.6-0.1-6.7,2.3-7.5,5.8c-3.7,16-12.6,63.8-7.2,139.4c0,0-179.6,394.9-245.5,1437.7c9,1.7,18,3.5,27.2,5.3l1.2,0.2
			c1,0.2,19,3.8,49.9,9.6c20.1,3.7,45.7,8.4,75.7,13.7c9.9,1.7,20.2,3.5,31,5.4l-191.8,84.2c-1.4,26.8-2.7,54.1-4,81.7
			c0,0,14.3,2.9,39.9,7.7l331.6-145.6c10.7,1.6,21.5,3.2,32.5,4.7c26.5,3.8,53.8,7.5,81.6,11.2c151.8,19.8,318.2,35.9,458.2,35.9
			c2.6,0,5.1,0,7.7,0h7.2c0-5.9,0-11.5-0.1-16.9c-0.1-6.4-0.1-12.8-0.1-19.2c0-17.2,0.4-34.3,0.7-51.4c0.7-34.3,1.8-68.6,3.1-102.9
			c1.4-36.2,3-72.4,5.2-108.6c1.8-29.2,3.7-58.4,7-87.5c1-8.6,1.9-24.3,3.6-32.8c0.7-3.7,1.7-8,7.5-8c3.4,0,6.5,1.7,7.3,4.4
			c2.2,7.4,2.5,17.3,3.5,25c3.6,27,4.4,55.5,6.1,82.6c2.3,35.5,4,71.1,5.5,106.7c1.4,35.1,2.6,70.3,3.4,105.5
			c0.5,22.4,1,44.8,1.1,67.2c0,3.5,0,7,0,10.6c0,2.9,0,5.7-0.1,8.6c-0.1,5.4-0.1,11-0.2,16.9h7.4c2.6,0,5.1,0,7.7,0
			c140,0,306.5-16.1,458.2-35.9c27.8-3.6,55-7.4,81.6-11.2c11-1.6,21.8-3.1,32.5-4.7l331.5,145.5c25.5-4.8,39.8-7.7,39.8-7.7
			C2189.8,4688,2188.5,4660.7,2187.1,4633.9z"/>
		<path class="st2" d="M2273,4633.9l191.6-84.1c-10.8-1.8-21.1-3.6-31-5.4c-30-5.3-55.5-9.9-75.7-13.7c-31-5.8-48.9-9.4-49.9-9.6
			l-1.2-0.2c-9.1-1.8-18.1-3.5-27.1-5.2c65.9-1042.8,245.5-1437.7,245.5-1437.7c-5.2-73.1,2.9-120.2,6.9-137.7c1-4.5,5-7.6,9.6-7.4
			c58.5,1.9,116.4,3.5,174,4.6c20.7,0.4,41.3,0.8,61.9,1.1c12.4,0.2,24.8,0.4,37.1,0.6c149.2,2.2,296.7,2.4,446.1,2.4
			c145.6,0,288-0.4,433.1-2.5c12.4-0.2,24.7-0.4,37.1-0.6c20.6-0.3,41.2-0.7,61.9-1.1c57.9-1.2,116.4-2.7,175.9-4.6
			c3.6-0.1,6.7,2.3,7.5,5.8c3.7,16,12.6,63.8,7.2,139.4c0,0,179.6,394.9,245.5,1437.7c-9,1.7-18,3.5-27.2,5.3l-1.2,0.2
			c-1,0.2-19,3.8-49.9,9.6c-20.1,3.7-45.7,8.4-75.7,13.7c-9.9,1.7-20.2,3.5-31,5.4l191.8,84.2c1.4,26.8,2.7,54.1,4,81.7
			c0,0-14.3,2.9-39.9,7.7l-331.6-145.6c-10.7,1.6-21.5,3.2-32.5,4.7c-26.5,3.8-53.8,7.5-81.6,11.2
			c-151.8,19.8-318.2,35.9-458.2,35.9c-2.6,0-5.1,0-7.7,0h-7.2c0-5.9,0-11.5,0.1-16.9c0.1-6.4,0.1-12.8,0.1-19.2
			c0-17.2-0.4-34.3-0.7-51.4c-0.7-34.3-1.8-68.6-3.1-102.9c-1.4-36.2-3-72.4-5.2-108.6c-1.8-29.2-3.7-58.4-7-87.5
			c-1-8.6-1.9-24.3-3.6-32.8c-0.7-3.7-1.7-8-7.5-8c-3.4,0-6.5,1.7-7.3,4.4c-2.2,7.4-2.5,17.3-3.5,25c-3.6,27-4.4,55.5-6.1,82.6
			c-2.3,35.5-4,71.1-5.5,106.7c-1.4,35.1-2.6,70.3-3.4,105.5c-0.5,22.4-1,44.8-1.1,67.2c0,3.5,0,7,0,10.6c0,2.9,0,5.7,0.1,8.6
			c0.1,5.4,0.1,11,0.2,16.9h-7.4c-2.6,0-5.1,0-7.7,0c-140,0-306.5-16.1-458.2-35.9c-27.8-3.6-55-7.4-81.6-11.2
			c-11-1.6-21.8-3.1-32.5-4.7l-331.5,145.5c-25.5-4.8-39.8-7.7-39.8-7.7C2270.3,4688,2271.6,4660.7,2273,4633.9z"/>
	</g>
</g>
<g id="Jersey">
	<g id="Color_3">
		<path class="st0" d="M1584.9,234c5.5-13,10.6-25.9,15.2-38.4c0.1-0.3,0.2-0.7,0.3-1c-5.3,14.3-11.1,28.9-17.5,43.9
			C1583.5,236.9,1584.2,235.5,1584.9,234z"/>
		<path class="st0" d="M833.1,254.3c0.2,0.4,0.4,0.8,0.6,1.2c-10.4-23.2-19.5-45.8-27.1-67.5v0.1c7.3,21,16,42.8,26,65.1
			L833.1,254.3z"/>
		<path class="st0" d="M806.4,187.4L806.4,187.4c3.4,0.4,6.6,0.8,6.6,0.8l5.4,0.7c1.8,0.2,3.8,0.5,6,0.7c1.5,0.2,3.1,0.4,4.8,0.6
			l10.5,1.2l11.6,1.3l4.3,0.5c4,0.5,8.3,1,13.4,1.5l10,1.1l10.4,1.1l11,1.1l11.3,1.2l5.8,0.6l11.7,1.2l12.2,1.2l19.5,1.8l6.6,0.6
			l6.7,0.6l6.6,0.6l6.8,0.6l6.6,0.6l6.8,0.6l13.6,1c4.3,0.4,8.6,0.7,12.9,1l8.1,0.5c2.1,0.2,7,0.5,7,0.5c2.2,0.2,7.2,0.5,7.2,0.5
			c2.1,0.1,7,0.5,7.1,0.5c2,0.1,7,0.5,7.1,0.5c2.1,0.1,7.1,0.4,7.1,0.4c2.1,0.1,7.1,0.4,7.1,0.4c2.1,0.1,7,0.4,7,0.4
			c2.1,0.1,7,0.4,7,0.4c2.2,0.1,7,0.4,7,0.4l13.5,0.6l7.2,0.3c2.2,0.1,7.1,0.3,7.1,0.3h0.3c2,0.1,3.9,0.2,5.9,0.2h0.8
			c1,0.1,2,0.1,3.1,0.1c1,0,2,0,3,0.1l7.8,0.2c1,0.1,2,0.1,3,0.1s1.9,0,3,0.1h0.9c2,0.1,3.9,0.1,5.9,0.1h0.9c1,0,2,0,2.9,0
			c1,0,2,0.1,3,0.1h0.8c1,0,2,0,2.9,0c1,0,2,0,3,0h0.7c1,0,2,0,3,0.1c1,0,1.9,0,2.9,0h47.8c2,0,3.9,0,5.9-0.1h0.7c0.9,0,1.9,0,2.9,0
			s2-0.1,3-0.1h0.8c1,0,2,0,3-0.1c1,0,1.9,0,2.9,0c0,0,4.8-0.1,6.8-0.2c0,0,4.9-0.1,6.8-0.2c0,0,4.9-0.1,6.9-0.2h0.9
			c1-0.1,2-0.1,3-0.1s2-0.1,3-0.1h0.8h0.3c2-0.1,3.9-0.2,5.9-0.2l7.6-0.3c2.2-0.1,4.4-0.2,6.5-0.3h0.2l13.6-0.6l7.6-0.4
			c2.1-0.1,7.1-0.4,7.1-0.4c2.1-0.1,7.2-0.4,7.2-0.4c2-0.1,7.1-0.4,7.1-0.4c2.1-0.1,7.1-0.4,7.1-0.4c2-0.1,7.1-0.5,7.1-0.5
			c2.1-0.1,7-0.5,7-0.5c2.1-0.1,7-0.5,7-0.5c2.1-0.1,7-0.5,7-0.5c2.2-0.2,6.7-0.5,6.8-0.5c2.3-0.2,4.5-0.3,6.8-0.5s4.5-0.3,6.8-0.5
			l7.2-0.6l20.7-1.8l6.7-0.6l13.2-1.2l13-1.2l6.2-0.6l6.1-0.6c4.1-0.4,8.2-0.8,12.2-1.2l6.2-0.6l11.8-1.2l11.3-1.2l10.9-1.1
			l10.4-1.1c3.3-0.3,9.5-1,9.6-1c4.7-0.5,9.2-1,13.5-1.5l8.5-1l11.5-1.3l9.4-1.1l7.8-0.9l5.4-0.7c0,0,2.8-0.3,5.9-0.7
			c0,0.1,0,0.3,0,0.4c0-0.1,0.1-0.3,0.1-0.5c-0.1,0.3-0.1,0.6-0.1,0.9l0.6,0.1c0,0,0,0,0-0.1c0.1-0.5,0.2-1.1,0.2-1.6
			c-132.1,15.4-265.1,29.2-398.5,29.2c-132.7,0-266.4-13.8-398.5-29.2c0.1,0.2,0.2,0.5,0.2,0.7c0,0,0,0,0.1,0
			C806.4,187.2,806.4,187.3,806.4,187.4z"/>
		<path class="st0" d="M806.4,187.4L806.4,187.4c0,0.1,0,0.1,0,0.2C806.4,187.5,806.4,187.4,806.4,187.4L806.4,187.4z"/>
		<path class="st0" d="M1602.2,187.6c-0.1,0.3-0.1,0.4-0.2,0.4l-0.1,0.5l-0.1,0.4c-0.3,1.2-0.6,2.5-0.9,3.7c-0.2,0.7-0.4,1.3-0.5,2
			c0.2-0.6,0.4-1.2,0.6-1.8c-0.1,0.3-0.2,0.6-0.3,0.9c0.7-1.9,1.3-3.7,2-5.6l-0.6-0.1C1602.1,187.9,1602.1,187.8,1602.2,187.6z"/>
		<path class="st0" d="M1582.8,238.4c-0.3,0.7-0.7,1.5-1,2.2c-0.9,1.9-1.7,3.8-2.6,5.6l-0.4,0.8l-2.1,4.5l-1.2,2.6l-2.7,5.6
			l-2.2,4.6l-1.5,3.2l-1.6,3.3l-1.7,3.4c-0.3,0.6-0.6,1.2-0.9,1.8s-0.5,1.1-0.8,1.7c-2.8,5.7-5.5,10.9-8.1,15.7l-0.2,0.4
			c-19.8,38.5-41.1,75.5-65.4,113c-38.1,59.1-78.7,111.6-120.7,156c-47.1,49.8-96.4,89.7-146.5,118.6l-16.6,8.3l-2.3,1l-2.3-1
			l-3.9-1.9l-12.8-6.4c-50.1-28.9-99.4-68.8-146.6-118.6c-2.5-2.7-5-5.3-7.5-8.1c52.8,57.2,109.9,104.7,167,133.7
			c1.5,0.8,4.8,2.4,6.3,3c154.3-74.3,305-281.8,378.7-453.6c-0.5,1-1,2-1.4,3C1582.1,240,1582.5,239.2,1582.8,238.4z"/>
		<path class="st0" d="M852.7,293.9l-0.1-0.4c-2.7-5.2-5.4-10.6-8.1-15.9c-1.9-3.8-3.7-7.3-5.4-10.8l-2.5-5.1
			c-0.3-0.6-0.5-1.1-0.8-1.7c-0.3-0.5-0.5-1.1-0.8-1.7c-0.5-1.1-1-2.1-1.5-3.1c-0.1-0.2-0.2-0.4-0.3-0.6
			C878.4,355.3,949.4,466,1030.5,554c-38.9-42.2-76.7-91.7-112.5-147.2C893.8,369.3,872.4,332.4,852.7,293.9z"/>
		<path class="st0" d="M1600.4,194.6c-0.1,0.3-0.2,0.7-0.3,1c0.2-0.6,0.5-1.2,0.7-1.9c0.1-0.3,0.2-0.6,0.3-0.9
			C1600.8,193.4,1600.6,194,1600.4,194.6z"/>
		<path class="st0" d="M1582.8,238.4c-0.3,0.8-0.7,1.6-1,2.4c0.5-1,1-2,1.4-3c0.5-1.3,1.1-2.5,1.6-3.8
			C1584.2,235.5,1583.5,236.9,1582.8,238.4z"/>
		<path class="st0" d="M806.4,187.4L806.4,187.4c0-0.1,0-0.2-0.1-0.3c0,0,0,0-0.1,0C806.3,187.2,806.3,187.3,806.4,187.4
			L806.4,187.4L806.4,187.4z"/>
		<path class="st0" d="M1602.2,188c0-0.3,0-0.6,0.1-0.9c-0.1,0.2-0.1,0.4-0.1,0.5c0,0.2-0.1,0.3-0.1,0.5l0.6,0.1v-0.1L1602.2,188z"
			/>
		<path class="st0" d="M894.3,476.8l-291.6,76.3l0.1,0.8c0.2,1.8,0.5,3.6,0.7,5.4l0.8,5.6c0.2,1.9,0.5,3.8,0.7,5.7l0.7,5.7
			c0.2,2,0.5,3.9,0.7,5.8l0.7,5.7c0.3,1.9,0.5,3.9,0.7,5.8c0,0.6,0.1,1.1,0.2,1.6l312.7-81.8C911.8,501.5,903,489.3,894.3,476.8z"/>
		<path class="st0" d="M920.7,513.4l0.3-0.1c-8.9-11.9-17.7-24.1-26.4-36.6l-0.3,0.1C903,489.3,911.8,501.5,920.7,513.4z"/>
		<path class="st0" d="M802.7,324.8L572.3,385l0.3,1.4c0,0.2,0.1,0.3,0.1,0.5c0.1,0.6,0.3,1.2,0.4,1.8c0.1,0.7,0.3,1.3,0.4,2l1,4.5
			c0.3,1.5,0.7,3,1,4.5l0.1,0.7c0.2,1,0.4,1.9,0.6,2.8c0,0.3,0.1,0.7,0.2,1c0,0.1,1,4.6,1,4.6c0.3,1.6,0.7,3.1,1,4.7l1,4.7l1.6,7.9
			l242.2-63.3C816.1,350.3,809.3,337.6,802.7,324.8z"/>
		<path class="st0" d="M823.1,362.8l0.4-0.1c-6.8-11.9-13.6-24.6-20.5-38l-0.3,0.1C809.3,337.6,816.1,350.3,823.1,362.8z"/>
		<polygon class="st0" points="572.3,385 802.7,324.8 802.7,324.8 		"/>
		<polygon class="st0" points="803,324.7 802.7,324.8 802.7,324.8 		"/>
		<path class="st0" d="M1489.5,512.3l313,81.9c0-0.1,0-0.3,0-0.4c0.2-1.9,0.5-3.9,0.7-5.8l0.7-5.7c0.2-2,0.5-3.9,0.7-5.8l0.7-5.7
			c0.2-1.9,0.4-3.8,0.7-5.7l0.8-5.6c0.2-1.8,0.5-3.6,0.7-5.4l0.2-1.8l-292-76.4C1507.1,488.3,1498.3,500.5,1489.5,512.3z"/>
		<path class="st0" d="M1489.5,512.3c8.8-11.8,17.6-23.9,26.3-36.4l-0.3-0.1c-8.6,12.4-17.4,24.5-26.2,36.4L1489.5,512.3z"/>
		<path class="st0" d="M1802.5,594.2l-313-81.9c-0.1,0.1-0.1,0.2-0.2,0.2l313.1,82C1802.4,594.4,1802.4,594.3,1802.5,594.2z"/>
		<path class="st0" d="M1489.2,512.2c8.8-11.8,17.6-23.9,26.2-36.4h-0.1c-8.7,12.5-17.5,24.7-26.4,36.6l0.4,0.1
			c0.1-0.1,0.1-0.2,0.2-0.2L1489.2,512.2z"/>
		<path class="st0" d="M1586.9,361.7l242.6,63.5l1.4-6.8l1-4.7c0.3-1.6,0.7-3.1,1-4.7c0,0,1-4.4,1-4.6c0-0.3,0.1-0.7,0.2-1
			c0.2-1,0.4-1.9,0.6-2.8l0.1-0.7c0.3-1.5,0.7-3,1-4.5l1-4.5c0.1-0.7,0.2-1.3,0.4-2c0.1-0.6,0.3-1.2,0.4-1.8c0-0.2,0.1-0.3,0.1-0.5
			l0.5-2.3l-231.1-60.4C1600.6,336.7,1593.8,349.2,1586.9,361.7z"/>
		<path class="st0" d="M1586.9,361.7c6.9-12.5,13.7-25,20.3-37.8l-0.4-0.1c-1.1,2-2.1,4-3.2,6c-5.6,10.7-11.3,21.2-17.1,31.8
			L1586.9,361.7z"/>
		<path class="st0" d="M1829.5,425.2l-242.6-63.5c0,0.1-0.1,0.1-0.1,0.2l242.7,63.5V425.2z"/>
		<path class="st0" d="M1586.5,361.6c5.8-10.5,11.5-21.1,17.1-31.8c-5.7,10.7-11.4,21.3-17.3,32l0.5,0.1c0-0.1,0.1-0.1,0.1-0.2
			L1586.5,361.6z"/>
	</g>
	<g id="Color_2">
		<path class="st1" d="M793.2,130.7l0.1,0.1c1.5,8,3.1,16.2,4.9,24.3l0.1,0.4c2.1,9.4,4.4,19.8,7.4,31.5v0.1h0.4c0.1,0,0.1,0,0.1,0
			c-0.1-0.2-0.2-0.5-0.2-0.7c132.1,15.4,265.8,29.2,398.5,29.2c133.4,0,266.4-13.8,398.5-29.2c0,0.5-0.1,1.1-0.2,1.6c0,0,0,0,0,0.1
			h0.4c0-0.2,0.1-0.4,0.3-0.9c0.9-3.4,3.5-13.8,6.6-31.7h0.1c0,0,0,0,0-0.1l0.1-0.1l0.1-0.3c1.5-8.7,2.7-16.8,3.7-24.8l0.1-0.5
			l-0.5-0.1c-0.5-0.1-1-0.2-1.7-0.3h-0.1c-0.2,0-0.5-0.1-0.7-0.1s-0.4,0-0.6-0.1h-0.1h-0.2c-0.2,0-0.5-0.1-0.7-0.1s-0.4,0-0.7-0.1
			h-0.1l-0.6-0.1c-1.7-0.2-3.4-0.3-5-0.3h-2.3c-1,0-1.9,0-2.7,0.1h-2.5c-2.2,0.3-228.5,28.9-380.4,28.9h-21.6
			c-153.2,0-378.3-28.6-380.5-28.9h-1.8c-0.2,0-0.5,0-0.7,0c-0.3,0-0.6-0.1-1-0.1h-1.1c-1.1,0-2.3,0-3.7,0.1c-0.2,0-0.5,0-0.7,0.1
			c-0.2,0-0.4,0-0.6,0h-0.1c-1.4,0.1-3,0.3-4.6,0.5h-0.2h-0.1c-0.2,0-0.5,0.1-0.7,0.1s-0.5,0.1-0.7,0.1h-0.1l-0.6,0.1
			c-1,0.2-2,0.4-3,0.6c0,0-0.1,0-0.3,0.1h-0.1l0.1,0.3C793.2,130.6,793.2,130.6,793.2,130.7z M793.8,130.2l-0.3,0.1
			C793.6,130.2,793.7,130.2,793.8,130.2z"/>
		<path class="st1" d="M1251.2,733.2c-2.6,1.3-33.8,16.9-39.5,19.7C1218.2,749.7,1251.2,733.2,1251.2,733.2L1251.2,733.2z"/>
		<polygon class="st1" points="1210.9,753.3 1210.8,753.3 1210.6,753.4 1210.7,753.4 		"/>
		<path class="st1" d="M1515.9,475.7l-0.3-0.1c-0.1,0.1-0.1,0.2-0.2,0.2l0.3,0.1C1515.8,475.8,1515.8,475.7,1515.9,475.7z"/>
		<path class="st1" d="M1347.2,665.5L1347.2,665.5l0.2,0.2l0.1-0.1L1347.2,665.5z"/>
		<path class="st1" d="M1669.4,157.4c0.2,0.3,0.5,0.6,0.6,1c0.2,0.6,0.4,1.1,0.5,1.7h0.1c-0.1-0.6-0.3-1.1-0.5-1.6
			C1670,158.1,1669.7,157.8,1669.4,157.4c-0.2-0.3-0.6-0.7-1.1-1.1C1668.7,156.7,1669.1,157,1669.4,157.4z"/>
		<path class="st1" d="M1607.2,323.9c0-0.1,0.1-0.2,0.1-0.3l-0.4-0.1c-1.1,2.1-2.2,4.2-3.3,6.3c1.1-2,2.1-4,3.2-6L1607.2,323.9z"/>
		<path class="st1" d="M739.3,163.8c2.9,23.6,11.8,47.1,20.6,69.1c1.9,4.8,3.9,9.6,5.9,14.3c0.4,0.9,0.7,1.7,1.1,2.6
			c5.2,12.2,10.9,24.2,16.7,36.1c2.1,4.2,4.2,8.5,6.3,12.7c0.3,0.5,0.5,1.1,0.8,1.6c2.6,5.2,5.3,10.4,7.9,15.6c0,0.2,0,0.4,0.1,0.5
			c0.7,1.4,1.5,2.8,2.2,4.3c0.7,1.4,1.4,2.8,2.1,4.1c6.9,13.4,13.7,26.1,20.5,38l-0.4,0.1v0.1l0.3-0.1c2.9,5.2,5.8,10.3,8.6,15.3
			l-0.3,0.1l0,0l0.3-0.1c13,22.6,25.5,42.8,36.9,60.5c5,7.8,10.1,15.6,15.3,23.2c3.4,5,6.8,10,10.2,14.9
			c8.7,12.5,17.5,24.7,26.4,36.6l-0.3,0.1l0,0l0.4-0.1c24.5,32.5,49.7,62.5,75.5,89.8c21.8,23.1,44.1,44.2,66.9,63.3h-0.1
			c31,26.1,62.6,48.4,94.7,66.7c0,0,35.3,17.6,40.1,20l0.5,0.3h0.1l5.7,2.9l0.4-0.2l0.1,0.1l0.2-0.1l-0.1-0.1l5.3-2.7
			c0.1,0,0.1,0,0.1,0l0.5-0.3c4.8-2.4,40.1-20,40.1-20c55.5-31.7,109.8-75.3,161.5-130c44.6-47,87.4-102.4,127.5-164.5
			c20.3-31.5,44-70.9,68.2-118c0.7-1.4,1.5-2.9,2.2-4.3c0.1-0.2,0.1-0.3,0.1-0.5c2.7-5.2,5.3-10.4,7.9-15.6c0.3-0.5,0.5-1.1,0.8-1.6
			c2.1-4.2,4.2-8.5,6.3-12.7c5.8-11.9,11.4-23.9,16.7-36.1c2.4-5.5,4.8-11.2,7-16.8c8.7-21.9,17.7-45.5,20.6-69.1
			c0.1-1.2,0.2-2.4,0.1-3.6c-0.1-0.7-0.3-1.4-0.6-2.1c-0.1-0.2-0.3-0.5-0.5-0.8c-0.8-1-1.8-1.6-2.9-2.5c-0.2-0.1-0.5-0.3-0.7-0.4
			c-0.3-0.2-0.6-0.3-0.9-0.5c-1.7-1.1-3.4-2.1-5.2-3.1c-2.1-1.2-4.2-2.4-6.4-3.6c-2.4-1.3-4.6-2.6-6.8-3.7l-2-1.1v-0.1l-0.3-0.2
			c-0.7-0.4-1.4-0.8-2.1-1.2s-1.4-0.7-2.1-1.2c-1.7-0.9-3.4-1.8-5.1-2.8c-0.1,0-0.1-0.1-0.2-0.1c-0.1-0.1-0.2-0.1-0.3-0.2
			c-6-3.3-12.6-5.6-19.6-7l-0.1,0.5c-1,8-2.2,16.1-3.7,24.8l-0.1,0.4h-0.1v0.1l-0.1,0.1c-3.1,17.9-5.8,28.2-6.6,31.6
			c-0.1,0.6-0.2,0.9-0.3,1h-0.1v0.1h-0.5c-0.7,1.8-1.3,3.7-2,5.6c-2.4,8.8-5.9,17.3-9.3,25.4l-0.2,0.6c0,0.3-0.8,2-1.8,4.3
			c-0.5,1.1-1.1,2.6-1.8,4.2c-1.4,3.1-2.9,6.3-4.4,9.6c-73.8,171.9-224.4,379.3-378.7,453.6c-1.5-0.6-4.8-2.2-6.3-3
			c-57.1-28.9-114.2-76.5-167-133.7c-0.2-0.3-0.5-0.5-0.7-0.8c-81.1-88-152-198.7-197.3-299.4c-0.1-0.2-0.2-0.4-0.3-0.6l-2.4-5
			l-1.2-2.6c-2.8-5.9-5.5-12-8.4-18.7c-1.5-3.3-2.5-5.7-3.1-7.2c-0.4-0.9-0.5-1.3-0.6-1.4l-0.2-0.6c-3.1-7.4-6.7-16.1-9.1-24.7
			c-0.1-0.4-0.2-0.7-0.3-1.1c-0.1-0.5-0.3-0.9-0.4-1.4c-0.2-0.7-0.4-1.4-0.5-2.1l-0.2-0.9c0-0.2-0.1-0.5-0.1-0.7l0,0
			c0,0,0-0.1-0.1-0.2H806h-0.4l-0.1-0.3l0,0l-0.1-0.4c-3-11.7-5.3-22-7.4-31.5l-0.1-0.4c-1.8-8-3.4-16.2-4.9-24.1l-0.2-0.4l0.1-0.1
			V130l0.2-0.1c-0.3,0.1-0.9,0.2-0.9,0.2c-13.4,2.8-23.7,10.5-35.7,16.7c-1.1,0.6-2.1,1.2-3.2,1.8c-1.1,0.6-2.1,1.2-3.2,1.8L749,151
			c-1.4,0.8-2.8,1.6-4,2.5c-0.4,0.3-0.9,0.6-1.4,0.8c-1.3,0.8-2.7,1.5-3.7,2.9c-0.2,0.3-0.4,0.6-0.5,0.9c-0.3,0.7-0.5,1.5-0.6,2.3
			l0,0h0.1C739,161.5,739.2,162.7,739.3,163.8z"/>
		<path class="st1" d="M1578.3,377l-0.4-0.1c-0.1,0.1-0.1,0.2-0.2,0.3l0.4,0.1C1578.1,377.2,1578.2,377.1,1578.3,377z"/>
		<path class="st1" d="M1591.3,218.9l-0.2,0.6c-0.1,0.3-0.8,1.9-1.8,4.3c-0.5,1.2-1.1,2.6-1.8,4.2c-0.9,2-1.7,4-2.6,6
			c-0.5,1.3-1.1,2.5-1.6,3.8c1.5-3.2,3-6.4,4.4-9.6c0.7-1.6,1.3-3.1,1.8-4.2c1-2.3,1.8-4,1.8-4.3l0.2-0.6c3.5-8.1,6.9-16.6,9.3-25.4
			c-0.2,0.6-0.4,1.2-0.7,1.9C1597.7,203.6,1594.5,211.4,1591.3,218.9z"/>
		<path class="st1" d="M793.2,130.7c0-0.1,0-0.1,0-0.2l-0.1-0.3l-0.1,0.1L793.2,130.7z"/>
		<path class="st1" d="M806.1,187.1h-0.4l0.1,0.3h0.4c0.1,0,0.1,0,0.1,0C806.3,187.3,806.2,187.2,806.1,187.1
			C806.2,187.1,806.2,187.1,806.1,187.1z"/>
		<path class="st1" d="M1610.2,155.5l0.1-0.1v-0.1L1610.2,155.5C1610.2,155.4,1610.2,155.4,1610.2,155.5z"/>
		<path class="st1" d="M1602.7,188.2h0.5v-0.1h-0.4C1602.8,188.1,1602.8,188.1,1602.7,188.2z"/>
		<path class="st1" d="M3926.3,224.2c-0.2,0-0.4,0-0.5,0.1l-0.2,0.1l-0.1,0.1c-39.1-16.7-140.2-59.7-207.2-88.1l-40.4-17.2
			c0-0.6-0.1-1.1-0.4-1.5c-0.4-0.6-0.9-1.1-1.5-1.5c-1.9-1.4-4.1-2.3-6.2-3.1l-0.4-0.2c-3-1.1-14.2-5.4-17.3-6.4
			c-0.3-0.1-0.7-0.2-1.1-0.3l-4-1.3l-0.3,0.2c0,0,0,0-0.1,0c-0.6-0.2-1.1-0.4-1.7-0.5c-0.8-0.2-1.5-0.5-2.3-0.8
			c-6.9-2.1-20-6.1-26-7.5l-0.5-0.1c-0.7-0.2-1.4-0.3-2-0.4c-1.5-0.3-2.9-0.4-4.2-0.4c-1.7,0-3.4,0.2-5.5,0.8
			c-0.2,0.1-19.3,7-53.5,15.1c-3.6,1-7,1.8-9.8,2.5c-1.3,0.4-2.7,0.7-4,1c-17.3,3.8-34.8,6.9-52,9.3h-0.2h-0.1
			c-7.5,1.1-13.7,1.9-19.9,2.5c-12.4,1.5-24.7,2.5-35.1,3.3c-23.2,1.5-46,1.9-67.1,2.2h-4.7c-13.9,0.1-28,0.2-41.7,0.2
			c-6.9,0-13.8,0-20.8,0.1c-0.4,0-1.7,0-3.7,0c-6.4,0.1-19.8,0.3-37.8,0.4c-18-0.1-31.4-0.3-37.8-0.4c-2,0-3.3,0-3.8,0
			c-6.9,0-13.8-0.1-20.7-0.1c-13.7,0-27.8-0.1-41.7-0.2h-4.7c-21.1-0.3-43.9-0.7-67.1-2.2c-11.6-0.9-23.4-2-35.1-3.3
			c-6.3-0.6-12.8-1.4-19.9-2.5h-0.1h-0.2c-17.5-2.4-34.9-5.5-52-9.3c-0.5-0.1-1.1-0.3-1.7-0.4c-0.8-0.2-1.6-0.4-2.5-0.6
			c-3.2-0.8-6.5-1.6-9.7-2.5c-34.2-8-53.3-15-53.6-15.1c-1.9-0.5-3.6-0.7-5.3-0.7c-1.3,0-2.7,0.1-4.3,0.4c-0.7,0.1-1.4,0.2-2.1,0.4
			l-0.5,0.1c-6,1.4-19.1,5.4-25.9,7.5c-1.7,0.5-3.3,1-5,1.6l-0.3,0.1l-0.5-0.3l-0.3,0.1c-0.5,0.1-0.9,0.3-1.3,0.5
			c-0.2,0.1-0.5,0.2-0.7,0.3c-0.3,0.1-0.7,0.2-1.1,0.3c-3,0.8-12.4,4.5-16.5,6.1l-0.9,0.3c-1.8,0.7-4.4,1.7-6.6,3.3
			c-0.6,0.4-1.7,1.3-1.9,2.4v0.1v0.4c0,0.2,0,0.5,0.1,0.7c-51.6,21.9-196.9,83.5-247.6,105.1c0,0,0,0-0.1,0l-0.1-0.1l-0.2-0.1
			c-0.2-0.1-0.3-0.1-0.5-0.1l-0.7,0.5c0.1,0.1,0.2,0.1,0.3,0.2c0.1,0,0.2,0.1,0.3,0.1c0.1,0.1,0.3,0.2,0.4,0.3
			c0.2,0.2,0.4,0.4,0.4,0.7l9.9,37.3c2.8,11.2,5.5,22.4,8.1,33.6c2.1,9.3,4.2,18.6,6.2,27.9c0,0.1,0,0.1,0,0.2
			c0.1,0.2,0.1,0.5,0.2,0.7c0.4,1.6,0.7,3.3,1,4.9c2.4,11.3,4.6,22.6,6.7,33.9c0,0.1,0,0.2,0,0.3c0.1,0.3,0.1,0.6,0.2,0.9
			c0.3,1.7,0.6,3.5,0.9,5.2c0.6,3.1,1.1,6.2,1.7,9.3c0.1,0.4,0.1,0.7,0.2,1.1c0.1,0.3,0.1,0.6,0.2,0.9c0,0.3,0.1,0.5,0.1,0.8
			c0.1,0.3,0.1,0.6,0.2,0.9c1,5.9,1.9,11.2,2.8,16.3c7.6,46.4,12.3,93.3,16.3,137.1c0.9,9.7,1.7,19.4,2.6,29.1
			c1,10.9,1.9,21.8,2.9,32.7c2.1,23.4,4.2,48.3,5.8,74.4h1211.2c1.5-26,3.6-50.9,5.8-74.2c1-10.9,2-21.8,2.9-32.7
			c0.9-9.7,1.7-19.4,2.6-29.1c4-43.8,8.7-90.7,16.3-137.1c0.8-5,1.7-10.4,2.8-16.1c0-0.1,0-0.1,0-0.2c0.1-0.3,0.1-0.6,0.2-0.9
			c0-0.3,0.1-0.5,0.1-0.8c0-0.2,0.1-0.4,0.1-0.6s0.1-0.3,0.1-0.5c0.1-0.3,0.1-0.6,0.2-0.9c0.5-3.1,1.1-6.2,1.7-9.3
			c0.3-1.7,0.6-3.5,0.9-5.2c0.1-0.4,0.1-0.7,0.2-1.1v-0.1c0.9-5.1,1.9-10.3,2.9-15.4c1.2-6.2,2.5-12.3,3.8-18.5
			c0.2-1,0.4-2.1,0.6-3.1c0.2-0.6,0.3-1.2,0.4-1.8c0.1-0.3,0.2-0.7,0.2-1c2-9.3,4-18.5,6.1-27.8c2.6-11.2,5.3-22.4,8.1-33.6
			l9.9-37.3c0.1-0.3,0.2-0.5,0.4-0.7c0.1,0,0.1-0.1,0.2-0.1c0.1-0.1,0.2-0.1,0.3-0.2c0.1-0.1,0.3-0.1,0.4-0.2L3926.3,224.2z"/>
		<path class="st1" d="M884,461.9l-283.7,74.3c0,0.2,0.1,0.5,0.1,0.7l0.8,5.5l0.8,5.6l0.7,5.1l291.6-76.3
			C890.8,471.9,887.4,466.9,884,461.9z"/>
		<path class="st1" d="M894.3,476.8l0.3-0.1c-3.4-4.9-6.8-9.9-10.2-14.9l-0.4,0.1C887.4,466.9,890.8,471.9,894.3,476.8z"/>
		<path class="st1" d="M608.4,599.4c0.2,1.8,0.4,3.7,0.6,5.5l0.1,0.8c0.2,1.8,0.4,3.6,0.6,5.4l0.6,5.8c0.2,2,0.4,3.9,0.6,5.9v0.5
			c0.2,1.8,0.3,3.6,0.5,5.4l0.5,5.9c0.2,2,0.3,3.9,0.5,5.9v0.4c0.2,1.9,0.3,3.7,0.5,5.6c0.1,1.7,0.3,3.5,0.4,5.3l0.1,0.7
			c0.2,2,0.4,4,0.5,6c0.1,1.9,0.3,3.9,0.4,5.9c0.1,2,0.3,4,0.4,6v0.4c0.2,1.8,0.3,3.7,0.4,5.6l0.4,6c0.1,2,0.2,4,0.3,6
			c0.1,1.9,0.2,3.8,0.3,5.7v0.3c0.1,2,0.2,3.9,0.3,5.9v0.1c0.1,2,0.2,4,0.3,6v1c0.1,1.7,0.1,3.3,0.2,5v0.2c0.1,1.9,0.1,3.9,0.2,5.8
			v0.4c0.1,1.9,0.2,3.8,0.2,5.7c0.1,2,0.2,4.1,0.2,6.1l0.1,6c0.1,1.3,0.1,2.7,0.1,4v2l0.1,6.1c0,1.4,0,2.7,0,4.1v2c0,2,0,4.1,0,6.1
			c0,1.9,0,4,0,6c0,1.9-0.1,4-0.1,6s-0.1,4-0.1,6v0.1c0,1.4,0,2.7,0,4.1L1063,666.5c-22.6-19.1-44.9-40.1-66.6-63.1
			c-25.7-27.1-51-57.2-75.7-90L608,595.2c0.1,0.7,0.2,1.4,0.2,2.2L608.4,599.4z"/>
		<path class="st1" d="M1063,666.5l0.4-0.1l0,0h0.1c-22.8-19.1-45.1-40.2-66.9-63.3c-25.8-27.3-51-57.3-75.5-89.8l-0.4,0.1
			c24.6,32.8,49.9,62.9,75.7,90C1018.1,626.4,1040.3,647.4,1063,666.5z"/>
		<path class="st1" d="M535.4,246.4c0.2,0.3,0.3,0.7,0.5,1.2c0,0.1,0.1,0.2,0.2,0.5c0.1,0.3,0.3,0.6,0.4,0.9
			c0.7,1.6,0.8,1.9,0.9,2.3l0.3,1.1c0.1,0.4,0.3,0.9,0.4,1.4l1.7,5.8l1,3.4c0.2,0.7,0.3,1.2,0.5,1.8l3.6,12.6
			c0.2,0.8,0.5,1.6,0.7,2.4c0.3,0.8,0.5,1.6,0.7,2.4l1.4,5.1l1.5,5.4l1.5,5.7l1.6,5.9c0.2,0.9,0.5,1.7,0.7,2.6l0.3,1.1
			c0.2,0.8,0.5,1.7,0.7,2.6l1.7,6.5l1.7,6.7l2.7,10.6c0.3,1.2,0.6,2.5,0.9,3.7l0.2,0.6c0.3,1,0.5,2.1,0.8,3.1l1.4,5.7l0.4,1.5v0.1
			l0.1,0.2c0.2,1.1,0.5,2.1,0.7,3.1l2.1,8.8c0.4,1.4,0.7,2.8,1,4.1l1,4.1l1,4.2c0.4,1.4,0.7,2.8,1,4.2c0.2,1.2,0.5,2.5,0.8,3.7
			l0.8,3.5l230.4-60.2c-0.7-1.3-1.4-2.7-2.1-4c-0.4-0.7-0.7-1.4-1.1-2.1c-0.4-0.8-0.7-1.5-1.1-2.2c-0.2-0.2-0.2-0.4-0.2-0.6
			c-2.6-5.2-5.3-10.4-7.8-15.5c-0.1-0.2-0.3-0.5-0.4-0.8c-0.1-0.2-0.3-0.5-0.4-0.7c-1.1-2.1-2.1-4.3-3.2-6.4c-1-2.1-2.1-4.2-3.1-6.3
			c-6.3-12.9-11.8-24.7-16.7-36.1c-0.2-0.4-0.4-0.9-0.6-1.3c-0.1-0.4-0.3-0.9-0.5-1.3l-1.4-3.3c-1.5-3.6-3-7.3-4.5-11
			c-9.2-23.2-17.7-46-20.6-69.1c0-0.2-0.1-0.5-0.1-0.9c0-0.2-0.1-0.5-0.1-0.8c0-0.5,0-0.9,0.2-1.3c0-0.1,0-0.2,0-0.3
			c0-0.2,0-0.3,0-0.4c-40.2,17.3-92.3,39.4-134.3,57.1c-29.1,12.3-54.2,22.9-68.6,29.1c-0.3-0.4-0.7-0.6-1.2-0.8
			c0.1,0.1,0.2,0.2,0.3,0.3C535.3,246.2,535.3,246.3,535.4,246.4z"/>
		<path class="st1" d="M739,161.1c-0.2,0.4-0.2,0.8-0.2,1.3c0,0.3,0.1,0.6,0.1,0.8c0,0.4,0.1,0.7,0.1,0.9
			c2.9,23.1,11.4,45.9,20.6,69.1c1.5,3.7,3,7.4,4.5,11l1.4,3.3c0.2,0.4,0.4,0.9,0.5,1.3c0.2,0.4,0.4,0.9,0.6,1.3
			c4.9,11.4,10.4,23.2,16.7,36.1c1,2.1,2.1,4.2,3.1,6.3c1.1,2.1,2.1,4.3,3.2,6.4c0.1,0.2,0.3,0.5,0.4,0.7c0.1,0.3,0.3,0.6,0.4,0.8
			c2.5,5.1,5.2,10.3,7.8,15.5c0,0.2,0,0.4,0.2,0.6c0.4,0.7,0.7,1.4,1.1,2.2c0.4,0.7,0.7,1.4,1.1,2.1c0.7,1.3,1.4,2.7,2.1,4l0.3-0.1
			c-0.7-1.3-1.4-2.7-2.1-4.1c-0.7-1.5-1.5-2.9-2.2-4.3c-0.1-0.1-0.1-0.3-0.1-0.5c-2.6-5.2-5.3-10.4-7.9-15.6
			c-0.3-0.5-0.5-1.1-0.8-1.6c-2.1-4.2-4.2-8.5-6.3-12.7c-5.8-11.9-11.5-23.9-16.7-36.1c-0.4-0.9-0.7-1.7-1.1-2.6
			c-2-4.7-4-9.5-5.9-14.3c-8.8-22-17.7-45.5-20.6-69.1c-0.1-1.1-0.3-2.3-0.2-3.4H739c0,0.1,0,0.2,0,0.4C739,160.9,739,161,739,161.1
			z"/>
		<path class="st1" d="M823.2,362.9L581,426.2l0.3,1.5c0.4,1.6,0.7,3.2,1,4.8c0.3,1.3,0.5,2.6,0.8,4l1.1,5.7l0.1,0.7l247.5-64.8
			C828.9,373.1,826,368,823.2,362.9z"/>
		<path class="st1" d="M832.1,378.1c-2.8-5-5.7-10.1-8.6-15.3l-0.3,0.1c2.9,5.1,5.7,10.2,8.7,15.3L832.1,378.1z"/>
		<path class="st1" d="M1828,432.7c0.3-1.6,0.7-3.2,1-4.8l0.5-2.5l-242.7-63.5c-2.8,5-5.6,10.1-8.5,15.1l247.9,64.9l1-5.2
			C1827.5,435.4,1827.7,434,1828,432.7z"/>
		<path class="st1" d="M1792.7,779.1c-0.1-2-0.1-4-0.1-6c-0.1-2-0.1-4-0.1-6s0-4,0-6s0-4.1,0-6.1v-2c0-1.4,0-2.7,0-4.1l0.1-6.1v-2
			c0.1-1.3,0.1-2.7,0.1-4l0.1-6c0.1-2.1,0.1-4.1,0.2-6.1c0.1-1.9,0.1-3.8,0.2-5.7v-0.4c0.1-1.9,0.1-3.9,0.2-5.8v-0.2
			c0.1-1.7,0.1-3.3,0.2-5v-1c0.1-2,0.2-4,0.3-6v-0.1c0.1-2,0.2-3.9,0.3-5.9v-0.3c0.1-1.9,0.2-3.8,0.3-5.7c0.1-2,0.2-4,0.3-6l0.4-6
			c0.2-1.8,0.3-3.7,0.4-5.6v-0.4c0.1-2,0.3-4,0.4-6c0.1-1.9,0.3-3.9,0.4-5.9c0.2-2,0.3-4,0.5-6l0.1-0.7c0.1-1.8,0.2-3.6,0.4-5.3
			c0.2-1.9,0.3-3.7,0.5-5.6v-0.4c0.1-1.9,0.3-3.9,0.5-5.9l0.5-5.9c0.1-1.8,0.3-3.6,0.5-5.4V623c0.2-2,0.4-3.9,0.6-5.9l0.6-5.8
			c0.2-1.8,0.4-3.6,0.6-5.4l0.1-0.8c0.2-1.8,0.4-3.7,0.6-5.5l0.2-2c0.1-1.1,0.2-2.1,0.3-3.1l-313.1-82c-24.8,33-50.3,63.4-76.3,90.9
			c-21.5,22.6-43.3,43.4-65.6,62.2l445.3,116.5c0-1,0-1.9,0-2.9V779.1z"/>
		<path class="st1" d="M1809.1,542.6l0.8-5.5c0.1-0.6,0.1-1.2,0.2-1.7L1525.9,461c-3.3,4.9-6.7,9.8-10,14.7l291.9,76.4l0.5-3.8
			L1809.1,542.6z"/>
		<path class="st1" d="M1670.5,161.1c0,0.2-0.1,0.5-0.1,0.7s0,0.4,0,0.6c0,0.4-0.1,0.7-0.1,0.9c0,0.1,0,0.1,0,0.2v0.2
			c-2.9,23.6-11.7,47.2-20.6,69.3c-2.2,5.6-4.6,11.3-7,16.8c-5.5,12.9-11.5,25.5-16.7,36.1c-1,2.1-2.1,4.2-3.1,6.3
			c-1.1,2.2-2.1,4.3-3.2,6.4c-0.2,0.3-0.3,0.5-0.4,0.8s-0.2,0.6-0.4,0.9c-1.2,2.6-2.6,5.2-3.9,7.8s-2.6,5.1-3.9,7.7
			c0,0.2,0,0.5-0.2,0.7c-0.2,0.5-0.5,1.1-0.8,1.6c-0.4,0.8-0.9,1.7-1.3,2.6c-0.5,1-1,1.9-1.5,2.9l231,60.4l0.5-2.3
			c0.2-1.2,0.5-2.5,0.8-3.7c0.3-1.4,0.7-2.8,1-4.2l1-4.2l1-4.1c0.4-1.4,0.7-2.7,1-4.1l2.1-8.8c0.2-1.1,0.4-2.1,0.7-3.1l0.1-0.2v-0.1
			l0.4-1.5l1.4-5.7c0.3-1,0.5-2.1,0.8-3.1l0.2-0.6c0.3-1.3,0.6-2.5,0.9-3.7l2.7-10.6l1.7-6.7l1.7-6.5c0.2-0.8,0.5-1.7,0.7-2.6
			l0.3-1.1c0.2-0.9,0.5-1.8,0.7-2.6l1.6-5.9l1.5-5.7l1.5-5.4l1.4-5.1c0.3-0.8,0.5-1.6,0.7-2.4s0.5-1.6,0.7-2.4l3.6-12.6
			c0.2-0.6,0.3-1.2,0.5-1.8l1-3.4l1.7-5.8c0.1-0.5,0.3-1,0.4-1.4l0.3-1.1c0.2-0.4,0.3-0.7,0.9-2.3c0.2-0.3,0.3-0.7,0.4-0.9
			c0.1-0.3,0.2-0.4,0.2-0.5c0.1-0.5,0.3-0.9,0.5-1.2c0.1-0.1,0.1-0.2,0.2-0.3c0.3-0.3,0.6-0.5,1-0.7h-0.1c-0.9,0-1.7,0.3-2.3,0.8
			c-11.8-5-30.6-13-52.3-22.1c-44.5-18.8-105.4-44.5-150.7-64.1l-0.1-0.1c0,0.2,0.1,0.4,0.1,0.6
			C1670.8,161.1,1670.8,161.4,1670.5,161.1z"/>
		<path class="st1" d="M1665.9,154.7l0.1,0.1c0.8,0.4,1.6,0.9,2.3,1.5C1667.6,155.7,1666.8,155.2,1665.9,154.7z"/>
		<path class="st1" d="M1668.9,157.3c0.2,0.3,0.4,0.6,0.5,0.8c0.3,0.7,0.5,1.4,0.6,2.1c0.1,1.2,0,2.4-0.1,3.6
			c-2.9,23.6-11.9,47.2-20.6,69.1c-2.2,5.6-4.6,11.3-7,16.8c-5.3,12.2-10.9,24.2-16.7,36.1c-2.1,4.2-4.2,8.5-6.3,12.7
			c-0.3,0.5-0.5,1.1-0.8,1.6c-2.6,5.2-5.2,10.4-7.9,15.6c0,0.2,0,0.3-0.1,0.5c-0.7,1.4-1.5,2.9-2.2,4.3
			c-24.2,47.1-47.9,86.5-68.2,118C1500,500.6,1457.2,556,1412.6,603c-51.7,54.7-106,98.3-161.5,130c0,0-35.3,17.6-40.1,20l-0.5,0.3
			c0,0,0,0-0.1,0l-5.3,2.7l0.1,0.1l5.4-2.7l0,0l0.2-0.1h0.1l0.2-0.1c0.2-0.1,0.4-0.2,0.6-0.3c5.7-2.9,36.9-18.4,39.5-19.7
			c32.5-18.5,64.5-41.2,95.8-67.6h0.1l0.1-0.1l0.2,0.1c22.2-18.8,44.1-39.5,65.6-62.2c26-27.5,51.5-57.9,76.3-90.9l-0.4-0.1
			c8.9-11.9,17.7-24.1,26.4-36.6h0.1c0.1-0.1,0.1-0.2,0.2-0.2l0.3,0.1c3.4-4.8,6.7-9.7,10-14.7l-0.4-0.1c4.9-7.3,9.7-14.6,14.5-22
			c13.3-20.6,25.8-41.1,37.6-61.7h0.1c0.1-0.1,0.1-0.2,0.2-0.3l0.4,0.1c2.9-5,5.7-10,8.5-15.1l-0.5-0.1c5.9-10.6,11.6-21.2,17.3-32
			c1.1-2.1,2.2-4.2,3.3-6.3l0.4,0.1c0.5-1,1-1.9,1.5-2.9c0.4-0.9,0.9-1.8,1.3-2.6c0.3-0.5,0.6-1.1,0.8-1.6c0.2-0.2,0.2-0.5,0.2-0.7
			c1.3-2.6,2.6-5.1,3.9-7.7s2.7-5.2,3.9-7.8c0.2-0.3,0.3-0.6,0.4-0.9s0.2-0.5,0.4-0.8c1.1-2.1,2.1-4.2,3.2-6.4
			c1-2.1,2.1-4.2,3.1-6.3c5.2-10.6,11.2-23.2,16.7-36.1c2.4-5.5,4.8-11.2,7-16.8c8.9-22.1,17.7-45.7,20.6-69.3v-0.2
			c0-0.1,0-0.1,0-0.2c0-0.2,0.1-0.5,0.1-0.9c0-0.2,0-0.4,0-0.6s0.1-0.5,0.1-0.7c0.3,0.3,0.3,0,0.2-0.4c0-0.2-0.1-0.4-0.1-0.6h-0.1
			c-0.1-0.6-0.3-1.1-0.5-1.7c-0.1-0.4-0.4-0.7-0.6-1c-0.3-0.4-0.7-0.7-1.1-1.1c-0.7-0.6-1.5-1.1-2.3-1.5
			C1667.1,155.7,1668.1,156.3,1668.9,157.3z"/>
		<path class="st1" d="M2417.8,1216.5c0.1-0.1,0.2-0.1,0.3-0.1s0.2-0.1,0.3-0.1c0.1-0.1,0.3-0.1,0.4-0.2c1.4-0.6,2.8-1.3,4.2-2
			c0.3-0.1,0.5-0.2,0.8-0.4c0.2-0.1,0.4-0.2,0.6-0.3c0.1,0,0.1-0.1,0.2-0.1c2.1-1,4.2-2,6.3-3.1c0.3-0.2,0.6-0.3,0.9-0.5l0,0
			c0.2-0.1,0.3-0.2,0.5-0.3c0.9-0.5,1.7-1,2.6-1.5c0.3-0.2,0.5-0.3,0.8-0.5c9.5-5.7,18.9-11.7,28-18.1c2.2-1.6,4.4-3.1,6.5-4.7
			c6.5-4.7,12.9-9.6,19.1-14.6c5.2-4.2,10.3-8.6,15.4-13c0.8-0.6,1.5-1.3,2.3-2c0.8-0.8,1.7-1.5,2.6-2.3c2.5-2.1,4.6-3.9,6.4-5.6
			c0.1-0.1,0.1-0.1,0.2-0.2c0.9-0.8,1.8-1.6,2.6-2.4c0.3-0.2,0.5-0.5,0.8-0.7c0.1-0.2,0.5-0.5,0.5-0.5c0.6-0.5,1.1-1,1.6-1.5
			l0.7-0.7c6.9-6.5,13.4-13,19.4-19.4c3.2-3.4,6.4-7,9.7-10.7c0.1-0.1,0.2-0.2,0.3-0.3c1.2-1.5,2.5-3,3.8-4.5
			c1.1-1.3,2.1-2.6,3.2-3.9l0.1-0.1c0.1-0.2,0.3-0.3,0.4-0.5c0.2-0.3,0.4-0.5,0.6-0.8c2.4-3,4.8-6.1,7.1-9.2
			c1.1-1.5,2.3-3.1,3.4-4.7c3.9-5.4,7.9-11.3,11.6-17.5c0.1-0.1,0.1-0.2,0.2-0.3c0.1-0.2,0.3-0.5,0.4-0.7c1.3-2.1,2.5-4.1,3.6-6.1
			c1.3-2.3,2.6-4.6,3.8-6.8c33.8-61.6,53.8-144.4,59.5-246.1c4.1-74.6-1.1-148-6.8-210c-1-10.9-1.9-21.8-2.9-32.7
			c-0.9-9.7-1.7-19.4-2.6-29.1c-4-43.8-8.7-90.7-16.3-137.1c-0.9-5.1-1.8-10.4-2.8-16.3c-0.1-0.3-0.1-0.6-0.2-0.9
			c0-0.3-0.1-0.5-0.1-0.8c-0.1-0.3-0.1-0.6-0.2-0.9l0,0l0,0c-0.1-0.4-0.1-0.7-0.2-1.1c-0.6-3.1-1.1-6.2-1.7-9.3l0,0
			c-0.3-1.7-0.6-3.5-0.9-5.2c-0.1-0.3-0.1-0.6-0.2-0.9l0,0c0-0.1,0-0.2,0-0.3c-2.1-11.3-4.3-22.6-6.7-33.9c-0.3-1.6-0.6-3.3-1-4.9
			c-0.1-0.2-0.1-0.5-0.2-0.7c0-0.1,0-0.1,0-0.2c-2-9.3-4.1-18.6-6.2-27.9c-2.6-11.2-5.3-22.4-8.1-33.6l-9.9-37.3
			c0-0.3-0.2-0.5-0.4-0.7c-0.1-0.1-0.3-0.2-0.4-0.3c-0.1,0-0.2-0.1-0.3-0.1c-0.1-0.1-0.2-0.1-0.3-0.2c-1.2-0.4-9.9,3.1-14.7,4.6
			c-2.9,0.9-6.3,2-8.6,2.8c-6.6,2.1-12.5,4.4-19.1,6.3c-2,0.6-2.9,0.9-4.9,1.5c-1.4,0.4-4.9,1.2-5.7,2.7c-1.3,2.5,2,12.5,4.2,20.4
			c35.3,128.4,49.4,262.2,56.6,395.1c0.8,15.4,1.5,30.7,2.1,46c2.3,57.3,2.8,114.9-5.1,171.7c-5.8,41.5-17.3,82.1-34,120.4
			c-15,34.3-33,65.8-59.8,91.9c-12,11.7-24.9,22.3-38.2,32.5c-13,9.9-26.3,18.6-40.1,27.3c-2.1,1.4-3.4,3.8-3.1,6.3
			c0.6,8.6,2,28.7,3.3,41c0.6,6.7,1.2,12.8,1.7,16.8c0.2,1.8,0.4,3.6,1.5,3.9c0.1,0,0.3,0,0.5,0l0,0
			C2417.8,1216.5,2417.8,1216.5,2417.8,1216.5z"/>
		<path class="st1" d="M4094.1,1148.6c-13.8-8.6-27.1-17.3-40.1-27.3c-13.2-10.2-26.2-20.8-38.2-32.5
			c-26.8-26.1-44.8-57.6-59.8-91.9c-16.8-38.3-28.2-78.9-34-120.4c-7.9-56.8-7.3-114.4-5.1-171.7c0.6-15.4,1.3-30.7,2.1-46
			c7.2-132.8,21.4-266.6,56.6-395.1c2.1-7.9,5.5-17.9,4.2-20.4c-0.8-1.5-4.2-2.3-5.7-2.7c-2-0.6-2.9-0.9-4.9-1.5
			c-6.6-1.9-12.6-4.2-19.1-6.3c-2.3-0.8-5.7-1.9-8.6-2.8c-4.7-1.5-13.5-5-14.7-4.6c-0.1,0.1-0.3,0.1-0.4,0.2
			c-0.1,0.1-0.2,0.1-0.3,0.2c-0.1,0-0.1,0.1-0.2,0.1c-0.2,0.2-0.3,0.4-0.4,0.7l-9.9,37.3c-2.8,11.2-5.5,22.4-8.1,33.6
			c-2.1,9.3-4.1,18.5-6.1,27.8c0,0.3-0.1,0.7-0.2,1c-0.1,0.6-0.2,1.2-0.4,1.8c-0.2,1-0.4,2.1-0.6,3.1c-1.3,6.2-2.6,12.3-3.8,18.5
			c-1,5.1-2,10.3-2.9,15.4v0.1c-0.1,0.4-0.1,0.7-0.2,1.1c-0.3,1.7-0.6,3.5-0.9,5.2c-0.6,3.1-1.2,6.2-1.7,9.3
			c-0.1,0.3-0.1,0.6-0.2,0.9c0,0.2-0.1,0.3-0.1,0.5s-0.1,0.4-0.1,0.6c0,0.3-0.1,0.5-0.1,0.8c-0.1,0.3-0.1,0.6-0.2,0.9
			c0,0.1,0,0.1,0,0.2c-1.1,5.7-2,11.1-2.8,16.1c-7.6,46.4-12.3,93.3-16.3,137.1c-0.9,9.7-1.7,19.4-2.6,29.1
			c-0.9,10.9-1.9,21.8-2.9,32.7c-5.7,61.9-11,135.3-6.8,210c5.7,101.7,25.7,184.5,59.5,246.1c1.2,2.2,2.5,4.5,3.8,6.8
			c0.9,1.4,1.7,2.9,2.6,4.3c0,0,0,0,0,0.1c0,0,0,0.1,0.1,0.1c0.3,0.5,0.7,1,1,1.6c5.9,9.5,12.2,18.8,19,27.7c1.8,2.4,3.6,4.7,5.5,7
			c1.7,2.1,3.3,4.5,5.3,6.4l0,0l0.1,0.1c3.7,4.3,7.3,8.3,10.9,12.1c6,6.4,12.5,12.9,19.4,19.4l0.7,0.7c0.6,0.5,1.1,1,1.6,1.5
			c0,0,0.3,0.3,0.5,0.5c0.3,0.2,0.5,0.5,0.8,0.7c0.6,0.6,1.2,1.2,1.9,1.8c0.1,0.1,0.1,0.1,0.2,0.2c2,1.8,4.3,3.8,7,6.2
			c0.9,0.8,1.7,1.5,2.6,2.3c0.8,0.6,1.5,1.3,2.3,2c5,4.4,10.2,8.8,15.4,13c6.3,5,12.6,9.9,19.1,14.6c2.1,1.6,4.3,3.2,6.5,4.7
			c9.1,6.4,18.5,12.4,28,18.1c1.2,0.7,2.3,1.4,3.5,2c0.1,0,0.3,0.1,0.4,0.2c1.1,0.6,2.3,1.2,3.4,1.8c0.2,0.1,0.4,0.2,0.6,0.3
			c1.1,0.5,2.3,1.1,3.4,1.6c0.2,0.1,0.4,0.2,0.6,0.3c1.8,0.8,3.6,1.6,5.4,2.5c0.1,0,0.2,0.1,0.3,0.1c0.1,0.1,0.2,0.1,0.3,0.1
			s0.2,0,0.3,0s0.1,0,0.2,0h0.1c1.1-0.2,1.3-2.1,1.5-3.9c0.5-4,1.1-10.1,1.7-16.8c1.3-12.3,2.7-32.4,3.3-41
			C4097.5,1152.4,4096.3,1149.9,4094.1,1148.6z"/>
		<path class="st1" d="M368.7,1230.3c0.3,0,0.6-0.1,0.8-0.1l0,0c1-0.2,1.3-0.3,2.2-0.6c0.6-0.2,1.1-0.3,2-0.6c0.7-0.2,1.3-0.4,2-0.6
			c0.4-0.1,0.8-0.2,1.2-0.4c2.6-0.8,5.4-1.8,8.8-3.1c1.8-0.7,3.7-1.4,5.5-2.2c1.8-0.7,3.6-1.5,5.4-2.2c1.8-0.8,3.6-1.5,5.4-2.3
			s3.5-1.6,5.2-2.4s3.5-1.6,5.2-2.5c1.7-0.8,3.4-1.7,5.1-2.5c1.7-0.9,3.3-1.7,5-2.6s3.3-1.8,4.9-2.7c1.6-0.9,3.2-1.8,4.9-2.8
			c1.6-0.9,3.2-1.9,4.8-2.9c1.6-1,3.1-1.9,4.7-2.9s3.1-2,4.7-3c1.5-1,3.1-2,4.6-3.1c1.5-1,3-2.1,4.5-3.1c1.5-1.1,2.9-2.1,4.4-3.2
			s2.9-2.2,4.3-3.3c1.3-1,2.6-2,3.8-3l0,0c0.1-0.1,0.3-0.2,0.4-0.3c0.8-0.6,1.6-1.3,2.5-2l2.5-2.1l2.6-2.2l0,0
			c0.3-0.2,0.5-0.5,0.8-0.7c1.4-1.2,2.7-2.3,4.1-3.5c1.3-1.2,2.7-2.4,4-3.6l0.6-0.5c1.1-1,2.2-2.1,3.3-3.1c1.3-1.2,2.6-2.5,3.8-3.7
			c1.3-1.3,2.6-2.5,3.8-3.8c1.3-1.3,2.5-2.6,3.7-3.9c1.2-1.2,2.3-2.5,3.5-3.7c0.1-0.1,0.1-0.1,0.2-0.2c1.2-1.3,2.4-2.6,3.6-4
			c0.5-0.6,1-1.1,1.5-1.7l1.2-1.3c0.3-0.3,0.6-0.7,0.8-1c1.2-1.4,2.3-2.7,3.4-4.1c1.1-1.4,2.2-2.7,3.4-4.2c1.1-1.4,2.2-2.8,3.3-4.2
			c1.1-1.4,2.2-2.8,3.2-4.3c1.1-1.4,2.1-2.9,3.2-4.3s2.1-2.9,3.1-4.4s2-2.9,3-4.4c0.2-0.3,0.4-0.6,0.6-0.8c0.8-1.2,1.6-2.4,2.4-3.6
			c1-1.5,2-3,2.9-4.5c0.5-0.7,0.9-1.5,1.4-2.2c0,0,1.2-1.9,1.5-2.4c0.9-1.5,1.9-3.1,2.8-4.6c0.9-1.5,1.8-3.1,2.7-4.7
			s1.8-3.1,2.7-4.7s1.7-3.2,2.6-4.8c0.9-1.6,1.7-3.2,2.5-4.8c0.8-1.6,1.7-3.2,2.5-4.8c0.8-1.6,1.6-3.2,2.4-4.9
			c0.8-1.6,1.6-3.3,2.3-4.9c0.2-0.3,0.3-0.7,0.5-1l0.5-1.1c0.5-1,0.9-2,1.4-2.9c0.8-1.6,1.5-3.3,2.2-4.9v-0.1c0.7-1.7,1.5-3.4,2.2-5
			c0.7-1.7,1.4-3.4,2.1-5.1c0.7-1.7,1.4-3.4,2.1-5.1c0.7-1.7,1.4-3.4,2-5.1c0.7-1.7,1.3-3.5,2-5.2s1.3-3.5,1.9-5.2s1.3-3.5,1.9-5.3
			v-0.1c0.6-1.7,1.2-3.5,1.8-5.2c0.6-1.8,1.2-3.6,1.7-5.3c0.6-1.8,1.1-3.6,1.7-5.4c0.6-1.8,1.1-3.6,1.6-5.4c0.5-1.8,1.1-3.6,1.6-5.4
			c0.5-1.8,1-3.6,1.5-5.5c0.5-1.8,1-3.6,1.5-5.5c0.5-1.8,1-3.7,1.4-5.5c0.5-1.9,0.9-3.7,1.4-5.6c0.5-1.9,0.9-3.7,1.3-5.6
			c0.4-1.7,0.8-3.3,1.2-5l0.1-0.6c0.4-1.9,0.8-3.7,1.3-5.6v-0.2c0.4-1.8,0.8-3.6,1.2-5.4c0.4-1.8,0.7-3.6,1.1-5.4v-0.2
			c0.4-1.9,0.8-3.8,1.1-5.7c0.4-1.9,0.7-3.8,1.1-5.7c0.3-1.9,0.7-3.8,1-5.7s0.6-3.7,1-5.6v-0.1c0.3-1.9,0.6-3.9,0.9-5.8
			c0.3-1.9,0.6-3.9,0.9-5.8c0.3-1.9,0.6-3.9,0.9-5.9c0.3-1.9,0.5-3.9,0.8-5.8c0.2-1.8,0.5-3.5,0.7-5.3l0.1-0.6
			c0.2-1.3,0.3-2.6,0.5-4l0.2-1.9c0.2-2,0.5-3.9,0.7-5.9c0.2-1.9,0.4-3.9,0.6-5.8v-0.1c0.1-1.3,0.3-2.7,0.4-4l0.2-2
			c0.2-1.9,0.4-3.9,0.6-5.8c0.2-2,0.4-4,0.5-5.9c0.2-2,0.3-4,0.5-6s0.3-4,0.4-6c0.1-2,0.3-4,0.4-6c0.1-2,0.3-4,0.4-6
			c0.1-2,0.2-4,0.3-6s0.2-4,0.3-6s0.2-4,0.3-6s0.2-4,0.2-6v-0.4c0.1-1.9,0.1-3.7,0.2-5.6c0.1-2,0.1-4,0.2-6s0.1-4,0.1-6v-0.1
			c0-2,0.1-4,0.1-6s0.1-4.1,0.1-6c0-2,0-4.1,0-6c0-2,0-4.1,0-6.1v-2c0-1.4,0-2.7,0-4.1l-0.1-6.1v-2c0-1.3,0-2.7-0.1-4l-0.1-6
			c0-2-0.1-4.1-0.2-6.1c0-1.9-0.1-3.8-0.2-5.7v-0.4c-0.1-1.9-0.1-3.9-0.2-5.8v-0.2c-0.1-1.7-0.1-3.3-0.2-5v-1c-0.1-2-0.2-4-0.3-6
			v-0.1c-0.1-2-0.2-3.9-0.3-5.9v-0.3c-0.1-1.9-0.2-3.8-0.3-5.7c-0.1-2-0.2-4-0.3-6l-0.4-6c-0.1-1.9-0.2-3.8-0.4-5.6v-0.4
			c-0.1-2-0.3-4-0.4-6c-0.1-2-0.3-4-0.4-5.9c-0.1-2-0.3-4-0.5-6l-0.1-0.7c-0.1-1.8-0.3-3.6-0.4-5.3c-0.2-1.9-0.3-3.7-0.5-5.6v-0.4
			c-0.2-2-0.3-3.9-0.5-5.9l-0.5-5.9c-0.2-1.8-0.3-3.6-0.5-5.4v-0.5c-0.2-2-0.4-3.9-0.6-5.9l-0.6-5.8c-0.2-1.8-0.4-3.6-0.6-5.4
			l-0.1-0.8c-0.2-1.8-0.4-3.7-0.6-5.5l-0.2-2c-0.1-1.3-0.3-2.5-0.4-3.8c-0.2-1.9-0.4-3.9-0.7-5.8l-0.7-5.7c-0.2-1.9-0.5-3.8-0.7-5.8
			l-0.7-5.7c-0.2-1.9-0.5-3.8-0.7-5.7l-0.8-5.6c-0.2-1.8-0.5-3.6-0.7-5.4L602,548l-0.8-5.6l-0.8-5.5c-0.3-1.9-0.5-3.7-0.8-5.6
			l-0.8-5.5l-0.8-5.5c-0.3-1.8-0.6-3.7-0.9-5.4c-0.3-1.8-0.6-3.6-0.9-5.4c-0.3-1.8-0.6-3.6-0.9-5.4c-0.3-1.6-0.5-3.3-0.8-4.9l-1-5.8
			l-0.9-5.3c-0.3-1.8-0.6-3.5-0.9-5.2c-0.3-1.7-0.6-3.4-0.9-5.1l-0.3-1.9c-0.2-1.2-0.4-2.3-0.6-3.5l-1-5.6c-0.3-1.5-0.6-3.1-0.8-4.6
			c-0.3-1.7-0.6-3.4-1-5.1l-1.2-6.4c-0.2-1.2-0.5-2.4-0.7-3.6l-1-4.9l-1.1-5.7c-0.3-1.4-0.5-2.7-0.8-4c-0.3-1.6-0.6-3.2-1-4.8
			l-1.9-9.5l-1-4.7c-0.3-1.6-0.7-3.1-1-4.7c0,0-1-4.5-1-4.6c-0.1-0.3-0.2-0.7-0.2-1l0,0c-0.2-0.9-0.4-1.8-0.6-2.8l-0.1-0.7
			c-0.3-1.5-0.7-3-1-4.5l-1-4.5c-0.1-0.7-0.3-1.3-0.4-2c-0.1-0.6-0.3-1.2-0.4-1.8c0-0.2-0.1-0.3-0.1-0.5l-1.1-4.9
			c-0.3-1.2-0.6-2.5-0.8-3.7c-0.3-1.4-0.6-2.8-1-4.2l-1-4.2l-1-4.1c-0.3-1.3-0.6-2.7-1-4.1l-2.1-8.8c-0.2-1-0.5-2-0.7-3.1l-0.1-0.2
			V349l-0.4-1.5l-1.4-5.7c-0.3-1-0.5-2.1-0.8-3.1l-0.2-0.6c-0.3-1.2-0.6-2.5-0.9-3.7l-2.7-10.6l-1.7-6.7l-1.7-6.5
			c-0.2-0.9-0.5-1.8-0.7-2.6l-0.3-1.1c-0.2-0.9-0.5-1.7-0.7-2.6l-1.6-5.9l-1.5-5.7l-1.5-5.4l-1.4-5.1c-0.2-0.8-0.4-1.6-0.7-2.4
			c-0.2-0.8-0.5-1.6-0.7-2.4l-3.6-12.6c-0.2-0.6-0.3-1.1-0.5-1.8l-1-3.4l-1.7-5.8c-0.1-0.5-0.3-1-0.4-1.4l-0.3-1.1
			c-0.1-0.4-0.2-0.7-0.9-2.3c-0.1-0.3-0.3-0.6-0.4-0.9c-0.1-0.3-0.2-0.4-0.2-0.5c-0.2-0.5-0.3-0.9-0.5-1.2c-0.1-0.1-0.1-0.2-0.2-0.3
			c-1.2-1.5-3.4-0.9-6-0.1L493,259.9c-0.6,0.2-1.1,0.4-1.6,0.6l-5.9,2.2c-3.2,1-4.7,2.3-3.7,5.5c8.3,26.9,43.7,145.7,64.8,289.3
			c21.5,146.1,32.4,348.7-37.6,484c0,0.2-0.3,0.5-0.4,0.7s-0.2,0.5-0.4,0.7c-0.3,0.5-0.5,1-0.8,1.5c-0.5,0.9-1,1.9-1.5,2.8
			c-1.5,2.7-3,5.4-4.6,8.1c-1.5,2.6-3.1,5.2-4.8,7.8c-1.6,2.5-3.2,5-4.9,7.5c-1.7,2.4-3.4,4.8-5.1,7.2c-1.7,2.3-3.5,4.6-5.3,6.9
			c-1.8,2.2-3.6,4.5-5.5,6.6c-1.8,2.2-3.7,4.3-5.7,6.4c-1.9,2.1-3.9,4.1-5.9,6.1s-4,3.9-6,5.9c-2,1.9-4.1,3.8-6.2,5.6
			c-2.1,1.8-4.2,3.6-6.4,5.4c-2.2,1.8-4.3,3.5-6.6,5.1c-2.2,1.7-4.5,3.3-6.8,4.9s-4.6,3.2-6.9,4.7s-4.7,3-7.1,4.4
			c-2.4,1.5-4.8,2.9-7.3,4.2c-2.5,1.4-5,2.7-7.5,4s-5.1,2.6-7.6,3.8c-2.6,1.2-5.2,2.5-7.8,3.6c-2.6,1.2-5.3,2.3-8,3.4
			c-1.8,0.7-3.5,1.4-5.3,2.1c-0.4,0.2-0.9,0.3-1.3,0.5c-0.9,0.3-1.8,0.6-2.6,0.9c-0.6,0.2-1.2,0.4-1.7,0.8c-1,0.4-2.1,0.8-3.1,1.2
			c-0.9,0.3-1.8,0.6-2.6,0.9c-0.7,0.2-1.4,0.5-1.9,0.9c-0.2,0.2-0.4,0.7-0.4,0.8c0,3.5,0.5,10.1,0.8,13.6c0.4,4.6,0.8,8.4,1.2,12.2
			c0.1,1.1,0.2,2.1,0.3,3.1c0.2,2.2,0.4,4.4,0.6,6.9c0.3,3.9,0.6,7.7,1.1,11.6c0.1,0.5,0.1,1,0.2,1.5c0.2,2.2,0.4,4.4,0.7,6.7
			c0.3,2.4,0.5,5.3,1.1,7.6c0,0.2,0.1,0.6,0.4,0.7c0.2,0,0.7-0.1,0.9-0.1c0,0,0,0,0.1,0C368.7,1230.3,368.7,1230.3,368.7,1230.3z"/>
		<path class="st1" d="M2048.8,1166.3c-0.5-0.5-1.3-0.8-1.9-0.9c-0.9-0.3-1.8-0.6-2.6-0.9c-1.1-0.4-2.1-0.8-3.1-1.2
			c-0.5-0.4-1.1-0.6-1.7-0.8c-0.9-0.3-1.8-0.6-2.6-0.9c-0.4-0.2-0.9-0.3-1.3-0.5c-1.8-0.7-3.6-1.4-5.3-2.1c-2.7-1.1-5.3-2.3-8-3.4
			c-2.6-1.2-5.2-2.4-7.8-3.6c-2.6-1.2-5.1-2.5-7.6-3.8s-5-2.7-7.5-4c-2.4-1.4-4.9-2.8-7.3-4.2c-2.4-1.4-4.8-2.9-7.1-4.4
			c-2.3-1.5-4.6-3.1-6.9-4.7s-4.5-3.2-6.8-4.9c-2.2-1.7-4.4-3.4-6.6-5.1s-4.3-3.5-6.4-5.4c-2.1-1.8-4.2-3.7-6.2-5.6
			c-2.1-1.9-4.1-3.9-6-5.9c-2-2-3.9-4-5.8-6.1s-3.8-4.2-5.7-6.4c-1.9-2.2-3.7-4.4-5.5-6.6c-1.8-2.3-3.6-4.6-5.3-6.9
			c-1.8-2.4-3.5-4.8-5.1-7.2c-1.7-2.5-3.3-5-4.9-7.5c-1.6-2.6-3.2-5.2-4.8-7.8c-1.6-2.7-3.1-5.4-4.6-8.1c-0.5-0.9-1-1.9-1.5-2.8
			c-0.3-0.5-0.5-1-0.8-1.5c-0.1-0.2-0.2-0.5-0.4-0.7c-0.1-0.2-0.4-0.5-0.4-0.7c-70-135.3-59.1-337.9-37.6-484
			c21.1-143.6,56.5-262.3,64.8-289.3c1-3.2-0.5-4.4-3.7-5.5l-5.9-2.2c-0.5-0.2-1-0.4-1.6-0.6l-36.2-13.9c-2.6-0.8-4.7-1.4-6,0.1
			c-0.1,0.1-0.1,0.2-0.2,0.3c-0.2,0.3-0.4,0.7-0.5,1.2c0,0.1-0.1,0.2-0.2,0.5c-0.1,0.2-0.2,0.6-0.4,0.9c-0.6,1.6-0.7,1.9-0.9,2.3
			l-0.3,1.1c-0.1,0.4-0.3,0.9-0.4,1.4l-1.7,5.8l-1,3.4c-0.2,0.6-0.3,1.2-0.5,1.8l-3.6,12.6c-0.2,0.8-0.5,1.6-0.7,2.4
			s-0.4,1.6-0.7,2.4l-1.4,5.1l-1.5,5.4l-1.5,5.7l-1.6,5.9c-0.2,0.8-0.5,1.7-0.7,2.6l-0.3,1.1c-0.2,0.9-0.5,1.8-0.7,2.6l-1.7,6.5
			l-1.7,6.7l-2.7,10.6c-0.3,1.2-0.6,2.4-0.9,3.7l-0.2,0.6c-0.3,1-0.5,2.1-0.8,3.1l-1.4,5.7l-0.4,1.5v0.1l-0.1,0.2
			c-0.3,1-0.5,2-0.7,3.1l-2.1,8.8c-0.3,1.4-0.6,2.7-1,4.1l-1,4.1l-1,4.2c-0.3,1.4-0.7,2.8-1,4.2c-0.3,1.2-0.6,2.5-0.8,3.7l-1.1,4.9
			c0,0.2-0.1,0.3-0.1,0.5c-0.1,0.6-0.3,1.2-0.4,1.8c-0.2,0.7-0.3,1.3-0.4,2l-1,4.5c-0.3,1.5-0.7,3-1,4.5l-0.1,0.7
			c-0.2,0.9-0.4,1.8-0.6,2.8l0,0c-0.1,0.3-0.2,0.7-0.2,1c0,0.2-1,4.6-1,4.6c-0.3,1.6-0.7,3.1-1,4.7l-1,4.7l-1.9,9.5
			c-0.3,1.6-0.7,3.2-1,4.8c-0.3,1.3-0.5,2.7-0.8,4l-1.1,5.7l-1,4.9c-0.2,1.2-0.5,2.4-0.7,3.6l-1.2,6.4c-0.3,1.7-0.6,3.4-1,5.1
			c-0.3,1.5-0.6,3-0.8,4.6l-1,5.6c-0.2,1.1-0.4,2.3-0.6,3.5l-0.3,1.9c-0.3,1.7-0.6,3.4-0.9,5.1s-0.6,3.5-0.9,5.2l-0.9,5.3l-1,5.8
			c-0.3,1.6-0.6,3.3-0.8,4.9c-0.3,1.8-0.6,3.6-0.9,5.4s-0.6,3.6-0.9,5.4c-0.3,1.8-0.6,3.6-0.9,5.4l-0.8,5.5l-0.8,5.5
			c-0.3,1.9-0.6,3.7-0.8,5.6l-0.8,5.5l-0.8,5.6l-0.8,5.9c-0.2,1.8-0.5,3.6-0.7,5.4l-0.8,5.6c-0.3,1.9-0.5,3.8-0.7,5.7l-0.7,5.7
			c-0.2,1.9-0.5,3.8-0.7,5.8l-0.7,5.7c-0.2,1.9-0.5,3.9-0.7,5.8c-0.1,1.2-0.3,2.5-0.4,3.8l-0.2,2c-0.2,1.8-0.4,3.7-0.6,5.5l-0.1,0.8
			c-0.2,1.8-0.4,3.6-0.6,5.4l-0.6,5.8c-0.2,2-0.4,3.9-0.6,5.9v0.5c-0.2,1.8-0.4,3.6-0.5,5.4l-0.5,5.9c-0.2,2-0.4,4-0.5,5.9v0.4
			c-0.2,1.9-0.3,3.7-0.5,5.6c-0.2,1.7-0.3,3.5-0.4,5.3l-0.1,0.7c-0.2,2-0.3,4-0.5,6c-0.1,2-0.3,4-0.4,5.9c-0.1,2-0.3,4-0.4,6v0.4
			c-0.1,1.9-0.2,3.8-0.4,5.6l-0.4,6c-0.1,2-0.2,4-0.3,6c-0.1,1.9-0.2,3.8-0.3,5.7v0.3c-0.1,2-0.2,3.9-0.3,5.9v0.1
			c-0.1,2-0.2,4-0.3,6v1c-0.1,1.7-0.1,3.3-0.2,5v0.2c-0.1,1.9-0.1,3.9-0.2,5.8v0.4c-0.1,1.9-0.1,3.8-0.2,5.7c-0.1,2-0.1,4-0.2,6.1
			l-0.1,6c0,1.3,0,2.7-0.1,4v2l-0.1,6.1c0,1.4,0,2.7,0,4.1v2c0,2,0,4.1,0,6.1s0,4,0,6s0,4,0.1,6c0,2,0,4,0.1,6v0.1c0,2,0.1,4,0.1,6
			s0.1,4,0.2,6c0.1,1.9,0.1,3.8,0.2,5.6v0.4c0.1,2,0.2,4,0.2,6c0.1,2,0.2,4,0.3,6c0.1,2,0.2,4,0.3,6c0.1,2,0.2,4,0.3,6
			c0.1,2,0.2,4,0.4,6c0.1,2,0.3,4,0.4,6s0.3,4,0.4,6c0.2,2,0.3,4,0.5,6s0.3,4,0.5,5.9c0.2,2,0.4,3.9,0.6,5.8l0.2,2
			c0.1,1.3,0.3,2.7,0.4,4v0.1c0.2,1.9,0.4,3.9,0.6,5.8c0.2,1.9,0.4,3.9,0.7,5.9l0.2,1.9c0.2,1.3,0.3,2.6,0.5,4l0.1,0.6
			c0.2,1.8,0.5,3.5,0.7,5.3c0.3,1.9,0.5,3.9,0.8,5.8c0.3,2,0.6,3.9,0.9,5.9c0.3,1.9,0.6,3.9,0.9,5.8c0.3,1.9,0.6,3.9,0.9,5.8v0.1
			c0.3,1.9,0.6,3.7,1,5.6c0.3,1.9,0.7,3.8,1,5.7c0.4,1.9,0.7,3.8,1.1,5.7s0.7,3.8,1.1,5.7v0.2c0.4,1.8,0.7,3.6,1.1,5.4
			c0.4,1.8,0.8,3.6,1.2,5.4v0.2c0.4,1.9,0.8,3.8,1.3,5.6l0.1,0.6c0.4,1.7,0.8,3.3,1.2,5c0.4,1.8,0.9,3.7,1.3,5.6
			c0.5,1.9,0.9,3.7,1.4,5.6c0.5,1.8,1,3.7,1.4,5.5c0.5,1.9,1,3.7,1.5,5.5s1,3.7,1.5,5.5s1,3.6,1.6,5.4c0.5,1.8,1.1,3.6,1.6,5.4
			c0.6,1.8,1.1,3.6,1.7,5.4c0.6,1.8,1.1,3.5,1.7,5.3c0.6,1.7,1.2,3.5,1.8,5.2v0.1c0.6,1.8,1.2,3.5,1.9,5.3s1.3,3.5,1.9,5.2
			s1.3,3.5,2,5.2s1.3,3.4,2,5.1s1.4,3.4,2.1,5.1s1.4,3.4,2.1,5.1s1.4,3.4,2.2,5v0.1c0.7,1.6,1.5,3.3,2.2,4.9c0.4,1,0.9,1.9,1.4,2.9
			l0.5,1.1c0.2,0.3,0.3,0.7,0.5,1c0.7,1.6,1.5,3.2,2.3,4.9c0.8,1.7,1.6,3.3,2.4,4.9s1.6,3.2,2.5,4.8c0.8,1.6,1.7,3.2,2.5,4.8
			c0.9,1.6,1.7,3.2,2.6,4.8c0.9,1.6,1.8,3.1,2.7,4.7c0.9,1.6,1.8,3.1,2.7,4.7c0.9,1.5,1.8,3.1,2.8,4.6c0.2,0.4,1.5,2.4,1.5,2.4
			c0.5,0.7,0.9,1.5,1.4,2.2c1,1.5,1.9,3,2.9,4.5c0.8,1.2,1.6,2.3,2.3,3.5c0,0,0,0,0,0.1c0.2,0.3,0.4,0.6,0.6,0.9c1,1.5,2,3,3,4.4
			c1,1.5,2.1,2.9,3.1,4.4s2.1,2.9,3.2,4.3s2.1,2.8,3.2,4.3c1.1,1.4,2.2,2.8,3.3,4.2c1.1,1.4,2.3,2.8,3.4,4.2
			c1.1,1.4,2.3,2.7,3.4,4.1c0.3,0.3,0.5,0.6,0.8,1l1.2,1.3c0.5,0.6,1,1.1,1.5,1.7c1.2,1.3,2.4,2.7,3.6,4c0.1,0.1,0.1,0.1,0.2,0.2
			c1.1,1.2,2.3,2.5,3.5,3.7c1.2,1.3,2.5,2.6,3.7,3.9c1.2,1.2,2.5,2.5,3.8,3.8c1.3,1.2,2.5,2.5,3.8,3.7c1.1,1,2.2,2.1,3.3,3.1
			l0.6,0.5c1.3,1.2,2.7,2.4,4,3.6s2.7,2.4,4.1,3.5c0.3,0.2,0.5,0.5,0.8,0.7l0,0l2.6,2.2l2.5,2.1c0.8,0.7,1.6,1.3,2.5,2
			c0.1,0.1,0.3,0.2,0.4,0.3c1.3,1,2.6,2,3.9,3c1.4,1.1,2.9,2.2,4.3,3.3c1.5,1.1,2.9,2.2,4.4,3.2c1.5,1.1,3,2.1,4.5,3.1
			s3,2.1,4.6,3.1c1.5,1,3.1,2,4.7,3s3.1,2,4.7,2.9c1.6,1,3.2,1.9,4.8,2.9c1.6,0.9,3.2,1.9,4.9,2.8c1.6,0.9,3.3,1.8,4.9,2.7
			c1.7,0.9,3.4,1.8,5,2.6c1.7,0.9,3.4,1.7,5.1,2.5s3.5,1.7,5.2,2.5c1.8,0.8,3.5,1.6,5.2,2.4c1.8,0.8,3.6,1.6,5.4,2.3
			c1.8,0.8,3.6,1.5,5.4,2.2c1.9,0.7,3.7,1.5,5.5,2.2c3.4,1.3,6.2,2.3,8.8,3.1c0.4,0.1,0.8,0.3,1.2,0.4c0.7,0.2,1.3,0.4,2,0.6
			c0.9,0.3,1.4,0.5,2,0.6c0.8,0.3,1.2,0.4,2.2,0.6l0,0c0.2,0.1,0.5,0.1,0.8,0.1h0.1l0,0c0.3,0.1,0.7,0.2,0.9,0.1
			c0.3-0.1,0.4-0.5,0.4-0.7c0.7-2.4,0.8-5.2,1.1-7.6c0.3-2.2,0.5-4.4,0.7-6.7c0.1-0.5,0.1-1,0.2-1.5c0.5-3.8,0.8-7.7,1.1-11.6
			c0.2-2.5,0.4-4.8,0.6-6.9c0.1-1,0.2-2,0.3-3.1c0.4-3.8,0.8-7.5,1.2-12.2c0.3-3.5,0.8-10.1,0.8-13.6
			C2049.2,1167,2049,1166.5,2048.8,1166.3z"/>
	</g>
	<g id="Color_1">
		<path class="st2" d="M4090.8,1216.6c-0.1,0-0.1,0-0.2,0s-0.2,0-0.3,0s-0.2,0-0.3-0.1c-0.1,0-0.2-0.1-0.3-0.1
			c-1.8-0.9-3.6-1.7-5.4-2.5c-0.2-0.1-0.4-0.2-0.6-0.3c-1.1-0.5-2.3-1.1-3.4-1.6c-0.2-0.1-0.4-0.2-0.6-0.3c-1.1-0.6-2.3-1.2-3.4-1.8
			c-0.1-0.1-0.3-0.2-0.4-0.2c-1.2-0.6-2.3-1.3-3.5-2c-9.5-5.7-18.9-11.7-28-18.1c-2.2-1.5-4.4-3.1-6.5-4.7
			c-6.5-4.7-12.8-9.6-19.1-14.6c-5.2-4.2-10.4-8.6-15.4-13c-0.8-0.7-1.5-1.4-2.3-2c-0.9-0.8-1.7-1.5-2.6-2.3c-2.7-2.4-5-4.4-7-6.2
			c-0.1-0.1-0.1-0.1-0.2-0.2c-0.7-0.6-1.3-1.2-1.9-1.8c-0.3-0.2-0.5-0.5-0.8-0.7c-0.2-0.2-0.5-0.5-0.5-0.5c-0.5-0.5-1-1-1.6-1.5
			l-0.7-0.7c-6.9-6.5-13.4-13-19.4-19.4c-3.6-3.8-7.2-7.8-10.9-12.1l-0.1-0.1c-2-1.9-3.6-4.3-5.3-6.4c-1.9-2.3-3.7-4.6-5.5-7
			c-6.8-8.9-13.1-18.2-19-27.7c-0.3-0.6-0.7-1.1-1-1.6c-0.1,0-0.1-0.1-0.1-0.1c0-0.1,0-0.1,0-0.1c-0.9-1.4-1.7-2.9-2.6-4.3
			c-1.3-2.3-2.6-4.6-3.8-6.8c-33.8-61.6-53.8-144.4-59.5-246.1c-2.6-46.5-1.5-92.4,1-135.4H2648.5c2.5,43,3.6,88.9,1,135.2
			c-5.7,101.7-25.7,184.5-59.5,246.1c-1.2,2.2-2.5,4.5-3.8,6.8c-1.1,2-2.3,4-3.6,6.1c-0.1,0.2-0.3,0.5-0.4,0.7
			c-0.1,0.1-0.1,0.2-0.2,0.3c-3.7,6.2-7.7,12.1-11.6,17.5c-1.1,1.6-2.3,3.2-3.4,4.7c-2.3,3.1-4.7,6.2-7.1,9.2
			c-0.2,0.3-0.4,0.5-0.6,0.8c-0.1,0.2-0.3,0.3-0.4,0.5l-0.1,0.1c-1.1,1.3-2.1,2.6-3.2,3.9c-1.3,1.5-2.6,3-3.8,4.5
			c-0.1,0.1-0.2,0.2-0.3,0.3c-3.3,3.7-6.5,7.3-9.7,10.7c-6,6.4-12.5,12.9-19.4,19.4l-0.7,0.7c-0.5,0.5-1,1-1.6,1.5
			c0,0-0.4,0.3-0.5,0.5c-0.3,0.2-0.5,0.5-0.8,0.7c-0.8,0.8-1.7,1.6-2.6,2.4c-0.1,0.1-0.1,0.1-0.2,0.2c-1.8,1.7-3.9,3.5-6.4,5.6
			c-0.9,0.8-1.8,1.5-2.6,2.3c-0.8,0.7-1.5,1.4-2.3,2c-5.1,4.4-10.2,8.8-15.4,13c-6.2,5-12.6,9.9-19.1,14.6c-2.1,1.6-4.3,3.1-6.5,4.7
			c-9.1,6.4-18.5,12.4-28,18.1c-0.3,0.2-0.5,0.3-0.8,0.5c-0.9,0.5-1.7,1-2.6,1.5c-0.2,0.1-0.3,0.2-0.5,0.3c-0.3,0.2-0.6,0.3-0.9,0.5
			c-2.1,1.1-4.2,2.1-6.3,3.1c-0.1,0-0.1,0.1-0.2,0.1c-0.2,0.1-0.4,0.2-0.6,0.3c-0.3,0.2-0.5,0.3-0.8,0.4c-1.4,0.7-2.8,1.4-4.2,2
			c-0.1,0.1-0.3,0.1-0.4,0.2c-0.1,0-0.2,0.1-0.3,0.1s-0.2,0-0.3,0.1c0,0,0,0-0.1-0.2c-0.2,0-0.4,0-0.5,0c-0.2-0.1-0.4-0.2-0.6-0.4
			c0.3,0.6,0.7,1,1.4,1.2h0.1h0.1c10.2,122,48.1,682,34.5,1003.9c-0.3,3.6-0.7,8.5-1.1,14.5c-2.2,28.4-6.3,81.3-11.3,141.1
			c-5,59.3-12.6,143.4-20.3,207.4c-0.3,3.2-0.7,6.3-1.1,9.4c-1.2,8.8,4.5,17.2,13.1,19.5c1.5,0.4,3.1,0.8,4.7,1.2
			c2.1,0.5,4.2,1.1,6.3,1.6c15,3.8,29.3,7,43.5,9.7c9.2,1.7,18.6,3.4,30.6,5.3l1,0.2v-0.3c11.6,1.8,23,3.3,33.8,4.6v0.1l0.8,0.1
			c7.8,0.9,15.9,1.7,25.9,2.5v0.2l0.8,0.1c202.7,13.1,422.7,19.8,654,19.8c393.8,0,687.5-19.6,690.4-19.8c1-0.1,2-0.1,3-0.2
			c0.9-0.1,1.8-0.1,2.7-0.2c8.2-0.7,16.7-1.5,25.2-2.4c11.1-1.2,22.5-2.9,36.2-5c9.4-1.4,19.5-3.1,30.9-5.3
			c16.2-3.2,30.6-6.4,44-9.7c3.4-0.8,7.3-1.7,11.2-2.8c8.7-2.3,14.5-10.7,13.3-19.6c-0.4-2.9-0.8-6-1.2-9.1v-0.3
			c-6-49.3-12.9-119.3-20.5-208c-6.3-74.3-11.2-137.8-12.5-156c-13.7-319.3,23.8-871.8,34.6-1002.7c0.1-0.1,0.2-0.2,0.4-0.4
			C4091,1216.5,4091,1216.6,4090.8,1216.6L4090.8,1216.6L4090.8,1216.6z"/>
		<path class="st2" d="M2648.5,673.9c0,0.1,0,0.3,0,0.4h1211.1c0-0.1,0-0.3,0-0.4H2648.5z"/>
		<path class="st2" d="M366.7,1231.3c0,0.5,0.3,1,0.8,1.2h0.1h0.1c0.1,0,0.3,0,0.5-0.1c0.1,0,0.3,0,0.3,0c0.1,0.1,0.2,0.1,0.3,0.1
			c8.3,95.3,49.7,679.6,35.8,1007.6c-0.9,12.3-5.8,77.6-12.4,155c-5,58.7-12.6,142.3-20.2,206.5l-0.3,2.4c-0.4,3.2-0.8,6.2-1.1,9.2
			c-0.9,7.4,3.8,14.5,11,16.3c4.4,1.2,8.9,2.3,13.2,3.4c13.7,3.5,28.4,6.7,43.5,9.6c11.2,2.2,21.2,3.9,30.5,5.3l0.7,0.1v-0.1
			c12.7,2,24.1,3.5,35,4.6c9.9,1.1,19.9,2.1,30.5,2.8c2.8,0.2,288.2,19.8,680.7,19.8c230.6,0,452.5-6.7,659.6-19.8h0.1
			c10.7-0.8,21.9-1.9,30.4-2.8c13.5-1.5,24.8-3,35.6-4.7c9.1-1.4,18.8-3.1,30.5-5.3c13.3-2.6,27.6-5.7,43.5-9.6
			c2.1-0.5,4.3-1.1,6.4-1.6c1.6-0.4,3.1-0.8,4.7-1.2c8.5-2.3,14-10.5,12.9-19.2c-0.4-3-0.8-6.2-1.1-9.4
			c-5.9-49.1-12.7-118.5-20.2-206.5c-6.6-77.4-11.5-142.7-12.4-155c-14.5-327.4,26.4-905.5,35.2-1007.4c0,0,0,0,0.1,0
			c0.5-0.2,0.8-0.7,0.8-1.1c0.1-0.2,0.1-0.5,0.2-0.7c-0.1,0-0.2-0.1-0.3-0.1h-0.1c-0.3,0-0.6,0-0.8-0.1c-1-0.2-1.4-0.3-2.2-0.6
			c-0.6-0.1-1.1-0.3-2-0.6c-0.7-0.2-1.3-0.4-2-0.6c-0.4-0.1-0.8-0.3-1.2-0.4c-2.6-0.8-5.4-1.8-8.8-3.1c-1.8-0.7-3.6-1.5-5.5-2.2
			c-1.8-0.7-3.6-1.4-5.4-2.2c-1.8-0.7-3.6-1.5-5.4-2.3c-1.7-0.8-3.4-1.6-5.2-2.4c-1.7-0.8-3.5-1.7-5.2-2.5s-3.4-1.6-5.1-2.5
			c-1.6-0.8-3.3-1.7-5-2.6c-1.6-0.9-3.3-1.8-4.9-2.7c-1.7-0.9-3.3-1.9-4.9-2.8c-1.6-1-3.2-1.9-4.8-2.9c-1.6-0.9-3.1-1.9-4.7-2.9
			s-3.2-2-4.7-3c-1.6-1-3.1-2.1-4.6-3.1s-3-2-4.5-3.1c-1.5-1-2.9-2.1-4.4-3.2c-1.4-1.1-2.9-2.2-4.3-3.3c-1.3-1-2.6-2-3.9-3
			c-0.1-0.1-0.3-0.2-0.4-0.3c-0.9-0.7-1.7-1.3-2.5-2l-2.5-2.1l-2.6-2.2c-0.3-0.2-0.5-0.5-0.8-0.7c-1.4-1.1-2.8-2.3-4.1-3.5
			s-2.7-2.4-4-3.6l-0.6-0.5c-1.1-1-2.2-2.1-3.3-3.1c-1.3-1.2-2.5-2.5-3.8-3.7c-1.3-1.3-2.6-2.6-3.8-3.8c-1.2-1.3-2.5-2.6-3.7-3.9
			c-1.2-1.2-2.4-2.5-3.5-3.7c-0.1-0.1-0.1-0.1-0.2-0.2c-1.2-1.3-2.4-2.7-3.6-4c-0.5-0.6-1-1.1-1.5-1.7l-1.2-1.3
			c-0.3-0.4-0.5-0.7-0.8-1c-1.1-1.4-2.3-2.7-3.4-4.1s-2.3-2.8-3.4-4.2c-1.1-1.4-2.2-2.8-3.3-4.2c-1.1-1.5-2.1-2.9-3.2-4.3
			s-2.2-2.8-3.2-4.3s-2.1-2.9-3.1-4.4c-1-1.4-2-2.9-3-4.4c-0.2-0.3-0.4-0.6-0.6-0.9c0-0.1,0-0.1,0-0.1c-0.7-1.2-1.5-2.3-2.3-3.5
			c-1-1.5-1.9-3-2.9-4.5c-0.5-0.7-0.9-1.5-1.4-2.2c0,0-1.3-2-1.5-2.4c-1-1.5-1.9-3.1-2.8-4.6c-0.9-1.6-1.8-3.1-2.7-4.7
			c-0.9-1.6-1.8-3.1-2.7-4.7s-1.7-3.2-2.6-4.8c-0.8-1.6-1.7-3.2-2.5-4.8c-0.9-1.6-1.7-3.2-2.5-4.8s-1.6-3.2-2.4-4.9
			c-0.8-1.7-1.6-3.3-2.3-4.9c-0.2-0.3-0.3-0.7-0.5-1l-0.5-1.1c-0.5-1-1-1.9-1.4-2.9c-0.7-1.6-1.5-3.3-2.2-4.9v-0.1
			c-0.8-1.6-1.5-3.3-2.2-5s-1.4-3.4-2.1-5.1s-1.4-3.4-2.1-5.1s-1.3-3.4-2-5.1c-0.7-1.7-1.4-3.5-2-5.2s-1.2-3.4-1.9-5.2
			s-1.3-3.5-1.9-5.3v-0.1c-0.6-1.7-1.2-3.5-1.8-5.2c-0.6-1.8-1.1-3.5-1.7-5.3s-1.1-3.6-1.7-5.4c-0.5-1.8-1.1-3.6-1.6-5.4
			c-0.6-1.8-1.1-3.6-1.6-5.4c-0.5-1.8-1-3.7-1.5-5.5s-1-3.6-1.5-5.5c-0.4-1.8-0.9-3.7-1.4-5.5c-0.5-1.9-0.9-3.7-1.4-5.6
			c-0.4-1.9-0.9-3.8-1.3-5.6c-0.4-1.7-0.8-3.3-1.2-5l-0.1-0.6c-0.5-1.8-0.9-3.7-1.3-5.6v-0.2c-0.4-1.8-0.8-3.6-1.2-5.4
			c-0.4-1.8-0.7-3.6-1.1-5.4v-0.2c-0.4-1.9-0.7-3.8-1.1-5.7s-0.7-3.8-1.1-5.7c-0.3-1.9-0.7-3.8-1-5.7c-0.4-1.9-0.7-3.7-1-5.6v-0.1
			c-0.3-1.9-0.6-3.9-0.9-5.8c-0.3-1.9-0.6-3.9-0.9-5.8c-0.3-2-0.6-3.9-0.9-5.9c-0.3-1.9-0.5-3.9-0.8-5.8c-0.2-1.8-0.5-3.5-0.7-5.3
			l-0.1-0.6c-0.2-1.4-0.3-2.7-0.5-4l-0.2-1.9c-0.3-2-0.5-4-0.7-5.9s-0.4-3.9-0.6-5.8v-0.1c-0.1-1.3-0.3-2.7-0.4-4l-0.2-2
			c-0.2-1.9-0.4-3.8-0.6-5.8c-0.2-1.9-0.3-3.9-0.5-5.9s-0.3-4-0.5-6c-0.1-2-0.3-4-0.4-6s-0.3-4-0.4-6c-0.2-2-0.3-4-0.4-6
			s-0.2-4-0.3-6c-0.1-2-0.2-4-0.3-6c-0.1-2-0.2-4-0.3-6c0-2-0.1-4-0.2-6v-0.4c-0.1-1.8-0.1-3.7-0.2-5.6c-0.1-2-0.2-4-0.2-6
			c0-1,0-2.1-0.1-3.1l-445.4-116.4c-31.4,26.6-63.5,49.3-95.9,67.8c0,0-35.3,17.6-40.1,20l-0.6,0.4h-0.1l-5.8,3l-5.8-3
			c-0.1,0-0.3-0.1-0.3-0.1l-0.5-0.3c-4.8-2.4-40.1-20-40.1-20c-32.3-18.4-64.1-40.8-95.1-67L617.6,783.1c0,0.6,0,1.3-0.1,1.9
			c-0.1,2-0.1,4-0.2,6c-0.1,1.9-0.1,3.7-0.2,5.6v0.4c0,2-0.1,4-0.2,6s-0.2,4-0.3,6s-0.2,4-0.3,6s-0.2,4-0.3,6s-0.3,4-0.4,6
			c-0.1,2-0.3,4-0.4,6c-0.1,2-0.2,4-0.4,6s-0.3,4-0.5,6c-0.1,1.9-0.3,3.9-0.5,5.9c-0.2,1.9-0.4,3.9-0.6,5.8l-0.2,2
			c-0.1,1.3-0.3,2.7-0.4,4v0.1c-0.2,1.9-0.4,3.9-0.6,5.8c-0.2,2-0.5,3.9-0.7,5.9l-0.2,1.9c-0.2,1.4-0.3,2.7-0.5,4l-0.1,0.6
			c-0.2,1.8-0.5,3.5-0.7,5.3c-0.3,1.9-0.5,3.9-0.8,5.8c-0.3,2-0.6,4-0.9,5.9c-0.3,1.9-0.6,3.9-0.9,5.8c-0.3,1.9-0.6,3.9-0.9,5.8v0.1
			c-0.4,1.9-0.7,3.7-1,5.6s-0.7,3.8-1,5.7c-0.4,1.9-0.7,3.8-1.1,5.7c-0.3,1.9-0.7,3.8-1.1,5.7v0.2c-0.4,1.8-0.7,3.6-1.1,5.4
			c-0.4,1.8-0.8,3.6-1.2,5.4v0.2c-0.5,1.9-0.9,3.7-1.3,5.6l-0.1,0.6c-0.4,1.7-0.8,3.3-1.2,5c-0.4,1.9-0.8,3.7-1.3,5.6
			c-0.5,1.9-0.9,3.7-1.4,5.6c-0.4,1.8-0.9,3.7-1.4,5.5c-0.5,1.9-1,3.7-1.5,5.5c-0.5,1.9-1,3.7-1.5,5.5s-1.1,3.6-1.6,5.4
			s-1,3.6-1.6,5.4c-0.6,1.8-1.1,3.6-1.7,5.4c-0.5,1.7-1.1,3.5-1.7,5.3c-0.6,1.7-1.2,3.5-1.8,5.2v0.1c-0.6,1.8-1.3,3.6-1.9,5.3
			s-1.2,3.5-1.9,5.2s-1.3,3.5-2,5.2c-0.6,1.7-1.3,3.4-2,5.1s-1.4,3.4-2.1,5.1c-0.7,1.7-1.4,3.4-2.1,5.1c-0.7,1.6-1.5,3.3-2.2,5v0.1
			c-0.7,1.6-1.4,3.3-2.2,4.9c-0.5,0.9-0.9,1.9-1.4,2.9l-0.5,1.1c-0.2,0.3-0.3,0.7-0.5,1c-0.7,1.6-1.5,3.3-2.3,4.9
			c-0.8,1.7-1.6,3.3-2.4,4.9c-0.8,1.6-1.7,3.2-2.5,4.8s-1.6,3.2-2.5,4.8c-0.9,1.6-1.7,3.2-2.6,4.8s-1.8,3.1-2.7,4.7
			s-1.8,3.2-2.7,4.7s-1.9,3.1-2.8,4.6c-0.3,0.5-1.5,2.4-1.5,2.4c-0.5,0.7-0.9,1.5-1.4,2.2c-0.9,1.5-1.9,3-2.9,4.5
			c-0.8,1.2-1.6,2.4-2.4,3.6c-0.2,0.2-0.4,0.5-0.6,0.8c-1,1.5-2,2.9-3,4.4s-2,3-3.1,4.4s-2.1,2.9-3.2,4.3c-1,1.5-2.1,2.9-3.2,4.3
			s-2.2,2.8-3.3,4.2c-1.2,1.5-2.3,2.8-3.4,4.2c-1.1,1.4-2.2,2.7-3.4,4.1c-0.2,0.3-0.5,0.7-0.8,1l-1.2,1.3c-0.5,0.6-1,1.1-1.5,1.7
			c-1.2,1.4-2.4,2.7-3.6,4c-0.1,0.1-0.1,0.1-0.2,0.2c-1.2,1.2-2.3,2.5-3.5,3.7c-1.2,1.3-2.4,2.6-3.7,3.9c-1.2,1.3-2.5,2.5-3.8,3.8
			c-1.2,1.2-2.5,2.5-3.8,3.7c-1.1,1-2.2,2.1-3.3,3.1l-0.6,0.5c-1.3,1.2-2.7,2.4-4,3.6c-1.4,1.2-2.7,2.3-4.1,3.5
			c-0.3,0.2-0.5,0.5-0.8,0.7l-2.6,2.2l-2.5,2.1c-0.9,0.7-1.7,1.4-2.5,2c-0.1,0.1-0.3,0.2-0.4,0.3c-1.2,1-2.5,2-3.8,3
			c-1.4,1.1-2.8,2.2-4.3,3.3s-2.9,2.1-4.4,3.2c-1.5,1-3,2.1-4.5,3.1c-1.5,1.1-3.1,2.1-4.6,3.1c-1.6,1-3.1,2-4.7,3s-3.1,1.9-4.7,2.9
			s-3.2,2-4.8,2.9c-1.7,1-3.3,1.9-4.9,2.8s-3.2,1.8-4.9,2.7s-3.3,1.7-5,2.6c-1.7,0.8-3.4,1.7-5.1,2.5c-1.7,0.9-3.5,1.7-5.2,2.5
			s-3.4,1.6-5.2,2.4s-3.6,1.5-5.4,2.3c-1.8,0.7-3.6,1.5-5.4,2.2c-1.8,0.8-3.7,1.5-5.5,2.2c-3.4,1.3-6.2,2.3-8.8,3.1
			c-0.4,0.2-0.8,0.3-1.2,0.4c-0.7,0.2-1.3,0.4-2,0.6c-0.9,0.3-1.4,0.4-2,0.6c-0.9,0.3-1.2,0.4-2.2,0.6c-0.2,0-0.5,0.1-0.8,0.1
			c0,0,0,0-0.3,0.4c-0.1,0-0.1,0-0.1,0c-0.2,0-0.7,0.1-0.9,0.1c-0.3-0.1-0.4-0.5-0.4-0.7L366.7,1231.3z"/>
		<path class="st2" d="M1251.4,733.1c0,0-0.1,0-0.2,0.1l0,0c0,0-33,16.5-39.5,19.7c-0.1,0.1-0.3,0.1-0.4,0.2l-0.4,0.2l0,0l-0.2,0.1
			h-0.1l-5.4,2.7l0,0l-0.2,0.1l-0.1-0.1l-0.4,0.2l-5.7-2.9h-0.1l-0.5-0.3c-4.8-2.4-40.1-20-40.1-20c-32.1-18.3-63.7-40.6-94.7-66.7
			l-0.4,0.1c31,26.2,62.8,48.6,95.1,67c0,0,35.3,17.6,40.1,20l0.5,0.3c0,0,0.2,0.1,0.3,0.1l5.8,3l5.8-3h0.1l0.6-0.4
			c4.8-2.4,40.1-20,40.1-20c32.4-18.5,64.5-41.2,95.9-67.8l-0.3-0.1C1315.8,692,1283.9,714.6,1251.4,733.1z"/>
		<path class="st2" d="M617.6,783.1L617.6,783.1L1063,666.5l0,0L617.6,783.1z"/>
		<path class="st2" d="M1063.4,666.4l-0.4,0.1l0,0L1063.4,666.4L1063.4,666.4z"/>
		<path class="st2" d="M1211.3,753.1c0.1-0.1,0.2-0.1,0.4-0.2c-0.2,0.1-0.4,0.2-0.6,0.3l-0.2,0.1l0,0L1211.3,753.1z"/>
		<rect x="1207.9" y="751.7" class="st2" width="0" height="6"/>
		<path class="st2" d="M1347.1,665.6L1347.1,665.6c-31.4,26.4-63.4,49.1-95.9,67.6c0.1-0.1,0.2-0.1,0.2-0.1
			C1283.9,714.6,1315.8,692,1347.1,665.6z"/>
		<path class="st2" d="M585.2,447.1c0.2,1.2,0.5,2.4,0.7,3.6l1.2,6.4c0.4,1.7,0.7,3.4,1,5.1c0.2,1.5,0.5,3.1,0.8,4.6l1,5.6
			c0.2,1.2,0.4,2.3,0.6,3.5l0.3,1.9c0.3,1.7,0.6,3.4,0.9,5.1c0.3,1.7,0.6,3.4,0.9,5.2l0.9,5.3l1,5.8c0.3,1.6,0.5,3.3,0.8,4.9
			c0.3,1.8,0.6,3.6,0.9,5.4c0.3,1.8,0.6,3.6,0.9,5.4c0.3,1.7,0.6,3.6,0.9,5.4l0.8,5.5l0.8,5.5c0.3,1.6,0.5,3.2,0.7,4.9L884,461.9
			c-5.1-7.6-10.2-15.3-15.2-23.1c-13-20.2-25.3-40.3-36.9-60.6l-247.5,64.7L585.2,447.1z"/>
		<path class="st2" d="M884,461.9l0.4-0.1c-5.2-7.6-10.3-15.4-15.3-23.2c-11.4-17.7-23.9-37.9-36.9-60.5l-0.3,0.1
			c11.7,20.3,23.9,40.4,36.9,60.6C873.8,446.6,878.9,454.3,884,461.9z"/>
		<path class="st2" d="M1540.6,438.8c-4.8,7.4-9.6,14.7-14.5,22l284.1,74.3c0.2-1.2,0.3-2.4,0.5-3.6l0.8-5.5l0.8-5.5
			c0.3-1.8,0.6-3.6,0.9-5.4c0.3-1.8,0.6-3.6,0.9-5.4s0.6-3.6,0.9-5.4c0.2-1.6,0.5-3.3,0.8-4.9l1-5.8l0.9-5.3
			c0.3-1.7,0.6-3.5,0.9-5.2s0.6-3.4,0.9-5.1l0.3-1.9c0.2-1.2,0.4-2.4,0.6-3.5l1-5.6c0.2-1.6,0.5-3.1,0.8-4.6c0.4-1.7,0.7-3.4,1-5.1
			l1.2-6.4c0.2-1.2,0.5-2.4,0.7-3.6l1-4.9v-0.2L1578,377.3C1566.2,397.9,1553.8,418.3,1540.6,438.8z"/>
		<path class="st2" d="M1525.8,460.7l0.3,0.1c4.9-7.2,9.7-14.5,14.5-22c13.2-20.5,25.6-40.9,37.5-61.5l-0.4-0.1
			c-11.7,20.6-24.2,41-37.4,61.5C1535.5,446.2,1530.7,453.5,1525.8,460.7z"/>
		<path class="st2" d="M1810.2,535.1l-284.1-74.3c-0.1,0.1-0.1,0.2-0.2,0.2l284.2,74.4C1810.1,535.3,1810.1,535.2,1810.2,535.1z"/>
		<path class="st2" d="M1525.8,460.7c4.9-7.2,9.7-14.5,14.5-22c13.2-20.5,25.7-40.9,37.4-61.5h-0.1c-11.8,20.6-24.3,41.1-37.6,61.7
			c-4.8,7.4-9.6,14.7-14.5,22l0.4,0.1c0.1-0.1,0.1-0.2,0.2-0.2L1525.8,460.7z"/>
	</g>
	<path id="Inside" class="st3" d="M1185.3,681.4l12.8,6.4l3.9,1.9l2.3,1l2.3-1l16.6-8.3c50.1-28.9,99.4-68.8,146.5-118.6
		c42-44.4,82.6-96.9,120.7-156c24.3-37.5,45.6-74.5,65.4-113l0.2-0.4c2.6-4.8,5.3-10,8.1-15.7c0.3-0.6,0.5-1.1,0.8-1.7
		s0.6-1.2,0.9-1.8l1.7-3.4l1.6-3.3l1.5-3.2l2.2-4.6l2.7-5.6l1.2-2.6l2.1-4.5l0.4-0.8c0.9-1.8,1.7-3.7,2.6-5.6c0.3-0.7,0.7-1.5,1-2.2
		c6.4-15,12.3-29.6,17.5-43.9c0.2-0.6,0.4-1.3,0.5-2c0.3-1.2,0.6-2.5,0.9-3.7l0.1-0.4l0.1-0.5c0.1,0,0.1-0.1,0.2-0.4
		c0-0.1,0-0.3,0-0.4c-3.1,0.4-5.9,0.7-5.9,0.7l-5.4,0.7l-7.8,0.9l-9.4,1.1l-11.5,1.3l-8.5,1c-4.3,0.5-8.8,1-13.5,1.5
		c-0.1,0-6.3,0.7-9.6,1l-10.4,1.1l-10.9,1.1l-11.3,1.2l-11.8,1.2l-6.2,0.6c-4,0.4-8.1,0.8-12.2,1.2l-6.1,0.6l-6.2,0.6l-13,1.2
		l-13.2,1.2l-6.7,0.6l-20.7,1.8l-7.2,0.6c-2.3,0.2-4.5,0.3-6.8,0.5s-4.5,0.3-6.8,0.5c-0.1,0-4.6,0.3-6.8,0.5c0,0-4.9,0.4-7,0.5
		c0,0-4.9,0.4-7,0.5c0,0-4.9,0.4-7,0.5c0,0-5.1,0.4-7.1,0.5c0,0-5,0.3-7.1,0.4c0,0-5.1,0.3-7.1,0.4c0,0-5.1,0.3-7.2,0.4
		c0,0-5,0.3-7.1,0.4l-7.6,0.4l-13.6,0.6h-0.2c-2.1,0.1-4.3,0.2-6.5,0.3l-7.6,0.3c-2,0-3.9,0.1-5.9,0.2h-0.3h-0.8c-1,0-2,0.1-3,0.1
		s-2,0-3,0.1h-0.9c-2,0.1-6.9,0.2-6.9,0.2c-1.9,0.1-6.8,0.2-6.8,0.2c-2,0.1-6.8,0.2-6.8,0.2c-1,0-1.9,0-2.9,0c-1,0.1-2,0.1-3,0.1
		h-0.8c-1,0-2,0.1-3,0.1s-2,0-2.9,0h-0.7c-2,0.1-3.9,0.1-5.9,0.1h-47.8c-1,0-1.9,0-2.9,0c-1-0.1-2-0.1-3-0.1h-0.7c-1,0-2,0-3,0
		c-0.9,0-1.9,0-2.9,0h-0.8c-1,0-2-0.1-3-0.1c-0.9,0-1.9,0-2.9,0h-0.9c-2,0-3.9,0-5.9-0.1h-0.9c-1.1-0.1-2-0.1-3-0.1s-2,0-3-0.1
		l-7.8-0.2c-1-0.1-2-0.1-3-0.1c-1.1,0-2.1,0-3.1-0.1h-0.8c-2,0-3.9-0.1-5.9-0.2h-0.3c0,0-4.9-0.2-7.1-0.3l-7.2-0.3l-13.5-0.6
		c0,0-4.8-0.3-7-0.4c0,0-4.9-0.3-7-0.4c0,0-4.9-0.3-7-0.4c0,0-5-0.3-7.1-0.4c0,0-5-0.3-7.1-0.4c-0.1,0-5.1-0.4-7.1-0.5
		c-0.1,0-5-0.4-7.1-0.5c0,0-5-0.3-7.2-0.5c0,0-4.9-0.3-7-0.5l-8.1-0.5c-4.3-0.3-8.6-0.6-12.9-1l-13.6-1l-6.8-0.6l-6.6-0.6l-6.8-0.6
		l-6.6-0.6l-6.7-0.6l-6.6-0.6l-19.5-1.8l-12.2-1.2l-11.7-1.2l-5.8-0.6l-11.3-1.2l-11-1.1l-10.4-1.1l-10-1.1c-5.1-0.5-9.4-1-13.4-1.5
		l-4.3-0.5l-11.6-1.3l-10.5-1.2c-1.7-0.2-3.3-0.4-4.8-0.6c-2.2-0.2-4.2-0.5-6-0.7l-5.4-0.7c0,0-3.2-0.4-6.6-0.8c0,0,0,0.1,0,0.2
		c0.1,0.2,0.1,0.4,0.2,0.6V188c7.6,21.7,16.7,44.3,27.1,67.5c-0.2-0.4-0.4-0.8-0.6-1.2l-0.5-1.1c0.2,0.5,0.4,0.9,0.6,1.4
		c0.1,0.2,0.2,0.4,0.3,0.6c0.5,1,1,2,1.5,3.1c0.3,0.6,0.5,1.2,0.8,1.7c0.3,0.6,0.5,1.1,0.8,1.7l2.5,5.1c1.7,3.5,3.5,7,5.4,10.8
		c2.7,5.3,5.4,10.7,8.1,15.9l0.1,0.4c19.7,38.5,41.1,75.4,65.3,112.9c35.8,55.5,73.6,104.9,112.5,147.2c0.2,0.3,0.5,0.5,0.7,0.8
		c2.5,2.7,5,5.4,7.5,8.1C1085.9,612.6,1135.2,652.5,1185.3,681.4z"/>
</g>
</svg>
