<?xml version="1.0" encoding="utf-8"?>
<!-- Generator: Adobe Illustrator 27.0.0, SVG Export Plug-In . SVG Version: 6.00 Build 0)  -->
<svg version="1.1" id="Layer_1" xmlns="http://www.w3.org/2000/svg" xmlns:xlink="http://www.w3.org/1999/xlink" x="0px" y="0px"
	 viewBox="0 0 4476.9 2794.7" style="enable-background:new 0 0 4476.9 2794.7;" xml:space="preserve">
<style type="text/css">
	.st0{fill:#F4F4F4;}
	.st1{fill:#1E223C;}
	.st2{fill:#90AEE2;}
</style>
<g id="Shorts">
	<g id="Color_3_00000150822498131090025920000001669039961693649080_">
		<g>
			<path class="st0" d="M632.5,2099.4l-333.7,146.5c21.3,3.9,47,8.5,76.1,13.6l339.2-148.9C686.3,2107,659,2103.2,632.5,2099.4z"/>
			<path class="st0" d="M317.6,2047.6l-81.4,35.7c-0.9,15.9-1.8,31.9-2.7,48.1l159.8-70.1C363.3,2056,337.8,2051.3,317.6,2047.6z"/>
			<path class="st0" d="M1714.1,2110.6l339,148.8c29.1-5,54.8-9.6,76.2-13.6l-333.6-146.4C1769.1,2103.2,1741.9,2107,1714.1,2110.6z
				"/>
			<path class="st0" d="M2034.9,2061.3l159.6,70.1c-0.9-16.2-1.8-32.2-2.7-48.1l-81.2-35.7C2090.4,2051.3,2064.8,2056,2034.9,2061.3
				z"/>
		</g>
		<g>
			<path class="st0" d="M3844.4,2099.4l333.7,146.5c-21.3,3.9-47,8.5-76.1,13.6l-339.2-148.9
				C3790.6,2107,3817.9,2103.2,3844.4,2099.4z"/>
			<path class="st0" d="M4159.3,2047.6l81.4,35.7c0.9,15.9,1.8,31.9,2.7,48.1l-159.8-70.1C4113.6,2056,4139.2,2051.3,4159.3,2047.6z
				"/>
			<path class="st0" d="M2762.8,2110.6l-339,148.8c-29.1-5-54.8-9.6-76.2-13.6l333.6-146.4C2707.8,2103.2,2735.1,2107,2762.8,2110.6
				z"/>
			<path class="st0" d="M2442.1,2061.3l-159.6,70.1c0.9-16.2,1.8-32.2,2.7-48.1l81.2-35.7C2386.6,2051.3,2412.1,2056,2442.1,2061.3z
				"/>
		</g>
	</g>
	<g id="Color_2_00000183234179659376108260000001934256543722589332_">
		<path class="st1" d="M393.3,2061.3l-159.8,70.1c-0.3,6.5-0.7,12.9-1,19.4l191.8-84.2C413.5,2064.8,403.2,2063,393.3,2061.3z"/>
		<path class="st1" d="M1172.3,2146.5c-140,0-306.5-16.1-458.2-35.9l-339.2,148.9c193.8,33.6,541.9,86.6,806,85.4
			c0,0,3.5-65.7,5.3-132.1c0.6-22,1-44,1-63.7c0-0.9,0-1.7,0-2.6h-7.2C1177.4,2146.5,1174.9,2146.5,1172.3,2146.5z"/>
		<path class="st1" d="M267.7,2038l-1.2-0.2c-9.2-1.8-18.2-3.5-27.2-5.3c-1.1,16.8-2.1,33.7-3.1,50.8l81.4-35.7
			C286.7,2041.8,268.7,2038.2,267.7,2038z"/>
		<path class="st1" d="M600,2094.7l-331.6,145.6c8.8,1.7,19,3.6,30.4,5.7l333.7-146.5C621.5,2097.9,610.7,2096.3,600,2094.7z"/>
		<path class="st1" d="M2003.9,2066.6l191.6,84.1c-0.3-6.5-0.7-13-1-19.4l-159.6-70.1C2025,2063,2014.6,2064.8,2003.9,2066.6z"/>
		<path class="st1" d="M1795.8,2099.4l333.6,146.4c11.4-2.1,21.6-4,30.4-5.6l-331.5-145.5
			C1817.5,2096.3,1806.6,2097.9,1795.8,2099.4z"/>
		<path class="st1" d="M2160.4,2038c-1,0.2-19,3.8-49.9,9.6l81.2,35.7c-1-17.1-2-34-3.1-50.7c-8.9,1.7-17.9,3.5-27.1,5.2
			L2160.4,2038z"/>
		<path class="st1" d="M1255.9,2146.5c-2.6,0-5.1,0-7.7,0h-7.4c0,0.9,0,1.8,0,2.7c-0.1,19.8,0.1,41.9,0.5,64
			c1,66.2,3.2,131.8,3.2,131.8c264.3,1.2,614.2-51.9,808.6-85.5l-339-148.8C1562.3,2130.4,1395.8,2146.5,1255.9,2146.5z"/>
		<path class="st1" d="M4083.6,2061.3l159.8,70.1c0.3,6.5,0.7,12.9,1,19.4l-191.8-84.2C4063.4,2064.8,4073.8,2063,4083.6,2061.3z"/>
		<path class="st1" d="M3304.6,2146.5c140,0,306.5-16.1,458.2-35.9l339.2,148.9c-193.8,33.6-541.9,86.6-806,85.4
			c0,0-3.5-65.7-5.3-132.1c-0.6-22-1-44-1-63.7c0-0.9,0-1.7,0-2.6h7.2C3299.6,2146.5,3302.1,2146.5,3304.6,2146.5z"/>
		<path class="st1" d="M4209.2,2038l1.2-0.2c9.2-1.8,18.2-3.5,27.2-5.3c1.1,16.8,2.1,33.7,3.1,50.8l-81.4-35.7
			C4190.2,2041.8,4208.2,2038.2,4209.2,2038z"/>
		<path class="st1" d="M3876.9,2094.7l331.6,145.6c-8.8,1.7-19,3.6-30.4,5.7l-333.7-146.6
			C3855.4,2097.9,3866.2,2096.3,3876.9,2094.7z"/>
		<path class="st1" d="M2473.1,2066.6l-191.6,84.1c0.3-6.5,0.7-13,1-19.4l159.6-70.1C2451.9,2063,2462.3,2064.8,2473.1,2066.6z"/>
		<path class="st1" d="M2681.2,2099.4l-333.6,146.5c-11.4-2.1-21.6-4-30.4-5.6l331.5-145.5
			C2659.4,2096.3,2670.3,2097.9,2681.2,2099.4z"/>
		<path class="st1" d="M2316.6,2038c1,0.2,19,3.8,49.9,9.6l-81.2,35.7c1-17.1,2-34,3.1-50.7c8.9,1.7,17.9,3.5,27.1,5.2L2316.6,2038z
			"/>
		<path class="st1" d="M3221.1,2146.5c2.6,0,5.1,0,7.7,0h7.4c0,0.9,0,1.8,0,2.7c0.1,19.8-0.1,41.9-0.5,64
			c-1,66.2-3.2,131.8-3.2,131.8c-264.3,1.2-614.2-51.9-808.6-85.5l339-148.8C2914.6,2130.4,3081.1,2146.5,3221.1,2146.5z"/>
	</g>
	<g id="Color_1_00000002350443186325080370000009125608690968890297_">
		<path class="st2" d="M2195.6,2150.8l-191.6-84.1c10.8-1.8,21.1-3.6,31-5.4c30-5.3,55.5-9.9,75.7-13.7c31-5.8,48.9-9.4,49.9-9.6
			l1.2-0.2c9.1-1.8,18.1-3.5,27.1-5.2c-66-1042.8-245.6-1437.7-245.6-1437.7c5.2-73.1-2.9-120.2-6.9-137.7c-1-4.5-5-7.6-9.6-7.4
			c-58.5,1.9-116.4,3.5-174,4.6c-20.7,0.4-41.3,0.8-61.9,1.1c-12.4,0.2-24.8,0.4-37.1,0.6c-149.2,2.2-296.7,2.4-446.1,2.4
			c-145.6,0-288-0.4-433.1-2.5c-12.4-0.2-24.7-0.4-37.1-0.6c-20.6-0.3-41.2-0.7-61.9-1.1c-57.9-1.2-116.4-2.7-175.9-4.6
			c-3.6-0.1-6.7,2.3-7.5,5.8c-3.7,16-12.6,63.8-7.2,139.4c0,0-179.6,394.9-245.5,1437.7c9,1.7,18,3.5,27.2,5.3l1.2,0.2
			c1,0.2,19,3.8,49.9,9.6c20.1,3.7,45.7,8.4,75.7,13.7c9.9,1.7,20.2,3.5,31,5.4L232.7,2151c-1.4,26.8-2.7,54.1-4,81.7
			c0,0,14.3,2.9,39.9,7.7l331.6-145.6c10.7,1.6,21.5,3.2,32.5,4.7c26.5,3.8,53.8,7.5,81.6,11.2c151.8,19.8,318.2,35.9,458.2,35.9
			c2.6,0,5.1,0,7.7,0h7.2c0-5.9,0-11.5-0.1-16.9c-0.1-6.4-0.1-12.8-0.1-19.2c0-17.2,0.4-34.3,0.7-51.4c0.7-34.3,1.8-68.6,3.1-102.9
			c1.4-36.2,3-72.4,5.2-108.6c1.8-29.2,3.7-58.4,7-87.5c1-8.6,1.9-24.3,3.6-32.8c0.7-3.7,1.7-8,7.5-8c3.4,0,6.5,1.7,7.3,4.4
			c2.2,7.4,2.5,17.3,3.5,25c3.6,27,4.4,55.5,6.1,82.6c2.3,35.5,4,71.1,5.5,106.7c1.4,35.1,2.6,70.3,3.4,105.5
			c0.5,22.4,1,44.8,1.1,67.2c0,3.5,0,7,0,10.6c0,2.9,0,5.7-0.1,8.6c-0.1,5.4-0.1,11-0.2,16.9h7.4c2.6,0,5.1,0,7.7,0
			c140,0,306.5-16.1,458.2-35.9c27.8-3.6,55-7.4,81.6-11.2c11-1.6,21.8-3.1,32.5-4.7l331.5,145.5c25.5-4.8,39.8-7.7,39.8-7.7
			C2198.2,2204.9,2196.9,2177.6,2195.6,2150.8z"/>
		<path class="st2" d="M2281.4,2150.8l191.6-84.1c-10.8-1.8-21.1-3.6-31-5.4c-30-5.3-55.5-9.9-75.7-13.7c-31-5.8-48.9-9.4-49.9-9.6
			l-1.2-0.2c-9.1-1.8-18.1-3.5-27.1-5.2c65.9-1042.8,245.5-1437.7,245.5-1437.7c-5.2-73.1,2.9-120.2,6.9-137.7c1-4.5,5-7.6,9.6-7.4
			c58.5,1.9,116.4,3.5,174,4.6c20.7,0.4,41.3,0.8,61.9,1.1c12.4,0.2,24.8,0.4,37.1,0.6c149.2,2.2,296.7,2.4,446.1,2.4
			c145.6,0,288-0.4,433.1-2.5c12.4-0.2,24.7-0.4,37.1-0.6c20.6-0.3,41.2-0.7,61.9-1.1c57.9-1.2,116.4-2.7,175.9-4.6
			c3.6-0.1,6.7,2.3,7.5,5.8c3.7,16,12.6,63.8,7.2,139.4c0,0,179.6,394.9,245.5,1437.7c-9,1.7-18,3.5-27.2,5.3l-1.2,0.2
			c-1,0.2-19,3.8-49.9,9.6c-20.1,3.7-45.7,8.4-75.7,13.7c-9.9,1.7-20.2,3.5-31,5.4l191.8,84.2c1.4,26.8,2.7,54.1,4,81.7
			c0,0-14.3,2.9-39.9,7.7l-331.6-145.6c-10.7,1.6-21.5,3.2-32.5,4.7c-26.5,3.8-53.8,7.5-81.6,11.2
			c-151.8,19.8-318.2,35.9-458.2,35.9c-2.6,0-5.1,0-7.7,0h-7.2c0-5.9,0-11.5,0.1-16.9c0.1-6.4,0.1-12.8,0.1-19.2
			c0-17.2-0.4-34.3-0.7-51.4c-0.7-34.3-1.8-68.6-3.1-102.9c-1.4-36.2-3-72.4-5.2-108.6c-1.8-29.2-3.7-58.4-7-87.5
			c-1-8.6-1.9-24.3-3.6-32.8c-0.7-3.7-1.7-8-7.5-8c-3.4,0-6.5,1.7-7.3,4.4c-2.2,7.4-2.5,17.3-3.5,25c-3.6,27-4.4,55.5-6.1,82.6
			c-2.3,35.5-4,71.1-5.5,106.7c-1.4,35.1-2.6,70.3-3.4,105.5c-0.5,22.4-1,44.8-1.1,67.2c0,3.5,0,7,0,10.6c0,2.9,0,5.7,0.1,8.6
			c0.1,5.4,0.1,11,0.2,16.9h-7.4c-2.6,0-5.1,0-7.7,0c-140,0-306.5-16.1-458.2-35.9c-27.8-3.6-55-7.4-81.6-11.2
			c-11-1.6-21.8-3.1-32.5-4.7l-331.5,145.5c-25.5-4.8-39.8-7.7-39.8-7.7C2278.8,2204.9,2280.1,2177.6,2281.4,2150.8z"/>
	</g>
</g>
</svg>
